/* XPM */
static char *Black11668167182[] = {
/* columns rows colors chars-per-pixel */
"64 64 256 2 ",
"   c black",
".  c #0000A8",
"X  c #00A800",
"o  c #00A8A8",
"O  c #A80000",
"+  c #A800A8",
"@  c #A85400",
"#  c gray66",
"$  c gray33",
"%  c #5454FC",
"&  c #54FC54",
"*  c #54FCFC",
"=  c #FC5454",
"-  c #FC54FC",
";  c #FCFC54",
":  c gray99",
">  c #ECECEC",
",  c gainsboro",
"<  c #D0D0D0",
"1  c #C0C0C0",
"2  c #B4B4B4",
"3  c gray66",
"4  c #989898",
"5  c gray55",
"6  c #7C7C7C",
"7  c gray44",
"8  c #646464",
"9  c gray33",
"0  c #484848",
"q  c gray22",
"w  c #2C2C2C",
"e  c #202020",
"r  c #FC0000",
"t  c #EC0000",
"y  c #E00000",
"u  c #D40000",
"i  c #C80000",
"p  c #BC0000",
"a  c #B00000",
"s  c #A40000",
"d  c #980000",
"f  c #880000",
"g  c #7C0000",
"h  c #700000",
"j  c #640000",
"k  c #580000",
"l  c #4C0000",
"z  c #400000",
"x  c #FCD8D8",
"c  c #FCB8B8",
"v  c #FC9C9C",
"b  c #FC7C7C",
"n  c #FC5C5C",
"m  c #FC4040",
"M  c #FC2020",
"N  c #FC0000",
"B  c #FCA85C",
"V  c #FC9840",
"C  c #FC8820",
"Z  c #FC7800",
"A  c #E46C00",
"S  c #CC6000",
"D  c #B45400",
"F  c #9C4C00",
"G  c #FCFCD8",
"H  c #FCFCB8",
"J  c #FCFC9C",
"K  c #FCFC7C",
"L  c #FCF85C",
"P  c #FCF440",
"I  c #FCF420",
"U  c #FCF400",
"Y  c #E4D800",
"T  c #CCC400",
"R  c #B4AC00",
"E  c #9C9C00",
"W  c #848400",
"Q  c #706C00",
"!  c #585400",
"~  c #404000",
"^  c #D0FC5C",
"/  c #C4FC40",
"(  c #B4FC20",
")  c #A0FC00",
"_  c #90E400",
"`  c #80CC00",
"'  c #74B400",
"]  c #609C00",
"[  c #D8FCD8",
"{  c #BCFCB8",
"}  c #9CFC9C",
"|  c #80FC7C",
" . c #60FC5C",
".. c #40FC40",
"X. c #20FC20",
"o. c #00FC00",
"O. c #00FC00",
"+. c #00EC00",
"@. c #00E000",
"#. c #00D400",
"$. c #04C800",
"%. c #04BC00",
"&. c #04B000",
"*. c #04A400",
"=. c #049800",
"-. c #048800",
";. c #047C00",
":. c #047000",
">. c #046400",
",. c #045800",
"<. c #044C00",
"1. c #044000",
"2. c #D8FCFC",
"3. c #B8FCFC",
"4. c #9CFCFC",
"5. c #7CFCF8",
"6. c #5CFCFC",
"7. c #40FCFC",
"8. c #20FCFC",
"9. c #00FCFC",
"0. c #00E4E4",
"q. c #00CCCC",
"w. c #00B4B4",
"e. c #009C9C",
"r. c #008484",
"t. c #007070",
"y. c #005858",
"u. c #004040",
"i. c #5CBCFC",
"p. c #40B0FC",
"a. c #20A8FC",
"s. c #009CFC",
"d. c #008CE4",
"f. c #007CCC",
"g. c #006CB4",
"h. c #005C9C",
"j. c #D8D8FC",
"k. c #B8BCFC",
"l. c #9C9CFC",
"z. c #7C80FC",
"x. c #5C60FC",
"c. c #4040FC",
"v. c #2024FC",
"b. c #0004FC",
"n. c #0000FC",
"m. c #0000EC",
"M. c #0000E0",
"N. c #0000D4",
"B. c #0000C8",
"V. c #0000BC",
"C. c #0000B0",
"Z. c #0000A4",
"A. c #000098",
"S. c #000088",
"D. c #00007C",
"F. c #000070",
"G. c #000064",
"H. c #000058",
"J. c #00004C",
"K. c #000040",
"L. c #282828",
"P. c #FCE034",
"I. c #FCD424",
"U. c #FCCC18",
"Y. c #FCC008",
"T. c #FCB400",
"R. c #B420FC",
"E. c #A800FC",
"W. c #9800E4",
"Q. c #8000CC",
"!. c #7400B4",
"~. c #60009C",
"^. c #500084",
"/. c #440070",
"(. c #340058",
"). c #280040",
"_. c #FCD8FC",
"`. c #FCB8FC",
"'. c #FC9CFC",
"]. c #FC7CFC",
"[. c #FC5CFC",
"{. c #FC40FC",
"}. c #FC20FC",
"|. c #FC00FC",
" X c #E000E4",
".X c #C800CC",
"XX c #B400B4",
"oX c #9C009C",
"OX c #840084",
"+X c #6C0070",
"@X c #580058",
"#X c #400040",
"$X c #FCE8DC",
"%X c #FCE0D0",
"&X c #FCD8C4",
"*X c #FCD4BC",
"=X c #FCCCB0",
"-X c #FCC4A4",
";X c #FCBC9C",
":X c #FCB890",
">X c #FCB080",
",X c #FCA470",
"<X c #FC9C60",
"1X c #F0945C",
"2X c #E88C58",
"3X c #DC8854",
"4X c #D08050",
"5X c #C87C4C",
"6X c #BC7848",
"7X c #B47044",
"8X c #A86840",
"9X c #A0643C",
"0X c #9C6038",
"qX c #905C34",
"wX c #885830",
"eX c #80502C",
"rX c #744C28",
"tX c #6C4824",
"yX c #5C4020",
"uX c #543C1C",
"iX c #483818",
"pX c #403018",
"aX c #382C14",
"sX c #28200C",
"dX c #600064",
"fX c #006464",
"gX c #006060",
"hX c #00001C",
"jX c #00002C",
"kX c #302410",
"lX c #480048",
"zX c #500050",
"xX c #000034",
"cX c gray11",
"vX c #4C4C4C",
"bX c gray36",
"nX c gray25",
"mX c gray19",
"MX c #343434",
"NX c #D8F4F4",
"BX c #B8E8E8",
"VX c #9CDCDC",
"CX c #74C8C8",
"ZX c #48C0C0",
"AX c #20B4B4",
"SX c #20B0B0",
"DX c #00A4A4",
"FX c #009898",
"GX c #008C8C",
"HX c #008484",
"JX c #007C7C",
"KX c #007878",
"LX c #007474",
"PX c #007070",
"IX c #006C6C",
"UX c #980088",
/* pixels */
"nXnXnXnXnX0 0 vXvX0 0 L.  q q 0 vXvXnXvX0 vXvXvXvXvX0 vXvXvXq L.  nXq vX0 vXvXvXvX0 vX0 0 nXnXL.  nX0 nXvX0 mX  L.q q 0 nXvX0 q ",
"q q nXnXnX0 vXnX0 0 q e   e q 0 nXq q nXnX0 vX0 0 0 vXvXvXq mXcX  q nXvXvX0 vXvX0 q q q q 0 q e   q q nXvXnXmX  cXq mXq nXvXnXq ",
"nXq q nXnXq q q q 0 q q   mXnXvXvXnX0 nXq nXnXvXvXvXvXvX0 q mXcX  q nXvXvXvXnX0 q q nXvXvXvXq mX  q nXvX0 q mX  q 0 q q 0 nXmXmX",
"nXq q q nX0 q q mXq q mX  mXq 0 0 q 0 0 nX0 nX0 0 0 nXq mXmXq mX  q 0 0 nXnXnXnXq 0 nXnXq 0 q q   q nXvXnX0 mX  mXnXnX0 vXq q mX",
"q q q nXq q L.q q q q L.  q q nXnX0 0 0 0 0 nXq q q L.mXq q 0 q   nX0 vXvXnXq q nX0 vX0 0 0 L.mX  mXq nXnXnXq   L.q q nXnXq q L.",
"q L.mXL.mXL.mXnXq q L.L.  q q vX0 0 0 vX0 vXnXq nXq nX0 vXvX0 mX  q nX0 q q 0 0 0 0 0 nXq q mXmX  q nXnX0 q mX  L.mXq q q L.cXL.",
"mXmXL.mXmXq q nXq q cXmX  L.q q q q q nXq 0 nX0 0 0 0 0 0 q q e   q q q q nXnXq mXq q q q mXL.L.  cXnXmXq mXL.  cXcXmXmXL.L.mXmX",
"q q L.q q 0 nX0 q q L.mX  e q q q mXL.q q q q q q mXmXq mXmXq cX  L.e mXmXmXL.L.L.mXq L.L.mXq L.  cXL.mXmXL.cX  cXL.L.L.q mXq mX",
"nXq q q nXnXq nXmXq L.mX                                                                                        L.mXL.mXq q q mX",
"q q q q q q q nXmXq mXmX    q q q q q q q q q q q q q q q q q q q q q q q q q q q q q q q q q q q q q q q       cXmXmXq q q q mX",
"0 q q q 0 q q q q q e e     q 4 8 q q q q q 4 8 q q q q q 4 8 q q q q q 4 8 q q q q q 4 8 q q q q q 4 $ q       L.q q q q q q q ",
"q q q q q mXq q mXmXL.mX    q $ cXq q q q mX8 cXq q q q mX8 cXq q q q mX8 cXq q q q mX8 cXq q q q q $ cXq       L.q q 0 q q q mX",
"mXq q q mXmXmXq mXL.L.mX    q q q q q q q q q q q q q q q q q q q q q q q q q q q q q q q q q q q q q q q       L.q q nXmXq mXe ",
"L.e L.e L.L.e mXL.cXcXmX    q q q q q q q q q q q q q q q q q q q q q q q q q q q q q q q q q q q q q q mX      L.mXq L.cXcXcXe ",
"L.L.cXL.L.cXL.L.e cXL.e     q q q q q q q q q q q                                     q q q q q q mXmXmXmX      L.e e cXcXe e q ",
"                            mXmXmXmXq q q q q q q   q q q q q q q q q q q q q q q q   q mXmXmXmXmXmXmXmXmX                      ",
"q q q q q q q mXq q q q e   mXmXmXmXmXmXmXmXmXmXmX  q       q q         q mX      mX  mXmXmXmXmXmXmXmXmXmX  L.mXq q mXq L.L.L.mX",
"q q q q q q q q q mXmXq mX  mXmXmXmXmXmXmXmXmXmXmX  mX      8 mX        8 mX      mX  mXmXmXmXmXmXmXmXmXmX  mXq q q q q L.q q mX",
"nXq q q nXq q q q q nXq mX  mX5 $ mXmXmXmXmXmXmXmX  mX      8 mX        8 mX      mX  mXmXmXmXmXmXmX5 $ mX  L.q q q q q mXq mXq ",
"q mXq mXq q q q q q q L.L.  mX$ cXmXmXmXmXmXmXmXmX  mX      8 mX        8 mX      mX  mXmXmXmXmXmXmX$ cXmX  L.q mXq q q q q q q ",
"q q q q q q q q q mXmXcXL.  mXmXmXmXmXmXmXmXmXmXmX  mX      8 mX        8 mX      mX  mXmXmXmXmXmXmXmXmXmX  cXq mXq q q q mXq q ",
"mXmXL.mXmXmXmXmXcXe cXcXL.  mXmXmXmXmXmXmXmXmXmXmX  mX      $ mX        $ mX      mX  mXmXmXmXmXmXmXmXmXmX  e L.cXmXL.mXmXe q mX",
"L.mXmXq L.mXe L.e mXL.L.L.  mXmXmXmXmXmXmXmXmXmXmX  mX      $ mX        $ mX      mX  mXmXmXmXmXmXmXmXmXmX  e L.e e e e L.e L.e ",
"                            mXmXmXmXmXmXmXmXmXmXmX  mX      $ mX        $ mX      mX  mXmXmXmXmXmXmXmXmXmX                      ",
"  cXL.cXL.L.L.L.mXL.q L.cX  mX6 0 mXmXmXmXmXmXmXmX  mX      $ mX        $ mX      mX  mXmXmXmXmXmXL.L.L.L.  e L.cXL.q q q q mXe ",
"  L.q mXq q mXq q e q mXe   mX0 cXmXmXmXmXmXmXmXmX  mX      $ mX        $ mX      mX  mXL.L.L.L.L.L.L.L.L.  mXq q q q q q mXmXcX",
"  mXL.mXmXq q q mXmXq L.cX  L.L.L.L.L.L.L.L.L.L.L.  mX      $ mX        $ L.      L.  L.L.L.L.L.L.L.7 0 L.  mXq q q q q L.mXmXcX",
"  mXq q mXq q q mXcXmXe cX  L.0 0 0 0 0 0 0 cXL.L.  L.      $ L.        $ L.      L.  L.L.L.L.L.L.L.0 cXL.  mXq q q q mXq q mXcX",
"  mXq q mXmXL.L.L.cXL.L.cX  L.nXmXmXmXmXmXmX  L.L.  L.      $ L.        $ L.      L.  L.L.L.L.L.L.L.L.L.L.  mXq q mXq q q L.L.cX",
"  e q L.mXq q L.cXcXL.mXcX  L.nXL.L.L.L.L.L.  L.L.  L.      $ L.        $ L.      L.  L.L.L.L.L.L.L.L.L.L.  mXmXq q q mXq mXL.cX",
"  e q L.q mXe e L.cXL.mXcX  L.nXL.L.L.L.L.L.  L.L.  L.L.L.L.L.L.L.L.L.L.L.L.L.L.L.L.  L.L.L.L.L.L.L.L.L.L.  mXL.L.L.L.L.e e cXe ",
"  mXq q mXmXmXq L.cXL.L.cX  L.nXL.L.L.$ L.L.  L.L.                                    L.L.L.L.L.L.L.L.L.L.    cXcXcXe cXcXcXcXcX",
"  L.mXmXmXL.L.L.cXL.mXe e   L.nX  L.  8 cXL.  L.L.L.L.L.L.L.L.L.L.L.L.L.L.L.L.L.L.L.L.L.L.L.L.L.L.L.L.L.L.                      ",
"  cXe e cXcXcXcXcXcXcXmXcX  L.q cXL.  $ cXL.  L.L.L.L.L.L.L.L.L.L.L.L.L.L.L.L.L.L.L.L.L.L.L.L.L.L.L.L.L.L.  L.L.L.L.  cXcXe L.L.",
"  cXcXcXcXcXcXcXcX  cXcXcX  L.q L.e   L.cXL.  L.L.L.L.L.L.L.L.L.L.L.L.L.L.L.L.L.L.L.L.L.L.L.L.L.L.L.8 nXL.  L.mXL.e   L.L.mXmXL.",
"                            L.q L.e cXe cXe   e L.L.L.L.L.L.L.L.L.L.L.L.L.L.L.L.L.L.L.L.L.L.L.L.L.L.nXcXL.  L.q mXcX  L.L.mXmXL.",
"  e cXe cXL.L.L.L.L.L.cXcX  L.q L.e e cXe e   e L.L.L.L.L.L.L.L.L.L.L.L.L.L.L.L.L.L.L.L.L.L.L.L.L.L.L.L.L.  L.q L.cX  L.L.mXmXL.",
"  L.L.L.e L.mXL.mXq mXL.cX  L.q L.L.e e e e   e L.L.L.L.L.L.L.L.L.L.L.L.L.L.L.L.L.L.L.L.L.L.L.L.L.L.L.L.L.  L.mXL.cX  L.L.L.mXL.",
"  cXcXe L.cXcXe L.L.e cXcX  L.q e L.L.e L.e   e L.L.L.L.L.L.L.L.L.L.L.L.L.L.L.L.L.L.L.L.L.L.L.L.L.L.L.e e   L.L.L.cX  cXL.q mXL.",
"  cXcXL.L.e cXcXcXL.L.cXcX  e q L.L.L.L.e e   L.L.L.L.L.L.L.L.L.L.L.L.L.L.L.L.L.L.L.L.L.L.e e e e e e e e   L.mXL.cX  L.L.L.e L.",
"  e L.mXmXL.e cXcXmXL.mXcX  e e               e e e L.L.L.L.L.L.L.L.L.L.e e e e e e e e e e e e e e e e e   L.q e cX  cXcXmXmXL.",
"  e L.L.L.L.L.cXcXcXcXL.cX  e e e e e e e e e e e e e e e e e e e e e e e e e e e e e e e e e e e e e e e   mXcXcXcX  L.mXq e L.",
"  cXcXe cXcXe e e e e e cX  e e e e e e e e e e e e e e e e e e e e e e e e e e e e e e e e e e e e 8 q e   L.cXcXcX  cXL.L.mXL.",
"  cXcXcXcXcXcXcXL.L.e cXcX  e 8 q e e e e e e e e e e e e e e e e e e e e e e e e e e e e e e e e e q cXe   e L.L.L.  L.e e L.L.",
"  e e L.L.e cXcXe cXe cXcX  e q cXe e e e e e e e e e e e e e e e e e e e e e e e e e e e e e e e e e e e   L.L.e cX  cXe mXmXL.",
"  cXe cXcXcXcXcXcXcXcXcXcX  e e e e e e e e e e e e e e e e e e e e e e e e e e e e e e e e e e e e e e e   L.cXe cX  cXL.e L.cX",
"  cXcXcXcXcXcXcXcXcXcXcXcX  e e e e e e e e e e e e e e e e e e e e e e e e e e e e e e e e e e e e e e e   cXcXcX    cXcXcXcXcX",
"                            e e e e e e e e e e e e e e e e e e e e e e e e e e e e e e e e e e e e e e e                       ",
"cXcXcXcXcXcXcX  cXmXe e cX  e e e e e e e e e e e e e e e e e e e e e e e e e e e e e e e e e e e e e e e   cXcXcXcXcXcXcXL.e e ",
"L.mXL.mXL.L.cX  L.mXL.mXcX  e e e e e e e e e e e e e e e e e e e e e e e e e e e e e e e e e e e e e e e   cXe L.L.mXL.L.L.e L.",
"L.mXL.mXL.L.cX  e L.e cXcX  e e e e e e e e e e e e e e e e e e e e e e e e e e e e e e e e e e e e e e e   cXcXe L.e cXL.L.mXL.",
"L.L.mXL.L.L.cX  e e cXcXcX  e e e e e e e e e e e e e e e e e e e e e e e e e e e e e e e e e e e e e e e   cXcXcXcXe e L.L.L.L.",
"mXL.L.L.mXL.cX  L.cXcXcXcX  e $ q e e e e e e e e                                     e e e e e e e $ mXe   e cXL.L.L.L.L.L.mXL.",
"e cXL.cXe L.cX  cXcXcXcXcX  e mXcXe e e e e e e e   e e e e e e e e e e e e e e e e   e e e e e e e mXcXe   cXe L.L.L.mXL.L.mXL.",
"mXmXL.mXmXe cX              e e e e e e e e e e e   e e e e e e e e e e e e e e e e   e e e e e e e e e e   cXcXL.L.L.L.L.L.L.L.",
"e L.mXL.e cXcX  cXcXcXcXcX  e e e e e e e e e e e   e e e e e e e e e e e e e e e e   e e e e e e e e e e   cXcXcXcXcXL.cXcXcXe ",
"cXcXe cXcXcXcX  cXe L.L.cX  e e e e e e e e e e e   e e e e e e e e e e e e e e e e   e e e e e e e e e e   cXcXL.L.L.e e cXcXcX",
"cXcXcXcXcXcXcX  cXe e e cX  e e e e e e e e e e e   e e e e e e e e e e e e e e e e   e e e e e e e e e e   cXcXe e L.L.L.L.L.L.",
"e L.L.L.e cXcX  cXcXcXcXcX  e e e e e e e e e e e   e e e e e e e e e e e e e e e e   e e e e e e e e e e   cXe L.L.mXL.L.L.L.L.",
"e L.cXL.e cXcX  cXcXcXcXcX  e e e e e e e cXe e e   e e e e e e e e e e e e e e e e   e e e e e e e e e e   cXe e e L.L.cXL.L.L.",
"L.mXe mXL.cXcX  cXcXcXcXcX  e $ mXe e e e $ mXe e   e e e e e e e e e e e e e e e e   e e $ mXe e e $ mXe   cXcXcXe e e cXe e e ",
"L.L.e L.L.cXcX  cXcXcXcXcX  e mXcXe e e e mXcXe e   e e e e e e e e e e e e e e e e   e e mX  e e e mX  e   cXcXcXcXe cXcXcXcXcX",
"cXcXL.cXcXcXcX  cXcXcXcXcX  e e e e e e e e e e e   e e e e e e e e e e e e e e e e   e e e e e e e e e e   cXcXcXcXcXcXcXcXcXcX",
"cXcXcXcXcXcXcX  cXcXcXcXcX                                                                                  cXcXcXcXcXcXcXcXcXcX"
};
