/* XPM */
static char *Black61668167182[] = {
/* columns rows colors chars-per-pixel */
"64 64 256 2 ",
"   c black",
".  c #0000A8",
"X  c #00A800",
"o  c #00A8A8",
"O  c #A80000",
"+  c #A800A8",
"@  c #A85400",
"#  c gray66",
"$  c gray33",
"%  c #5454FC",
"&  c #54FC54",
"*  c #54FCFC",
"=  c #FC5454",
"-  c #FC54FC",
";  c #FCFC54",
":  c gray99",
">  c #ECECEC",
",  c gainsboro",
"<  c #D0D0D0",
"1  c #C0C0C0",
"2  c #B4B4B4",
"3  c gray66",
"4  c #989898",
"5  c gray55",
"6  c #7C7C7C",
"7  c gray44",
"8  c #646464",
"9  c gray33",
"0  c #484848",
"q  c gray22",
"w  c #2C2C2C",
"e  c #202020",
"r  c #FC0000",
"t  c #EC0000",
"y  c #E00000",
"u  c #D40000",
"i  c #C80000",
"p  c #BC0000",
"a  c #B00000",
"s  c #A40000",
"d  c #980000",
"f  c #880000",
"g  c #7C0000",
"h  c #700000",
"j  c #640000",
"k  c #580000",
"l  c #4C0000",
"z  c #400000",
"x  c #FCD8D8",
"c  c #FCB8B8",
"v  c #FC9C9C",
"b  c #FC7C7C",
"n  c #FC5C5C",
"m  c #FC4040",
"M  c #FC2020",
"N  c #FC0000",
"B  c #FCA85C",
"V  c #FC9840",
"C  c #FC8820",
"Z  c #FC7800",
"A  c #E46C00",
"S  c #CC6000",
"D  c #B45400",
"F  c #9C4C00",
"G  c #FCFCD8",
"H  c #FCFCB8",
"J  c #FCFC9C",
"K  c #FCFC7C",
"L  c #FCF85C",
"P  c #FCF440",
"I  c #FCF420",
"U  c #FCF400",
"Y  c #E4D800",
"T  c #CCC400",
"R  c #B4AC00",
"E  c #9C9C00",
"W  c #848400",
"Q  c #706C00",
"!  c #585400",
"~  c #404000",
"^  c #D0FC5C",
"/  c #C4FC40",
"(  c #B4FC20",
")  c #A0FC00",
"_  c #90E400",
"`  c #80CC00",
"'  c #74B400",
"]  c #609C00",
"[  c #D8FCD8",
"{  c #BCFCB8",
"}  c #9CFC9C",
"|  c #80FC7C",
" . c #60FC5C",
".. c #40FC40",
"X. c #20FC20",
"o. c #00FC00",
"O. c #00FC00",
"+. c #00EC00",
"@. c #00E000",
"#. c #00D400",
"$. c #04C800",
"%. c #04BC00",
"&. c #04B000",
"*. c #04A400",
"=. c #049800",
"-. c #048800",
";. c #047C00",
":. c #047000",
">. c #046400",
",. c #045800",
"<. c #044C00",
"1. c #044000",
"2. c #D8FCFC",
"3. c #B8FCFC",
"4. c #9CFCFC",
"5. c #7CFCF8",
"6. c #5CFCFC",
"7. c #40FCFC",
"8. c #20FCFC",
"9. c #00FCFC",
"0. c #00E4E4",
"q. c #00CCCC",
"w. c #00B4B4",
"e. c #009C9C",
"r. c #008484",
"t. c #007070",
"y. c #005858",
"u. c #004040",
"i. c #5CBCFC",
"p. c #40B0FC",
"a. c #20A8FC",
"s. c #009CFC",
"d. c #008CE4",
"f. c #007CCC",
"g. c #006CB4",
"h. c #005C9C",
"j. c #D8D8FC",
"k. c #B8BCFC",
"l. c #9C9CFC",
"z. c #7C80FC",
"x. c #5C60FC",
"c. c #4040FC",
"v. c #2024FC",
"b. c #0004FC",
"n. c #0000FC",
"m. c #0000EC",
"M. c #0000E0",
"N. c #0000D4",
"B. c #0000C8",
"V. c #0000BC",
"C. c #0000B0",
"Z. c #0000A4",
"A. c #000098",
"S. c #000088",
"D. c #00007C",
"F. c #000070",
"G. c #000064",
"H. c #000058",
"J. c #00004C",
"K. c #000040",
"L. c #282828",
"P. c #FCE034",
"I. c #FCD424",
"U. c #FCCC18",
"Y. c #FCC008",
"T. c #FCB400",
"R. c #B420FC",
"E. c #A800FC",
"W. c #9800E4",
"Q. c #8000CC",
"!. c #7400B4",
"~. c #60009C",
"^. c #500084",
"/. c #440070",
"(. c #340058",
"). c #280040",
"_. c #FCD8FC",
"`. c #FCB8FC",
"'. c #FC9CFC",
"]. c #FC7CFC",
"[. c #FC5CFC",
"{. c #FC40FC",
"}. c #FC20FC",
"|. c #FC00FC",
" X c #E000E4",
".X c #C800CC",
"XX c #B400B4",
"oX c #9C009C",
"OX c #840084",
"+X c #6C0070",
"@X c #580058",
"#X c #400040",
"$X c #FCE8DC",
"%X c #FCE0D0",
"&X c #FCD8C4",
"*X c #FCD4BC",
"=X c #FCCCB0",
"-X c #FCC4A4",
";X c #FCBC9C",
":X c #FCB890",
">X c #FCB080",
",X c #FCA470",
"<X c #FC9C60",
"1X c #F0945C",
"2X c #E88C58",
"3X c #DC8854",
"4X c #D08050",
"5X c #C87C4C",
"6X c #BC7848",
"7X c #B47044",
"8X c #A86840",
"9X c #A0643C",
"0X c #9C6038",
"qX c #905C34",
"wX c #885830",
"eX c #80502C",
"rX c #744C28",
"tX c #6C4824",
"yX c #5C4020",
"uX c #543C1C",
"iX c #483818",
"pX c #403018",
"aX c #382C14",
"sX c #28200C",
"dX c #600064",
"fX c #006464",
"gX c #006060",
"hX c #00001C",
"jX c #00002C",
"kX c #302410",
"lX c #480048",
"zX c #500050",
"xX c #000034",
"cX c gray11",
"vX c #4C4C4C",
"bX c gray36",
"nX c gray25",
"mX c gray19",
"MX c #343434",
"NX c #D8F4F4",
"BX c #B8E8E8",
"VX c #9CDCDC",
"CX c #74C8C8",
"ZX c #48C0C0",
"AX c #20B4B4",
"SX c #20B0B0",
"DX c #00A4A4",
"FX c #009898",
"GX c #008C8C",
"HX c #008484",
"JX c #007C7C",
"KX c #007878",
"LX c #007474",
"PX c #007070",
"IX c #006C6C",
"UX c #980088",
/* pixels */
"e w MXw w L.L.L.w w L.cXcXcXcXL.w w w w L.L.e cXcXcXw L.cXcXw w w w e e L.w L.e e w L.w e e L.w w e cXcXcXcXe cXcXcXL.w e e w cX",
"MX0 vXq 0 q w w 0 0 MXq 0 w e MX0 0 MX0 q w q q w MX0 0 q 0 0 vX8 $ 0 MXMXq w MXq 0 MXq q 0 0 0 0 0 MX0 0 w q w w MX0 vXMXMX0 L.",
"MX$ vX0 q q MXq 0 0 0 0 vXw MX0 0 0 vX7 0 e vX7 $ vX$ 7 7 6 7 6 6 6 $ $ vX0 vX$ 8 8 w q $ 7 8 vX0 7 0 q 0 MX$ 0 q vX$ vX0 0 0 L.",
"w vX$ 0 w w q vX$ 0 0 vX0 0 0 vXvX7 7 8 0 e vX7 8 $ $ 8 $ 7 6 6 7 6 $ $ vX$ 7 8 $ 0 w 0 0 vX$ 0 0 $ vXq q 0 $ $ vXvXvX0 0 0 q w ",
"MX$ $ q w w 0 8 $ q 0 0 0 $ $ vX0 7 8 $ 0 w 8 6 vX$ 8 7 6 6 6 6 7 6 6 6 7 8 $ vX$ vXw q $ 7 $ $ vX0 0 $ vX$ vX0 0 0 $ vX0 0 0 L.",
"w $ 0 0 0 0 0 $ 0 MX0 $ 0 $ $ $ 0 vX$ 8 vXw 8 7 $ $ $ 7 6 6 6 $ 7 8 6 6 6 8 0 0 7 $ L.q 7 7 0 vX$ vX0 vXvX8 $ 0 0 0 vX$ 0 0 q cX",
"w 0 vXvX0 0 0 $ 0 MX0 8 0 0 MXvXq vXvXvXq w 7 6 $ 7 $ vX6 7 7 $ 6 7 7 7 $ 8 7 $ $ vXw MX$ 8 vXvX$ 0 $ $ 0 0 vXvX0 q 0 0 q 0 q e ",
"w 0 $ vXMXq MXMX0 0 vX$ $ 0 MX0 vXvX$ 0 w cX$ 7 $ 8 $ $ 7 7 7 7 6 6 6 7 vX8 6 vX0 vXe L.q 0 vX0 $ MX0 $ $ 0 0 0 0 q 0 q 0 $ 0 w ",
"w 0 $ 0 q 0 0 q vX8 0 0 8 $ $ $ $ 0 vXvX0 L.e q 8 8 8 $ 7 7 8 7 7 7 6 7 8 $ 7 7 vXMXcXe 0 q 0 vX0 q vXvX0 0 0 0 0 0 MXq 0 vX0 L.",
"L.vX0 0 w 0 vX0 $ 8 $ MX0 vX8 7 7 0 vX$ 0 0 w w 7 $ 7 0 $ 8 8 7 8 8 $ $ 8 $ $ 6 vXe w w MX0 $ $ 0 0 $ $ vXvX0 0 0 0 MXMXw 0 q e ",
"e 0 $ $ MXvX$ 0 vX0 $ MX0 0 0 7 8 0 vX$ MXw w q vX0 6 $ vX7 6 7 8 vXvXvX8 8 vX$ 0 e 0 0 w vX0 q 0 0 vX$ vX0 q 0 $ 0 q q 0 0 0 e ",
"L.q 0 0 0 0 vXq 0 w MXw q 0 0 $ 0 $ $ $ 0 L.MX0 vXvX6 $ 0 7 6 $ $ 0 0 vXvX8 vX0 0 w vXq 0 vX0 0 0 vX0 0 0 0 q 0 vX0 0 $ $ 0 0 e ",
"L.MXw MXw MX0 q MX0 0 0 MXq 0 $ 0 0 vX$ 0 w q 0 $ 0 0 0 0 0 $ $ $ 0 0 0 $ 8 $ $ 7 q 0 MX0 0 q vXvX0 0 q w w 0 0 0 0 0 0 q 0 0 e ",
"cXMX0 w MXMX0 0 0 0 q MXMXq $ 6 0 w q vX0 w 0 vX0 0 0 $ $ vX0 0 $ $ $ vX$ 7 8 $ $ 0 w w 0 vX0 0 0 0 0 q w 0 0 0 MX0 0 0 0 0 $ L.",
"cXL.w MX0 0 $ $ 0 0 q 0 q 0 $ 7 vXq 0 $ 0 w 0 0 0 MXq 0 0 0 0 0 $ $ $ vXvX8 8 $ $ 0 w q 0 8 $ 0 0 0 0 MXMX0 0 vXq MXvXvX0 0 $ cX",
"w w q q q 0 w MXw 0 0 MXq q q $ 0 q 0 $ q L.0 0 0 vX0 vX$ $ vX0 0 $ 0 $ $ $ 8 $ 0 0 w MXvX8 vX0 q MXq q q 0 MX0 0 w 0 vX0 0 q cX",
"q q 0 0 q 0 L.e L.q 0 vX0 MXw 0 0 0 0 $ q e 0 vX$ $ 0 $ vX0 0 vX$ vX0 vX0 $ $ 0 0 MXe L.q 0 0 MX0 0 0 w MXMX0 0 0 w w q q 0 MXL.",
"w 0 0 q MX0 q L.w MXq 0 q 0 q q 0 0 0 0 0 w w q vX0 0 8 vXq q 0 0 q 0 0 0 vX$ 0 q q L.w MX0 0 0 0 0 0 MX0 q 0 0 0 q w MXMX0 0 w ",
"L.q MXL.w 0 vXq q MXw MXw 0 0 MX0 0 0 vXw L.0 0 0 0 $ vX0 0 0 0 w 0 0 0 0 0 vX0 vX$ w q q 0 q 0 q 0 0 0 0 MXq MX0 MXMXq 0 0 0 L.",
"L.w 0 MXw MXw 0 MX0 w w q 0 0 q 0 vX0 q cXL.0 0 0 q 0 0 0 q w w e MX0 q q $ 8 vXvX$ MX0 0 0 0 0 q 0 q 0 0 w 0 0 0 q MXq 0 0 0 L.",
"w q 0 MXw w e w w 0 q w L.MX0 0 MXq w e w L.0 vX$ vX0 $ 0 cXcXL.L.cXcXw 0 0 0 0 0 0 w q 0 0 $ 0 0 0 q q q 0 vX0 q w MX0 w MX0 e ",
"cXe e e cXcXcXcXcXcXe cXcXcXe L.e e cXL.0 w e e e L.L.w w MXvX0 0 0 w L.L.e e L.e e e e cXe L.cXL.L.cXcXcXe e cXcXe e cXcXe L.e ",
"MXq q 0 w 0 vX0 0 0 MXw w 0 0 $ vXvX0 0 0 q 0 0 0 w q 0 vX$ 0 w w w 0 0 MX0 0 0 MX0 w 0 0 0 0 w q 0 L.w MX0 0 MX0 0 0 0 0 $ 0 MX",
"L.MX0 0 MXq q MXq 0 0 MXw 0 0 0 0 0 0 0 0 w q w MXMXw q 0 0 0 w MX0 0 q w 0 0 q MXMXw q 0 0 0 MXq 0 w q 0 0 0 0 0 0 MXq 0 0 0 w ",
"w MXMXq 0 0 0 0 q 0 w w 0 q w L.w 0 q MXw e MXw w 0 0 0 q 0 0 0 0 0 0 q w q 0 q q q w w MXw q w w w q w w 0 0 w MX0 0 MXMXMXMXL.",
"q 0 MXw L.MX0 0 q q MXw MXw L.q 0 0 MXw q L.q q q 0 0 MXw 0 0 0 q 0 0 0 w L.q MXq MXL.w w e 0 MXMXMXq 0 0 q 0 w MXMXq w w w w L.",
"q q 0 MXw q 0 q MXMXw w q 0 MX0 0 w w w MXL.q MXq q 0 0 0 q MXw MXw q 0 0 w MXq 0 MXe L.w w 0 MXw MX0 0 q 0 MXw MXMXq w MXMX0 w ",
"L.w 0 0 MXMXw w w w w 0 $ 0 q w 0 MXw 0 MXe w w MXq q q MXq w MXvXq q 0 0 q w w 0 w L.w L.e w MXL.MXMXw MX0 MXq q q MXMX0 0 vXe ",
"w L.MXq 0 0 w w w e q 0 0 0 0 0 0 0 0 MXL.cXw q 0 MXq 0 w w w 0 0 w MX0 0 MXL.w q MXe L.e L.q q q q q q 0 0 w q 0 MXw MX0 0 0 e ",
"w q w w w MXMXMXq L.MX0 vX0 q 0 w q w MXw w w w MXw w q L.w q q MXw 0 0 0 MXMXMX0 q L.L.e 0 $ 0 MXq 0 0 0 q w w q MXw 0 w L.L.cX",
"w 0 w w L.w w MXw w q 0 vX0 MXq 0 0 0 0 w L.L.w w q q MXMX0 q w 0 w q q q q 0 q 0 q w w w 0 vX0 MX0 0 q q MXw w q MXq 0 w w cXcX",
"L.w L.e cXw MXw L.w w 0 0 0 q MX0 0 q 0 e e w w w MXMXw w q q w 0 w w w MXMX0 0 q MXw q q MX0 q MXq w MXw MX0 q q MX0 0 w w cXL.",
"MXw w MXL.MXvX0 MXL.w MXw w w w w w w w cXcXw MXw w q w e MXw cXMX0 w L.L.w w w w q w q 0 w 0 w q MXw w MXMX0 MXMXw MXMXw q MXL.",
"MXw L.w w MXq q q MXe L.MX0 w w w w MXq cXe L.MXL.w MXw L.w MXw L.w w w L.w w L.MXq w q 0 q q MX0 MXw q 0 w MXw MXMXw w w 0 MXL.",
"w MXL.w e w q q MXw e w 0 0 q MXw MXMXq w w L.w w 0 MXMXw w MXw L.w q MXw w w w w w w w MXq MXMXw w w 0 0 q 0 q w w w w MXMXw e ",
"L.MXw e L.w MXq 0 w w 0 0 MXw MXw MXL.L.0 MXw q q 0 MXMXw w w cXL.w L.w MXq q q w MXw w w q 0 w L.w w w w 0 0 0 w L.w w MXw w cX",
"e w w w w MXMXq q q w 0 w w MXq MXq w w 0 w MX0 q 0 MXMX0 q w L.L.L.cXL.MXq MX0 MXw L.w w L.MX0 MXL.w w w MXq q w w w MX0 q MXL.",
"w 0 MXw MXMXMXq 0 q w MXw MX0 0 q q MXw q L.w 0 q 0 MXMXMXq MXw w MXL.MXw MXw MXMXw e w w L.w q q q w MXw MXq MXMXMXMXMXq q MXL.",
"w 0 w L.w q 0 0 0 q MXMXMXw q MXw w w L.w cXw MXq q MX0 w w MXL.MX0 w 0 0 w w q w 0 L.L.w L.w MXq 0 q 0 w MX0 w w w MXq MXMXL.cX",
"cXL.e L.w q 0 MXw MXq MXMXw w q w MXw e L.e L.w q MXMXMXq w L.cX0 0 w L.0 w MXMXw 0 w w MXL.MXw MXMXw q 0 MXMX0 q q MX0 0 MXe cX",
"L.w MXw L.MXMXMXw q 0 MXw w w MXMX0 w e L.cXL.w MXw q w q w e L.0 w e e w w q MXw MXL.L.MXMXw w w w w MX0 0 MXMXq MXw w w MXw cX",
"cXMXMXq w q w w q MX0 MXw 0 MXw w MXw w w w L.w w w q w q w w q w L.e e cXw q w L.L.cXcXw MXw w L.e w q w MXMXw MXq w L.L.q w cX",
"cXcXcXcXe e cXcXe cXcXe cXcXe cXcXe cXe L.L.cXcXcXcXe L.w L.e L.cXe e cXcXe L.e e L.w L.cXe e e e cXcXcXe e e e e L.cXcXcXe e e ",
"0 MXq w 0 q w L.w e L.q 0 w MX0 L.L.MXq 0 w MXq 0 0 0 0 $ vXq q w 0 $ q w 0 0 0 0 $ 0 MXe L.0 0 0 0 MXw 0 0 0 0 0 q L.MXw 0 0 MX",
"MXMXw w 0 q w w 0 w q 0 0 0 L.w cXw w MXMXw w q 0 0 q q 0 0 MXq cXL.0 q w w L.w e MXw q w e L.MXw w L.e w MXq MXq MXw w w MXMXe ",
"w w w MX0 MXw w q q w L.w q L.L.w MXMXMXw cXcXw 0 0 q 0 0 0 w 0 w cX0 0 q MXL.w e q w w w w L.cXL.w w MX0 w q q 0 w L.w w w w e ",
"L.w q MXq MXL.w L.q q w e w w q 0 L.MXq w cXcXw L.w MX0 0 q w MX0 w w 0 0 MXe e q MXcXcXe q q w cXw MXMXq w MXw MXe L.w w q MXL.",
"L.w 0 q q q w w e w q w w MX0 0 w L.w MXL.cXcXL.w w q 0 MXw w w q w w MXq w e cXw L.cXe w w L.MXL.w 0 MXw w w w w w MXq 0 q MXL.",
"cXw q w w w w w e MXMXMXw MXw w e MXw w e cXw L.MXw q MXw w q w w w w MXw L.e w MXw cXe w w L.w 0 q MXw L.w w q w MX0 w q MXMXL.",
"L.0 q w w w w L.L.w w 0 w L.L.w cXw w L.cXcXMXMXw e MXw MX0 q MXe w w e w w w MXMX0 L.e L.w e cXw 0 q w w w e MXw MXq w MX0 MXe ",
"L.0 0 MXq w L.L.MXq w w w L.L.e L.w L.w L.cXw MXe L.L.w L.MXw w w MXw cXcXMXq MXMXMXe e MX0 w w L.MXMX0 q L.L.MXMXw q 0 w w q cX",
"L.w L.w w w w w w L.L.cXL.w w e w w e w w e w w L.w q w w 0 L.e w 0 w w w w MXMXw MXe w w q L.cXe L.w 0 0 L.w MXL.w w MXw w w cX",
"cXL.L.L.L.w w MXL.w L.w w q w q 0 w w w L.cXcXw w L.w w MXw w L.L.q MXMXw L.w MXL.w e w L.w L.cXe L.w w MXL.w w e w cXL.MXw e cX",
"L.e e cXe L.q w w q w 0 MXq 0 q L.L.w L.w L.e e L.L.w w q MXe L.w MXw w w cXw MXw cXe MXMXw q w w w w e w w 0 w w L.w MX0 w cXcX",
"w e L.e L.w MXL.w 0 q q MXw w w L.w 0 w q w w cXw MXMXMXw e cXw 0 w w q 0 w w MXe cXw w w w L.w w L.L.cXw MXMXw MXw MXMXMXw e cX",
"MXw e L.w w w w e MXq w MXq w w w e w w e cXcXe w L.w q w w e MXw MXw MX0 MXw MXw w w w q 0 w MXw w MXw MXq q w w w w MXMXw q w ",
"e w w w w L.e w L.w MXw MXq 0 q w L.cXL.cXL.w e L.w MX0 q w w 0 MXw w q 0 MXL.w w L.w w MX0 q q w MXMXMXw w w MXw MXw MXMXMX0 w ",
"cXw w MX0 w MXMXMXq w e L.w q w w w w MXw L.w MXMXMXw w w e w 0 w w q q 0 0 w w L.cXe e w 0 MXe w w w q q MXMXq 0 0 w L.w MX0 L.",
"cXcXe q MXw 0 q L.w w MXq 0 0 w w 0 q w L.e L.w L.w w MXw cXcXw L.w L.MX0 MXMXMXL.L.w e L.MXw cXL.MXe q q L.w w e w MXL.L.MXMXcX",
"cXe L.MXw w q w L.w MXq 0 0 0 MXe w w L.cXcXe w w e w w L.w e w e e w w w w 0 q w e e L.w MXw w w w e w MXw w L.L.q q w L.w L.e ",
"e w w w MXq q w e w MXq q w q q e w e L.cXcXL.MXw w L.MXMXw w MXMXw w L.w 0 0 MXw w cXe w q MXMXw w e L.w L.e w w MXMXMXw w w L.",
"e L.w w w q q L.e w MXw e L.MXMXe w L.cXcXcXw w w L.MXMXMXw w w q w w w w MXMX0 q w cXL.q q w w L.L.w L.L.w w w MXMXMXw L.cXw e ",
"L.w cXw q w MXw e w w L.L.cXe e cXcXcXcXe cXw w w e w q MXMXL.L.MXw cXe L.MXw 0 q w e w q w e e w w L.L.w e w w w w w w w cXw e ",
"cXcXcXcXcXcXcXcXcXcXe cXcXcXcX  cXcXe cXcXcXcXcXcXcXe cXcXe cXcXe cXcXcXcXcXcXcXe cXcXcXcXcXcXcXcXcXcXcXcXcXe cXcXcXcXcXcXcXcXcX"
};
