/* XPM */
static char *Blood11668167182[] = {
/* columns rows colors chars-per-pixel */
"64 64 256 2 ",
"   c black",
".  c #0000A8",
"X  c #00A800",
"o  c #00A8A8",
"O  c #A80000",
"+  c #A800A8",
"@  c #A85400",
"#  c gray66",
"$  c gray33",
"%  c #5454FC",
"&  c #54FC54",
"*  c #54FCFC",
"=  c #FC5454",
"-  c #FC54FC",
";  c #FCFC54",
":  c gray99",
">  c #ECECEC",
",  c gainsboro",
"<  c #D0D0D0",
"1  c #C0C0C0",
"2  c #B4B4B4",
"3  c gray66",
"4  c #989898",
"5  c gray55",
"6  c #7C7C7C",
"7  c gray44",
"8  c #646464",
"9  c gray33",
"0  c #484848",
"q  c gray22",
"w  c #2C2C2C",
"e  c #202020",
"r  c #FC0000",
"t  c #EC0000",
"y  c #E00000",
"u  c #D40000",
"i  c #C80000",
"p  c #BC0000",
"a  c #B00000",
"s  c #A40000",
"d  c #980000",
"f  c #880000",
"g  c #7C0000",
"h  c #700000",
"j  c #640000",
"k  c #580000",
"l  c #4C0000",
"z  c #400000",
"x  c #FCD8D8",
"c  c #FCB8B8",
"v  c #FC9C9C",
"b  c #FC7C7C",
"n  c #FC5C5C",
"m  c #FC4040",
"M  c #FC2020",
"N  c #FC0000",
"B  c #FCA85C",
"V  c #FC9840",
"C  c #FC8820",
"Z  c #FC7800",
"A  c #E46C00",
"S  c #CC6000",
"D  c #B45400",
"F  c #9C4C00",
"G  c #FCFCD8",
"H  c #FCFCB8",
"J  c #FCFC9C",
"K  c #FCFC7C",
"L  c #FCF85C",
"P  c #FCF440",
"I  c #FCF420",
"U  c #FCF400",
"Y  c #E4D800",
"T  c #CCC400",
"R  c #B4AC00",
"E  c #9C9C00",
"W  c #848400",
"Q  c #706C00",
"!  c #585400",
"~  c #404000",
"^  c #D0FC5C",
"/  c #C4FC40",
"(  c #B4FC20",
")  c #A0FC00",
"_  c #90E400",
"`  c #80CC00",
"'  c #74B400",
"]  c #609C00",
"[  c #D8FCD8",
"{  c #BCFCB8",
"}  c #9CFC9C",
"|  c #80FC7C",
" . c #60FC5C",
".. c #40FC40",
"X. c #20FC20",
"o. c #00FC00",
"O. c #00FC00",
"+. c #00EC00",
"@. c #00E000",
"#. c #00D400",
"$. c #04C800",
"%. c #04BC00",
"&. c #04B000",
"*. c #04A400",
"=. c #049800",
"-. c #048800",
";. c #047C00",
":. c #047000",
">. c #046400",
",. c #045800",
"<. c #044C00",
"1. c #044000",
"2. c #D8FCFC",
"3. c #B8FCFC",
"4. c #9CFCFC",
"5. c #7CFCF8",
"6. c #5CFCFC",
"7. c #40FCFC",
"8. c #20FCFC",
"9. c #00FCFC",
"0. c #00E4E4",
"q. c #00CCCC",
"w. c #00B4B4",
"e. c #009C9C",
"r. c #008484",
"t. c #007070",
"y. c #005858",
"u. c #004040",
"i. c #5CBCFC",
"p. c #40B0FC",
"a. c #20A8FC",
"s. c #009CFC",
"d. c #008CE4",
"f. c #007CCC",
"g. c #006CB4",
"h. c #005C9C",
"j. c #D8D8FC",
"k. c #B8BCFC",
"l. c #9C9CFC",
"z. c #7C80FC",
"x. c #5C60FC",
"c. c #4040FC",
"v. c #2024FC",
"b. c #0004FC",
"n. c #0000FC",
"m. c #0000EC",
"M. c #0000E0",
"N. c #0000D4",
"B. c #0000C8",
"V. c #0000BC",
"C. c #0000B0",
"Z. c #0000A4",
"A. c #000098",
"S. c #000088",
"D. c #00007C",
"F. c #000070",
"G. c #000064",
"H. c #000058",
"J. c #00004C",
"K. c #000040",
"L. c #282828",
"P. c #FCE034",
"I. c #FCD424",
"U. c #FCCC18",
"Y. c #FCC008",
"T. c #FCB400",
"R. c #B420FC",
"E. c #A800FC",
"W. c #9800E4",
"Q. c #8000CC",
"!. c #7400B4",
"~. c #60009C",
"^. c #500084",
"/. c #440070",
"(. c #340058",
"). c #280040",
"_. c #FCD8FC",
"`. c #FCB8FC",
"'. c #FC9CFC",
"]. c #FC7CFC",
"[. c #FC5CFC",
"{. c #FC40FC",
"}. c #FC20FC",
"|. c #FC00FC",
" X c #E000E4",
".X c #C800CC",
"XX c #B400B4",
"oX c #9C009C",
"OX c #840084",
"+X c #6C0070",
"@X c #580058",
"#X c #400040",
"$X c #FCE8DC",
"%X c #FCE0D0",
"&X c #FCD8C4",
"*X c #FCD4BC",
"=X c #FCCCB0",
"-X c #FCC4A4",
";X c #FCBC9C",
":X c #FCB890",
">X c #FCB080",
",X c #FCA470",
"<X c #FC9C60",
"1X c #F0945C",
"2X c #E88C58",
"3X c #DC8854",
"4X c #D08050",
"5X c #C87C4C",
"6X c #BC7848",
"7X c #B47044",
"8X c #A86840",
"9X c #A0643C",
"0X c #9C6038",
"qX c #905C34",
"wX c #885830",
"eX c #80502C",
"rX c #744C28",
"tX c #6C4824",
"yX c #5C4020",
"uX c #543C1C",
"iX c #483818",
"pX c #403018",
"aX c #382C14",
"sX c #28200C",
"dX c #600064",
"fX c #006464",
"gX c #006060",
"hX c #00001C",
"jX c #00002C",
"kX c #302410",
"lX c #480048",
"zX c #500050",
"xX c #000034",
"cX c gray11",
"vX c #4C4C4C",
"bX c gray36",
"nX c gray25",
"mX c gray19",
"MX c #343434",
"NX c #D8F4F4",
"BX c #B8E8E8",
"VX c #9CDCDC",
"CX c #74C8C8",
"ZX c #48C0C0",
"AX c #20B4B4",
"SX c #20B0B0",
"DX c #00A4A4",
"FX c #009898",
"GX c #008C8C",
"HX c #008484",
"JX c #007C7C",
"KX c #007878",
"LX c #007474",
"PX c #007070",
"IX c #006C6C",
"UX c #980088",
/* pixels */
"q q q q q q q q q q q q q q q q q q q q q q q q q q q q q q q q q q q q q q q q q q q q q q q q q q q q q q q q q q q q q q q q ",
"9 q 9 0 0 0 9 0 0 0 0 9 0 0 0 0 0 0 9 9 9 9 9 0 0 0 0 0 0 9 9 9 9 9 0 0 0 q q 0 0 9 0 0 0 0 9 q 9 0 0 0 9 0 0 0 0 9 0 0 0 0 0 0 ",
".X.X.X.X.X.X.X.X.X+ 0 9  X.X.X.X.X.X.X.X.X.X.X.X.X.X+ 0 q  X X X X X X X.X.X.X.X.X.X.XXXXX+ q  X X.X.X.X.X.X.X+ 0 9  X.X.X.X.X.X",
"OX+ + + OX+ +X+ +XdXw 9 .XOXOX+ +X+ +XoX+ +XoX+X+ oX@Xw 0 .X+ OXdX+ +XOXOXOX+ OX+ OX+ @X+XdX0 .X+ + OX+ +X+ +XdXw 9 .XOXOX+ +X+ ",
"OX+ OX+ +XoX+ +X@X#Xw 9 .XXX+ OX+X+ + +X+ OXOX+XoXOX@Xw 0 .X+XdXOX+ + +XOX+ OXdX+ OX+ OX+XlX0 .XOX+ +XoX+ +X@X#Xw 9 .XXX+ OX+X+ ",
"OX+ OX+ +X+ +XoX@X#Xw 0 XXOX+ +X+X+ + +XoX+XOX+XoXOX@Xw q XXoXdXOX+ OX+XOX+ OXdX+ OX+ OX+X#X0 XXOX+ +X+ +XoX@X#Xw 0 XXOX+ +X+X+ ",
"OXOX+ OX@X+X@X+X+X#Xw 9 oX+X+XlX+X+X+XlX+X+XOXlXOX+X#Xw q XX+X@X+X+XOXlX@XOXlXlXOXlX+XOXOX#X0 XX+ OX@X+X@X+X+X#Xw 9 oX+X+XlX+X+X",
"w w w w w w w w e e w 9 0 w w w e e e e w e e e w w w w 0 q w w w w w w w w e e e w w w w w 0 0 w w w w w w e e w 9 0 w w w e e ",
"9 q q q 0 0 0 q q q q q 0 0 0 0 0 q q 9 0 0 q 0 0 0 0 0 9 0 9 9 9 bX8 bX9 0 0 q nXq 9 0 0 9 9 q q q 0 0 0 q q q q q 0 0 0 0 0 q ",
".XXXXXXXXXXXXXXXXXXXXX#Xq 9  X.X.X.X.X.X.XXXXXXXXXXXXXXXXXXXXXXXXXXXXXXXXXXX#X0 q  X.X.X.X.X.X.XXXXXXXXXXXXXXXXXXXXXq 9  X.X.X.X",
"OX+ OXOXOXOX+ OXOX+ + #Xw 0 .XXX+ OXd g + d a d XXOXOX+ dX+ OX+ OX+ OX+ + +X#X0 9 .XOX+ OX+ OX+ OXOXOXOX+ OXOX+ + #Xw 0 .XXX+ OX",
"+ OXOXOXOXOXOX+ dX+ dX#Xw 0 .X+X+ OXd d + +Xd g XXOXg a dXXX@XdX+ +X+X+ + +X#Xq 0 .XOX+ + oX+ OXOXOXOXOXOX+ dX+ dX#Xw 0 .X+X+ OX",
"+X+ dX+XOXOXdX+ OX+ + #Xw 9 .XXX+ OXd dXOXOX+X+ OXd d g dXXXOXdXOX+ OX+ + +X#Xq 0 .X+ + + OX+X+ dX+XOXOXdX+ OX+ + #Xw 9 .XXX+ OX",
"+XXXdXlXOX+X+XoX@XoX+X#Xw 9 XX+ OX@XoX+XOX+XOX+XoX+XdXOX+XOX@X+X+XOX+XoXOX+X#XnX9 + OX+X+XoX+XXXdXlXOX+X+XoX@XoX+X#Xw 9 XX+ OX@X",
"w w w w w w e e w w e w q q 0 q w w w w w MXq MXw w e e e e w w e e e w w w w 0 9 w w w w w w w w w w w e e w w e w q q 0 q w w ",
"9 9 0 q 0 9 9 q 0 q q q 0 9 0 0 nXq q nXq g g d q 9 nXq q nXnX0 9 nXq nX0 0 9 9 q nXq nX0 0 9 9 0 q 0 9 9 q 0 q q q 0 9 0 0 nXq ",
"9  X X.X.X.X.X.X.XXXXXd a XXXXXXXXXXXX+X#Xj g  X.X.X.X.X.X.Xd XXXXXXXXXXXXXXXXXXXXXXXXXX+ #X9  X X.X.X.X.X.X.XXXXXXXXXXXXXXXXXXX",
"q  XXX+ oX+ +XOX+ OXoXa a + +X+ a OX+XXX#X0 d .XoX+ + dXOXoXd oXdXXXdX+  XOX+ + dXoXOX+ +X#Xq  XXX+ oX+ +XOX+ OXoX+ OX+ +X+ dXOX",
"0 XXXX+ lX+ +XOXOX+XOXOXd OXd d OXdX+X@X#X9 bX.X+ +XOXdXOXd g OXdXd OXOXXXOXOX+ dXOXOX+ +X#X0 XX.X+ lX+ +XOXOX+XOXOXOXOX+ dXOXdX",
"9 XX+X+ lXOX+ dX+X+ dXd dX+ OXa dXOXOXXX#X0 9 .Xg g j g OX+Xd oX@Xd g OX+ OX+ OX+ dXlX+X+X#X9 XX.X+ lXOX+ dX@X+ dXOXdX+ OXdXdXOX",
"9 XX+X+ OXOXOXXXOX+ XXOXdX+ OXd +XOXOX+X#X0 9 .Xj j j XX+ OX+ OXXX+XOXOX+ @X+ OX+ dXlX+X+X#X9 XX+X+ oXOX+ dXoXOXdXoXOX+ OXdXoXOX",
"0 + oXdXdXdXdXdXdXdXdXdXdXlXlXlXlXlXlXw g g g g g g g g g dXdXdXdXdX@X@X@X@X@X@X@X@Xw @X@Xw 0 + oXdXdXdXdXdXdXdXdXdXdXlXlXlXlXlX",
"0 0 q w w w w w w w w w w w w q j j j j j j j j j j j j j j j e e w q q e e e w w w w w w w 0 0 q w w w w w w w w w w w w q q w ",
"XXXXXXXXXXXXXXXX0 q 9 .X.Xg .X.XXXXXXXXXd d d d d d d d d g j .X X.X.X.X.X.X.XXXXXXXXXXXXXXXXXXXXXXXXXXXXXXX0 q 9 .X.X.X.X.XXXXX",
"+ XX+ oXd g .X+ q 0 q .XdXd + + g g k g g g g w w w w g d g j .X+ OX+Xd dX+ OXOX+ + OX+ + +X+ +X+ oX.XXX.X+ q 0 q .XdX+X+ + + OX",
"+ a OXa d OXOX+Xw 0 9 d + d g d oXd d g j d w w 0 8 j g d g j d d @X+Xd a + OXOXOXoX+XoXoXOX+ OXOXoX+ OXOX+Xw 0 9 .X+ OX+ OXoX+X",
"+ OXd d d oXOX+Xq 0 9 .XdXg g OXj k g k w g k w 7 0 w w d g j g d + d d g + +X+ OXOXOXoXOX+X+ OX+XoX+ oXOX+Xq 0 9 .XdXOX+ OXoXOX",
"+ OXOXOX+ OX+ +Xq 0 0 .X+ @Xd k k g k g j k w w w w g w d g j d + OX+ +XOXOX+XOX+ oX+X+ OX+ + OX+XOX+ OX+ +Xq 0 0 .X+ @XoX+ OXOX",
"w w lXlXlXlXlXw w 0 0 dXj j j j j j j j j j j j j w w @Xg k j + dXdXdXdXdXdXdXdXdXdXdX@X@X@Xw w lXlXlXlXlXw w 0 0 dXdXdXdXdXdXdX",
"w w w w w w w w w 0 k k k k k k k k k k k k k k k k k k g k k k w w w q 0 q w e e w w w w w w w w w w w w w w 0 9 w e e e w q q ",
"q  X.X.X.X.X.XXXXXXXXXXXXXXXXXXXg g g d d d d k j g d d d d d .X.XXXXXXXXXXXXXXXXXXXXXXXXX+ q  X.X.X.X.X.XXXXXXXXXXXXXXXXXXXXXXX",
"9 .X+ OX+ dX+ OX+ OX+ OX+ + OX+ + dXdXg g g d k j g d g j dX+ + +X+ + OXoXOX+XOXOXOXoX+X+ #X9 .X+ OX+ dX+ OX+ OX+ OX+ + OX+ + dX",
"0 .XOX+ dXOXdXd d a d + dXOXOX@X+ lX@XOXdXg d k j g d g dXOX+ @X+ OXoX+ + +X+X+X+ + +XOX+ #X0 .XOX+ dXOXdX+ + OXOX+ dXOXOX@X+ lX",
"q .X+ + OXdXOXOXg d + OX+ + @XOX@XoXOX+ + +Xg k j g d dX+ dX+ + +XoXOX@XdX+ OXoXOXOX+X+ + #Xq .X+ + OXdXOXOX+ OX+ OX+ + @XOX@XoX",
"q .X+ + dXOXOXoX+ OXOX+ oXOXOX@X+ lX+XoXOX+Xg k j g d + dXdX+ OX+ OXoX+XdX+ +X+X+ oX+X+ + #Xq .X+ + dXOXOXoX+ OXOX+ oXOXOX@X+ lX",
"9 + dXdXdXdXdXdXlXlXlXlXlXlXlXlXlXlXlXlXlXlXlXk j g dXdXdXdXdXdXdX@X@X@XlXlXlXlXlXlXlXlXw w 9 + dXdXdXdXdXdXlXlXlXlXlXlXlXlXlXlX",
"q 0 w w w w w w w q q w e k k k k k k k k k k k j g w w w w w e e w q MXe w w w e e w w w w q 0 w w w w w w w q q w e e e w w e ",
".X.X.X.XXXXXXXXXXXXXXXXXXXk k g d d d d d d d d d d d d d XXXXXXXXXX0 q  X.X.X.X.XXXXXXXXXXX.X.X.X.XXXXXXXXXXXXXXXXXXX0 9 0  X.X",
"OX+ @X+ dXoX+ OXOX+ dXOX+ k j g d g g dX+ + g d d d j + dXdX+ + +XdXq 0 .X+ dX+ @X+X+ +XdX+ OX+ @X+ dXoX+ OXOX+ dXOX+ w 0 0 .X+ ",
"+ OX@X+ OXoXOX+ @X+ OXoXOXk j g d g + dXOX+ @Xg d g j dX+ OX@XOXdX+Xw 0 .XdX+ +X+ OX+XOXdX+X+ OXOX+ dXoXOX+ @X+ OXoXOXw 0 nX.XOX",
"OXoXOXdXOXOX+ OX@XOX+X+ dXk j g d lX+ OX+ + OXg d g j dX+ + OX+XoXdXw 0 .X+ dX+ OX+X+ +XdX+XOXoX@XdXOX+ + OX@XOX+X+ dXw 0 nX.XlX",
"OXoX@XdXdXOXOXOX@X+ dXOXOXk j g g lX+ dX+ OXdXdXd +X+ dXOXdXOXOXdXOXw q .XdXdX+ @X+X+ +XdX+ OXoX@XdXdXOXOXOX@X+ dXOXOXw 0 9 + lX",
"w w w w w w w w w w k k k k j g g MXw w w w w w g w w w w e e e w e e q 0 w w w w e e e e w w w w w w w w w w w w w w w 0 9 q MX",
"q 9 q q q q 0 0 0 j j j j j d g g g 0 0 9 g g g g g g 0 nXq nXq nX0 q nX0 0 q 0 0 0 nXq 0 0 q 9 q q q q 0 0 0 9 9 0 0 0 9 9 9 9 ",
"XXXXXXXXXXXXXXXXg d j q g d d d d g g .XXXg d d d d d g XXXXXXXXXXXXXXXXXX.X0 q  X.X.X.X.X.X.XXXXXXXXXXXXXXXXXXXXXq 9  X.X.X.X.X",
"+ OXOXOXOX+ OXOX+ + j k g d g + OX+ OX+ + +Xg d d d g g + OX+ OX+ OX+ + +X+ 0 9 .XOX+ OX+ OX+ OXOXOXOX+ OXOX+ + q w 0 .XXX+ OX+ ",
"OXOXOXOXOXOX+ dX+ dXj k g d +X+ OXXXOX+ +X+ g g d d g dXXX@XdX+ +X+X+ + +X+ q 0 .XOX+ + oX+ OXOXOXOXOXOX+ dX+ dX9 w 0 .X+X+ OXdX",
"+ dX+XOXOXdX+ OX+ + j k g .XXX+ OXOXdXOXOX+X+ g d g + dXXXOXdXOX+ OX+ + +X+ q 0 .X+ + + OX+X+ dX+XOXOXdX+ OX+ + 9 w 9 .XXX+ OXOX",
"XXdXlXOX+X+XoX@XoX+Xj k g XX+ OX@XoX+XOX+XOX+XoXd g OX+XOX@X+X+XOX+XoXOX+XOXnX9 + OX+X+XoX+XXXdXlXOX+X+XoX@XoX+X0 w 9 XX+ OX@XoX",
"w w w w j j j j j j j j j j j k k k k k MXq MXw g e e e e w w e e e w w w w 0 9 w w w w w w w w w w w e e w w e w q q 0 q w w w ",
"9 0 q j j j g g g g g g g g g g g g g g g g j q g nXq q nXnX0 9 nXq nX0 0 9 9 q nXq nX0 0 9 9 0 q 0 9 9 q 0 q q q 0 9 0 0 nXq q ",
"q  X.X.X.Xd d d d d g g d d d d d d d d d XXXXq g q  X.X.X.X.X.X.XXXXXXXXXXXXXXXXXXXXXXXXX+ q  X.X.X.X.X.XXXXXXXXXXXXXXXXXXXXXXX",
"9 .X+ OX+ dX+ g g g g g j g OXj g dXdXj + +X+ q 0 9 .X+ dXdX+ + +X+ + OXoXOX+XOXOXOXoX+X+ 0 9 .X+ OX+ dX+ OX+ OX+ OX+ + OX+ + dX",
"0 .XOX+ dXOXdXg j g j g dXg OX@Xj lXj j dXOX+Xw q 0 .X+ dXOX+ @X+ OXoX+ + +X+X+X+ + +XOX+ 0 0 .XOX+ dXOXdX+ + OXOX+ dXOXOX@X+ lX",
"q .X+ + OXdXOXOXj g j g + + @XOX@XoXj + + +XOXw q 0 .XdX+ dX+ + +XoXOX@XdX+ OXoXOXOX+X+ + 0 q .X+ + OXdXOXOX+ OX+ OX+ + @XOX@XoX",
"q .X+ + dXOXOXoXj d g + oXOXOX@X+ lXj oXOX+X+ e q 9 .X+ dXdX+ OX+ OXoX+XdX+ +X+X+ oX+X+ + 0 q .X+ + dXOXOXoX+ OXOX+ oXOXOX@X+ lX",
"9 + dXdXdXdXdXdXg g lXlXlXlXlXlXlXlXlXlXlXlXlXw 0 9 dXdXdXdXdXdXdX@X@X@XlXlXlXlXlXlXlXlXw w 9 + dXdXdXdXdXdXlXlXlXlXlXlXlXlXlXlX",
"q 0 w w w w w w w g q w e e e w w e e e w e e w 0 q w w w w w e e w q MXe w w w e e w w w w q 0 w w w w w w w q q w e e e w w e ",
".X.X.X.XXXXXXXXXXXXXXXXXXX0 9 0  X.X.X.X.X.X.XXXXXXXXXXXXXXXXXXXXXXX0 q  X.X.X.X.XXXXXXXXXXX.X.X.X.XXXXXXXXXXXXXXXXXXX0 9 0  X.X",
"OX+ @X+ dXoX+ OXOX+ dXOX+ w 0 0 .X+ + dX+ + OXdX+ dXoX+ dXdX+ + +XdXq 0 .X+ dX+ @X+X+ +XdX+ OX+ @X+ dXoX+ OXOX+ dXOX+ w 0 0 .X+ ",
"+ OX@X+ OXoXOX+ @X+ OXoXOXw 0 nX.XOX+ dXOX+ @XlX+ + + dX+ OX@XOXdX+Xw 0 .XdX+ +X+ OX+XOXdX+X+ OXOX+ dXoXOX+ @X+ OXoXOXw 0 nX.XOX",
"OXoXOXdXOXOX+ OX@XOX+X+ dXw 0 nX.XlX+ OX+ + OXdX+ dXOXdX+ + OX+XoXdXw 0 .X+ dX+ OX+X+ +XdX+XOXoX@XdXOX+ + OX@XOX+X+ dXw 0 nX.XlX",
"dX+ OXOXoXoXoXdXOX+ dXdXoXw 0 0 .X+ + OXOXOXlXdXOXlXOXdX+ dX+ + @XOXw q .XdX+ +X@X+X+ +XdX+ dX+ OXdXoXoXoXdXOX+ dXdXoXw 0 0 .X+ ",
"lXdXdXlXdXdXlXlXlXdXlXlXdXw 0 0 dXdXdXdXdXlXlXlXdXlXdXlXdXlXdXdXlXdXw q dXlXdXdXlXlXdXdXlXdXlXdXdXlXdXdXdXlXdXdXlXlXdXw 0 0 dXdX"
};
