/* XPM */
static char *Blood21668167182[] = {
/* columns rows colors chars-per-pixel */
"64 64 256 2 ",
"   c black",
".  c #0000A8",
"X  c #00A800",
"o  c #00A8A8",
"O  c #A80000",
"+  c #A800A8",
"@  c #A85400",
"#  c gray66",
"$  c gray33",
"%  c #5454FC",
"&  c #54FC54",
"*  c #54FCFC",
"=  c #FC5454",
"-  c #FC54FC",
";  c #FCFC54",
":  c gray99",
">  c #ECECEC",
",  c gainsboro",
"<  c #D0D0D0",
"1  c #C0C0C0",
"2  c #B4B4B4",
"3  c gray66",
"4  c #989898",
"5  c gray55",
"6  c #7C7C7C",
"7  c gray44",
"8  c #646464",
"9  c gray33",
"0  c #484848",
"q  c gray22",
"w  c #2C2C2C",
"e  c #202020",
"r  c #FC0000",
"t  c #EC0000",
"y  c #E00000",
"u  c #D40000",
"i  c #C80000",
"p  c #BC0000",
"a  c #B00000",
"s  c #A40000",
"d  c #980000",
"f  c #880000",
"g  c #7C0000",
"h  c #700000",
"j  c #640000",
"k  c #580000",
"l  c #4C0000",
"z  c #400000",
"x  c #FCD8D8",
"c  c #FCB8B8",
"v  c #FC9C9C",
"b  c #FC7C7C",
"n  c #FC5C5C",
"m  c #FC4040",
"M  c #FC2020",
"N  c #FC0000",
"B  c #FCA85C",
"V  c #FC9840",
"C  c #FC8820",
"Z  c #FC7800",
"A  c #E46C00",
"S  c #CC6000",
"D  c #B45400",
"F  c #9C4C00",
"G  c #FCFCD8",
"H  c #FCFCB8",
"J  c #FCFC9C",
"K  c #FCFC7C",
"L  c #FCF85C",
"P  c #FCF440",
"I  c #FCF420",
"U  c #FCF400",
"Y  c #E4D800",
"T  c #CCC400",
"R  c #B4AC00",
"E  c #9C9C00",
"W  c #848400",
"Q  c #706C00",
"!  c #585400",
"~  c #404000",
"^  c #D0FC5C",
"/  c #C4FC40",
"(  c #B4FC20",
")  c #A0FC00",
"_  c #90E400",
"`  c #80CC00",
"'  c #74B400",
"]  c #609C00",
"[  c #D8FCD8",
"{  c #BCFCB8",
"}  c #9CFC9C",
"|  c #80FC7C",
" . c #60FC5C",
".. c #40FC40",
"X. c #20FC20",
"o. c #00FC00",
"O. c #00FC00",
"+. c #00EC00",
"@. c #00E000",
"#. c #00D400",
"$. c #04C800",
"%. c #04BC00",
"&. c #04B000",
"*. c #04A400",
"=. c #049800",
"-. c #048800",
";. c #047C00",
":. c #047000",
">. c #046400",
",. c #045800",
"<. c #044C00",
"1. c #044000",
"2. c #D8FCFC",
"3. c #B8FCFC",
"4. c #9CFCFC",
"5. c #7CFCF8",
"6. c #5CFCFC",
"7. c #40FCFC",
"8. c #20FCFC",
"9. c #00FCFC",
"0. c #00E4E4",
"q. c #00CCCC",
"w. c #00B4B4",
"e. c #009C9C",
"r. c #008484",
"t. c #007070",
"y. c #005858",
"u. c #004040",
"i. c #5CBCFC",
"p. c #40B0FC",
"a. c #20A8FC",
"s. c #009CFC",
"d. c #008CE4",
"f. c #007CCC",
"g. c #006CB4",
"h. c #005C9C",
"j. c #D8D8FC",
"k. c #B8BCFC",
"l. c #9C9CFC",
"z. c #7C80FC",
"x. c #5C60FC",
"c. c #4040FC",
"v. c #2024FC",
"b. c #0004FC",
"n. c #0000FC",
"m. c #0000EC",
"M. c #0000E0",
"N. c #0000D4",
"B. c #0000C8",
"V. c #0000BC",
"C. c #0000B0",
"Z. c #0000A4",
"A. c #000098",
"S. c #000088",
"D. c #00007C",
"F. c #000070",
"G. c #000064",
"H. c #000058",
"J. c #00004C",
"K. c #000040",
"L. c #282828",
"P. c #FCE034",
"I. c #FCD424",
"U. c #FCCC18",
"Y. c #FCC008",
"T. c #FCB400",
"R. c #B420FC",
"E. c #A800FC",
"W. c #9800E4",
"Q. c #8000CC",
"!. c #7400B4",
"~. c #60009C",
"^. c #500084",
"/. c #440070",
"(. c #340058",
"). c #280040",
"_. c #FCD8FC",
"`. c #FCB8FC",
"'. c #FC9CFC",
"]. c #FC7CFC",
"[. c #FC5CFC",
"{. c #FC40FC",
"}. c #FC20FC",
"|. c #FC00FC",
" X c #E000E4",
".X c #C800CC",
"XX c #B400B4",
"oX c #9C009C",
"OX c #840084",
"+X c #6C0070",
"@X c #580058",
"#X c #400040",
"$X c #FCE8DC",
"%X c #FCE0D0",
"&X c #FCD8C4",
"*X c #FCD4BC",
"=X c #FCCCB0",
"-X c #FCC4A4",
";X c #FCBC9C",
":X c #FCB890",
">X c #FCB080",
",X c #FCA470",
"<X c #FC9C60",
"1X c #F0945C",
"2X c #E88C58",
"3X c #DC8854",
"4X c #D08050",
"5X c #C87C4C",
"6X c #BC7848",
"7X c #B47044",
"8X c #A86840",
"9X c #A0643C",
"0X c #9C6038",
"qX c #905C34",
"wX c #885830",
"eX c #80502C",
"rX c #744C28",
"tX c #6C4824",
"yX c #5C4020",
"uX c #543C1C",
"iX c #483818",
"pX c #403018",
"aX c #382C14",
"sX c #28200C",
"dX c #600064",
"fX c #006464",
"gX c #006060",
"hX c #00001C",
"jX c #00002C",
"kX c #302410",
"lX c #480048",
"zX c #500050",
"xX c #000034",
"cX c gray11",
"vX c #4C4C4C",
"bX c gray36",
"nX c gray25",
"mX c gray19",
"MX c #343434",
"NX c #D8F4F4",
"BX c #B8E8E8",
"VX c #9CDCDC",
"CX c #74C8C8",
"ZX c #48C0C0",
"AX c #20B4B4",
"SX c #20B0B0",
"DX c #00A4A4",
"FX c #009898",
"GX c #008C8C",
"HX c #008484",
"JX c #007C7C",
"KX c #007878",
"LX c #007474",
"PX c #007070",
"IX c #006C6C",
"UX c #980088",
/* pixels */
"mXmXmXmXmXmXmXmXmXmXmXmXmXmXmXmXmXmXmXmXmXmXmXmXmXmXmXmXmXmXmXmXmXmXmXmXmXmXmXmXmXmXmXmXmXmXmXmXmXmXmXmXmXmXmXmXmXmXmXmXmXmXmXmX",
"nXmXnXq q q nXq q q q nXq q q q q q nXnXnXnXnXq q q q q q nXnXnXnXnXq q q mXmXq q nXq q q q nXmXnXq q q nXq q q q nXq q q q q q ",
"OXOXOXOXOXOXOXOXOX+Xq nXoXOXOXOXOXOXOXOXOXOXOXOXOXOX+Xq mXoXoXoXoXoXoXoXOXOXOXOXOXOXOXOXOX+XmXoXoXOXOXOXOXOXOX+Xq nXoXOXOXOXOXOX",
"+XzX+X+XdX+XzX+XzXlXL.nXOXdXdX+XzX+XzX+X+XzX+XzX+X+X#XL.q OX+XdXlX+XzXdXdXdX+XdX+XdX+X#XzXlXq OX+X+XdX+XzX+XzXlXL.nXOXdXdX+XzX+X",
"+XzXdX+XzX+X+XzX#X).L.nXOXOX+XdXzX+X+XzX+XdXdXzX+XdX#XL.q OXzXlXdX+X+XzXdX+XdXlX+XdX+XdXzX#Xq OXdX+XzX+X+XzX#X).L.nXOXOX+XdXzX+X",
"+XzXdX+XzX+XzX+X#X).L.q OXdX+XzXzX+X+XzX+XzXdXzX+XdX#XL.mXOX+XlXdX+XdXzXdX+XdXlX+XdX+XdXzX).q OXdX+XzX+XzX+X#X).L.q OXdX+XzXzX+X",
"dXOX+XdX#XzX#XzXzX).L.nX+XzXzX#XzXzXzX#XzXzXdX#XdXzX).L.mXOXzX#XzXzXdX#X#XdX#X#XdX#XzXdXdX).q OX+XdX#XzX#XzXzX).L.nX+XzXzX#XzXzX",
"L.L.L.L.L.L.L.L.e e L.nXq L.L.L.e e e e L.e e e L.L.L.L.q mXL.L.L.L.L.L.L.L.e e e L.L.L.L.L.q q L.L.L.L.L.L.e e L.nXq L.L.L.e e ",
"nXmXmXmXq q q mXmXmXmXmXq q q q q mXmXnXq q mXq q q q q nXq nXnXnX0 0 0 nXq q mXMXmXnXq q nXnXmXmXmXq q q mXmXmXmXmXq q q q q mX",
"OXOXOXOXOXOXOXOXOXOXOX).mXnXoXOXOXOXOXOXOXOXOXOXOXOXOXOXOXOXOXOXOXOXOXOXOXOX).q mXoXOXOXOXOXOXOXj j OXOXOXOXOXOXOXOXmXnXoXOXOXOX",
"dX+XdXdXdXdX+XdXdX+X+X).L.q OXOX+XdX+XdX+X+XzXdXOXdXdX+XlX+XdX+XdX+XdX+X+XzX).q nXOXdXj dXj dX+XdXdXj dXg dXdX+Xj ).L.q OXOXg g ",
"+XdXdXdXdXdXdX+XlX+XlX).L.q OXzX+XdXOXdX+XzX+XdXOXdXdX+XlXOX#XlX+XzXzX+X+XzX).mXq OXdXj +X+Xg dXdXj j g g +XlXj g j L.q OXg +Xg ",
"zX+XlXzXdXdXlX+XdX+X+X).L.nXOXOX+XdXdXlXdXdXzX+XdXdXdX+XlXOXdXlXdX+XdX+X+XzX).mXq OX+Xj g j zX+Xj zXj dXlX+XdX+X+X).L.nXOXOX+XdX",
"zXOXlX#XdXzXzX+X#X+XzX).L.nXOX+XdX#X+XzXdXzXdXzX+XzXlXdXzXdX#XzXzXdXzX+XdXzX).MXnX+XdXzXzX+Xj OXlX#XdXzXzX+X#X+XzX).L.nXOX+XdX#X",
"L.L.L.L.L.L.e e L.L.e L.mXmXq mXL.L.L.L.L.w mXw L.L.e e e e L.L.e e e L.L.L.L.q nXL.L.L.L.L.L.L.L.L.L.L.e e L.L.e L.mXmXq mXL.L.",
"nXnXq mXq nXnXmXq mXmXmXq nXq q MXmXmXMXmXq q nXmXnXMXmXmXMXMXq nXMXmXMXq q nXnXj MXmXMXq q nXnXq mXq nXnXmXq mXmXmXq nXq q MXmX",
"nXoXoXOXOXOXOXOXOXOXOXOXOXOXOXOXOXOXOXzX).q nXoXOXOXOXOXOXOXOXOXOXOXOXOXOXOXOXOXOXOXOXOX+X).nXoXoXOXOXOXOXOXOXg OXOXOXOXOXOXOXOX",
"mXoXOX+X+X+XzXdX+XdX+X+XdX+XzX+XlXdXzXOX).q 0 OX+X+X+XlXdX+XdX+XlXOXlX+XoXdX+X+XlXg dXj zX).mXoXOX+Xl h h h h g g g dX+XzX+XlXdX",
"q OXOX+X#X+XzXdXdXzXdXdXdXdX+XlXdXlXzX#X).nX0 OX+XzXdXlXdXzX+XdXlXOXdXdXOXdXdX+Xj j dX+XzX).q OXOXj j j g 0 q q j g dXdX+Xg dXlX",
"nXOXzX+X#XdX+XlXzX+XlXdXlX+XdX+XlXdXdXOX).q nXOXzX+X+XdXdXzX+X+X#XOX#XdX+XdX+XdX+XlX#XzXzX).nXOXj j j h j q e w q j lX+XdXlXlXdX",
"nXOXzX+XdXdXdXOXdX+XOXdXlX+XdX+XzXdXdXzX).q nXOXdX+XdXOX+XdX+XdXOXzXdXdX+X#X+XdX+XlX#XzXzX).nXOXl l g g 0 e e e 0 l j +XdXlX+XdX",
"q +X+XlXlXlXlXlXlXlXlXlXlX#X#X#X#X#X#XL.L.mXnXlXlXlXlXlXlXlXlXlXlXlX#X#X#X#X#X#X#X#XL.#X#XL.q +X+Xj j j j j 0 j j j j j l l l #X",
"q q mXL.L.L.L.L.L.L.L.L.L.L.L.mXmXL.L.L.L.q q L.L.L.L.L.L.e e e e L.mXmXe e e L.L.L.L.L.L.L.q q z z l l l l l l l l l l z z z L.",
"OXOXOXOXOXOXOXOXq mXnXOXOXOXOXOXOXOXOXOXOXOXOXOXOXOXOXOXOXq nXOXoXOXOXOXOXOXOX0 OXOXOXOXOXOXOXg g g g g g g j l j h g g g g OXOX",
"+XOX+X+XOXOXOX+XmXq mXOXlXzX+X+X+XdX+XzX+XlX+XlX+X+X+XdX+XmXq OX+XdXzX+Xq q 0 q q q dX+X+XzX+XzX+X+Xh h g +Xh l h g lXzX+X+X+XdX",
"+XdXdX+X+XdXdXzXL.q nXOX+XdX+XdX+XzXdXdXzXdX+XlX+XzX+XlX+XmXnXOX+X#XzX+Xq w e w w 0 q +X+XdX+XdXdX+X+XdXdXzXh l h g +XdX+XdX+XzX",
"+XdXdX+X+X+XdXzXmXq nXOXlXdX+XdX+XdXdXzXdXlX+XlXdX+XdX+XdXmXnXOXdX+XzX+Xq w e w q 0 dX+XdXzX+XdXzX+X+X+XdXzXh l h g lXdX+XdX+XdX",
"+XdXdXdX+XdX+XzXmXq q OX+X#X+X+XdXdXdX+XzX#XlXlX+X+X+XdX+XmXq OX+XdX+XzXdXq 0 q q q zX+XdX+X+XdXzXdX+XdX+XzXh l h g +X#X+X+XdXdX",
"L.L.#X#X#X#X#XL.L.q q lXlXlXlXlXlXlX#X#X#X#X#X#X#X#X#X#XL.L.q +XlX#X#X#X#X#Xe 0 #X#X#X#X#X#Xz z z z l l l l l l h h lXlXlXlXlXlX",
"L.L.L.L.L.L.L.L.L.q nXL.e e e L.mXmXL.e e e e L.L.L.L.L.L.mXq q L.L.L.mXq mXL.l l l l l l l l j j j j j j j j j h j j j l L.mXmX",
"mXoXOXOXOXOXOXOXOXOXOXOXOXOXOXOXOXOXOXOXOXOXOXmXnXmXoXOXOXOXOXOXOXOXOXOXOXOXOXOXOXOXOXOXOXj j g g g g g g g g g h g g g g OXOXOX",
"nXOX+XdX+XlX+XdX+XdX+XdX+X+XdX+X+XlXlX+X+XzX+XmXq nXOX+XlXlX+X+XzX+X+XdX+XdXzXdXdXdX+XzX+Xl j g j j +XlX+XdXj h g h j +XdX+X+XlX",
"q OXdX+XlXdXlX+X+XdXdX+XlXdXdX#X+X#X#XdXlXdXzXL.mXq OX+XlXdX+X#X+XdX+X+X+XzXzXzX+X+XzXdX+Xl j h j +XlXdXlX+X+Xj h j lXdXdX#X+X#X",
"mXOX+X+XdXlXdXdX+XdX+XdX+X+X#XdX#X+XdX+X+XzXdXL.mXq OXlX+XlX+X+XzX+XdX#XlX+XdX+XdXdXzX+X+Xl j h +X+XdXlXdXdX+XdXj dX+X+X#XdX#X+X",
"mXOX+X+XlXdXdX+X+XdXdX+X+XdXdX#X+X#XzX+XdXzX+Xe mXnXOX+XlXlX+XdX+XdX+XzXlX+XzXzX+X+XzX+X+Xl j h +X+XlXdXdX+X+XdXdX+X+XdXdX#X+X#X",
"nX+XlXlXlXlXlXlX#X#X#X#X#X#X#X#X#X#X#X#X#X#X#XL.q nXlXlXlXlXlXlXlX#X#Xz z z z z z z z z z l j h z z z z z z z z z z z z z #X#X#X",
"mXq L.L.L.L.L.L.L.mXmXL.e e e L.L.e e e L.e e L.q mXL.L.L.L.L.e e L.mXw e l l l l l l l l j j h j l l L.L.L.L.mXmXL.e z e L.L.e ",
"OXOXOXOXOXOXOXOXOXOXOXOXOXq nXq oXOXOXOXOXOXOXOXOXOXOXOXOXOXOXOXOXOXq l j g g g g g g g g g g g g g g g g g g g g g g h j q oXOX",
"dX+X#X+XlX+X+XdXdX+XlXdX+XL.q q OX+X+XlX+X+XdXlX+XlX+X+XlXlX+X+XzXlXmXl h +XlX+X#XzX+XzXlX+XdX+X#X+XlX+X+XdXdX+XlXdX+Xz h q OX+X",
"+XdX#X+XdX+XdX+X#X+XdX+XdXL.q MXOXdX+XlXdX+X#X#X+X+X+XlX+XdX#XdXlXzXL.l h lX+XzX+XdXzXdXlXzX+XdXdX+XlX+XdX+X#X+XdX+XdXz h MXOXdX",
"dX+XdXlXdXdX+XdX#XdXzX+XlXL.q MXOX#X+XdX+X+XdXlX+XlXdXlX+X+XdXzX+XlXL.l j +XlX+XdXzX+XzXlXzXdX+X#XlXdX+X+XdX#XdXzX+XlXz h l OX#X",
"dX+X#XlXlXdXdXdX#X+XlXdXdXL.q nX+X#X+XlX+XdXlXlX+XzX+XlXdXlXdXdXlXdXL.l j lXlX+X#XzX+XzXlX+XdX+X#XlXlXdXdXdX#X+XlXdXdXz h l +X#X",
"L.L.L.L.L.L.L.L.L.L.L.L.L.L.q nXmXw L.L.L.L.L.L.L.L.L.L.L.e e e L.e e l j L.L.L.L.e e e e L.L.L.L.L.L.L.L.L.L.L.L.e e z h l mXw ",
"mXnXmXmXmXmXq q q nXnXq q q nXnXnXnXq q nXq q q q mXq q MXmXMXmXMXq l l l l mXq q q MXmXq q mXnXmXmXmXmXq q q MXMXMXl l h l l nX",
"OXOXOXOXOXOXOXOXOXOXnXmXnXoXOXOXOXOXOXOXOXOXOXOXOXOXOXOXOXOXOXOXOXOXOXOXOXOXq mXoXOXOXOXOXOXOXOXOXOXOXOXOXOXOXOXOXMXl g h g OXOX",
"+XdXdXdXdX+XdXdX+X+XmXL.q OXOX+XdX+XdX+X+XzXdXOXdXdX+XlX+XdX+XdX+XdX+X+XzX+Xq nXOXdX+XdX+XdX+XdXdXdXdX+XdXdX+X+X+XMXl g OX+XdX+X",
"dXdXdXdXdXdX+XlX+XlXnXL.q OXzX+XdXOXdX+XzX+XdXOXdXdX+XlXOX#XlX+XzXzX+X+XzX+XmXq OXdX+X+X+X+XdXdXdXdXdXdX+XlX+XlXdXe l g zX+XdXlX",
"+XlXzXdXdXlX+XdX+X+XnXL.nXOXOX+XdXdXlXdXdXzX+XdXdXdX+XlXOXdXlXdX+XdX+X+XzX+XmXq OX+X+X+XdXzX+XlXzXdXdXlX+XdX+X+X+Xz l g OX+XdXdX",
"OXlX#XdXzXzX+X#X+XzXq L.nXOX+XdX#X+XzXdXzXdXzX+XzXlXdXzXdX#XzXzXdXzX+XdXzXdXMXnX+XdXzXzX+XzXOXlX#XdXzXzX+X#X+XzXdXz l g +XdX#X+X",
"L.L.L.L.L.e e L.L.e L.mXmXq mXL.L.L.L.L.w mXw L.L.e e e e L.L.e e e L.L.L.L.q nXL.L.L.L.L.z z z z z z z z z z z z z l j l L.L.L.",
"nXq mXq nXnXmXq mXmXmXq nXq q MXmXmXMXmXq q nXmXnXMXmXmXMXMXq nXMXmXMXq q nXnXmXMXmXMXq q l j j j j j j j j j j j j j j j j mXmX",
"mXoXOXOXOXOXOXOXOXOXOXOXOXOXOXOXOXOXOXOXOXOXOXmXnXmXoXOXOXOXOXOXOXOXOXOXOXOXOXOXOXOXOXOXOXl j j g g g g g g g g g g g g g g g OX",
"nXOX+XdX+XlX+XdX+XdX+XdX+X+XdX+X+XlXlX+X+XzX+XmXq nXOX+XlXlX+X+XzX+X+XdX+XdXzXdXdXdX+XzX+Xl j g +XdX+XlX+XdX+XdX+XdXj g j +X+XlX",
"q OXdX+XlXdXlX+X+XdXdX+XlXdXdX#X+X#X#XdXlXdXzXL.mXq OX+XlXdX+X#X+XdX+X+X+XzXzXzX+X+XzXdX+Xl l g dX+XlXdXlX+X+XdXdX+Xj j j #X+X#X",
"mXOX+X+XdXlXdXdX+XdX+XdX+X+X#XdX#X+XdX+X+XzXdXL.mXq OXlX+XlX+X+XzX+XdX#XlX+XdX+XdXdXzX+X+Xl l OX+X+XdXlXdXdX+XdX+XdX+Xj j dX#X+X",
"mXOX+X+XlXdXdX+X+XdXdX+X+XdXdX#X+X#XzX+XdXzX+Xe mXnXOX+XlXlX+XdX+XdX+XzXlX+XzXzX+X+XzX+X+Xq l OX+X+XlXdXdX+X+XdXdX+X+XdXdX#X+X#X",
"nX+XlXlXlXlXlXlX#X#X#X#X#X#X#X#X#X#X#X#X#X#X#XL.q nXlXlXlXlXlXlXlX#X#X#X#X#X#X#X#X#X#X#XL.L.l +XlXlXlXlXlXlX#X#X#X#X#X#X#X#X#X#X",
"mXq L.L.L.L.L.L.L.mXmXL.e e e L.L.e e e L.e e L.q mXL.L.L.L.L.e e L.mXw e L.L.L.e e L.L.L.L.mXq L.L.L.L.L.L.L.mXmXL.e e e L.L.e ",
"OXOXOXOXOXOXOXOXOXOXOXOXOXq nXq oXOXOXOXOXOXOXOXOXOXOXOXOXOXOXOXOXOXq mXoXOXOXOXOXOXOXOXOXOXOXOXOXOXOXOXOXOXOXOXOXOXOXq nXq oXOX",
"dX+X#X+XlX+X+XdXdX+XlXdX+XL.q q OX+X+XlX+X+XdXlX+XlX+X+XlXlX+X+XzXlXmXq OX+XlX+X#XzX+XzXlX+XdX+X#X+XlX+X+XdXdX+XlXdX+XL.q q OX+X",
"+XdX#X+XdX+XdX+X#X+XdX+XdXL.q MXOXdX+XlXdX+X#X#X+X+X+XlX+XdX#XdXlXzXL.q OXlX+XzX+XdXzXdXlXzX+XdXdX+XlX+XdX+X#X+XdX+XdXL.q MXOXdX",
"dX+XdXlXdXdX+XdX#XdXzX+XlXL.q MXOX#X+XdX+X+XdXlX+XlXdXlX+X+XdXzX+XlXL.q OX+XlX+XdXzX+XzXlXzXdX+X#XlXdX+X+XdX#XdXzX+XlXL.q MXOX#X",
"lX+XdXdX+X+X+XlXdX+XlXlX+XL.q q OX+X+XdXdXdX#XlXdX#XdXlX+XlX+X+X#XdXL.mXOXlX+XzX#XzX+XzXlX+XlX+XdXlX+X+X+XlXdX+XlXlX+XL.q q OX+X",
"lXlXlXlXlXlXlXlXlXlXlXlXlXL.q q @XlXlXlXlXlXlXlXlXlXlXlXlXlXlXlXlXlXL.mX@XlXlXlXlXlXlXlXlXlXlXlXlXlXlXlXlXlXlXlXlXlXlXL.q q @X@X"
};
