/* XPM */
static char *Blue41668167182[] = {
/* columns rows colors chars-per-pixel */
"64 64 256 2 ",
"   c black",
".  c #0000A8",
"X  c #00A800",
"o  c #00A8A8",
"O  c #A80000",
"+  c #A800A8",
"@  c #A85400",
"#  c gray66",
"$  c gray33",
"%  c #5454FC",
"&  c #54FC54",
"*  c #54FCFC",
"=  c #FC5454",
"-  c #FC54FC",
";  c #FCFC54",
":  c gray99",
">  c #ECECEC",
",  c gainsboro",
"<  c #D0D0D0",
"1  c #C0C0C0",
"2  c #B4B4B4",
"3  c gray66",
"4  c #989898",
"5  c gray55",
"6  c #7C7C7C",
"7  c gray44",
"8  c #646464",
"9  c gray33",
"0  c #484848",
"q  c gray22",
"w  c #2C2C2C",
"e  c #202020",
"r  c #FC0000",
"t  c #EC0000",
"y  c #E00000",
"u  c #D40000",
"i  c #C80000",
"p  c #BC0000",
"a  c #B00000",
"s  c #A40000",
"d  c #980000",
"f  c #880000",
"g  c #7C0000",
"h  c #700000",
"j  c #640000",
"k  c #580000",
"l  c #4C0000",
"z  c #400000",
"x  c #FCD8D8",
"c  c #FCB8B8",
"v  c #FC9C9C",
"b  c #FC7C7C",
"n  c #FC5C5C",
"m  c #FC4040",
"M  c #FC2020",
"N  c #FC0000",
"B  c #FCA85C",
"V  c #FC9840",
"C  c #FC8820",
"Z  c #FC7800",
"A  c #E46C00",
"S  c #CC6000",
"D  c #B45400",
"F  c #9C4C00",
"G  c #FCFCD8",
"H  c #FCFCB8",
"J  c #FCFC9C",
"K  c #FCFC7C",
"L  c #FCF85C",
"P  c #FCF440",
"I  c #FCF420",
"U  c #FCF400",
"Y  c #E4D800",
"T  c #CCC400",
"R  c #B4AC00",
"E  c #9C9C00",
"W  c #848400",
"Q  c #706C00",
"!  c #585400",
"~  c #404000",
"^  c #D0FC5C",
"/  c #C4FC40",
"(  c #B4FC20",
")  c #A0FC00",
"_  c #90E400",
"`  c #80CC00",
"'  c #74B400",
"]  c #609C00",
"[  c #D8FCD8",
"{  c #BCFCB8",
"}  c #9CFC9C",
"|  c #80FC7C",
" . c #60FC5C",
".. c #40FC40",
"X. c #20FC20",
"o. c #00FC00",
"O. c #00FC00",
"+. c #00EC00",
"@. c #00E000",
"#. c #00D400",
"$. c #04C800",
"%. c #04BC00",
"&. c #04B000",
"*. c #04A400",
"=. c #049800",
"-. c #048800",
";. c #047C00",
":. c #047000",
">. c #046400",
",. c #045800",
"<. c #044C00",
"1. c #044000",
"2. c #D8FCFC",
"3. c #B8FCFC",
"4. c #9CFCFC",
"5. c #7CFCF8",
"6. c #5CFCFC",
"7. c #40FCFC",
"8. c #20FCFC",
"9. c #00FCFC",
"0. c #00E4E4",
"q. c #00CCCC",
"w. c #00B4B4",
"e. c #009C9C",
"r. c #008484",
"t. c #007070",
"y. c #005858",
"u. c #004040",
"i. c #5CBCFC",
"p. c #40B0FC",
"a. c #20A8FC",
"s. c #009CFC",
"d. c #008CE4",
"f. c #007CCC",
"g. c #006CB4",
"h. c #005C9C",
"j. c #D8D8FC",
"k. c #B8BCFC",
"l. c #9C9CFC",
"z. c #7C80FC",
"x. c #5C60FC",
"c. c #4040FC",
"v. c #2024FC",
"b. c #0004FC",
"n. c #0000FC",
"m. c #0000EC",
"M. c #0000E0",
"N. c #0000D4",
"B. c #0000C8",
"V. c #0000BC",
"C. c #0000B0",
"Z. c #0000A4",
"A. c #000098",
"S. c #000088",
"D. c #00007C",
"F. c #000070",
"G. c #000064",
"H. c #000058",
"J. c #00004C",
"K. c #000040",
"L. c #282828",
"P. c #FCE034",
"I. c #FCD424",
"U. c #FCCC18",
"Y. c #FCC008",
"T. c #FCB400",
"R. c #B420FC",
"E. c #A800FC",
"W. c #9800E4",
"Q. c #8000CC",
"!. c #7400B4",
"~. c #60009C",
"^. c #500084",
"/. c #440070",
"(. c #340058",
"). c #280040",
"_. c #FCD8FC",
"`. c #FCB8FC",
"'. c #FC9CFC",
"]. c #FC7CFC",
"[. c #FC5CFC",
"{. c #FC40FC",
"}. c #FC20FC",
"|. c #FC00FC",
" X c #E000E4",
".X c #C800CC",
"XX c #B400B4",
"oX c #9C009C",
"OX c #840084",
"+X c #6C0070",
"@X c #580058",
"#X c #400040",
"$X c #FCE8DC",
"%X c #FCE0D0",
"&X c #FCD8C4",
"*X c #FCD4BC",
"=X c #FCCCB0",
"-X c #FCC4A4",
";X c #FCBC9C",
":X c #FCB890",
">X c #FCB080",
",X c #FCA470",
"<X c #FC9C60",
"1X c #F0945C",
"2X c #E88C58",
"3X c #DC8854",
"4X c #D08050",
"5X c #C87C4C",
"6X c #BC7848",
"7X c #B47044",
"8X c #A86840",
"9X c #A0643C",
"0X c #9C6038",
"qX c #905C34",
"wX c #885830",
"eX c #80502C",
"rX c #744C28",
"tX c #6C4824",
"yX c #5C4020",
"uX c #543C1C",
"iX c #483818",
"pX c #403018",
"aX c #382C14",
"sX c #28200C",
"dX c #600064",
"fX c #006464",
"gX c #006060",
"hX c #00001C",
"jX c #00002C",
"kX c #302410",
"lX c #480048",
"zX c #500050",
"xX c #000034",
"cX c gray11",
"vX c #4C4C4C",
"bX c gray36",
"nX c gray25",
"mX c gray19",
"MX c #343434",
"NX c #D8F4F4",
"BX c #B8E8E8",
"VX c #9CDCDC",
"CX c #74C8C8",
"ZX c #48C0C0",
"AX c #20B4B4",
"SX c #20B0B0",
"DX c #00A4A4",
"FX c #009898",
"GX c #008C8C",
"HX c #008484",
"JX c #007C7C",
"KX c #007878",
"LX c #007474",
"PX c #007070",
"IX c #006C6C",
"UX c #980088",
/* pixels */
"C.C.V.V.V.N.M.n.n.N.N.J.  S.. m.n.n.B.m.N.m.n.n.n.n.N.n.n.n.. J.  B.Z.n.N.n.n.n.n.M.n.M.M.B.B.J.  B.M.B.n.N.F.  J.S.A.N.C.n.N.. ",
"C.C.C.C.V.N.n.N.M.M.A.K.  K.Z.M.V.A.. B.V.M.n.m.M.N.m.n.n.C.F.hX  A.V.n.n.M.n.n.N.C.. A.. M.C.K.  S.. B.n.B.F.  jXS.F.Z.B.n.V.S.",
"V.. C.V.B.Z.A.Z.. N.. D.  G.B.n.n.V.N.V.D.V.B.n.n.n.n.n.M.S.G.jX  A.B.n.n.m.N.M.A.Z.B.n.n.n.. G.  F.B.n.m.A.F.  S.M.. Z.N.V.F.G.",
"B.. . . B.N.Z.A.G.A.D.G.  G.. M.M.A.M.M.V.N.V.m.M.M.B.S.G.H.S.G.  . N.m.N.B.V.B.. N.V.B.A.N.S.D.  A.C.n.N.N.F.  F.C.B.N.n.A.A.G.",
"Z.Z.Z.V.A.S.J.D.A.Z.D.J.  A.A.B.B.M.M.m.N.M.V.A.A.D.H.G.A.. N.Z.  B.M.m.n.C.Z.A.V.N.n.m.N.N.H.F.  G.Z.B.V.V.D.  J.Z.Z.B.C.D.D.H.",
"Z.J.F.J.G.H.G.C.C.S.J.J.  A.. n.m.M.N.n.M.n.B.A.B.C.V.M.n.n.N.G.  C.B.N.Z.S.N.M.N.m.N.B.S.Z.F.F.  D.V.N.N.A.G.  J.F.Z.A.D.J.jXK.",
"G.G.H.G.F.D.A.V.. F.jXF.  H.Z.S.S.Z.A.B.. M.C.N.N.N.N.N.M.S.A.K.  Z.D.S.Z.V.V.A.F.Z.A.Z.A.F.J.H.  jXV.F.A.F.J.  jXjXF.G.H.J.F.F.",
"A.S.J.A.Z.N.V.N.A.S.J.F.  jXS.S.A.F.H.D.D.D.D.S.S.G.F.D.F.H.D.jX  H.K.F.G.G.J.J.H.F.D.J.H.G.A.H.  jXH.G.G.H.jX  jXJ.J.H.S.G.D.G.",
"V.Z.D.Z.B.V.S.B.F.D.J.F.                                                                                        H.G.J.F.A.. C.H.",
"A.D.D.D.Z.A.A.V.H.D.H.G.    e e e e e e e e e e e e e e e e e e e e e e e e e e e e e e e e e e e e e e e       jXG.F.D.D.S.D.G.",
"N.. D.. M.C.D.A.D.S.K.K.    e 6 0 e e e e e 5 0 e e e e e 5 0 e e e e e 5 0 e e e e e 6 0 e e e e e 6 0 e       K.D.S.C.Z.Z.D.D.",
"A.A.D.A.Z.F.S.A.F.G.J.F.    e 0   e e e e cX0   e e e e cX0   e e e e cX0   e e e e cX0   e e e e e nX  e       H.A.A.N.C.A.S.F.",
"F.A.D.A.F.F.F.D.F.H.H.G.    e e e e e e e e e e e e e e e e e e e e e e e e e e e e e e e e e e e e e e e       J.A.C.V.F.D.F.K.",
"J.K.K.K.J.H.K.H.K.jXjXG.    e e e e e e e e e e e e e e e e e e e e e e e e e e e e e e e e e e e e e e e       H.F.D.H.jXjXhXK.",
"J.J.jXJ.J.jXJ.J.K.jXJ.K.    e e e e e e e e e e e                                     e e e e e e e e e e       J.K.jXjXhXK.K.S.",
"                            e e e e e e e e e e e   e e e e e e e e e e e e e e e e   e e e e e e e e e e                       ",
"D.D.D.D.S.S.A.F.S.A.S.D.K.  e e e e e e e e e e e   e       e e         e e       e   e e e e e e e cXcXcX  G.G.S.D.F.D.J.H.J.F.",
"S.D.D.D.A.. A.S.S.G.G.. G.  cXcXe e e e e e e e e   e       0 e         0 e       e   e e e cXcXcXcXcXcXcX  G.S.S.A.A.A.H.A.A.F.",
"C.S.A.S.V.Z.S.A.A.A.C.C.G.  cX7 q cXcXcXcXcXcXe e   e       0 e         0 e       cX  cXcXcXcXcXcXcX8 q cX  J.D.D.. S.A.F.Z.H.A.",
"D.F.S.F.D.S.S.A.. A.A.J.J.  cXq   cXcXcXcXcXcXcXcX  cX      0 cX        0 cX      cX  cXcXcXcXcXcXcXq   cX  J.D.F.D.S.S.Z.S.A.S.",
"A.A.Z.A.A.Z.D.A.S.H.G.jXJ.  cXcXcXcXcXcXcXcXcXcXcX  cX      0 cX        0 cX      cX  cXcXcXcXcXcXcXcXcXcX  jXD.F.S.S.D.A.G.A.S.",
"G.G.J.G.G.G.G.H.jXjXjXjXJ.  cXcXcXcXcXcXcXcXe cXcX  cX      nXcX        nXcX      cX  cXcXcXcXcXcXe cXcXcX  H.K.hXH.H.H.H.K.F.G.",
"H.F.F.D.H.H.K.H.K.G.J.J.K.  cXcXcXcXcXcXcX  mXcXcX  cX      nXcX        nXcX      cX  cXcXcXcXcX  L.cXcXcX  jXH.K.K.K.jXK.K.J.K.",
"                            cXcXcXcXcXcXe L.L.cXcX  cX      nXcX        nXcX      cX  cXcXcXcXe L.L.cXcXcX                      ",
"  jXJ.jXJ.J.K.J.G.H.D.H.jX  cX$ mXcXcXcXcXcXcXcXcX  cX      nXcX        nXcX      cX  cXcXcXcXcXcXcXcXcXcX  K.H.jXJ.D.S.A.S.F.jX",
"  H.D.G.S.S.F.D.S.K.A.F.K.  cXmX  cXcXcXcXcXcXcXcX  cX      q cX        q cXcX    cX  cXcXcXcXcXcXcXcXcXcX  F.F.S.A.A.A.D.F.G.jX",
"  H.H.F.G.D.D.A.F.F.F.H.jX  cXcXcXcXcXcXcXcXcXcXcX  cX      q cX      6 0 0 nX    cX  cXcXcXcXcXcXcX$ mXcX  F.A.S.D.D.D.H.F.G.jX",
"  F.D.S.F.A.A.D.F.jXF.K.jX  cXL.L.L.L.L.L.L.cXcXcX  cX      q cX    cX6 8 0 0     cX  cXcXcXcXcXcXcXmX  cX  F.A.S.D.D.G.S.A.G.jX",
"  G.F.D.F.F.H.J.J.jXJ.H.jX  cXL.cXcXcXcXcXcX  cXcX  cX      q cX    mX8 8 q mX    cX  cXcXcXcXcXcXcXcXcXcX  F.A.S.F.S.S.S.H.H.jX",
"  K.A.J.H.A.S.H.jXhXJ.F.    cXL.cXcXcXcXcXcX  cXcX  cX      q cX  cXq $ q mX      cX  cXcXcX  L.cXcXcXcXcX  G.G.S.S.S.G.D.H.H.jX",
"  K.D.J.A.G.K.jXJ.hXJ.G.    cXL.cXcXcXcXcXcX  cXcX  cXcXcXcXcXcXcXcXcXcXcXcXcXcXcXcX  cXcXcXL.L.cXcXcXcXcX  G.H.J.J.J.J.K.K.jXK.",
"  G.S.D.G.G.F.D.H.hXH.J.jX  cXL.cXcXcXq cXcX  cXcX                                    cXcXcXcXcXz cXcXcXcX  jXjXjXhXjXjXjXjXjXjX",
"  H.F.G.G.H.H.J.hXJ.F.jXjX  cXL.  cX  0   cX  cXcXcXcXcXcXcXcXcXcXcXcXcXcXcXcXcXcXcXcXcXcXcXz z cXcXcXcXcX                      ",
"  jXK.K.jXjXjXjXjXjXhXG.    cXe   cX  q   cX  cXcXcXcXcXcXcXcXz cXcXcXcXz cXcXcXz z cXcXcXcXz cXcXcXcXcXcX  J.H.H.J.  jXjXK.J.K.",
"  hXhXjXhXjXjXjXjXhXjXhXjX  cXe cXcX  cX  cX  cXcXcXcXcXcXcXcXcXz z z cXcXcXz z z z cXcXz z cXcXcXcX0 L.cX  J.F.H.K.  J.K.F.G.J.",
"                            cXe cXcX  cX  cX  cXcXcXcXcXcXcXcXcXz cXz z z z     z z z z cXcXcXcXcXcXL.  cX  G.D.G.jX  J.K.G.G.J.",
"hXK.jXK.jXK.J.H.J.H.J.jXjX  cXe cXcXcX  cXcX  cXcXcXcXcXcXcXcXcXcXcXcXcXz z   j z z z cXcXcXcXz cXcXcXcXcX  H.D.K.hX  H.J.H.G.J.",
"hXK.J.H.K.J.F.H.G.D.H.H.jX  cXe cXcXcXcXcXcX  cXcX  e cXcXcXcXcXcXz cXz z z z z z z z z z z z z cXcXcXcXcX  J.H.J.hX  J.K.H.G.J.",
"hXjXjXK.J.jXjXK.H.J.jXjX    cXe cXcXcXcXcXcX  cXcXe e cXcXcX    cXcXcXz z z z z z z z z z cXcXcXcXcXcXcXcX  H.H.J.hX  jXJ.D.H.J.",
"hXjXjXJ.H.K.jXhXjXJ.J.jX    cXe cXcXcXcXcXcX  cXcXcXcXcXcXcX  cXe cXz z z z z z z z z cXcXcXcXcXcXcXcXcXcX  J.G.J.jX  H.K.J.jXJ.",
"hXK.J.G.F.H.K.jXjXH.H.F.    cXcX              cXcXcXcXcXcXcXcXe e z z z z z z z z z z z cXcXcXcXcXcXcXcXcX  J.F.K.hX  jXhXF.G.J.",
"hXK.K.H.H.J.H.jXhXjXjXH.    cXcXcXcXcXcXcXcXcXcXcXcXcXcXcXcXcXcXz z cXcXcXcXcXcXcXcXcXcXcXcXcXcXcXcXcXcXcX  G.jXhXjX  J.G.F.K.J.",
"hXjXjXK.jXjXK.jXK.K.jXK.    cXcXcXcXcXcXcXcXcXcXcXcXcXcXcXcX    cXcX    cXcXcXcXcXcXcXcXcXcXcXcXcXcX0 e cX  J.hXjXjX  jXJ.H.H.J.",
"hXjXjXjXjXjXjXjXJ.K.K.jX    cX0 e cXcXcXcXcXcXcXcXcXcXcXcXcXcXcXcXcX  cXe cXcXcXcXcXcXcXcXcXcXcXcXcXe   cX  K.J.J.J.  J.K.K.J.J.",
"hXjXK.K.J.K.jXjXK.jXK.jX    cXe   cXcXcXcXcXcXcXcXcXcXcXcXcXcXcXcXcXcXe e cXcXcXcXcXcXcXcXcXcXcXcXcXcXcXcX  H.J.K.jX  jXK.G.F.K.",
"hXjXjXjXjXjXjXhXjXjXjX      cXcXcXcXcXcX    cXcXcXcXcXcXcXcXcXcXcXcXcXcXcXcXcXcXcXcXcXcXcXcXcXcXcXcXcXcXcX  J.jXK.hX  jXJ.K.J.jX",
"hXhXhXhXhXjXjXhXjX          cXcXcXcXcXcX  cXcXcXcXcXcXcXcXcXcXcXcXcXcXcXcXcXcXcXcXcXcXcXcXcXcXcXcXcXcXcXcX  jXhXjXhX  hXhXhXhXhX",
"                            cXcXcXcXcXcXcXcXcXcXcXcXcXcXcXcXcXcXcXcXcXcXcXcXcXcXcXcXcXcXcXcXcXcXcXcXcXcXcX                      ",
"jXjXjXjXjXjXjX  jXF.jXK.    cXcXcXcXcXcXcXcXcXcXcXcXcXcXcXcXcXcXcXcXcXcXcXcXcXcXcXcXcXcXcXcXcX    cXcXcXcX  hXhXjXjXjXhXjXK.jXjX",
"H.G.J.F.H.K.jX  J.G.J.H.jX  cXcXcXcXcXcXcXcXcXcXcXcXcXcXcXcXcXcXcXcXcXcXcXcXcXcXcXcXcXcXcXcXcX  cXcXcXcXcX  hXK.J.H.G.J.J.H.K.J.",
"H.G.K.G.H.J.hX  K.J.K.jX    cXcXcXcXcXcXcXcXcXcXcXcXcXcXcXcXcXcXcXcXcXcXcXcXcXcXcXcXcXcXcXcXcXcXcXcXcXcXcX  jXjXK.K.K.jXJ.H.G.H.",
"J.J.H.J.H.J.hX  K.K.jXjX    cXcXcXcXcXcXcXcXcXcXcXcXcXcXcXcXcXcXcXcXcXcXcXcXcXcXcXcXcXcXcXcXcXcXcXcXcXcXcX  jXjXjXjXK.K.J.J.H.H.",
"G.H.H.H.G.J.hX  J.jXjX      cXq e cXcXcXcXcXcXcXcX                                    cXcXcXcXcXcXcXq e cX  jXjXJ.J.J.J.J.H.G.H.",
"K.jXJ.jXK.K.hX  jX      jX  cXe   cXcXcXcXcXcXcXcX  cXcXcXcXcXcXcXcXcXcXcXcXcXcXcXcX  cXcXcXcXcXcXcXe   cX  jXK.H.J.H.G.K.H.H.H.",
"G.G.J.G.G.K.hX              cXcXcXcXcXcXcXcXcXcXcX  cXcXcXcXcXcXcXcXcXcXcXcXcXcXcXcX  cXcXcXcXcXcXcXcXcXcX      J.H.H.J.H.J.J.J.",
"K.J.G.J.K.jXhX  hXhXjXjX    cXcXcXcXcXcXcXcXcXcXcX  cXcXcXcXcXcXcXcXcXcXcXcXcXcXcXcX  cXcXcXcXcXcXcXcXcXcX      jXjXjXJ.jXjXjXjX",
"jXjXjXjXjXhXhX  hXK.J.J.    cXcXcXcXcXcXcXcXcXcXcX  cXcXcXcXcXcXcXcXcXcXcXcXcXcXcXcX  cXcXcXcXcXcXcXcXcXcX    jXH.J.H.K.jXjXjXhX",
"jXjXjXjXjXjXjX  jXjXjXK.    cXcXcXcXcXcXcXcXcXcXcX  cXcXcXcXcXcXcXcXcXcXcXcXcXcXcXcX  cXcXcXcXcXcXcXcXcXcX    jXK.K.J.J.J.J.J.J.",
"K.J.H.J.K.jXhX  jXjXjXjX    cXcXcXcXcXcXcXcXcXcXcX  cXcXcXcXcXcXcXcXcXcXcXcXcXcXcXcX  cXcXcXcXcXcXcXcXcXcX  jXK.H.J.G.H.J.J.H.J.",
"K.J.jXJ.K.hXhX              cXcXcXcXcXcXcX  cXcXcX  cXcXcXcXcXcXcXcXcXcXcXcXcXcXcXcX  cXcXcXcXcXcXcXcXcXcX    K.K.K.H.J.jXK.K.J.",
"K.H.K.G.K.jXjX        jX    cXq cXcXcXcXcXq cXcXcX  cXcXcXcXcXcXcXcXcXcXcXcXcXcXcXcX  cXcXq cXcXcXcXmXcXcX    jXjXK.K.K.jXK.K.K.",
"J.H.K.H.J.jXhX      jXjX    cXcX  cXcXcXcXcX  cXcX  cXcXcXcXcXcXcXcXcXcXcXcXcXcXcXcX  cXcXcX  cXcXcXcX  cX    jX  jXK.jX  jXjXjX",
"hXjXK.jXhXhXhX      jXjX    cXcXcXcXcXcXcXcXcXcXcX  cXcXcXcXcXcXcXcXcXcXcXcXcXcXcXcX  cXcXcXcXcXcXcXcXcXcX        jX      jXjX  ",
"hXhXhXhXhXjXjX  jXjX                                                                                                            "
};
