/* XPM */
static char *Blue201668167182[] = {
/* columns rows colors chars-per-pixel */
"64 64 256 2 ",
"   c black",
".  c #0000A8",
"X  c #00A800",
"o  c #00A8A8",
"O  c #A80000",
"+  c #A800A8",
"@  c #A85400",
"#  c gray66",
"$  c gray33",
"%  c #5454FC",
"&  c #54FC54",
"*  c #54FCFC",
"=  c #FC5454",
"-  c #FC54FC",
";  c #FCFC54",
":  c gray99",
">  c #ECECEC",
",  c gainsboro",
"<  c #D0D0D0",
"1  c #C0C0C0",
"2  c #B4B4B4",
"3  c gray66",
"4  c #989898",
"5  c gray55",
"6  c #7C7C7C",
"7  c gray44",
"8  c #646464",
"9  c gray33",
"0  c #484848",
"q  c gray22",
"w  c #2C2C2C",
"e  c #202020",
"r  c #FC0000",
"t  c #EC0000",
"y  c #E00000",
"u  c #D40000",
"i  c #C80000",
"p  c #BC0000",
"a  c #B00000",
"s  c #A40000",
"d  c #980000",
"f  c #880000",
"g  c #7C0000",
"h  c #700000",
"j  c #640000",
"k  c #580000",
"l  c #4C0000",
"z  c #400000",
"x  c #FCD8D8",
"c  c #FCB8B8",
"v  c #FC9C9C",
"b  c #FC7C7C",
"n  c #FC5C5C",
"m  c #FC4040",
"M  c #FC2020",
"N  c #FC0000",
"B  c #FCA85C",
"V  c #FC9840",
"C  c #FC8820",
"Z  c #FC7800",
"A  c #E46C00",
"S  c #CC6000",
"D  c #B45400",
"F  c #9C4C00",
"G  c #FCFCD8",
"H  c #FCFCB8",
"J  c #FCFC9C",
"K  c #FCFC7C",
"L  c #FCF85C",
"P  c #FCF440",
"I  c #FCF420",
"U  c #FCF400",
"Y  c #E4D800",
"T  c #CCC400",
"R  c #B4AC00",
"E  c #9C9C00",
"W  c #848400",
"Q  c #706C00",
"!  c #585400",
"~  c #404000",
"^  c #D0FC5C",
"/  c #C4FC40",
"(  c #B4FC20",
")  c #A0FC00",
"_  c #90E400",
"`  c #80CC00",
"'  c #74B400",
"]  c #609C00",
"[  c #D8FCD8",
"{  c #BCFCB8",
"}  c #9CFC9C",
"|  c #80FC7C",
" . c #60FC5C",
".. c #40FC40",
"X. c #20FC20",
"o. c #00FC00",
"O. c #00FC00",
"+. c #00EC00",
"@. c #00E000",
"#. c #00D400",
"$. c #04C800",
"%. c #04BC00",
"&. c #04B000",
"*. c #04A400",
"=. c #049800",
"-. c #048800",
";. c #047C00",
":. c #047000",
">. c #046400",
",. c #045800",
"<. c #044C00",
"1. c #044000",
"2. c #D8FCFC",
"3. c #B8FCFC",
"4. c #9CFCFC",
"5. c #7CFCF8",
"6. c #5CFCFC",
"7. c #40FCFC",
"8. c #20FCFC",
"9. c #00FCFC",
"0. c #00E4E4",
"q. c #00CCCC",
"w. c #00B4B4",
"e. c #009C9C",
"r. c #008484",
"t. c #007070",
"y. c #005858",
"u. c #004040",
"i. c #5CBCFC",
"p. c #40B0FC",
"a. c #20A8FC",
"s. c #009CFC",
"d. c #008CE4",
"f. c #007CCC",
"g. c #006CB4",
"h. c #005C9C",
"j. c #D8D8FC",
"k. c #B8BCFC",
"l. c #9C9CFC",
"z. c #7C80FC",
"x. c #5C60FC",
"c. c #4040FC",
"v. c #2024FC",
"b. c #0004FC",
"n. c #0000FC",
"m. c #0000EC",
"M. c #0000E0",
"N. c #0000D4",
"B. c #0000C8",
"V. c #0000BC",
"C. c #0000B0",
"Z. c #0000A4",
"A. c #000098",
"S. c #000088",
"D. c #00007C",
"F. c #000070",
"G. c #000064",
"H. c #000058",
"J. c #00004C",
"K. c #000040",
"L. c #282828",
"P. c #FCE034",
"I. c #FCD424",
"U. c #FCCC18",
"Y. c #FCC008",
"T. c #FCB400",
"R. c #B420FC",
"E. c #A800FC",
"W. c #9800E4",
"Q. c #8000CC",
"!. c #7400B4",
"~. c #60009C",
"^. c #500084",
"/. c #440070",
"(. c #340058",
"). c #280040",
"_. c #FCD8FC",
"`. c #FCB8FC",
"'. c #FC9CFC",
"]. c #FC7CFC",
"[. c #FC5CFC",
"{. c #FC40FC",
"}. c #FC20FC",
"|. c #FC00FC",
" X c #E000E4",
".X c #C800CC",
"XX c #B400B4",
"oX c #9C009C",
"OX c #840084",
"+X c #6C0070",
"@X c #580058",
"#X c #400040",
"$X c #FCE8DC",
"%X c #FCE0D0",
"&X c #FCD8C4",
"*X c #FCD4BC",
"=X c #FCCCB0",
"-X c #FCC4A4",
";X c #FCBC9C",
":X c #FCB890",
">X c #FCB080",
",X c #FCA470",
"<X c #FC9C60",
"1X c #F0945C",
"2X c #E88C58",
"3X c #DC8854",
"4X c #D08050",
"5X c #C87C4C",
"6X c #BC7848",
"7X c #B47044",
"8X c #A86840",
"9X c #A0643C",
"0X c #9C6038",
"qX c #905C34",
"wX c #885830",
"eX c #80502C",
"rX c #744C28",
"tX c #6C4824",
"yX c #5C4020",
"uX c #543C1C",
"iX c #483818",
"pX c #403018",
"aX c #382C14",
"sX c #28200C",
"dX c #600064",
"fX c #006464",
"gX c #006060",
"hX c #00001C",
"jX c #00002C",
"kX c #302410",
"lX c #480048",
"zX c #500050",
"xX c #000034",
"cX c gray11",
"vX c #4C4C4C",
"bX c gray36",
"nX c gray25",
"mX c gray19",
"MX c #343434",
"NX c #D8F4F4",
"BX c #B8E8E8",
"VX c #9CDCDC",
"CX c #74C8C8",
"ZX c #48C0C0",
"AX c #20B4B4",
"SX c #20B0B0",
"DX c #00A4A4",
"FX c #009898",
"GX c #008C8C",
"HX c #008484",
"JX c #007C7C",
"KX c #007878",
"LX c #007474",
"PX c #007070",
"IX c #006C6C",
"UX c #980088",
/* pixels */
"jXjXjXjXjXH.K.K.jXjXjXJ.J.J.K.jXK.D.F.G.J.K.jXjXjXjXjXjXjXjXjXjXjXK.K.H.G.H.D.H.J.H.F.G.K.jXjXjXJ.H.F.jXK.K.H.jXjXjXJ.J.J.jXjXjX",
"jXjXjXjXjXH.J.jXjXjXjXJ.K.F.H.jXjXD.A.D.H.K.jXjXjXK.jXjXjXjXjXjXjXJ.H.H.S.G.D.J.H.Z.F.H.K.jXjXK.J.H.H.K.jXK.H.jXjXjXJ.H.F.K.jXjX",
"jXjXhXjXjXH.F.H.jXjXjXjXH.J.K.jXjXK.F.A.F.J.jXK.jXjXjXjXK.jXjXjXK.K.H.D.F.D.K.H.S.A.K.jXjXhXjXjXK.H.K.jXK.J.H.K.jXhXK.J.H.K.J.jX",
"jXjXjXjXjXJ.F.J.jXjXK.K.J.H.H.K.jXK.H.A.D.J.K.jXK.jXK.jXjXK.jXK.J.H.F.D.S.H.J.H.A.J.jXjXjXJ.jXK.jXjXjXjXK.K.J.jXjXjXjXK.K.J.J.jX",
"jXjXjXhXjXJ.G.G.jXjXjXjXJ.G.H.J.jXK.K.F.A.H.H.J.J.jXjXjXjXjXK.K.J.H.A.H.J.jXH.A.D.J.jXjXjXK.J.K.K.jXK.K.H.H.H.jXjXjXjXJ.H.H.K.K.",
"K.jXjXjXjXH.F.H.K.jXjXjXjXH.F.K.jXK.K.H.F.F.F.H.K.K.K.jXjXjXjXG.F.S.Z.H.jXK.G.F.G.K.jXK.jXH.J.K.K.K.K.J.H.D.H.K.jXK.J.K.F.H.H.J.",
"K.jXjXjXjXH.S.G.K.jXjXjXK.H.A.H.J.K.jXH.D.C.S.F.H.J.J.J.J.H.H.J.S.Z.D.F.jXK.F.c.H.jXK.K.K.K.H.H.J.H.H.J.F.D.K.jXK.H.H.H.H.J.K.J.",
"jXK.K.jXjXK.D.G.J.jXjXjXjXG.F.J.jXjXjXJ.H.Z.Z.F.H.J.H.H.H.G.D.A.S.A.D.K.jXH.S.c.H.jXjXjXH.F.F.J.K.K.J.J.H.H.jXK.J.F.F.H.J.J.F.H.",
"J.jXjXjXK.jXH.F.J.jXjXjXJ.J.F.D.H.K.J.jXH.F.A.A.D.H.H.F.G.D.H.Z.D.Z.J.K.K.F.C.A.J.J.K.J.K.D.c.A.H.H.G.F.A.H.K.J.J.H.H.jXjXJ.G.H.",
"J.K.jXjXjXK.S.H.H.jXK.jXJ.J.H.F.H.K.K.jXK.S.c.S.A.F.D.H.D.F.A.C.A.H.K.jXK.H.c.c.J.H.jXK.H.A.A.C.F.A.. Z.H.K.J.H.Z.H.jXjXjXH.H.F.",
"H.jXK.jXjXK.A.H.H.jXK.K.K.H.D.F.J.J.K.H.K.H.C.c.A.D.Z.D.A.D.c.D.H.H.J.K.H.D.Z.c.H.jXJ.G.H.c.Z.D.c.A.Z.F.H.J.F.C.H.K.jXjXjXK.G.D.",
"H.K.jXK.jXJ.S.H.H.J.K.jXJ.K.S.F.G.J.jXK.jXH.A.A.C.Z.S.Z.F.J.H.G.J.K.jXK.H.S.A.c.F.H.J.J.F.A.C.G.H.G.H.K.J.J.A.H.jXjXjXjXjXjXH.F.",
"F.K.J.K.jXH.F.A.H.J.J.K.G.H.D.D.F.J.K.J.H.H.Z.c.c.c.c.C.S.H.K.jXjXjXK.J.F.S.A.c.A.J.J.H.C.c.c.H.H.H.jXK.H.D.S.H.K.jXjXK.H.H.F.S.",
"S.G.J.J.K.K.A.S.F.H.K.J.H.G.D.S.H.H.J.J.jXK.H.A.c.c.c.A.H.K.J.J.J.H.K.J.J.F.c.c.A.H.J.A.c.c.A.D.H.H.H.F.S.A.F.J.jXK.J.H.H.D.H.S.",
"D.F.J.K.jXH.A.F.H.J.jXJ.H.F.Z.S.F.K.H.jXJ.J.J.G.D.Z.S.F.J.K.H.J.K.jXJ.K.G.A.C.c.c.J.J.G.A.c.A.D.D.F.A.D.c.C.H.jXK.K.H.S.F.S.D.F.",
"F.F.H.K.jXG.Z.D.D.F.J.H.H.S.c.A.F.S.H.G.G.H.H.K.J.H.H.J.J.H.J.J.J.J.J.G.H.F.A.c.c.H.D.D.c.A.Z.c.C.D.S.c.c.F.K.K.jXH.D.F.G.F.A.A.",
"C.C.F.H.K.K.S.D.F.jXK.H.F.Z.A.A.F.H.H.D.H.F.H.F.F.H.H.H.J.H.H.J.J.H.K.J.D.S.D.c.c.F.K.S.c.c.C.A.Z.c.C.c.F.J.J.J.K.J.A.Z.Z.A.Z.H.",
"D.C.S.H.K.J.S.C.F.F.G.J.F.Z.D.c.C.Z.A.C.c.F.F.D.H.H.H.H.H.D.J.J.J.J.H.H.S.A.c.c.c.H.H.Z.c.c.Z.c.c.c.c.G.S.H.J.J.J.F.D.A.Z.H.jXK.",
"F.c.c.H.jXJ.Z.A.A.G.H.jXH.A.c.c.c.c.c.c.c.c.Z.S.D.F.H.H.F.J.J.J.G.G.J.F.S.Z.c.c.c.S.H.D.c.c.S.F.A.c.c.A.H.H.H.J.F.H.A.F.G.J.H.J.",
"H.C.c.A.J.H.A.A.D.F.H.H.F.F.c.c.c.c.c.c.% c.C.D.c.C.F.S.H.G.F.G.J.F.G.H.S.c.c.% C.H.H.c.c.c.H.H.F.D.c.F.G.H.K.J.J.A.c.H.J.K.J.J.",
"J.G.D.F.J.jXD.c.A.A.H.J.H.J.F.c.c.Z.c.A.F.H.c.c.Z.A.Z.D.H.H.H.H.H.F.H.C.c.c.% c.F.F.H.D.A.c.H.H.C.A.F.D.A.D.H.H.D.A.A.F.J.J.J.J.",
"K.H.c.A.H.J.H.c.c.c.D.F.H.D.D.A.A.D.c.F.F.F.F.% c.c.A.A.G.H.H.H.H.D.A.c.% % c.c.D.D.Z.c.% C.H.A.c.c.A.S.Z.H.H.H.F.D.C.F.H.J.J.J.",
"G.J.D.C.H.J.G.C.c.c.F.G.G.S.A.C.A.S.D.A.D.F.H.c.c.c.c.A.S.H.F.H.A.A.c.% % c.c.F.D.H.F.c.c.F.H.Z.c.F.H.K.S.A.G.D.A.c.S.H.J.H.K.J.",
"H.H.A.c.S.H.J.H.c.C.c.c.A.F.S.C.S.A.F.A.D.F.F.C.% c.c.D.F.S.D.A.c.% % % % % Z.Z.F.F.D.c.c.F.D.F.c.F.H.F.D.c.c.F.C.c.D.F.H.H.H.J.",
"J.F.Z.A.F.F.H.H.S.c.% c.C.c.c.c.% c.A.A.c.F.A.F.% c.c.A.Z.D.D.c.% % % % c.c.c.D.S.F.c.c.c.D.A.% C.F.H.H.A.c.c.c.c.c.A.F.H.J.J.H.",
"A.D.c.c.G.F.H.H.D.c.% c.c.A.c.c.c.c.A.A.c.c.c.Z.% % % c.C.c.c.% % % c.A.A.c.c.D.H.c.c.% F.F.A.c.D.H.J.D.A.c.c.c.c.C.S.G.H.D.F.S.",
"c.c.c.c.c.A.H.G.F.F.A.% % c.c.c.c.c.c.H.A.c.c.c.% % % % c.c.% % % % A.D.c.c.A.A.c.c.% % D.A.c.c.S.F.D.A.c.c.A.A.A.A.S.D.Z.A.C.C.",
"c.c.c.D.c.D.G.H.F.S.c.C.c.c.c.c.% % c.c.F.c.c.% % % c.c.c.% % % % . A.c.c.% F.c.c.% % c.C.Z.C.Z.H.G.H.c.c.% A.S.D.F.S.c.c.Z.A.c.",
"c.c.c.c.c.C.S.F.D.H.D.C.c.c.% c.c.c.C.c.c.D.C.c.z.z.% % % % % z.c.D.A.c.c.c.c.c.% % c.A.F.A.A.. D.D.D.C.% S.D.F.S.C.c.D.c.c.c.c.",
"c.c.D.H.c.c.G.G.F.D.c.A.F.c.c.% % % % c.c.S.A.A.C.z.l.z.% % z.A.F.D.. % % % c.c.c.% c.A.Z.A.c.D.F.D.D.% c.A.S.C.c.c.c.c.c.c.C.c.",
"D.F.F.F.H.% c.c.F.D.F.A.D.Z.C.c.% c.% c.c.c.D.F.A.c.z.z.l.l.z.A.A.D.c.c.c.% % % % c.c.S.A.c.c.F.c.A.D.% Z.D.A.Z.c.c.% c.c.c.C.c.",
"c.H.H.H.J.c.% A.A.c.c.c.A.A.c.c.% % % % c.c.C.D.A.D.% % % % A.C.A.C.% c.% % % % c.c.c.A.C.c.c.C.C.C.% % D.F.A.c.c.c.c.c.c.A.c.c.",
"F.A.F.F.J.J.% c.c.A.c.c.F.S.S.C.% % % % c.c.c.Z.c.A.F.c.c.A.A.D.A.c.% C.c.c.c.c.F.c.c.D.c.Z.c.D.c.c.c.A.G.S.Z.c.% % c.c.c.c.c.c.",
"c.F.D.D.H.G.c.% c.Z.S.c.c.A.S.Z.Z.% % % % c.c.c.A.c.C.c.C.Z.Z.c.c.c.c.c.% % c.D.c.c.A.A.Z.c.A.c.c.% % Z.A.C.c.c.% c.c.c.c.c.c.c.",
"% c.F.F.F.J.F.% % % c.c.c.c.Z.D.c.% % % z.% % % c.c.D.A.Z.A.Z.c.c.% % % z.% c.C.c.c.c.c.c.c.C.c.% % c.A.D.A.c.c.% c.% c.A.D.A.c.",
"c.F.A.F.A.S.H.F.% % c.c.c.c.A.Z.A.% % % % % % % c.c.c.c.c.c.D.c.c.c.c.% z.% D.c.% c.c.c.c.c.c.% % % c.F.D.c.c.% % c.c.S.F.F.A.c.",
"c.c.c.c.C.F.D.H.S.% % % % % % S.c.c.c.z.z.l.z.z.% c.% c.C.c.c.% % % z.% z.D.c.% % c.% % c.c.% % % % m.m.m.m.c.% c.c.D.F.F.H.A.A.",
"c.% c.A.c.Z.H.J.H.D.% % % % % c.c.% c.c.% z.z.z.% % % % c.c.c.% % z.z.z.% c.% % % c.c.c.c.% % % % c.m.m.C.c.% % % m.m.G.A.c.C.c.",
"c.c.% % c.Z.S.F.F.A.% % % % % % % % c.c.% % z.l.z.z.% c.% % % z.l.z.z.z.c.z.z.% c.% % c.c.c.% % % c.m.m.c.c.% % m.m.m.c.c.c.c.c.",
"% % % % % c.S.H.F.F.c.% % z.z.% c.% % c.C.c.% % z.z.z.z.z.z.l.l.z.z.% z.l.z.% c.% % % S.A.% % % % c.H.Z.c.z.z.% m.m.m.m.m.% % c.",
"% % % c.% c.c.A.F.D.A.% % % % % z.% z.% c.D.c.c.z.z.z.z.z.z.z.% % z.z.% % c.c.% % % % c.c.% z.% z.c.c.c.% % z.% c.c.A.m.% % c.c.",
"c.c.% % % % % c.c.C.D.% % c.c.z.z.% z.% % c.c.c.c.z.z.l.z.z.% c.c.c.c.c.c.c.z.z.% % % c.% % % z.% % % % % z.% m.m.m.m.c.c.m.m.c.",
"A.Z.c.c.% % % c.C.A.Z.% % % % c.z.l.% l.z.% c.c.% % % % % c.c.c.c.c.c.% c.z.l.% % % % % % % z.z.z.z.z.z.k.z.c.m.A.c.% % % c.m.c.",
"S.A.S.c.% z.z.% c.c.A.% z.c.c.m.m.z.z.% l.z.% % c.c.% % % % % % % % % % l.l.% A.z.% c.% z.z.k.z.z.z.z.z.l.% c.c.c.% % % c.c.m.S.",
"S.Z.m.Z.c.% l.z.% c.c.c.z.z.c.m.m.% z.% % l.l.% % % % % % z.z.z.l.l.k.k.z.% % % % % % % z.l.k.k.k.l.l.l.% c.m.c.% z.% % % A.G.D.",
"A.m.m.m.c.% % l.z.c.c.m.z.z.% m.c.c.z.z.% % l.l.% z.z.% % % z.z.z.z.% % c.c.A.% % % z.z.l.k.k.l.z.% % % m.c.c.% z.% % c.A.H.G.D.",
"c.A.m.m.c.% % % z.% % % % l.% c.c.m.% % % c.% k.k.l.l.% % % c.% % % % c.c.c.% % z.z.% l.z.l.c.m.m.m.m.c.c.c.c.z.% % % % c.A.G.F.",
"c.A.m.m.% % c.c.% l.% % % l.% c.c.% % % c.c.c.% l.k.z.l.z.% c.c.c.% m.c.c.c.% l.z.z.l.z.k.z.c.m.m.c.c.c.m.m.% % % z.% % Z.H.H.F.",
"c.Z.c.c.% % c.c.c.z.z.z.% l.z.% c.c.% z.% c.c.c.c.k.k.l.z.% % % % % % c.c.% z.k.l.z.z.z.l.c.m.m.m.c.c.c.% z.% z.z.% % c.Z.F.S.S.",
"c.S.c.c.z.c.c.m.m.% l.z.% l.k.z.c.c.% % c.c.c.% % % k.l.k.k.z.z.% % % z.z.z.l.k.z.z.z.k.z.c.m.c.c.% % % z.% l.z.% % z.c.F.S.Z.Z.",
"C.S.c.% z.c.c.m.m.% z.l.l.z.k.l.% % % l.% c.c.m.% % l.k.l.% % z.z.z.z.l.k.k.k.z.l.z.k.k.% c.c.c.c.% % z.z.z.l.z.% z.% c.A.F.F.c.",
"A.A.c.% z.c.c.c.m.c.% z.l.z.l.k.z.% % z.z.c.% % c.% k.l.k.% l.l.k.k.j.k.l.l.z.z.l.l.l.k.% % % % % % z.z.z.l.z.% % z.z.c.Z.D.S.% ",
"S.A.% z.% c.c.c.m.m.z.% l.k.z.z.z.% % z.l.z.% % c.c.% j.j.j.k.l.l.z.l.z.z.% z.z.z.k.j.l.% c.c.c.c.% z.% l.l.% % % z.% c.D.Z.c.c.",
"D.A.% z.z.% c.c.c.c.z.% z.l.z.z.k.z.% % z.l.% % % % % z.k.j.k.l.l.% % % % % % l.l.: j.k.z.% % z.z.z.k.k.l.c.c.% % z.% c.% % % D.",
"Z.c.z.% c.% c.c.% c.z.% % k.l.k.l.k.l.z.l.j.j.k.% z.c.c.k.j.k.l.z.z.z.% z.l.k.k.j.k.j.l.z.l.l.k.k.j.j.l.% c.D.% % z.% z.z.c.A.S.",
"C.% z.z.% % c.c.m.c.z.l.c.z.l.k.k.k.l.l.k.l.l.k.k.% % z.l.j.: j.j.l.k.l.l.k.j.j.k.: j.k.j.j.j.j.j.k.% % C.c.c.c.% % z.z.c.c.C.S.",
"Z.c.% % z.z.z.% % c.% l.% c.% z.j.k.j.k.k.z.% l.k.l.% % z.j.: j.j.j.j.j.j.j.j.j.j.j.k.k.j.j.k.k.z.z.% % c.c.% % % l.% C.c.F.H.S.",
"c.z.z.% % % % % % % % l.l.% c.c.% k.k.j.k.l.l.z.k.j.k.% % z.j.: : : j.j.j.j.: j.j.l.j.l.l.l.l.z.% % c.c.% % % % z.l.c.c.A.Z.D.D.",
"% % % c.% z.z.k.z.% % % k.z.% % c.% z.: j.j.k.z.l.k.j.z.% z.z.j.: : : : j.j.: : j.k.% % % % % c.c.c.% % % % z.z.z.z.Z.c.D.Z.A.c.",
"% z.% z.% z.z.l.k.l.l.z.l.k.z.% % % % l.: j.l.k.l.k.k.z.z.% z.z.j.j.: : : : j.l.c.c.c.c.c.c.% % % % % % % z.z.z.z.% c.A.c.A.Z.c.",
"c.z.% % % c.c.% z.k.k.z.z.k.k.z.% c.c.% % j.: j.k.j.j.j.l.l.z.l.z.k.k.j.l.z.z.% % % % c.c.c.c.% c.c.% z.l.l.l.z.l.c.c.c.A.D.c.% ",
"% z.z.% c.c.c.% z.z.k.k.l.z.l.j.k.z.% % % % : : : k.l.k.k.k.l.l.l.z.% z.z.z.% % % z.% % % % % c.% l.z.l.l.k.k.k.z.c.c.A.C.c.% c.",
"% % c.c.c.c.% % % z.l.l.j.z.z.l.: z.c.z.z.z.j.: j.j.j.j.j.k.k.l.k.l.k.l.l.l.l.z.z.% % % % % % z.z.l.k.k.j.k.l.z.c.C.c.c.c.% A.c.",
"% z.% c.c.c.c.c.% z.z.k.l.j.k.z.k.j.k.z.z.z.z.: : : : k.l.j.: j.k.j.k.k.k.z.l.z.z.z.z.z.z.z.% z.k.k.j.j.k.l.% c.c.c.c.c.% A.c.c."
};
