/* XPM */
static char *Blue211668167182[] = {
/* columns rows colors chars-per-pixel */
"64 64 256 2 ",
"   c black",
".  c #0000A8",
"X  c #00A800",
"o  c #00A8A8",
"O  c #A80000",
"+  c #A800A8",
"@  c #A85400",
"#  c gray66",
"$  c gray33",
"%  c #5454FC",
"&  c #54FC54",
"*  c #54FCFC",
"=  c #FC5454",
"-  c #FC54FC",
";  c #FCFC54",
":  c gray99",
">  c #ECECEC",
",  c gainsboro",
"<  c #D0D0D0",
"1  c #C0C0C0",
"2  c #B4B4B4",
"3  c gray66",
"4  c #989898",
"5  c gray55",
"6  c #7C7C7C",
"7  c gray44",
"8  c #646464",
"9  c gray33",
"0  c #484848",
"q  c gray22",
"w  c #2C2C2C",
"e  c #202020",
"r  c #FC0000",
"t  c #EC0000",
"y  c #E00000",
"u  c #D40000",
"i  c #C80000",
"p  c #BC0000",
"a  c #B00000",
"s  c #A40000",
"d  c #980000",
"f  c #880000",
"g  c #7C0000",
"h  c #700000",
"j  c #640000",
"k  c #580000",
"l  c #4C0000",
"z  c #400000",
"x  c #FCD8D8",
"c  c #FCB8B8",
"v  c #FC9C9C",
"b  c #FC7C7C",
"n  c #FC5C5C",
"m  c #FC4040",
"M  c #FC2020",
"N  c #FC0000",
"B  c #FCA85C",
"V  c #FC9840",
"C  c #FC8820",
"Z  c #FC7800",
"A  c #E46C00",
"S  c #CC6000",
"D  c #B45400",
"F  c #9C4C00",
"G  c #FCFCD8",
"H  c #FCFCB8",
"J  c #FCFC9C",
"K  c #FCFC7C",
"L  c #FCF85C",
"P  c #FCF440",
"I  c #FCF420",
"U  c #FCF400",
"Y  c #E4D800",
"T  c #CCC400",
"R  c #B4AC00",
"E  c #9C9C00",
"W  c #848400",
"Q  c #706C00",
"!  c #585400",
"~  c #404000",
"^  c #D0FC5C",
"/  c #C4FC40",
"(  c #B4FC20",
")  c #A0FC00",
"_  c #90E400",
"`  c #80CC00",
"'  c #74B400",
"]  c #609C00",
"[  c #D8FCD8",
"{  c #BCFCB8",
"}  c #9CFC9C",
"|  c #80FC7C",
" . c #60FC5C",
".. c #40FC40",
"X. c #20FC20",
"o. c #00FC00",
"O. c #00FC00",
"+. c #00EC00",
"@. c #00E000",
"#. c #00D400",
"$. c #04C800",
"%. c #04BC00",
"&. c #04B000",
"*. c #04A400",
"=. c #049800",
"-. c #048800",
";. c #047C00",
":. c #047000",
">. c #046400",
",. c #045800",
"<. c #044C00",
"1. c #044000",
"2. c #D8FCFC",
"3. c #B8FCFC",
"4. c #9CFCFC",
"5. c #7CFCF8",
"6. c #5CFCFC",
"7. c #40FCFC",
"8. c #20FCFC",
"9. c #00FCFC",
"0. c #00E4E4",
"q. c #00CCCC",
"w. c #00B4B4",
"e. c #009C9C",
"r. c #008484",
"t. c #007070",
"y. c #005858",
"u. c #004040",
"i. c #5CBCFC",
"p. c #40B0FC",
"a. c #20A8FC",
"s. c #009CFC",
"d. c #008CE4",
"f. c #007CCC",
"g. c #006CB4",
"h. c #005C9C",
"j. c #D8D8FC",
"k. c #B8BCFC",
"l. c #9C9CFC",
"z. c #7C80FC",
"x. c #5C60FC",
"c. c #4040FC",
"v. c #2024FC",
"b. c #0004FC",
"n. c #0000FC",
"m. c #0000EC",
"M. c #0000E0",
"N. c #0000D4",
"B. c #0000C8",
"V. c #0000BC",
"C. c #0000B0",
"Z. c #0000A4",
"A. c #000098",
"S. c #000088",
"D. c #00007C",
"F. c #000070",
"G. c #000064",
"H. c #000058",
"J. c #00004C",
"K. c #000040",
"L. c #282828",
"P. c #FCE034",
"I. c #FCD424",
"U. c #FCCC18",
"Y. c #FCC008",
"T. c #FCB400",
"R. c #B420FC",
"E. c #A800FC",
"W. c #9800E4",
"Q. c #8000CC",
"!. c #7400B4",
"~. c #60009C",
"^. c #500084",
"/. c #440070",
"(. c #340058",
"). c #280040",
"_. c #FCD8FC",
"`. c #FCB8FC",
"'. c #FC9CFC",
"]. c #FC7CFC",
"[. c #FC5CFC",
"{. c #FC40FC",
"}. c #FC20FC",
"|. c #FC00FC",
" X c #E000E4",
".X c #C800CC",
"XX c #B400B4",
"oX c #9C009C",
"OX c #840084",
"+X c #6C0070",
"@X c #580058",
"#X c #400040",
"$X c #FCE8DC",
"%X c #FCE0D0",
"&X c #FCD8C4",
"*X c #FCD4BC",
"=X c #FCCCB0",
"-X c #FCC4A4",
";X c #FCBC9C",
":X c #FCB890",
">X c #FCB080",
",X c #FCA470",
"<X c #FC9C60",
"1X c #F0945C",
"2X c #E88C58",
"3X c #DC8854",
"4X c #D08050",
"5X c #C87C4C",
"6X c #BC7848",
"7X c #B47044",
"8X c #A86840",
"9X c #A0643C",
"0X c #9C6038",
"qX c #905C34",
"wX c #885830",
"eX c #80502C",
"rX c #744C28",
"tX c #6C4824",
"yX c #5C4020",
"uX c #543C1C",
"iX c #483818",
"pX c #403018",
"aX c #382C14",
"sX c #28200C",
"dX c #600064",
"fX c #006464",
"gX c #006060",
"hX c #00001C",
"jX c #00002C",
"kX c #302410",
"lX c #480048",
"zX c #500050",
"xX c #000034",
"cX c gray11",
"vX c #4C4C4C",
"bX c gray36",
"nX c gray25",
"mX c gray19",
"MX c #343434",
"NX c #D8F4F4",
"BX c #B8E8E8",
"VX c #9CDCDC",
"CX c #74C8C8",
"ZX c #48C0C0",
"AX c #20B4B4",
"SX c #20B0B0",
"DX c #00A4A4",
"FX c #009898",
"GX c #008C8C",
"HX c #008484",
"JX c #007C7C",
"KX c #007878",
"LX c #007474",
"PX c #007070",
"IX c #006C6C",
"UX c #980088",
/* pixels */
"hXhXhXhXhXK.jXhXhXhXhXjXjXjXhXhXhXH.G.J.jXhXhXhXhXhXhXhXhXhXhXhXhXhXjXjXJ.J.H.K.jXK.F.K.hXhXhXhXjXjXJ.hXhXjXK.hXhXhXjXjXjXhXhXhX",
"hXhXhXhXhXK.jXhXhXhXhXjXjXJ.jXhXhXH.S.H.K.hXhXhXhXhXhXhXhXhXhXhXhXjXjXK.G.K.H.jXK.S.H.K.hXhXhXhXjXK.jXhXhXhXjXhXhXhXjXjXJ.hXhXhX",
"hXhXhXhXhXK.H.K.hXhXhXhXjXjXhXhXhXhXJ.F.J.jXhXhXhXhXhXhXhXhXhXhXhXhXK.H.G.H.jXjXG.F.jXhXhXhXhXhXhXK.hXhXhXjXK.hXhXhXhXjXK.hXjXhX",
"hXhXhXhXhXjXJ.jXhXhXhXhXjXJ.jXjXhXjXJ.A.H.jXhXhXhXhXhXhXhXhXhXhXjXjXJ.D.G.jXjXK.S.jXhXhXhXjXhXhXhXhXhXhXhXjXjXhXhXhXhXjXhXjXjXhX",
"hXhXhXhXhXjXK.K.hXhXhXhXjXJ.jXjXhXhXhXG.A.J.K.jXjXhXhXhXhXhXhXhXjXJ.D.J.jXhXjXD.D.jXhXhXhXjXjXhXhXhXhXhXjXK.K.hXhXhXhXjXjXjXhXhX",
"hXhXhXhXhXjXH.jXjXhXhXhXhXjXH.jXhXhXjXK.F.F.J.jXhXjXhXhXhXhXhXJ.J.G.S.J.hXjXJ.G.J.hXhXhXhXK.jXhXhXhXhXjXjXH.jXhXhXhXjXjXH.K.jXjX",
"hXhXhXhXhXK.G.J.hXhXhXhXjXjXF.K.jXhXhXjXD.A.G.J.jXjXjXjXjXjXK.jXG.S.H.H.hXhXJ.. jXhXhXhXhXhXJ.jXjXjXjXjXG.H.hXhXhXjXK.J.jXjXjXjX",
"hXhXhXhXhXhXH.J.jXhXhXhXhXK.H.jXhXhXhXjXK.D.S.J.K.jXK.jXjXK.H.F.G.S.H.hXhXK.G.C.jXhXhXhXjXJ.H.jXhXhXjXjXjXK.hXhXjXJ.H.K.jXjXJ.jX",
"jXhXhXhXhXhXJ.J.jXhXhXhXjXjXG.H.K.hXjXhXK.G.A.D.H.J.jXJ.J.H.K.D.D.S.jXjXjXJ.A.F.jXjXhXjXhXH.. S.jXJ.J.F.S.K.hXjXjXjXjXhXhXjXK.K.",
"jXjXhXhXhXjXG.K.jXhXhXhXjXjXJ.J.jXhXhXhXhXG.A.G.F.J.H.K.D.H.F.A.A.jXhXhXjXK.Z.. jXjXhXhXK.F.A.A.G.S.S.D.J.jXjXK.D.jXhXhXhXjXK.J.",
"jXhXhXhXhXhXF.J.jXhXhXhXhXK.H.J.jXjXjXjXhXjXA.. F.D.S.D.A.D.V.D.K.K.jXhXjXH.S.Z.jXhXjXK.K.Z.S.H.Z.A.S.H.jXjXJ.A.jXhXhXhXhXhXK.H.",
"K.jXhXhXhXjXG.K.K.jXhXhXjXhXG.J.K.jXhXjXhXjXA.A.A.D.G.D.H.jXjXK.jXhXhXhXjXG.A.V.H.jXjXjXH.A.A.J.K.K.jXjXjXjXF.jXhXhXhXhXhXhXJ.H.",
"H.jXjXhXhXjXF.F.K.jXjXhXJ.J.D.H.J.jXhXjXjXjXS.V.. v.. A.G.K.hXhXhXhXhXjXH.G.A.v.D.jXjXK.A.B.Z.jXjXjXhXhXJ.D.G.J.hXhXhXhXjXK.J.G.",
"G.K.jXjXhXhXD.G.J.jXjXjXjXJ.H.G.jXK.jXjXhXhXjXD.v.C.A.F.jXhXjXjXjXjXjXjXjXG.Z.V.A.K.jXS.v.B.A.H.jXjXK.F.G.A.J.jXhXhXjXjXK.H.J.G.",
"D.G.jXhXhXK.A.J.J.jXhXjXjXF.S.G.J.jXK.hXjXjXjXJ.H.S.G.J.jXhXjXjXhXhXjXhXK.F.A.v.. jXjXK.S.v.S.H.H.G.D.D.B.A.jXhXhXhXK.G.H.G.H.H.",
"H.G.K.hXhXK.S.D.H.H.jXjXK.G.Z.F.F.G.J.J.K.K.jXhXjXK.K.jXjXK.jXjXjXjXjXK.J.H.A.. C.J.H.D.Z.D.S.v.A.D.G.V.Z.H.jXhXhXK.H.J.K.J.F.D.",
"A.A.F.jXhXjXG.H.J.hXhXK.J.S.A.A.H.K.K.H.K.H.J.J.J.K.K.jXjXjXjXjXjXK.hXjXH.G.D.v.C.J.hXG.. B.A.D.S.. A.v.F.jXjXjXjXjXS.S.D.S.S.J.",
"D.A.G.jXjXjXG.A.G.G.K.jXJ.D.D.C.A.S.A.A.. G.J.H.K.K.J.J.J.H.jXjXjXjXjXK.G.A.C.v.v.K.K.D.Z.V.S.v.V.V.V.K.G.jXjXjXjXH.H.D.S.J.hXjX",
"H.Z.Z.jXhXjXD.A.F.J.K.hXjXD.Z.Z.Z.V.B.V.. B.S.G.H.J.K.K.J.jXjXjXJ.J.jXJ.G.D.V.v.B.G.K.D.v.B.G.J.D.V.. D.J.K.K.jXJ.J.F.F.K.jXjXjX",
"jXA.B.F.jXjXD.S.D.J.K.jXJ.H.V.V.v.v.Z.v.v.v.A.D.V.A.H.G.K.K.J.J.jXH.J.J.G.C.v.v.A.jXjX. B.v.J.K.F.D.C.J.K.jXhXjXjXS.C.K.jXhXjXjX",
"jXK.D.F.jXhXH.C.S.F.J.jXjXjXH.V.V.S.V.A.J.K.v.v.S.F.S.H.K.J.jXjXjXJ.J.A.v.v.v.v.J.J.K.D.A.C.jXK.A.S.H.H.F.H.K.jXH.D.F.H.jXjXjXjX",
"hXK.v.S.jXjXK.Z.Z.V.H.H.K.H.D.A.A.D.Z.H.J.J.H.v.Z.v.F.F.K.K.K.K.J.H.D.Z.v.c.v.C.H.H.D.v.v.A.K.F.C.v.F.G.D.K.K.K.H.D.A.H.K.jXjXjX",
"K.jXD.A.K.jXK.A.V.C.F.K.J.G.F.A.S.G.H.S.H.H.K.v.v.. B.D.G.K.J.K.F.A.v.c.v.v.v.G.H.K.H.v.v.J.K.D.v.G.jXhXG.S.K.H.F.Z.G.K.jXjXhXjX",
"jXjXS.. G.jXjXJ.v.A.v.. F.J.G.A.G.S.F.A.H.H.J.A.c.V.V.D.J.G.H.S.C.v.c.c.v.v.S.S.J.H.D.v.Z.J.H.G.A.J.jXH.H.v.C.F.A.v.D.J.jXjXjXjX",
"jXH.S.F.H.J.jXK.G.v.v.v.A.B.Z.B.v.v.F.F.. F.F.H.v.v.V.A.D.H.D.B.v.c.c.v.B.v.. H.G.F.v.v.C.H.S.v.A.J.jXJ.F.v.v.v.v.v.S.J.jXjXjXjX",
"D.D.C.v.K.J.K.jXH.V.v.B.v.A.C.v.v.. D.F.v.v.Z.S.v.v.v.v.A.. v.c.c.c.v.A.A.v.Z.H.J.Z.v.v.G.J.F.v.H.jXjXH.F.B.B.v.v.A.G.K.jXH.H.G.",
". v.B.v.C.F.K.J.J.F.F.v.v.v.v.v.v.v.Z.jXF.V.v.v.c.v.v.v.v.B.v.c.c.c.D.H.v.v.F.F.Z.B.v.v.D.F.Z.Z.G.H.H.S.v.. S.A.D.F.G.H.D.S.A.A.",
"v.C.v.D.v.D.K.K.J.G.Z.A.V.v.v.v.v.v.v.V.F.V.v.c.c.c.v.C.v.v.c.c.c.S.F.Z.v.v.F.. V.v.c.C.A.S.A.S.K.K.J.Z.C.v.F.G.H.H.G.Z.Z.S.A.V.",
"v.v.. C.C.A.G.H.H.K.D.A.v.v.v.Z.B.v.A.v.Z.D.A.V.% % c.c.v.v.c.% B.H.F.B.v.v.v.v.c.c.v.F.J.D.A.S.H.H.H.A.v.G.H.J.G.A.Z.D.C.v.v.v.",
"Z.B.D.K.B.V.J.J.H.H.Z.D.F.v.v.v.v.c.v.C.v.G.A.D.A.% z.% c.c.% A.G.D.S.c.v.c.v.v.B.c.v.F.S.S.. D.H.H.D.v.. F.G.A.V.V.C.v.v.B.A.A.",
"H.G.J.J.jXv.v.Z.H.D.F.A.H.S.A.v.v.v.c.v.Z.v.D.H.F.V.% % z.z.% A.D.H.V.v.v.v.c.c.% v.v.G.A.B.V.H.Z.F.D.c.S.H.D.D.. B.v.v.A.v.A.V.",
"V.J.K.K.jXv.v.S.A.. C.. F.D.V.. c.c.c.c.. v.A.D.F.D.v.c.% % A.A.S.A.v.C.c.c.c.c.v.v.v.D.A.V.C.A.A.A.c.c.D.F.A.v.v.v.v.v.v.D.v.C.",
"G.F.H.J.jXjXv.v.Z.D.Z.v.J.G.G.A.v.c.c.v.v.B.v.D.Z.D.F.v.Z.A.A.H.S.. c.A.v.v.v.C.F.Z.C.D.. S.V.D.V.Z.B.F.J.G.S.v.v.c.v.B.v.. v.V.",
"V.H.H.H.K.J.C.c.v.D.G.v.v.F.G.S.S.c.c.c.v.v.V.B.F.Z.A.Z.A.S.S.V.V.v.v.v.c.c.V.D.v.V.F.S.D.v.S.V.C.c.c.D.F.A.v.B.v.v.v.B.Z.. C.v.",
"v.. F.F.G.jXG.v.c.c.Z.V.v.. S.D.v.v.c.c.% c.c.v.. V.D.F.D.A.S.Z.. v.v.c.% c.. A.. v.B.v.v.v.A.B.v.c.v.D.D.F.v.v.c.v.v.V.F.H.D.v.",
"v.F.D.F.F.G.K.H.v.v.v.C.v.v.S.S.A.v.c.c.c.c.v.v.B.B.V.Z.C.. D.B.v.v.v.c.% v.D.V.v.v.C.v.v.V.v.c.c.c.v.F.H.B.v.c.c.v.C.G.H.J.A.V.",
"v.v.Z.V.A.J.H.K.G.c.c.v.c.v.v.G.B.v.v.% % z.% % c.v.v.V.A.V.v.v.v.c.% c.% D.V.v.v.v.v.v.v.v.c.v.c.v.D.F.D.A.B.v.B.B.H.H.J.J.A.S.",
"v.c.v.A.B.D.J.jXJ.D.c.c.v.v.c.v.v.v.v.v.c.% % % c.c.v.c.v.v.v.c.c.% % % c.C.v.c.c.v.v.V.V.v.c.c.c.V.G.S.A.v.c.c.c.S.J.J.F.Z.A.C.",
"v.v.v.c.B.S.G.G.H.F.v.% c.c.c.c.v.c.v.Z.v.c.% z.% % % v.c.% c.% z.% % % v.% % v.V.v.c.v.v.B.c.v.c.Z.. A.C.v.c.c.v.F.D.Z.V.Z.Z.B.",
"c.c.c.c.c.v.G.K.J.H.B.v.c.% % v.v.% v.v.A.v.c.c.% % % % % % z.z.% % c.% z.% v.V.c.c.c.G.A.c.c.c.v.Z.jXD.v.% % c.A.G.S.F.D.v.v.v.",
"v.c.c.v.v.v.B.D.H.H.F.c.v.v.c.c.% c.% c.B.D.v.v.% % % % % % % c.c.% % c.c.v.v.c.v.c.c.C.v.c.% c.% . v.v.c.c.% v.A.Z.A.v.c.v.v.v.",
"V.v.c.c.c.c.v.v.Z.A.D.v.c.v.v.% % v.% c.v.v.B.v.v.% % z.% % v.v.v.v.. B.v.v.% % v.c.c.v.v.c.c.% c.v.v.c.v.% % v.A.A.v.B.v.D.v.. ",
"F.S.. v.c.c.v.v.A.D.S.v.c.v.v.B.% z.c.z.% v.v.v.v.v.v.c.c.v.V.v.v.v.v.v.v.% z.c.c.% v.c.c.% % % % % % % l.% v.A.A.v.c.c.v.v.A.C.",
"G.F.G.C.c.% % c.v.. S.v.% v.v.A.v.% % v.z.% c.c.Z.v.v.c.% c.v.v.v.c.c.c.z.z.c.A.% c.v.c.% % l.% % % % % z.c.v.C.v.v.v.c.v.v.v.G.",
"G.S.S.S.v.c.z.% c.v.B.v.% % v.D.S.v.% c.c.z.z.c.c.c.c.c.% % % % z.z.l.l.% c.c.c.% v.c.c.% z.l.l.l.z.z.z.% C.S.v.c.% c.c.v.S.J.H.",
"F.S.A.V.v.c.c.z.% v.Z.A.% % v.A.B.v.% % v.c.z.z.c.% % c.c.c.% % % % c.c.v.v.A.v.% % % % z.l.l.z.% % c.c.A.Z.B.v.% % c.v.S.K.J.H.",
"Z.F.A.S.V.c.v.c.% c.v.v.% z.c.v.v.S.c.v.c.v.v.l.k.z.z.c.c.c.v.v.c.c.v.B.v.v.v.c.% % c.z.% z.v.S.F.A.v.v.v.V.v.% % c.c.c.B.F.J.H.",
"B.F.A.S.v.c.v.B.c.z.c.v.c.z.c.v.v.v.c.c.V.C.B.v.z.l.% l.% v.v.v.V.D.B.v.v.B.c.z.% % z.% k.% v.S.A.. v.V.S.D.c.c.c.% c.v.S.K.K.H.",
". D.V.v.c.% . V.v.% % % c.z.% c.v.v.c.% v.V.v.C.v.k.l.z.% c.c.c.v.v.c.v.A.c.% l.z.% % % z.v.S.D.S.Z.C.v.v.% c.% % c.c.v.S.J.G.G.",
"v.G.Z.v.% v.C.F.F.v.z.% % z.l.% v.v.c.c.v.v.C.c.v.c.l.z.l.l.% % % c.c.% % % z.l.% % % k.% v.C.v.B.v.c.v.% c.z.% c.c.% . J.G.S.S.",
"A.G.C.c.% B.Z.A.F.v.% z.z.% l.z.c.v.c.z.% v.v.A.v.c.z.l.z.% z.% % % % z.l.l.l.% z.% l.k.c.V.V.V.v.c.v.% % % z.% c.% c.v.A.H.F.V.",
"A.A.V.c.% B.C.Z.A.B.c.% z.% z.l.% c.v.% % v.c.v.v.v.l.z.l.k.z.z.l.k.k.l.z.z.% % z.z.z.l.c.v.v.v.v.c.% % % z.% v.c.% % A.S.D.G.v.",
"G.A.v.% c.v.V.Z.D.F.% v.z.l.% % % c.c.% z.% v.c.v.v.v.k.j.j.l.z.z.% z.% % c.% % % l.k.z.c.B.C.v.v.c.% c.z.z.c.v.c.% c.v.H.D.B.v.",
"D.F.c.% % v.v.Z.v.v.% v.% z.% % l.% c.c.% z.% c.v.c.c.% k.k.l.z.z.c.c.c.c.c.v.z.z.j.k.l.% c.c.% % % l.k.z.v.v.c.% % c.B.v.v.v.D.",
"S.B.% c.v.c.v.v.v.v.% c.c.l.z.l.z.k.z.% z.k.j.l.c.% v.v.k.k.k.z.% % % c.% z.l.k.j.l.k.z.% z.z.l.l.k.k.z.c.v.D.v.c.% c.% % v.S.G.",
"A.c.% % c.c.v.. F.V.% z.v.% z.l.l.l.z.z.l.z.z.l.k.c.c.% z.j.: j.k.z.l.z.z.l.k.j.k.j.k.k.j.k.j.k.j.l.c.c.A.Z.v.v.c.c.% % V.v.A.G.",
"S.v.c.c.% % % v.v.v.v.z.c.v.c.% k.k.k.k.k.% c.z.k.z.c.% % j.: j.k.j.j.j.j.j.j.j.j.k.k.l.k.k.l.l.% % c.c.v.B.c.c.c.z.v.A.Z.J.J.G.",
"Z.% % c.c.% c.v.v.v.v.z.z.c.v.v.c.l.k.k.l.z.z.% l.j.l.c.c.% j.: : : j.j.k.k.: j.j.z.j.z.z.z.z.% c.c.v.v.v.v.v.c.% z.v.. A.S.D.D.",
"c.c.c.v.c.% % l.% c.v.c.k.% c.v.v.c.% : j.k.l.% z.l.k.% c.% % j.: : : : j.j.: : k.l.c.c.c.c.v.v.v.v.c.c.v.v.% % % % S.Z.D.D.F.C.",
"c.% % % c.% % z.k.z.z.% z.k.% c.c.v.c.z.: k.z.k.z.l.l.% % c.% % k.j.: : : : k.z.v.v.v.v.V.v.v.c.c.c.v.c.c.% % % % c.Z.A.. A.D.v.",
"v.% c.c.v.v.v.c.% l.l.% % l.l.% c.v.v.% c.j.: j.l.k.k.k.z.z.% z.% l.l.j.z.% % c.c.v.v.v.v.v.v.c.v.v.c.% z.z.z.% z.C.Z.Z.F.D.. v.",
"c.% % v.B.V.v.c.% % l.k.z.% z.k.l.% c.v.c.c.: j.: k.z.l.l.l.z.z.z.% % % % % v.c.c.% c.c.c.v.c.v.c.z.% z.z.k.l.l.% v.. D.A.V.v.V.",
"c.% v.v.V.v.v.v.c.% z.z.k.% % z.j.% v.% % % k.: j.k.k.j.j.k.l.z.l.z.l.z.z.z.z.% % c.c.c.c.c.c.% % z.l.k.k.l.z.% v.A.. B.v.v.S.v.",
"c.% v.C.v.v.v.v.c.% % l.z.j.l.% l.k.k.% % % % : : : : l.z.k.: k.k.j.k.l.l.% z.% % % % % % % c.% l.k.j.j.k.z.c.v.v.v.. v.c.A.v.v."
};
