/* XPM */
static char *Blue21668167182[] = {
/* columns rows colors chars-per-pixel */
"64 64 256 2 ",
"   c black",
".  c #0000A8",
"X  c #00A800",
"o  c #00A8A8",
"O  c #A80000",
"+  c #A800A8",
"@  c #A85400",
"#  c gray66",
"$  c gray33",
"%  c #5454FC",
"&  c #54FC54",
"*  c #54FCFC",
"=  c #FC5454",
"-  c #FC54FC",
";  c #FCFC54",
":  c gray99",
">  c #ECECEC",
",  c gainsboro",
"<  c #D0D0D0",
"1  c #C0C0C0",
"2  c #B4B4B4",
"3  c gray66",
"4  c #989898",
"5  c gray55",
"6  c #7C7C7C",
"7  c gray44",
"8  c #646464",
"9  c gray33",
"0  c #484848",
"q  c gray22",
"w  c #2C2C2C",
"e  c #202020",
"r  c #FC0000",
"t  c #EC0000",
"y  c #E00000",
"u  c #D40000",
"i  c #C80000",
"p  c #BC0000",
"a  c #B00000",
"s  c #A40000",
"d  c #980000",
"f  c #880000",
"g  c #7C0000",
"h  c #700000",
"j  c #640000",
"k  c #580000",
"l  c #4C0000",
"z  c #400000",
"x  c #FCD8D8",
"c  c #FCB8B8",
"v  c #FC9C9C",
"b  c #FC7C7C",
"n  c #FC5C5C",
"m  c #FC4040",
"M  c #FC2020",
"N  c #FC0000",
"B  c #FCA85C",
"V  c #FC9840",
"C  c #FC8820",
"Z  c #FC7800",
"A  c #E46C00",
"S  c #CC6000",
"D  c #B45400",
"F  c #9C4C00",
"G  c #FCFCD8",
"H  c #FCFCB8",
"J  c #FCFC9C",
"K  c #FCFC7C",
"L  c #FCF85C",
"P  c #FCF440",
"I  c #FCF420",
"U  c #FCF400",
"Y  c #E4D800",
"T  c #CCC400",
"R  c #B4AC00",
"E  c #9C9C00",
"W  c #848400",
"Q  c #706C00",
"!  c #585400",
"~  c #404000",
"^  c #D0FC5C",
"/  c #C4FC40",
"(  c #B4FC20",
")  c #A0FC00",
"_  c #90E400",
"`  c #80CC00",
"'  c #74B400",
"]  c #609C00",
"[  c #D8FCD8",
"{  c #BCFCB8",
"}  c #9CFC9C",
"|  c #80FC7C",
" . c #60FC5C",
".. c #40FC40",
"X. c #20FC20",
"o. c #00FC00",
"O. c #00FC00",
"+. c #00EC00",
"@. c #00E000",
"#. c #00D400",
"$. c #04C800",
"%. c #04BC00",
"&. c #04B000",
"*. c #04A400",
"=. c #049800",
"-. c #048800",
";. c #047C00",
":. c #047000",
">. c #046400",
",. c #045800",
"<. c #044C00",
"1. c #044000",
"2. c #D8FCFC",
"3. c #B8FCFC",
"4. c #9CFCFC",
"5. c #7CFCF8",
"6. c #5CFCFC",
"7. c #40FCFC",
"8. c #20FCFC",
"9. c #00FCFC",
"0. c #00E4E4",
"q. c #00CCCC",
"w. c #00B4B4",
"e. c #009C9C",
"r. c #008484",
"t. c #007070",
"y. c #005858",
"u. c #004040",
"i. c #5CBCFC",
"p. c #40B0FC",
"a. c #20A8FC",
"s. c #009CFC",
"d. c #008CE4",
"f. c #007CCC",
"g. c #006CB4",
"h. c #005C9C",
"j. c #D8D8FC",
"k. c #B8BCFC",
"l. c #9C9CFC",
"z. c #7C80FC",
"x. c #5C60FC",
"c. c #4040FC",
"v. c #2024FC",
"b. c #0004FC",
"n. c #0000FC",
"m. c #0000EC",
"M. c #0000E0",
"N. c #0000D4",
"B. c #0000C8",
"V. c #0000BC",
"C. c #0000B0",
"Z. c #0000A4",
"A. c #000098",
"S. c #000088",
"D. c #00007C",
"F. c #000070",
"G. c #000064",
"H. c #000058",
"J. c #00004C",
"K. c #000040",
"L. c #282828",
"P. c #FCE034",
"I. c #FCD424",
"U. c #FCCC18",
"Y. c #FCC008",
"T. c #FCB400",
"R. c #B420FC",
"E. c #A800FC",
"W. c #9800E4",
"Q. c #8000CC",
"!. c #7400B4",
"~. c #60009C",
"^. c #500084",
"/. c #440070",
"(. c #340058",
"). c #280040",
"_. c #FCD8FC",
"`. c #FCB8FC",
"'. c #FC9CFC",
"]. c #FC7CFC",
"[. c #FC5CFC",
"{. c #FC40FC",
"}. c #FC20FC",
"|. c #FC00FC",
" X c #E000E4",
".X c #C800CC",
"XX c #B400B4",
"oX c #9C009C",
"OX c #840084",
"+X c #6C0070",
"@X c #580058",
"#X c #400040",
"$X c #FCE8DC",
"%X c #FCE0D0",
"&X c #FCD8C4",
"*X c #FCD4BC",
"=X c #FCCCB0",
"-X c #FCC4A4",
";X c #FCBC9C",
":X c #FCB890",
">X c #FCB080",
",X c #FCA470",
"<X c #FC9C60",
"1X c #F0945C",
"2X c #E88C58",
"3X c #DC8854",
"4X c #D08050",
"5X c #C87C4C",
"6X c #BC7848",
"7X c #B47044",
"8X c #A86840",
"9X c #A0643C",
"0X c #9C6038",
"qX c #905C34",
"wX c #885830",
"eX c #80502C",
"rX c #744C28",
"tX c #6C4824",
"yX c #5C4020",
"uX c #543C1C",
"iX c #483818",
"pX c #403018",
"aX c #382C14",
"sX c #28200C",
"dX c #600064",
"fX c #006464",
"gX c #006060",
"hX c #00001C",
"jX c #00002C",
"kX c #302410",
"lX c #480048",
"zX c #500050",
"xX c #000034",
"cX c gray11",
"vX c #4C4C4C",
"bX c gray36",
"nX c gray25",
"mX c gray19",
"MX c #343434",
"NX c #D8F4F4",
"BX c #B8E8E8",
"VX c #9CDCDC",
"CX c #74C8C8",
"ZX c #48C0C0",
"AX c #20B4B4",
"SX c #20B0B0",
"DX c #00A4A4",
"FX c #009898",
"GX c #008C8C",
"HX c #008484",
"JX c #007C7C",
"KX c #007878",
"LX c #007474",
"PX c #007070",
"IX c #006C6C",
"UX c #980088",
/* pixels */
"H.H.H.G.H.H.H.G.H.H.H.H.H.F.F.F.G.G.G.G.H.G.F.H.J.H.H.H.H.J.H.H.H.G.H.F.H.H.H.G.F.F.H.G.F.F.H.G.H.G.H.G.G.F.H.H.H.H.H.H.G.H.H.H.",
"G.J.H.H.J.H.J.H.H.H.J.H.G.F.G.G.H.G.G.H.H.F.G.J.H.G.H.H.J.H.G.H.H.G.G.F.G.H.G.J.F.F.F.F.F.G.G.G.G.H.H.G.F.F.H.H.H.G.G.G.G.H.H.H.",
"F.J.J.H.J.H.H.G.G.H.J.H.H.G.H.H.H.F.F.H.G.H.J.J.G.G.H.H.J.H.G.G.F.G.F.F.H.H.G.H.F.F.F.F.F.H.G.H.G.H.F.G.G.G.H.H.G.G.G.H.H.H.H.H.",
"G.H.J.H.J.J.J.H.J.J.J.H.G.G.G.F.H.G.F.G.H.G.H.H.G.G.G.H.xXH.H.G.F.G.F.F.G.G.J.H.H.G.F.H.G.H.G.H.F.G.G.G.G.G.H.J.H.F.F.G.H.H.H.J.",
"J.J.J.J.J.G.H.H.J.J.J.H.G.G.F.G.H.F.F.F.H.H.G.H.J.H.G.H.J.H.H.F.F.G.F.F.G.G.J.G.J.H.G.H.H.H.F.G.G.G.G.F.G.G.G.H.H.F.F.H.H.H.H.J.",
"H.F.H.H.H.G.H.G.H.G.H.J.F.G.H.H.G.F.F.F.G.G.G.G.G.J.H.G.H.G.G.F.G.F.F.G.G.H.J.H.G.G.G.G.G.G.G.G.G.G.G.F.G.H.H.H.G.G.G.H.H.H.J.J.",
"G.H.H.H.H.H.G.G.H.H.H.H.F.G.H.H.H.H.H.F.G.F.G.G.H.G.G.H.F.G.G.G.F.F.F.H.H.H.H.H.G.H.G.G.G.G.H.H.J.H.F.G.G.H.H.H.H.G.G.H.H.H.J.J.",
"F.J.H.G.G.H.H.H.G.G.H.H.J.H.H.H.G.H.H.G.H.H.H.H.H.H.H.H.H.H.J.G.G.H.K.J.H.H.J.H.J.G.G.F.G.G.H.H.G.H.G.F.G.G.H.H.H.H.J.J.H.H.H.G.",
"MXMXMXMXMXMXMXMXMXMXq w w MXMXMXMXMXMXMXMXMXMXMXMXMXMXMXMXMXMXq MXMXMXMXq q MXq q q q q MXMXMXMXq MXq MXMXMXMXMXMXMXMXMXMXMXMXMX",
"e e e e e e e e e e e e e e e e e w e e e e e e e e e e e e e e e e e w w w w w e e e e e e e e e e e e e e e e e e e e e e e e ",
"H.H.H.H.G.H.G.G.H.J.H.H.H.H.H.H.G.F.G.H.G.H.G.G.G.F.G.F.G.H.F.G.G.F.G.G.F.F.F.F.G.F.G.G.H.H.G.H.G.G.G.H.G.H.H.J.H.H.H.J.H.H.J.J.",
"H.H.H.H.H.J.J.H.J.J.H.J.H.H.H.H.G.F.F.H.G.H.F.H.H.G.F.F.G.G.G.G.H.G.G.F.F.F.F.G.G.G.G.H.H.H.G.H.H.G.H.H.G.G.G.G.H.H.H.H.J.H.H.J.",
"H.J.G.H.H.H.J.H.G.G.H.H.H.H.H.H.H.G.H.H.H.H.F.H.H.H.F.F.G.H.G.G.H.G.G.F.H.G.F.H.H.G.G.J.J.H.G.G.H.H.J.J.H.F.G.G.G.G.H.J.H.J.J.H.",
"G.J.H.H.H.H.H.H.H.G.H.H.H.H.H.J.H.H.J.H.H.H.G.H.G.J.H.H.H.G.G.G.H.G.G.H.H.G.G.G.G.G.H.J.G.G.F.G.G.H.H.H.H.F.G.F.G.H.H.J.H.J.H.H.",
"H.G.H.H.H.H.H.G.G.G.H.H.G.H.G.H.H.H.H.H.H.H.H.H.G.J.H.H.J.H.G.H.G.G.G.H.G.G.G.G.H.H.G.H.H.G.G.G.H.H.H.H.H.H.H.G.G.H.J.H.H.H.G.H.",
"H.G.J.H.H.H.H.H.H.G.H.J.G.F.G.H.H.H.H.H.H.H.H.H.H.H.H.G.G.F.H.G.F.G.H.G.H.H.G.G.G.J.J.H.H.H.J.H.H.H.H.J.H.H.H.G.H.J.J.J.J.H.H.G.",
"H.G.H.H.G.H.J.H.J.H.H.H.H.G.G.J.H.H.G.G.H.H.G.G.G.H.G.G.G.F.F.G.F.G.H.G.G.H.J.H.H.H.H.H.J.H.G.H.H.K.H.J.H.H.F.G.J.J.J.J.J.H.H.H.",
"J.G.H.G.G.H.H.H.J.H.G.H.G.H.H.J.H.H.H.H.J.J.H.G.G.H.H.H.H.G.G.H.H.J.G.H.H.xXK.H.H.J.H.G.H.J.J.H.xXJ.H.J.H.G.H.H.H.H.J.jXJ.J.H.J.",
"J.H.H.J.H.J.H.H.H.G.G.H.G.H.H.J.H.H.H.H.H.G.G.H.H.H.H.H.H.G.H.H.G.H.H.G.G.G.J.H.J.J.H.G.H.J.J.J.J.H.H.G.H.H.H.J.H.xXJ.J.K.H.H.J.",
"H.J.H.H.H.J.H.H.H.J.J.H.G.J.J.H.J.H.H.G.G.H.H.H.H.H.H.H.J.H.H.H.H.F.F.H.H.J.G.J.J.J.H.H.G.H.J.J.H.H.H.H.H.J.J.J.J.J.J.H.J.J.xXH.",
"J.K.H.H.H.J.J.J.J.G.H.J.G.H.H.H.J.J.G.G.F.G.H.H.G.H.H.H.H.H.J.H.F.F.G.H.H.H.G.H.H.G.H.H.G.J.J.J.J.H.J.J.J.J.J.J.xXxXJ.J.J.K.H.J.",
"J.J.J.H.J.H.G.K.J.J.J.G.G.H.H.H.G.H.J.J.H.H.G.H.H.H.J.J.J.J.J.J.H.H.H.H.H.J.H.H.G.K.J.H.H.H.J.J.H.J.G.H.J.H.G.J.K.K.J.J.jXH.J.K.",
"J.J.J.J.J.J.H.J.J.H.H.H.G.G.J.H.H.H.J.H.H.H.H.J.H.J.H.G.H.H.J.J.J.J.J.J.H.J.J.H.J.H.J.J.H.J.H.J.J.H.J.H.J.J.J.J.J.J.J.J.J.J.J.J.",
"J.J.J.xXJ.H.J.J.H.H.H.H.H.H.J.H.H.H.J.H.G.H.H.J.H.H.G.H.H.H.J.H.J.H.J.J.J.J.G.H.G.J.J.J.J.J.J.J.J.H.H.K.J.J.J.K.xXH.J.H.J.J.J.J.",
"J.J.H.H.J.J.J.J.J.H.H.J.H.J.H.J.J.H.J.J.H.H.H.H.H.J.H.H.J.J.J.H.J.xXJ.H.xXJ.G.F.H.K.jXJ.H.J.H.H.H.J.jXjXH.J.J.H.H.J.J.K.J.J.J.J.",
"J.J.H.J.J.H.J.J.J.J.J.J.J.J.H.H.J.J.H.H.H.J.J.J.J.K.J.J.H.H.H.J.J.xXJ.J.J.J.H.J.xXJ.H.J.J.J.J.J.xXJ.K.H.J.K.J.J.J.J.J.H.J.J.J.J.",
"J.J.H.J.J.J.J.J.J.J.H.H.J.H.J.H.J.J.J.J.J.J.J.xXJ.K.J.jXK.J.J.J.H.H.J.J.J.J.H.H.H.J.H.H.G.H.J.H.H.J.J.J.K.H.H.xXJ.J.J.J.J.J.J.xX",
"J.J.J.xXK.J.xXJ.J.H.J.J.H.H.J.J.K.J.J.J.J.J.xXJ.H.xXxXjXH.xXxXJ.J.J.J.J.K.J.K.J.J.J.J.J.H.J.J.J.J.J.J.H.J.H.G.J.G.J.J.J.J.J.J.H.",
"J.H.J.jXjXxXJ.J.jXjXjXJ.H.J.J.J.J.xXJ.H.H.H.J.J.J.K.xXJ.J.J.jXxXJ.xXJ.J.J.K.J.H.J.J.J.H.H.J.J.J.xXK.J.xXJ.H.J.J.J.J.J.J.J.J.J.J.",
"J.J.H.J.K.G.J.J.J.J.J.J.J.J.J.J.J.J.xXK.J.J.J.xXjXJ.K.J.xXjXxXxXxXxXK.J.K.K.J.J.J.J.jXJ.J.xXjXJ.H.J.J.J.J.J.J.K.xXK.J.xXJ.H.K.J.",
"J.H.F.H.J.H.K.H.J.J.J.xXJ.H.J.xXjXjXJ.jXjXJ.J.J.xXJ.jXJ.jXjXK.K.J.xXxXxXxXJ.J.K.K.J.J.H.J.H.xXJ.J.J.J.J.xXJ.J.K.J.H.K.J.J.J.xXJ.",
"J.G.J.J.J.xXJ.H.J.J.jXxXjXjXjXxXxXjXJ.jXJ.xXJ.J.xXxXxXxXjXJ.H.H.jXjXxXxXxXJ.J.J.H.J.J.J.J.J.J.J.xXJ.H.J.J.J.J.J.J.J.K.J.K.xXxXJ.",
"J.J.J.J.J.H.J.K.J.J.xXJ.J.H.J.J.K.J.J.H.K.K.J.H.H.K.K.J.J.H.J.xXjXK.xXJ.J.K.jXxXxXH.H.J.xXJ.J.K.J.H.jXxXxXJ.jXJ.J.J.J.J.H.J.J.J.",
"J.xXxXxXJ.J.K.J.J.J.J.J.xXxXjXjXxXjXJ.K.J.K.J.J.J.H.xXxXJ.J.xXxXK.K.J.J.J.xXJ.H.H.H.J.J.H.K.xXxXJ.jXJ.J.J.J.xXJ.xXJ.xXJ.xXJ.J.J.",
"xXjXH.J.xXxXjXjXK.jXJ.J.K.J.jXxXxXJ.xXJ.K.xXH.J.J.K.xXJ.jXjXK.J.xXjXK.xXJ.xXxXJ.J.J.xXK.xXjXK.K.jXK.xXjXJ.K.J.J.xXxXJ.jXJ.J.J.xX",
"xXJ.J.J.H.J.G.xXJ.J.J.J.jXjXJ.J.xXxXxXxXJ.xXJ.J.J.jXxXxXJ.H.xXjXjXJ.K.J.xXK.jXJ.J.K.J.J.J.H.J.jXJ.H.J.J.J.J.H.xXjXJ.xXH.J.xXxXJ.",
"jXjXxXJ.J.J.J.jXxXxXJ.J.J.J.K.J.H.xXK.jXxXxXJ.xXjXJ.H.H.H.J.jXxXxXJ.J.J.J.jXjXjXxXJ.J.J.K.xXJ.J.xXxXxXxXK.H.J.xXH.J.J.J.jXjXjXK.",
"jXxXxXxXJ.xXJ.xXJ.J.K.H.H.G.J.K.K.jXjXxXK.K.jXJ.J.H.xXJ.jXxXK.J.H.xXJ.jXjXjXJ.H.H.H.xXjXjXjXJ.J.xXK.J.J.J.J.xXH.xXJ.xXxXjXJ.jXjX",
"J.K.xXJ.J.xXxXxXjXxXJ.G.J.jXjXjXjXxXxXjXxXJ.J.J.jXJ.K.J.J.J.J.H.J.J.xXJ.K.J.J.J.J.xXjXjXJ.J.J.xXxXJ.K.J.K.J.xXxXJ.J.xXxXJ.H.xXJ.",
"H.J.J.xXxXxXxXxXJ.K.J.J.J.J.xXJ.jXxXxXxXjXjXjXjXxXJ.xXK.J.xXJ.J.jXjXxXK.H.H.J.G.J.J.J.H.jXxXK.xXJ.K.J.K.J.J.H.H.xXK.jXjXJ.xXJ.H.",
"J.J.J.xXxXxXJ.J.xXK.J.J.H.G.J.xXK.H.J.J.xXxXK.J.J.J.J.jXK.J.J.J.xXJ.xXJ.J.H.H.K.xXjXJ.xXxXjXjXxXK.xXxXxXK.J.xXxXJ.jXjXxXJ.K.xXJ.",
"jXxXJ.J.J.J.J.J.J.J.xXxXH.H.G.J.J.xXJ.J.xXxXjXK.xXxXK.J.jXJ.J.xXK.H.J.J.K.K.xXjXjXK.J.xXjXjXxXH.jXjXxXJ.J.xXJ.J.jXxXH.J.xXxXjXjX",
"jXjXK.jXK.J.J.J.jXJ.xXjXJ.J.xXxXjXxXJ.xXK.J.J.xXJ.xXK.xXJ.J.J.xXJ.xXxXK.J.xXxXK.H.J.xXJ.J.xXK.jXxXH.J.J.K.xXJ.xXjXxXJ.xXjXxXjXjX",
"J.jXjXjXJ.xXJ.K.xXJ.H.J.xXJ.J.xXJ.xXxXxXxXxXJ.J.K.xXjXxXJ.K.J.J.J.xXJ.J.jXJ.J.J.H.xXJ.xXxXxXxXJ.J.xXjXxXxXjXxXxXK.xXJ.xXjXJ.J.H.",
"xXjXjXxXK.xXxXxXjXxXJ.H.jXjXJ.jXxXxXxXjXjXjXxXjXK.jXjXJ.J.J.J.J.xXJ.jXjXxXK.jXxXjXxXxXxXjXjXK.K.xXJ.J.J.K.K.xXJ.xXxXJ.jXjXK.xXjX",
"xXH.H.xXxXxXjXjXJ.xXJ.J.xXJ.jXjXK.J.J.J.J.J.J.J.jXxXjXxXxXxXK.K.J.xXxXH.H.xXG.xXJ.G.J.K.J.J.xXjXjXJ.K.xXK.xXxXJ.J.J.xXJ.jXxXJ.xX",
"K.jXxXjXjXjXxXxXJ.J.K.K.xXH.J.J.xXxXxXxXxXK.xXjXxXJ.K.xXxXxXK.K.K.xXK.xXjXK.jXxXJ.xXJ.J.K.J.J.jXK.xXJ.J.J.jXxXxXjXJ.K.xXJ.H.J.J.",
"xXJ.xXK.xXxXxXxXxXJ.J.J.xXxXjXJ.xXxXjXjXjXK.J.J.xXK.J.J.J.K.J.J.J.J.xXK.xXxXJ.K.K.K.K.J.J.xXxXxXjXjXxXJ.xXjXxXK.J.xXJ.xXJ.jXjXxX",
"xXxXxXjXjXxXJ.xXxXK.J.K.jXJ.jXxXjXxXjXjXjXjXxXxXxXxXjXjXjXJ.J.J.jXK.K.K.J.K.J.xXJ.J.J.xXJ.J.jXxXxXJ.J.K.jXK.J.jXjXjXJ.J.xXxXxXJ.",
"J.J.xXxXJ.K.xXxXxXxXjXxXJ.xXjXK.xXxXJ.J.jXH.xXxXxXJ.K.K.xXjXjXjXjXxXxXJ.K.jXJ.xXK.xXxXxXJ.J.xXxXxXxXxXxXJ.J.K.J.J.J.J.jXjXK.xXJ.",
"jXxXxXxXJ.H.J.K.K.xXJ.J.K.xXjXjXxXjXjXK.xXxXxXxXJ.xXjXK.xXK.xXxXH.xXxXjXjXK.J.jXjXxXjXjXxXK.J.jXjXjXjXxXJ.J.K.K.xXK.K.J.H.J.J.jX",
"xXxXJ.K.K.J.K.xXxXK.J.J.xXjXjXjXxXJ.xXxXxXxXjXxXjXxXJ.jXK.J.H.H.J.J.J.J.jXJ.xXK.xXjXJ.H.J.K.jXjXJ.J.J.xXK.J.K.J.K.xXxXxXxXxXK.K.",
"xXxXxXxXK.xXxXK.xXK.J.K.J.J.jXxXjXjXjXjXxXJ.xXxXjXxXjXjXxXxXxXjXxXK.xXJ.xXjXxXK.K.J.G.J.J.K.xXH.G.xXjXK.xXK.xXxXxXxXJ.jXxXxXJ.K.",
"jXjXxXxXJ.J.K.xXK.J.K.K.K.K.jXJ.jXxXJ.J.J.xXjXxXK.xXxXxXK.K.jXxXjXjXJ.jXK.K.J.K.J.J.xXK.jXxXxXH.xXjXjXxXxXJ.xXjXxXxXxXJ.xXjXxXjX",
"xXxXxXJ.xXxXjXxXxXK.J.K.xXJ.J.K.J.xXxXxXxXjXK.xXxXjXxXxXxXxXxXK.J.K.jXJ.jXK.jXjXjXxXJ.K.xXjXxXjXjXxXjXK.J.K.jXxXJ.xXjXxXJ.xXxXJ.",
"K.J.xXjXxXjXxXK.J.K.K.J.K.xXJ.jXJ.H.jXK.K.J.K.jXjXjXjXJ.jXxXK.J.J.xXJ.jXjXxXjXxXJ.J.xXjXJ.xXJ.K.xXjXjXxXxXjXxXxXxXxXJ.J.K.J.K.H.",
"xXjXJ.xXxXjXxXxXJ.xXxXxXxXK.K.K.xXJ.xXxXK.J.jXjXjXxXJ.jXjXxXK.K.xXJ.K.xXjXJ.K.xXK.jXJ.J.xXJ.K.xXjXjXJ.jXjXJ.xXJ.K.J.J.J.K.K.J.J.",
"nXq q q nXnXnXnXnXMXnXnXnXnXnXnXq nXnXnXMXMXMXq q q q q nXnXnXnXvXvXnXq vXq q vXMXnXnXnXnXnXMXq MXnXnXnX$ nXq nXnXq nXnXnXnXnXnX",
"w e e w w w w w w w MXw w w w w w w w w w e w w w w w w w w w w w w w w w w w w w MXw w w w w w w w w w MXw w w w w w w w w w w ",
"MXMXMXq q q MXMXMXMXMXMXq q MXq q q q MXq MXMXMXMXMXq q q MXMXMXMXq q q MXq MXq q q nXq q q q q q MXq q q q q q q q q q q q q q ",
"MXMXMXMXMXMXMXMXMXMXMXMXMXMXq MXMXMXMXMXMXMXMXMXMXMXq MXMXMXMXMXq MXq MXMXq MXMXMXMXq MXMXMXMXMXMXMXMXMXMXMXMXMXMXq MXq MXMXMXMX",
"w w w w w w w w w w w w w w MXw w w w w w w w w w w w w e e w w w w w w w w w w w w w w w w w w w w w w w w w w w w w w w w w w ",
"w w w w w w w w e e e w w w w w w w w w w e e w w w w e e w w w w w w w w w w w w w w w w w w w w w e w w w w w w w w w w w w w ",
"e e e e e e w e e e e e e e e e e e e e e e e e e e e e e e e e e e e e e e w w e e e e e e e e e e e e e e e e e e e e e e e e "
};
