/* XPM */
static char *Blue61668167182[] = {
/* columns rows colors chars-per-pixel */
"64 64 256 2 ",
"   c black",
".  c #0000A8",
"X  c #00A800",
"o  c #00A8A8",
"O  c #A80000",
"+  c #A800A8",
"@  c #A85400",
"#  c gray66",
"$  c gray33",
"%  c #5454FC",
"&  c #54FC54",
"*  c #54FCFC",
"=  c #FC5454",
"-  c #FC54FC",
";  c #FCFC54",
":  c gray99",
">  c #ECECEC",
",  c gainsboro",
"<  c #D0D0D0",
"1  c #C0C0C0",
"2  c #B4B4B4",
"3  c gray66",
"4  c #989898",
"5  c gray55",
"6  c #7C7C7C",
"7  c gray44",
"8  c #646464",
"9  c gray33",
"0  c #484848",
"q  c gray22",
"w  c #2C2C2C",
"e  c #202020",
"r  c #FC0000",
"t  c #EC0000",
"y  c #E00000",
"u  c #D40000",
"i  c #C80000",
"p  c #BC0000",
"a  c #B00000",
"s  c #A40000",
"d  c #980000",
"f  c #880000",
"g  c #7C0000",
"h  c #700000",
"j  c #640000",
"k  c #580000",
"l  c #4C0000",
"z  c #400000",
"x  c #FCD8D8",
"c  c #FCB8B8",
"v  c #FC9C9C",
"b  c #FC7C7C",
"n  c #FC5C5C",
"m  c #FC4040",
"M  c #FC2020",
"N  c #FC0000",
"B  c #FCA85C",
"V  c #FC9840",
"C  c #FC8820",
"Z  c #FC7800",
"A  c #E46C00",
"S  c #CC6000",
"D  c #B45400",
"F  c #9C4C00",
"G  c #FCFCD8",
"H  c #FCFCB8",
"J  c #FCFC9C",
"K  c #FCFC7C",
"L  c #FCF85C",
"P  c #FCF440",
"I  c #FCF420",
"U  c #FCF400",
"Y  c #E4D800",
"T  c #CCC400",
"R  c #B4AC00",
"E  c #9C9C00",
"W  c #848400",
"Q  c #706C00",
"!  c #585400",
"~  c #404000",
"^  c #D0FC5C",
"/  c #C4FC40",
"(  c #B4FC20",
")  c #A0FC00",
"_  c #90E400",
"`  c #80CC00",
"'  c #74B400",
"]  c #609C00",
"[  c #D8FCD8",
"{  c #BCFCB8",
"}  c #9CFC9C",
"|  c #80FC7C",
" . c #60FC5C",
".. c #40FC40",
"X. c #20FC20",
"o. c #00FC00",
"O. c #00FC00",
"+. c #00EC00",
"@. c #00E000",
"#. c #00D400",
"$. c #04C800",
"%. c #04BC00",
"&. c #04B000",
"*. c #04A400",
"=. c #049800",
"-. c #048800",
";. c #047C00",
":. c #047000",
">. c #046400",
",. c #045800",
"<. c #044C00",
"1. c #044000",
"2. c #D8FCFC",
"3. c #B8FCFC",
"4. c #9CFCFC",
"5. c #7CFCF8",
"6. c #5CFCFC",
"7. c #40FCFC",
"8. c #20FCFC",
"9. c #00FCFC",
"0. c #00E4E4",
"q. c #00CCCC",
"w. c #00B4B4",
"e. c #009C9C",
"r. c #008484",
"t. c #007070",
"y. c #005858",
"u. c #004040",
"i. c #5CBCFC",
"p. c #40B0FC",
"a. c #20A8FC",
"s. c #009CFC",
"d. c #008CE4",
"f. c #007CCC",
"g. c #006CB4",
"h. c #005C9C",
"j. c #D8D8FC",
"k. c #B8BCFC",
"l. c #9C9CFC",
"z. c #7C80FC",
"x. c #5C60FC",
"c. c #4040FC",
"v. c #2024FC",
"b. c #0004FC",
"n. c #0000FC",
"m. c #0000EC",
"M. c #0000E0",
"N. c #0000D4",
"B. c #0000C8",
"V. c #0000BC",
"C. c #0000B0",
"Z. c #0000A4",
"A. c #000098",
"S. c #000088",
"D. c #00007C",
"F. c #000070",
"G. c #000064",
"H. c #000058",
"J. c #00004C",
"K. c #000040",
"L. c #282828",
"P. c #FCE034",
"I. c #FCD424",
"U. c #FCCC18",
"Y. c #FCC008",
"T. c #FCB400",
"R. c #B420FC",
"E. c #A800FC",
"W. c #9800E4",
"Q. c #8000CC",
"!. c #7400B4",
"~. c #60009C",
"^. c #500084",
"/. c #440070",
"(. c #340058",
"). c #280040",
"_. c #FCD8FC",
"`. c #FCB8FC",
"'. c #FC9CFC",
"]. c #FC7CFC",
"[. c #FC5CFC",
"{. c #FC40FC",
"}. c #FC20FC",
"|. c #FC00FC",
" X c #E000E4",
".X c #C800CC",
"XX c #B400B4",
"oX c #9C009C",
"OX c #840084",
"+X c #6C0070",
"@X c #580058",
"#X c #400040",
"$X c #FCE8DC",
"%X c #FCE0D0",
"&X c #FCD8C4",
"*X c #FCD4BC",
"=X c #FCCCB0",
"-X c #FCC4A4",
";X c #FCBC9C",
":X c #FCB890",
">X c #FCB080",
",X c #FCA470",
"<X c #FC9C60",
"1X c #F0945C",
"2X c #E88C58",
"3X c #DC8854",
"4X c #D08050",
"5X c #C87C4C",
"6X c #BC7848",
"7X c #B47044",
"8X c #A86840",
"9X c #A0643C",
"0X c #9C6038",
"qX c #905C34",
"wX c #885830",
"eX c #80502C",
"rX c #744C28",
"tX c #6C4824",
"yX c #5C4020",
"uX c #543C1C",
"iX c #483818",
"pX c #403018",
"aX c #382C14",
"sX c #28200C",
"dX c #600064",
"fX c #006464",
"gX c #006060",
"hX c #00001C",
"jX c #00002C",
"kX c #302410",
"lX c #480048",
"zX c #500050",
"xX c #000034",
"cX c gray11",
"vX c #4C4C4C",
"bX c gray36",
"nX c gray25",
"mX c gray19",
"MX c #343434",
"NX c #D8F4F4",
"BX c #B8E8E8",
"VX c #9CDCDC",
"CX c #74C8C8",
"ZX c #48C0C0",
"AX c #20B4B4",
"SX c #20B0B0",
"DX c #00A4A4",
"FX c #009898",
"GX c #008C8C",
"HX c #008484",
"JX c #007C7C",
"KX c #007878",
"LX c #007474",
"PX c #007070",
"IX c #006C6C",
"UX c #980088",
/* pixels */
"C.C.C.V.V.N.M.n.n.N.N.J.  S.. m.n.n.B.m.N.m.b.n.n.n.N.n.n.n.. J.  B.Z.n.N.n.n.n.n.M.n.M.M.B.B.J.  B.M.V.n.N.F.  J.S.A.N.C.n.N.Z.",
". C.C.C.C.N.n.B.M.M.A.K.  K.Z.M.V.A.. B.V.M.b.m.M.N.m.n.n.C.F.hX  A.C.n.n.M.n.n.N.C.Z.A.Z.M.C.K.  S.. V.n.B.G.  xXS.F.Z.B.n.V.D.",
"V.. . V.B.A.A.Z.. N.. D.  G.B.n.n.V.N.V.D.V.B.n.n.n.n.n.M.S.G.jX  A.V.n.n.m.B.M.A.A.B.n.n.n.. G.  F.B.n.m.A.F.  S.M.. Z.N.V.F.G.",
"B.. . . B.N.Z.A.G.A.D.G.  G.. M.M.A.N.M.V.N.V.m.M.M.B.S.G.H.S.G.  . N.m.B.B.V.B.Z.N.V.B.A.N.D.F.  A.C.n.B.N.G.  F.C.B.N.n.S.S.G.",
"Z.Z.Z.V.A.S.J.D.A.Z.D.J.  A.A.B.B.M.M.m.N.N.V.A.A.D.H.G.A.. N.Z.  B.N.m.n.C.Z.S.V.N.n.m.N.N.H.F.  G.Z.V.V.V.D.  J.Z.A.B.C.F.F.H.",
"A.J.F.J.H.H.H.C.C.S.J.J.  A.Z.n.m.M.N.n.M.n.V.A.V.C.V.M.n.n.N.G.  C.B.N.Z.S.N.M.N.m.N.B.S.Z.F.F.  F.V.B.N.A.G.  J.F.Z.A.D.K.jXK.",
"G.G.H.G.F.D.A.V.. F.xXjX  H.Z.S.C.N.V.V.Z.N.C.N.N.N.N.N.N.C.B.J.  Z.F.S.Z.V.V.A.F.Z.A.Z.S.F.J.H.  xXV.F.A.F.J.  jXjXF.G.H.J.F.F.",
"A.S.K.A.Z.N.V.N.A.S.jXxX  G.m.m.n.V.A.M.M.M.M.m.m.C.B.M.B.Z.Z.K.  H.K.F.G.G.K.J.H.F.D.J.H.G.S.H.  jXH.G.G.H.jX  jXK.J.H.S.G.D.G.",
"V.Z.F.Z.B.V.S.B.F.F.jXjX  D.C.Z.A.S.N.B.N.m.Z.B.M.B.V.m.A.N.Z.K.                                                H.G.J.F.A.. C.H.",
"A.D.D.D.Z.A.A.V.H.D.K.hX  K.S.B.N.. n.V.B.B.V.M.M.B.N.M.V.V.D.J.  A.F.. A.D.Z.G.G.xX  D.A.F.xXxXD.Z.D.S.D.J.hX  jXG.F.D.D.S.D.G.",
"N.. D.. N.C.D.A.D.S.K.K.  jXH.Z.. S.B.A.B.M.V.N.N.V.V.C.Z.A.G.K.  H.Z.M.B.Z.. A.B.F.  F.. V.S.H.D.N.B.C.C.F.hX  K.F.S.C.Z.Z.D.D.",
"A.A.D.A.Z.F.S.A.F.G.J.F.  H.G.F.F.C.Z.. C.. V.V.V.V.V.C.Z.S.G.xX  Z.m.m.Z.S.A.A.A.J.  A.C.B.C.A.B.C.Z.. M.D.G.  H.A.A.N.C.A.S.G.",
"G.S.D.A.F.F.F.D.F.H.H.hX  xXF.H.D.S.D.S.S.A.A.S.D.F.S.F.G.F.F.J.  A.V.F.H.S.A.Z.D.J.  G.G.F.A.A.. A.V.C.B.A.J.  J.A.. C.F.D.G.K.",
"J.K.K.K.J.H.K.H.K.xXjXhX  J.G.H.H.G.F.S.D.F.G.J.K.J.K.K.J.J.K.hX  A.A.S.S.A.A.F.J.J.  xXxXD.F.H.A.C.A.V.Z.A.J.  J.F.D.H.xXxXhXK.",
"J.J.xXJ.J.jXJ.J.K.jXhX    jXH.D.G.K.K.xXxXxXH.G.S.F.J.K.J.K.jXhX  F.F.H.K.J.J.K.J.H.  G.jXJ.F.J.H.J.G.. D.S.G.  K.K.xXjXhXK.K.S.",
"                                                                                      H.H.F.K.xXH.F.F.D.J.F.D.                  ",
"D.D.D.D.D.D.A.F.S.A.S.D.H.xXH.  F.S.Z.V.S.D.A.G.F.F.  K.H.G.H.F.xXJ.G.J.J.H.J.J.jXhX  H.D.S.G.G.G.F.J.D.G.F.F.  F.D.F.D.J.H.J.F.",
"S.D.D.D.S.. A.S.S.G.G.. A.D.J.  D.G.D.. S.C.A.. B.K.  K.G.D.A.Z.S.S.D.G.F.S.F.D.J.hX  J.A.A.H.G.K.J.J.F.A.D.G.  G.A.A.A.H.A.A.F.",
"C.S.A.S.V.Z.S.A.A.A.C.C.A.H.jX  F.J.S.V.D.A.S.N.C.xX  K.A.Z.B.D.S.. C.S.. B.A.S.H.jX  J.D.S.S.S.H.F.jXK.F.H.K.  H.. S.A.F.Z.H.S.",
"F.F.S.F.D.S.S.A.. A.A.J.K.xXhX  J.S.A.A.F.V.A.D.H.jX  K.Z.H.A.D.C.A.A.C.. . J.G.G.H.  K.F.F.A.A.G.G.H.G.G.F.D.  H.D.S.S.Z.S.S.S.",
"A.A.Z.A.A.Z.D.A.S.H.G.xXJ.J.K.  F.C.D.. V.Z.D.F.F.xX  K.S.D.A.A.Z.C.A.A.S.H.H.A.H.J.  G.K.F.G.K.H.G.D.F.K.K.H.  J.S.S.F.S.G.A.S.",
"G.G.J.G.G.G.G.H.xXxXxXjXJ.K.K.  H.H.G.D.G.K.xXK.xXK.  J.D.D.F.D.A.V.V.S.G.J.D.A.K.K.  J.hXJ.K.K.J.J.K.K.J.K.G.  J.H.H.H.H.K.F.G.",
"H.F.F.F.H.H.K.J.K.H.J.J.G.H.xX  jXK.xXjXjXxXxXJ.J.J.  J.D.D.S.F.A.C.D.K.F.D.Z.S.H.J.  G.H.F.G.J.H.S.A.S.F.xXK.  J.K.K.xXK.K.J.K.",
"                                                      H.F.F.S.G.D.F.J.G.D.S.D.D.H.K.  G.F.D.. G.G.D.D.G.G.jXxX                  ",
"  jXJ.jXJ.J.K.J.J.jX  xXK.J.F.G.J.G.H.H.K.K.K.K.K.jX  jXJ.G.G.H.G.G.G.D.D.A.D.G.K.jX  H.J.K.G.K.J.G.S.D.F.xXK.  K.J.H.D.A.S.F.xX",
"  H.F.G.S.S.F.G.G.jX  J.F.D.A.S.F.F.G.D.F.F.D.G.K.hX  xXK.xXG.G.A.D.G.A.A.A.G.H.J.xX  H.F.J.A.S.D.F.S.S.D.xXhX  jXJ.S.A.D.F.G.jX",
"  H.H.F.H.D.D.F.G.K.  xXF.D.A.D.D.D.S.A.S.A.F.H.K.hX  K.G.J.F.F.S.D.D.S.G.H.J.xXK.K.  H.H.K.D.S.G.J.H.G.G.jXhX  hXG.D.F.H.F.G.jX",
"  F.D.S.F.A.A.F.J.xX  H.D.S.D.G.G.H.H.J.J.J.xXG.G.jX  J.H.hXxXK.K.H.J.J.H.J.K.K.H.K.  xXxXH.A.Z.D.A.G.S.J.jXhX  hXG.F.G.S.S.G.jX",
"  G.F.D.F.F.H.J.J.xX  jXH.K.H.J.J.J.K.K.K.F.J.D.F.K.  xXjXjXxXK.J.J.K.K.K.jXxXK.K.hX  xXJ.S.S.S.G.S.S.H.K.H.jX  hXH.S.S.S.H.H.jX",
"  K.A.J.H.A.S.H.H.hX  K.K.jXK.jXxXJ.H.J.D.D.J.F.F.J.                                  J.H.D.G.S.D.F.G.J.H.J.jX  hXG.D.G.D.H.H.xX",
"  K.D.J.A.G.K.H.J.hX  K.K.H.F.G.S.S.F.G.S.F.F.F.F.J.  K.K.H.hXxXK.jXhXhXhXhXxXK.J.jX  H.J.K.H.G.K.H.K.K.K.J.K.  jXK.J.J.xXK.xXK.",
"  G.S.D.G.G.G.F.hXhX  K.K.K.J.G.F.G.F.F.F.D.F.G.H.jX  xXG.H.xXK.K.xXjXK.jXK.G.G.J.hX  hXhXxXxXxXjXjXhXxXK.K.hX  hXhXxXjXjXxXhXjX",
"  H.F.G.G.J.J.K.hXxX  H.J.H.H.xXJ.J.H.H.H.H.H.J.xXxX  xXK.H.F.G.J.K.H.F.G.D.G.D.K.hX                                            ",
"  jXxXK.jXjXjXjXjXjX  jXhXK.xXxXjXhXhXjXjXxXxXxXjXhX  jXjXK.J.K.K.J.J.H.J.J.K.J.xXhX  jXxXJ.J.K.H.xXjXxXhXK.K.H.J.J.  jXjXK.K.K.",
"  hXhXhXhXjXjXxXjX    hXhXjXjXjXjXhXhXhXhXhXhXhXhX    K.jXhXK.H.J.K.xXF.H.H.J.J.J.hX  K.K.G.J.G.J.G.J.J.H.G.F.G.H.K.  K.K.F.G.J.",
"                                                      jXhXjXxXJ.J.G.J.H.K.H.H.J.xXhX  J.H.D.J.D.G.F.G.D.D.G.F.G.G.xX  J.K.G.G.J.",
"  xXxXxXjXK.J.H.K.H.J.jXK.K.H.H.J.J.J.jXxX  xXjXJ.hX  xXxXxXjXK.J.H.H.J.G.G.J.H.xXhX  K.J.H.G.D.F.F.D.D.D.F.G.D.K.hX  J.J.H.G.J.",
"  K.J.J.K.K.G.H.G.D.H.H.D.G.G.J.H.J.J.K.jX  D.H.G.jX  xXH.J.J.J.K.H.D.H.S.G.H.J.xXjX  K.J.H.J.J.G.F.F.F.F.H.H.H.xXhX  J.K.H.G.J.",
"  jXjXK.J.xXxXK.H.J.xXK.G.J.xXK.J.H.H.hXhX  G.J.K.hX  K.K.H.H.J.jXxXK.J.K.J.K.J.xXjX  hXK.G.H.J.H.G.G.F.G.H.K.J.K.hX  hXJ.D.H.J.",
"  jXjXJ.H.K.hXhXxXJ.J.J.J.K.J.G.K.G.K.hXhX  G.G.K.jX  jXjXxXjXxXxXjXxXjXhXhXhXhXhXxX  jXxXJ.J.K.J.J.J.J.xXK.J.G.J.hX  H.K.J.xXJ.",
"  K.J.G.F.H.xXhXxXH.J.G.G.G.G.xXjXK.K.jXhX  K.hXhXhX  hXhXxXK.K.xXjXhXhX        hXxX  hXjXJ.J.K.J.K.jXxXxXG.G.G.xXhX  jXhXG.H.J.",
"  K.K.H.J.J.H.jXhXjXxXH.J.J.xXjXjXxXJ.jXhX                                            jXxXJ.H.K.G.K.K.J.K.J.xXxXhXjX  J.G.F.K.J.",
"  jXjXK.jXjXK.xXK.K.xXK.xXjXjXjXjXjXhXhXjX  J.K.K.J.H.G.H.K.  J.H.H.K.J.H.xXjXK.K.xX  jXK.H.J.K.J.K.J.J.jXK.jXhXhXjX  xXJ.H.H.J.",
"  hXjXjXjXjXjXjXJ.K.K.xXxXjXjXhXxXhXhXhXxX  J.G.F.D.H.D.H.K.  G.H.H.G.H.G.H.G.K.K.xX  K.J.J.H.G.H.H.H.J.xXjXhXhXhXK.  J.K.K.J.K.",
"  xXK.K.J.K.jXjXK.xXK.xXjXjXxXK.jXhXhXxXjX  K.H.J.G.H.F.J.K.  H.J.J.J.K.J.jXK.jXK.jX  K.H.K.K.K.K.xXxXjXxXJ.K.jXhXhX  jXxXG.G.K.",
"  jXxXxXjXjXjXhXjXjXxXhXhXhXhXhXhXhXjXjX    jXJ.jXxXJ.G.K.jX  J.J.J.K.J.J.K.xXxXjXhX  hXjXhXhXhXhXhXhXxXxXxXxXhXhX    xXJ.K.K.jX",
"  hXhXhXhXjXjXhXjXhXhXhXhXhXhXhXhXjXjXhX    hXjXhXhXK.H.K.jX  jXhXhXhXhXhXhXhXxXjXhX            hXhXhXhXhXhXhXhX        hXhXhXhX",
"                                            xXjXxXK.J.xXJ.xX                                                                    ",
"jXjXjXjXjXxXjX  xXG.J.H.H.H.J.J.J.H.J.xXhX  xXK.H.H.J.K.J.jX  hXH.xXK.J.jX    xXK.xXK.xXjXhXjX  hXhXhXhXhXhXK.jXjXjXxXhXjXK.xXxX",
"J.G.K.G.J.K.jX  J.G.K.H.K.J.K.H.H.J.J.xXhX  K.J.H.J.H.jXjXhX  K.G.G.H.J.hX  xXG.G.H.J.K.K.hXjX  hXhXK.K.jXxXJ.K.J.J.H.J.J.H.K.J.",
"H.G.K.G.H.J.hX  K.J.K.jXjXxXjXxXjXjXjXhXhX  K.xXK.xXK.xXK.hX  J.G.H.J.J.hX  K.H.H.K.K.K.K.hXjX  jXK.J.J.K.xXxXxXK.K.K.jXJ.H.G.H.",
"J.J.H.J.J.J.hX  xXK.xXjXK.jXhXjXxXxXjXhXjX  hXjXK.K.J.K.jXhX  K.H.H.G.G.jX  K.K.H.J.K.K.jXhXhX  hXhXxXK.J.J.xXjXjXxXK.K.K.J.J.H.",
"G.H.H.H.G.J.hX  J.jXxXjXjXhXjXxXjXjXhXhXhX  hXxXJ.H.J.jXhXhX  xXH.H.H.J.jX  jXK.G.K.xXK.jXhXhX  hXK.H.J.K.J.K.J.J.J.J.J.J.H.G.H.",
"K.jXK.jXK.K.hX  hXhXhXhXhXjXjXjXjXxXxXhX    jXJ.J.J.xXjXhXhX  xXJ.J.H.K.jX  K.J.J.xXjXjXhX  hX  jXK.J.xXxXJ.J.J.J.J.H.H.K.H.H.H.",
"G.G.K.G.G.K.hX                              xXK.jXJ.J.hXhXhX  K.J.J.G.K.jX  hXJ.J.K.xXxXhXhXhX  jXjXJ.xXjXJ.J.K.J.H.H.J.H.J.J.J.",
"K.J.H.J.K.jXhX  hXhXjXjXjXK.hXxXhXxXhXhXhX  K.xXxXK.jXhXjXhX  K.J.H.G.K.jX  jXK.xXhXhXjXhXhXhX  hXjXK.xXxXhXjXjXxXjXjXK.jXjXjXxX",
"jXjXxXjXjXhXhX  hXK.J.J.J.H.K.K.K.J.xXhXjX  K.xXxXxXhXjXjXhX  K.J.K.H.xXhX  hXhXhXhXjXK.K.hXhX  hXhXhXjXjXjXK.K.J.J.J.K.xXxXxXhX",
"xXjXjXjXxXjXjX  jXxXxXK.xXJ.J.K.J.xXjXhXjX  hXhXhXjXjXK.K.jX  jXxXJ.G.K.hX  hXhXxXxXK.K.K.hXhX  hXhXjXjXjXJ.G.G.K.K.J.J.J.J.J.J.",
"xXJ.H.J.xXhXhX  xXjXjXjXjXxXxXxXK.xXhXhXhX  hXhXxXK.H.K.xXjX  jXJ.H.H.K.hX  jXxXK.K.J.J.K.hXhX  jXxXK.J.H.H.H.J.H.J.G.H.J.J.H.J.",
"xXJ.xXJ.xXhXhX  hXhXhXhXhXjXxXjXxXjXjXhXhX  jXxXH.J.G.J.K.jX  xXJ.J.H.xXhX  K.H.H.H.J.H.J.jXhX  hXK.G.J.K.K.H.H.K.K.H.J.xXK.K.J.",
"K.H.K.H.K.xXjX  hXhXhXjXhXjXxXjXxXhXhXhXhX  jXK.K.K.J.K.K.hX  jXK.K.xXjXhX  jXK.J.K.H.J.jXhXhX  J.J.J.xXK.K.K.K.jXK.xXK.xXK.xXxX",
"J.H.K.H.J.jXhX  hXhXjXxXjXjXjXjXxXhXhXhXhX  xXjXjXK.jXxXjXhX  jXK.G.K.xXhX  xXxXjXhXhXhXhXhXhX  hXjXJ.K.jXjXjXxXhXxXK.xXhXjXxXjX",
"hXxXK.xXhXhXhX  hXhXjXxXxXjXhXjXjXjXhXhXhX  hXhXhXjXhXhXhX    hXK.K.hXhXhX  hXjXhXhXhXhXjXhXhX  hXjXxXjXhXjXjXhXhXjXhXhXhXjXjXhX",
"hXhXhXhXhXjXjX  jXhXhXhX    hXhXhXhXhXhX                      hXhXhXhXhXjX                      hXhXhXhXhXhXhXhXhXhXhXhXhXhXhXhX"
};
