/* XPM */
static char *Blue101668167182[] = {
/* columns rows colors chars-per-pixel */
"64 64 256 2 ",
"   c black",
".  c #0000A8",
"X  c #00A800",
"o  c #00A8A8",
"O  c #A80000",
"+  c #A800A8",
"@  c #A85400",
"#  c gray66",
"$  c gray33",
"%  c #5454FC",
"&  c #54FC54",
"*  c #54FCFC",
"=  c #FC5454",
"-  c #FC54FC",
";  c #FCFC54",
":  c gray99",
">  c #ECECEC",
",  c gainsboro",
"<  c #D0D0D0",
"1  c #C0C0C0",
"2  c #B4B4B4",
"3  c gray66",
"4  c #989898",
"5  c gray55",
"6  c #7C7C7C",
"7  c gray44",
"8  c #646464",
"9  c gray33",
"0  c #484848",
"q  c gray22",
"w  c #2C2C2C",
"e  c #202020",
"r  c #FC0000",
"t  c #EC0000",
"y  c #E00000",
"u  c #D40000",
"i  c #C80000",
"p  c #BC0000",
"a  c #B00000",
"s  c #A40000",
"d  c #980000",
"f  c #880000",
"g  c #7C0000",
"h  c #700000",
"j  c #640000",
"k  c #580000",
"l  c #4C0000",
"z  c #400000",
"x  c #FCD8D8",
"c  c #FCB8B8",
"v  c #FC9C9C",
"b  c #FC7C7C",
"n  c #FC5C5C",
"m  c #FC4040",
"M  c #FC2020",
"N  c #FC0000",
"B  c #FCA85C",
"V  c #FC9840",
"C  c #FC8820",
"Z  c #FC7800",
"A  c #E46C00",
"S  c #CC6000",
"D  c #B45400",
"F  c #9C4C00",
"G  c #FCFCD8",
"H  c #FCFCB8",
"J  c #FCFC9C",
"K  c #FCFC7C",
"L  c #FCF85C",
"P  c #FCF440",
"I  c #FCF420",
"U  c #FCF400",
"Y  c #E4D800",
"T  c #CCC400",
"R  c #B4AC00",
"E  c #9C9C00",
"W  c #848400",
"Q  c #706C00",
"!  c #585400",
"~  c #404000",
"^  c #D0FC5C",
"/  c #C4FC40",
"(  c #B4FC20",
")  c #A0FC00",
"_  c #90E400",
"`  c #80CC00",
"'  c #74B400",
"]  c #609C00",
"[  c #D8FCD8",
"{  c #BCFCB8",
"}  c #9CFC9C",
"|  c #80FC7C",
" . c #60FC5C",
".. c #40FC40",
"X. c #20FC20",
"o. c #00FC00",
"O. c #00FC00",
"+. c #00EC00",
"@. c #00E000",
"#. c #00D400",
"$. c #04C800",
"%. c #04BC00",
"&. c #04B000",
"*. c #04A400",
"=. c #049800",
"-. c #048800",
";. c #047C00",
":. c #047000",
">. c #046400",
",. c #045800",
"<. c #044C00",
"1. c #044000",
"2. c #D8FCFC",
"3. c #B8FCFC",
"4. c #9CFCFC",
"5. c #7CFCF8",
"6. c #5CFCFC",
"7. c #40FCFC",
"8. c #20FCFC",
"9. c #00FCFC",
"0. c #00E4E4",
"q. c #00CCCC",
"w. c #00B4B4",
"e. c #009C9C",
"r. c #008484",
"t. c #007070",
"y. c #005858",
"u. c #004040",
"i. c #5CBCFC",
"p. c #40B0FC",
"a. c #20A8FC",
"s. c #009CFC",
"d. c #008CE4",
"f. c #007CCC",
"g. c #006CB4",
"h. c #005C9C",
"j. c #D8D8FC",
"k. c #B8BCFC",
"l. c #9C9CFC",
"z. c #7C80FC",
"x. c #5C60FC",
"c. c #4040FC",
"v. c #2024FC",
"b. c #0004FC",
"n. c #0000FC",
"m. c #0000EC",
"M. c #0000E0",
"N. c #0000D4",
"B. c #0000C8",
"V. c #0000BC",
"C. c #0000B0",
"Z. c #0000A4",
"A. c #000098",
"S. c #000088",
"D. c #00007C",
"F. c #000070",
"G. c #000064",
"H. c #000058",
"J. c #00004C",
"K. c #000040",
"L. c #282828",
"P. c #FCE034",
"I. c #FCD424",
"U. c #FCCC18",
"Y. c #FCC008",
"T. c #FCB400",
"R. c #B420FC",
"E. c #A800FC",
"W. c #9800E4",
"Q. c #8000CC",
"!. c #7400B4",
"~. c #60009C",
"^. c #500084",
"/. c #440070",
"(. c #340058",
"). c #280040",
"_. c #FCD8FC",
"`. c #FCB8FC",
"'. c #FC9CFC",
"]. c #FC7CFC",
"[. c #FC5CFC",
"{. c #FC40FC",
"}. c #FC20FC",
"|. c #FC00FC",
" X c #E000E4",
".X c #C800CC",
"XX c #B400B4",
"oX c #9C009C",
"OX c #840084",
"+X c #6C0070",
"@X c #580058",
"#X c #400040",
"$X c #FCE8DC",
"%X c #FCE0D0",
"&X c #FCD8C4",
"*X c #FCD4BC",
"=X c #FCCCB0",
"-X c #FCC4A4",
";X c #FCBC9C",
":X c #FCB890",
">X c #FCB080",
",X c #FCA470",
"<X c #FC9C60",
"1X c #F0945C",
"2X c #E88C58",
"3X c #DC8854",
"4X c #D08050",
"5X c #C87C4C",
"6X c #BC7848",
"7X c #B47044",
"8X c #A86840",
"9X c #A0643C",
"0X c #9C6038",
"qX c #905C34",
"wX c #885830",
"eX c #80502C",
"rX c #744C28",
"tX c #6C4824",
"yX c #5C4020",
"uX c #543C1C",
"iX c #483818",
"pX c #403018",
"aX c #382C14",
"sX c #28200C",
"dX c #600064",
"fX c #006464",
"gX c #006060",
"hX c #00001C",
"jX c #00002C",
"kX c #302410",
"lX c #480048",
"zX c #500050",
"xX c #000034",
"cX c gray11",
"vX c #4C4C4C",
"bX c gray36",
"nX c gray25",
"mX c gray19",
"MX c #343434",
"NX c #D8F4F4",
"BX c #B8E8E8",
"VX c #9CDCDC",
"CX c #74C8C8",
"ZX c #48C0C0",
"AX c #20B4B4",
"SX c #20B0B0",
"DX c #00A4A4",
"FX c #009898",
"GX c #008C8C",
"HX c #008484",
"JX c #007C7C",
"KX c #007878",
"LX c #007474",
"PX c #007070",
"IX c #006C6C",
"UX c #980088",
/* pixels */
"hXhXhX  jXjXK.jXjXK.K.J.jXjXjXhXjX      jXK.J.H.K.J.H.H.hX  hXhXjXjXK.H.jXjXjXhXhXhXhXK.K.H.J.H.J.jXhX    hXhXjXjXhXhXhXhXhXhXhX",
"jXjXhXhXjXjXhXhXK.jXH.H.jXK.jXhXjXhX      K.K.jXjXJ.K.hX      hXhXhXJ.K.hXjXjXhXhXjXjXK.K.J.J.H.J.hX    hXhXhXhXjXhXhXhXhXhXhXhX",
"hXhXjXjXhXjXhXjXH.H.J.H.H.J.jXhXhXjXhX    hXjXJ.F.H.hX      hXjXjXJ.D.jXhXjXhXjXJ.K.J.F.F.J.G.jXhX      hXhXhXjXhXhXhXhXhXhXhXhX",
"jXjXjXhXjXJ.hXJ.jXK.K.K.jXjXjXhXhXhXhX      hXjXjXhX    hXjXK.K.K.J.K.hXhXjXjXK.H.G.G.J.H.jXH.        hXhXhXjXK.jXhXhXhXhXhXjXjX",
"jXjXK.jXK.hX  hXjXjXjXhXjXjXhXhX  hXhXjX      hX      hXK.J.K.G.D.H.jXhXhXjXJ.H.H.K.J.F.G.jXhX      hXjXjXJ.K.jXhXhXhXjXjXjXjXjX",
"jXJ.J.K.H.hXhXhXhXhXhXhXhXhXhXhXjXjXjXK.hX  hX      hXjXjXK.H.D.J.jXjXjXjXK.G.H.J.G.D.H.jX          hXJ.H.G.H.J.jXjXhXK.jXjXjXhX",
"jXjXjXH.K.hXhX  hXhXhXhXhXhXhXjXJ.J.K.J.K.        hXjXjXK.G.G.H.jXjXjXjXK.J.H.H.H.G.F.jXhX    hX    hXjXH.G.J.J.K.jXjXJ.K.jXjXK.",
"jXjXjXjXjXhXhXjXhXjXJ.J.jXhXJ.F.F.H.H.H.jX      hXjXJ.F.F.D.H.K.jXjXhXhXjXH.J.K.jXK.jXhX    hXjX      hXhXF.G.H.H.J.J.jXhXhXhXhX",
"jXhXjXjXjXjXhXhXJ.H.H.jXhXK.J.H.G.F.F.G.hX    hXhXK.F.F.G.F.K.jXhXhXK.J.K.jXjXjXH.H.jXhX  hXhXjXhX    hXjXJ.H.H.K.jXjXjXjXhXhXhX",
"jXhXhXhXjXjXK.jXG.J.hXhXK.G.H.D.F.J.jXK.hX    hXK.H.G.G.F.G.J.hXjXK.H.J.K.K.J.G.D.J.hX  hXjXjXjXjX      hXK.H.J.K.K.K.jXhXjXhXhX",
"jXjXjXJ.F.K.jXhXhX  jXG.G.F.F.F.J.H.F.hX    hXhXjXG.S.S.D.D.jXjXH.J.D.J.J.J.J.G.G.jX    hXjXjXjXhXhX      jXK.G.G.H.jXK.jXhXhXhX",
"jXK.J.G.jXhXjXjXhXhXJ.H.G.F.F.G.D.H.jX        hXjXA.A.D.G.J.jXK.G.G.D.H.G.H.G.D.jX    hXJ.H.H.H.K.K.hX    hXjXK.H.H.J.H.J.K.jXjX",
"K.K.K.hXhXjXK.J.H.K.jXjXjXjXjXhXhXhXhXhXhXhX      H.F.J.D.F.F.. V.. H.G.A.D.G.jXhX  hXJ.J.G.D.G.J.jXhX      hXhXH.J.J.J.J.K.jXK.",
"J.K.K.hXjXjXJ.H.K.J.H.H.G.J.jXjX  hXhXjXjXjXhX    hXhXjXJ.J.S.S.F.F.G.Z.F.G.jXhX  hXhXG.F.D.D.G.D.H.H.jXhX      jXjXH.J.G.G.H.G.",
"H.H.hXhXJ.K.G.G.H.H.K.J.K.hXhXhX    hXK.jXG.jX        hXjXG.S.A.F.S.F.D.S.J.jX    K.H.S.S.F.D.F.D.H.H.jXK.jX      hXjXjXJ.jXK.jX",
"K.hXhXK.K.jXK.hXhX            hXhXhXK.jXjXhXjXjXhX      hXJ.jXJ.H.F.S.F.J.jXhX  hXjXH.F.G.G.S.D.F.G.H.J.J.jXhX        hXjXjXjXjX",
"hXhXhXhX  hXhX  hX    hXhXhXhXjXJ.hXjXH.G.J.K.K.J.H.jXjXhXhXhXH.H.K.S.K.K.hXhXhXjXJ.K.G.G.H.G.K.J.K.jXjXhX                      ",
"              hXjXjXjXK.K.K.J.J.K.J.F.D.D.G.H.J.J.J.H.F.jXhXhXjXH.D.F.jXhXhXhXhXhXhXhXhXhXhXhX                                  ",
"jXhXhXhXhX    hXjXjXK.J.jXjXjXJ.J.H.D.A.D.H.D.D.F.F.K.G.G.hX  hXhXhXhX    hXhXhXhX              hX      hX  hXhXhXhXhXhXhXhXhXhX",
"jXjXjXjXhXhX    hXjXG.G.J.G.H.H.S.v.C.D.D.. V.. . A.F.D.D.jXjXhX          jXjXjXjX    hXjXjXhXhXhXhXhXhXhXjXK.K.jXK.jXjXjXjXhXhX",
"K.J.K.jXhXhXhX  hXjXG.F.F.F.F.S.F.A.F.Z.Z.C.V.A.F.J.J.A.Z.jXhXhX        hXjXjXjXhXhX  hXJ.jXhXjXK.K.K.K.J.H.H.jXH.K.K.J.J.jXjXjX",
"J.jXjXK.jXjXjXjXhXhXjXA.V.F.S.S.D.S.A.. B.c.A.H.S.A.B.. G.hX      hXhXhXhXjXjXhXjXjX    K.jXhXK.K.J.G.F.F.J.G.K.H.K.K.jXjXhXjXjX",
"jXjXK.jXjXjXjXK.jX  jXF.D.A.B.A.D.D.S.Z.Z.G.F.A.v.N.A.K.hX    hXjXjXhXjXG.J.K.G.H.K.hX  hXhXjXK.H.D.D.H.F.F.F.J.H.K.jXjXhXhXhXhX",
"jXhXjXK.H.K.H.J.K.hX  jXJ.Z.C.D.B.v.c.C.A.c.c.c.% H.jXhX  hXhXjXhXjXH.V.. G.F.F.jXjXH.hX  hXhXJ.G.F.D.F.Z.D.F.K.K.jXhXjXjXjXjXhX",
"jXjXK.J.G.J.A.F.G.hX    hXhXhXK.jXH.H.J.C.B.v.v.jXjXhX  hXjXjXJ.G.S.C.v.A.S.S.F.jXG.H.K.  hXhXhXjXG.G.D.A.F.F.J.G.H.J.H.K.K.K.jX",
"J.jXK.H.G.J.S.G.H.hX    hXhXhXhXhXhXjXjXJ.H.K.jXhXhX  hXK.jXK.H.F.D.D.Z.A.D.K.jXH.A.A.S.jX  hXjXK.K.K.D.A.D.S.G.S.H.H.D.G.F.H.J.",
"G.F.D.D.S.S.. Z.D.hX  hXjXjXjXhXhXhXhXhX          jXjXjXH.H.H.D.D.S.D.F.S.H.D.A.Z.B.v.A.J.  hXK.K.J.J.J.S.A.V.S.. F.. A.D.J.J.H.",
"G.F.S.S.F.A.A.F.H.    hXjXhXjXjXjXhXhXhX        J.J.K.K.F.D.F.D.G.F.F.F.F.A.S.. N.v.v.N.G.hX  K.H.S.F.J.J.F.F.H.F.G.F.F.H.F.F.K.",
"F.F.F.S.S.C.C.F.hX  hXjXjXhXjXjXjXK.K.jXhX    hXF.F.D.A.Z.G.S.A.Z.C.A.Z.A.B.C.C.v.v.v.v.S.H.  hXJ.S.A.D.F.K.K.G.F.H.G.H.H.G.G.G.",
"F.D.F.D.F.G.J.jXhXhXK.J.G.G.F.G.H.J.K.jXJ.hX  hXF.V.v.M.S.B.v.M.N.B.B.V.N.Z.V.N.v.B.Z.C.A.H.    jXK.A.S.A.J.H.jXjXhXJ.J.G.F.G.H.",
"F.S.F.S.S.D.G.jX  jXJ.J.D.D.D.A.F.F.F.F.F.jXhXhXD.M.V.V.C.N.C.V.. . C.v.v.v.v.v.v.v.B.A.G.K.hX  hXK.v.C.A.A.D.D.F.J.G.H.G.G.F.F.",
"H.D.G.D.G.G.H.hX  H.F.G.A.A.V.S.A.S.D.C.D.D.hX  G.B.v.v.v.N.C.C.V.v.v.v.v.v.v.v.v.V.A.H.F.H.jX    jXJ.Z.v.B.C.Z.S.G.G.K.H.H.J.G.",
"hXjXjXH.S.A.H.hXhXJ.H.H.S.C.A.Z.A.F.Z.v.V.. J.hXjX. v.v.v.. v.v.v.v.v.c.v.v.N.D.J.J.J.D.D.G.K.jX    K.G.S.C.V.S.C.D.D.K.G.K.jXhX",
"K.jXJ.D.S.D.J.    jXF.S.S.. V.Z.S.A.B.v.. Z.C.hXhXS.v.v.v.S.v.v.N.v.N.N.A.F.S.C.C.A.S.D.A.C.J.H.hX  hXjXjXF.J.H.F.G.F.K.K.hXhXhX",
"H.F.A.Z.B.D.jX    hXJ.D.D.Z.G.D.Z.B.v.B.C.C.M.J.hXJ.B.v.v.S.v.v.v.v.v.v.v.B.v.c.v.v.v.v.n.V.D.A.S.jX  hXhXH.J.jXhXhXhXhXhXhXjXH.",
"F.A.D.Z.G.K.hXhXhXK.H.S.V.V.A.V.A.v.V.A.A.N.v.Z.  K.N.c.c.v.v.v.v.v.v.v.v.% % c.c.c.v.v.v.v.n.B.D.F.K.hX  jXH.D.D.A.F.G.D.J.H.G.",
"D.G.G.F.jXhX  hXF.F.D.Z.N.. . C.Z.N.A.Z.B.v.v.A.hXhXG.v.c.v.v.v.v.c.c.% % % % c.c.c.c.v.v.v.n.v.n.M.B.J.hX  G.. B.V.A.D.D.J.D.D.",
"S.Z.G.G.jX  hXjXH.G.D.S.v.. S.M.N.N.A.N.v.c.c.c.jXhXhXB.% c.v.v.v.c.c.% % % % c.c.% % v.v.v.v.v.v.Z.V.v.K.  hXC.A.B.V.Z.. F.A.G.",
"J.jXhXhX    jXH.S.Z.S.A.v.v.v.v.V.V.N.v.% % c.c.C.hXhXH.c.c.c.D.v.% c.% % z.% % c.v.c.c.% c.v.v.v.v.v.v.N.G.  hXG.c.c.B.v.A.A.A.",
"          hXjXH.D.A.G.A.M.v.c.v.v.v.v.v.v.v.v.% N.jXK.hXG.A.% % c.% % c.c.% % c.c.v.% c.c.% % % v.N.v.v.v.v.hXhXhXhXH.A.S.A.Z.F.",
"hXhX      J.H.F.F.F.D.V.v.c.% v.v.c.c.c.c.% % c.v.F.S.jXK.K.J.H.H.z.l.z.% % c.% c.v.z.z.z.z.v.V.. C.B.M.v.v.H.jXhXhXhXhXhXJ.K.jX",
"K.jXhX  hXK.F.G.D.D.Z.v.c.% c.c.c.v.v.% c.c.% c.c.D.S.D.F.hXjX  hXS.% z.z.z.% % v.N.C.% c.v.B.v.M.N.v.v.v.v.F.hXhX        hX  hX",
"J.H.hXhXhXjXH.J.K.S.V.v.c.% % v.. v.c.c.% % % z.v.M.F.A.Z.J.jXK.H.J.K.H.% z.% % v.v.v.v.c.% % % c.c.c.c.v.C.G.    hXjXjXK.jXjXhX",
"H.J.jXhX  jXJ.J.D.Z.N.. v.c.% c.v.% % % z.% % c.v.v.G.H.D.J.A.S.S.C.H.K.F.c.% c.c.v.c.% z.% % % % % % c.v.D.hX  hXjXJ.H.J.jXjXjX",
"G.G.H.hX  hXK.H.G.A.Z.N.c.% z.c.c.c.% % % c.% c.H.H.J.F.A.V.S.Z.V.V.Z.H.jXG.% z.% z.l.% c.% % % % c.c.v.A.hXhXK.K.J.J.H.H.G.G.H.",
"F.D.K.J.hXhXK.G.A.V.c.% c.c.c.c.v.c.c.c.% % A.J.H.H.B.C.B.c.c.% c.% v.A.jXK.% z.z.z.z.z.% z.% % % % c.Z.hXhXJ.D.G.S.S.D.A.S.K.G.",
"S.A.H.F.hXhXjXG.H.A.Z.A.S.N.v.c.% % % V.J.jXhXH.S.. v.v.% c.c.c.% z.z.% V.H.G.z.l.l.l.z.z.z.% % c.v.F.hXhXH.D.Z.F.S.J.J.G.J.jXH.",
"F.K.F.D.jXhXhXD.A.S.A.C.v.% z.z.% N.H.K.    jXS.A.N.v.c.c.c.c.l.k.l.z.c.v.. jXS.c.% z.l.z.l.z.c.Z.G.hXJ.J.Z.B.V.v.A.F.G.J.G.H.F.",
"J.G.A.Z.H.jXJ.Z.Z.A.% % % % c.H.H.jXjXJ.hX  Z.C.v.v.v.% % z.z.z.z.z.% % v.N.hXhXhXhXhXhXhXK.jXK.K.K.hXK.A.C.A.Z.F.F.D.H.J.H.jXhX",
"G.A.M.A.D.jXhXJ.H.F.F.G.jXjXhXhXjXhXK.J.hX  G.C.c.v.c.c.z.l.z.% z.z.z.% % . hXK.D.F.K.H.D.D.F.A.A.D.jXhXF.A.F.V.v.Z.S.K.J.K.jXJ.",
"D.F.A.S.S.jX  jXjXK.J.K.hXjXjXS.N.. S.. jX  . c.% % % c.% c.c.l.k.z.z.z.c.jXG.Z.V.v.. v.v.B.. A.Z.Z.H.jXG.v.F.v.V.A.V.D.D.H.H.H.",
"D.S.V.V.Z.hXhXH.J.D.Z.J.G.A.v.N.B.B.v.v.J.  F.Z.% z.c.c.c.% z.l.z.% z.% K.jXZ.A.v.v.% % % % % c.N.C.F.jXH.A.F.C.V.v.. S.D.G.H.J.",
"F.A.Z.C.A.  J.S.F.A.Z.A.M.B.v.c.% % c.% J.K.G.C.% z.% % z.l.z.l.l.z.% F.hX. F.c.c.% % l.z.% % c.v.B.D.K.jXH.A.A.v.. Z.C.A.G.H.K.",
"D.A.A.Z.J.hXS.A.. v.v.c.% % z.z.c.% % z.hXF.F.c.z.z.z.l.l.k.k.j.z.% F.hXJ.B.% z.z.l.z.z.% c.c.v.v.v.S.H.hXH.S.F.A.A.V.S.G.J.H.jX",
"D.S.D.D.hXhXS.N.v.c.% c.% % % % z.z.% % A.A.% z.l.k.k.k.k.k.% c.v.V.H.S.S.c.% k.k.z.% % % % c.c.v.v.C.V.D.hXjXH.H.v.c.v.C.F.H.jX",
"G.G.J.jX  hXF.V.c.c.% % % % z.% c.c.z.z.K.v.% l.k.k.k.z.% % v.v.S.G.G.H.F.Z.% k.k.z.% z.l.z.z.% c.v.v.v.V.jXhXF.S.F.C.. A.F.H.jX",
"jXhX        hXS.v.c.z.% % % % % c.c.l.A.jXv.% l.z.% v.v.. K.jXjXF.G.H.F.G.D.C.% k.k.k.j.z.% % c.c.c.c.c.v.Z.K.jXK.G.G.G.H.J.jXhX",
"      hXhX    jXD.% z.% % c.c.c.v.z.k.v.hX% v.A.F.K.jXjXF.N.v.B.N.B.S.H.jXJ.J.F.c.z.z.z.% z.% % % % v.c.c.V.jXhXhXjXhXhXhX  jXhX",
"    hXK.jXhX    H.v.% z.% % % c.% l.z.jXv.A.hXhXJ.G.v.c.z.% % % z.% c.v.Z.A.K.jXhXF.c.% k.k.l.z.z.% % l.c.K.hXhX  hX            ",
"  hXjXJ.G.S.hX  hXC.v.z.z.l.% % z.z.H.K.S.D.Z.v.v.% % % z.l.l.k.k.k.j.k.l.% % v.G.H.M.v.% l.k.k.k.k.l.c.hXhX  jXjXjXjXhXhX      ",
"  hXjXF.J.D.A.    J.v.l.l.k.l.l.k.l.v.H.F.v.v.% z.l.j.j.j.j.k.k.k.k.j.j.k.l.z.% v.v.v.B.B.v.v.% l.% D.hXhXjXH.G.K.K.hXhXhX      ",
"  hXK.H.F.v.c.hX  hXv.c.z.l.z.l.k.c.H.v.v.c.z.k.l.l.k.j.: j.j.j.k.k.k.l.l.k.z.l.l.z.c.v.. J.D.F.S.hXjXG.C.F.S.S.G.J.K.jXhX      ",
"  hXhXjXF.S.V.H.  hXA.v.% z.% l.z.S.F.% % l.k.l.k.: : k.k.k.: : : : : : : k.l.k.z.% v.v.. jXJ.hXJ.F.v.c.% v.v.V.Z.F.K.hX        ",
"    hXjXG.A.N.% jXjXD.v.c.z.z.l.% H.c.z.l.k.l.k.: : j.k.: : : : : : : : : j.: l.% z.v.A.G.C.% % z.l.l.z.z.% c.S.A.J.jXhX        "
};
