/* XPM */
static char *Brown11668167183[] = {
/* columns rows colors chars-per-pixel */
"64 64 256 2 ",
"   c black",
".  c #0000A8",
"X  c #00A800",
"o  c #00A8A8",
"O  c #A80000",
"+  c #A800A8",
"@  c #A85400",
"#  c gray66",
"$  c gray33",
"%  c #5454FC",
"&  c #54FC54",
"*  c #54FCFC",
"=  c #FC5454",
"-  c #FC54FC",
";  c #FCFC54",
":  c gray99",
">  c #ECECEC",
",  c gainsboro",
"<  c #D0D0D0",
"1  c #C0C0C0",
"2  c #B4B4B4",
"3  c gray66",
"4  c #989898",
"5  c gray55",
"6  c #7C7C7C",
"7  c gray44",
"8  c #646464",
"9  c gray33",
"0  c #484848",
"q  c gray22",
"w  c #2C2C2C",
"e  c #202020",
"r  c #FC0000",
"t  c #EC0000",
"y  c #E00000",
"u  c #D40000",
"i  c #C80000",
"p  c #BC0000",
"a  c #B00000",
"s  c #A40000",
"d  c #980000",
"f  c #880000",
"g  c #7C0000",
"h  c #700000",
"j  c #640000",
"k  c #580000",
"l  c #4C0000",
"z  c #400000",
"x  c #FCD8D8",
"c  c #FCB8B8",
"v  c #FC9C9C",
"b  c #FC7C7C",
"n  c #FC5C5C",
"m  c #FC4040",
"M  c #FC2020",
"N  c #FC0000",
"B  c #FCA85C",
"V  c #FC9840",
"C  c #FC8820",
"Z  c #FC7800",
"A  c #E46C00",
"S  c #CC6000",
"D  c #B45400",
"F  c #9C4C00",
"G  c #FCFCD8",
"H  c #FCFCB8",
"J  c #FCFC9C",
"K  c #FCFC7C",
"L  c #FCF85C",
"P  c #FCF440",
"I  c #FCF420",
"U  c #FCF400",
"Y  c #E4D800",
"T  c #CCC400",
"R  c #B4AC00",
"E  c #9C9C00",
"W  c #848400",
"Q  c #706C00",
"!  c #585400",
"~  c #404000",
"^  c #D0FC5C",
"/  c #C4FC40",
"(  c #B4FC20",
")  c #A0FC00",
"_  c #90E400",
"`  c #80CC00",
"'  c #74B400",
"]  c #609C00",
"[  c #D8FCD8",
"{  c #BCFCB8",
"}  c #9CFC9C",
"|  c #80FC7C",
" . c #60FC5C",
".. c #40FC40",
"X. c #20FC20",
"o. c #00FC00",
"O. c #00FC00",
"+. c #00EC00",
"@. c #00E000",
"#. c #00D400",
"$. c #04C800",
"%. c #04BC00",
"&. c #04B000",
"*. c #04A400",
"=. c #049800",
"-. c #048800",
";. c #047C00",
":. c #047000",
">. c #046400",
",. c #045800",
"<. c #044C00",
"1. c #044000",
"2. c #D8FCFC",
"3. c #B8FCFC",
"4. c #9CFCFC",
"5. c #7CFCF8",
"6. c #5CFCFC",
"7. c #40FCFC",
"8. c #20FCFC",
"9. c #00FCFC",
"0. c #00E4E4",
"q. c #00CCCC",
"w. c #00B4B4",
"e. c #009C9C",
"r. c #008484",
"t. c #007070",
"y. c #005858",
"u. c #004040",
"i. c #5CBCFC",
"p. c #40B0FC",
"a. c #20A8FC",
"s. c #009CFC",
"d. c #008CE4",
"f. c #007CCC",
"g. c #006CB4",
"h. c #005C9C",
"j. c #D8D8FC",
"k. c #B8BCFC",
"l. c #9C9CFC",
"z. c #7C80FC",
"x. c #5C60FC",
"c. c #4040FC",
"v. c #2024FC",
"b. c #0004FC",
"n. c #0000FC",
"m. c #0000EC",
"M. c #0000E0",
"N. c #0000D4",
"B. c #0000C8",
"V. c #0000BC",
"C. c #0000B0",
"Z. c #0000A4",
"A. c #000098",
"S. c #000088",
"D. c #00007C",
"F. c #000070",
"G. c #000064",
"H. c #000058",
"J. c #00004C",
"K. c #000040",
"L. c #282828",
"P. c #FCE034",
"I. c #FCD424",
"U. c #FCCC18",
"Y. c #FCC008",
"T. c #FCB400",
"R. c #B420FC",
"E. c #A800FC",
"W. c #9800E4",
"Q. c #8000CC",
"!. c #7400B4",
"~. c #60009C",
"^. c #500084",
"/. c #440070",
"(. c #340058",
"). c #280040",
"_. c #FCD8FC",
"`. c #FCB8FC",
"'. c #FC9CFC",
"]. c #FC7CFC",
"[. c #FC5CFC",
"{. c #FC40FC",
"}. c #FC20FC",
"|. c #FC00FC",
" X c #E000E4",
".X c #C800CC",
"XX c #B400B4",
"oX c #9C009C",
"OX c #840084",
"+X c #6C0070",
"@X c #580058",
"#X c #400040",
"$X c #FCE8DC",
"%X c #FCE0D0",
"&X c #FCD8C4",
"*X c #FCD4BC",
"=X c #FCCCB0",
"-X c #FCC4A4",
";X c #FCBC9C",
":X c #FCB890",
">X c #FCB080",
",X c #FCA470",
"<X c #FC9C60",
"1X c #F0945C",
"2X c #E88C58",
"3X c #DC8854",
"4X c #D08050",
"5X c #C87C4C",
"6X c #BC7848",
"7X c #B47044",
"8X c #A86840",
"9X c #A0643C",
"0X c #9C6038",
"qX c #905C34",
"wX c #885830",
"eX c #80502C",
"rX c #744C28",
"tX c #6C4824",
"yX c #5C4020",
"uX c #543C1C",
"iX c #483818",
"pX c #403018",
"aX c #382C14",
"sX c #28200C",
"dX c #600064",
"fX c #006464",
"gX c #006060",
"hX c #00001C",
"jX c #00002C",
"kX c #302410",
"lX c #480048",
"zX c #500050",
"xX c #000034",
"cX c gray11",
"vX c #4C4C4C",
"bX c gray36",
"nX c gray25",
"mX c gray19",
"MX c #343434",
"NX c #D8F4F4",
"BX c #B8E8E8",
"VX c #9CDCDC",
"CX c #74C8C8",
"ZX c #48C0C0",
"AX c #20B4B4",
"SX c #20B0B0",
"DX c #00A4A4",
"FX c #009898",
"GX c #008C8C",
"HX c #008484",
"JX c #007C7C",
"KX c #007878",
"LX c #007474",
"PX c #007070",
"IX c #006C6C",
"UX c #980088",
/* pixels */
"q q q q q q q q q q q q q q q q q q q q q q q q q q q q q q q q q q q q q q q q q q q q q q q q q q q q q q q q q q q q q q q q ",
"0 0 0 0 0 0 $ 0 0 0 0 $ 0 0 0 $ q $ 0 0 0 0 $ 0 0 q q 0 0 0 $ $ $ $ $ 0 0 0 0 0 0 $ $ $ $ $ 0 0 0 0 0 0 $ 0 0 0 0 $ 0 0 0 $ q $ ",
"9X9X9X9X9X7X$ 0 eX9X9X9X9X9X9X7X7Xq eXwXwX9X9X9X9X9X9X9X7X7X7X7X7X7X7Xq 0 eX9X9X9X9X9X9X9X9X9X9X9X9X9X7X$ 0 eX9X9X9X9X9X9X9X9X9X",
"eXuXeXyXyX9X$ L.iXuXeXuXeXyXeXeX9X0 iXuXpXeXyXeXyXeXyXyXyXuXeXiXyXeX9X0 L.pXrXeXuXrXuXeXrXuXeXuXeXyXyX9X$ L.iXuXeXuXeXyXeXeXeXyX",
"eXuXyXeXwX9X$ L.kXpXuXeXrXuXeXyX9X0 kXuXyXeXyXeXiXyXeXyXuXeXeXyXiXuX9X0 L.pXyXrXuXyXyXeXuXeXeXuXyXeXwX9X$ L.kXpXuXeXrXuXeXyXeXyX",
"eXuXuXeXyXwX0 L.kXpXrXuXeXuXeXyXwX0 kXuXyXeXyXeXiXyXeXyXuXyXeXyXiXrXwXq L.pXyXrXuXyXuXrXuXeXeXuXuXeXyXwX0 L.kXpXrXuXeXuXeXyXeXyX",
"uXuXkXuXuXrX$ L.kXuXuXpXuXpXyXeXwX0 kXyXyXuXkXyXkXkXyXpXkXyXuXuXpXuXwXq L.kXuXyXkXyXuXuXkXuXuXuXkXuXuXrX$ L.kXuXuXpXuXpXyXeXyXyX",
"e e L.L.L.0 $ L.e e L.L.L.L.L.L.0 0 L.L.L.L.L.e e e L.L.L.L.L.L.L.L.q 0 L.L.L.L.e e e L.e e e e L.L.L.0 $ L.e e L.L.L.L.L.L.L.L.",
"q 0 0 0 0 0 q q q q q 0 0 0 q q q $ $ 0 0 $ q nXq 0 0 $ $ 8 $ $ $ $ 0 $ 0 0 0 0 0 q 0 0 $ q q 0 0 0 0 0 q q q q q 0 0 0 q q q $ ",
"9X9X9X7X$ q wXwXwXwXwXwXwXwXwXwX9X9X9X9X9X9X7Xq 0 kXwXwXwXwXwXwXwXwXwXwXwXwXwXwXwXwXwX9X9X9X9X9X9X7X$ q kXwXwXwXwXwXwXwXwXwXwX9X",
"yXeXwX9X0 L.kXeXeXyXyXeXyXyXyXyXeXyXeXyXeXyX9X$ 0 kXuXeXeXyXeXyXeXyXeXiXeXyXyXwXyXuXeXeXyXeXyXeXwX9X0 L.kXeXeXyXyXeXyXyXyXyXeXyX",
"yXeXuX9X0 L.kXiXeXiXeXyXyXyXyXyXyXeXrXeXeXyX9X0 q kXuXeXeXuXuXeXiXpXwXiXeXyXyXwXyXeXuXeXyXwXyXeXuX9X0 L.kXiXeXiXeXyXyXyXyXyXyXeX",
"yXeXwX9X$ L.kXeXeXyXeXiXyXyXuXiXeXuXyXeXeXeX9X0 q kXuXeXeXyXeXyXiXyXwXiXeXyXyXyXeXuXyXyXiXyXyXeXwX9X$ L.kXeXeXyXeXiXyXyXuXiXeXuX",
"pXyXeXwX$ L.kXuXrXpXrXuXuXyXkXiXwXuXrXuXuXyXeX$ nXkXuXyXrXuXyXuXuXpXyXuXyXiXuXrXuXyXuXyXuXrXpXyXeXwX$ L.kXuXrXpXrXuXuXyXkXiXwXuX",
"L.L.q 0 q q L.e L.L.e e L.L.L.L.L.L.L.L.L.L.L.$ 0 L.L.L.L.e e e L.L.e e e e L.L.mXq mXL.L.L.L.L.q 0 q q L.e L.L.e e L.L.L.L.L.L.",
"q nX0 0 $ 0 q q q 0 q $ $ 0 q 0 $ $ 0 0 nXq nXq $ $ 0 0 nXq nX$ 0 nXnXq q nX$ q $ 0 0 q nXq q nX0 0 $ 0 q q q 0 q $ $ 0 q 0 $ $ ",
"wXwXwXwXwXwXwXwXwX9X9X9X9X9X9X7X7X$ kXeXwXwXwXwXwXwXwXwXwXwXwXwXwXwX9X9X9X9X9X9X7X$ 0 kXuXwXwXwXwXwXwXwXwXwXwX9X9X9X9X9X9X7X7X$ ",
"yXiXeXuXeXyXeXrXyXeXyXuXeXrXeXwX7Xq kXuXeXyXrXiXeXeXyX7XeXiXwXiXrXyXrXyXiXeXeXrX9X$ 0 kXwXuXyXiXeXuXeXyXeXrXyXeXyXuXeXrXeXwX7Xq ",
"iXyXiXeXyXyXyXyXuXyXyXuXeXkXeX9XwX0 kXuXeXyXyXiXeXyXyXwXyXyXwXiXyXeXuXyXiXyXuXeX9X$ $ kXpXuXiXyXiXeXyXyXyXyXuXyXyXuXeXkXeXwXwX0 ",
"yXiXiXyXeXiXyXiXeXpXiXeXyXkXeX9XwX$ kXuXuXkXiXeXyXeXyXeXyXkXwXpXrXeXuXyXyXrXeXuX9X$ 0 kXwXyXyXiXrXyXeXiXyXiXeXuXiXeXyXkXeXuXwX$ ",
"yXrXiXyXeXyXrXiXyXrXiXeXyXrXeXuXwX$ kXuXuXkXiXeXyXeXpXeXyXyXuXwXyXeXyXeXwXyXeXyX9X$ 0 kXuXyXyXuXrXyXeXiXyXwXeXyXwXyXyXyXeXuXwX$ ",
"kXkXkXkXkXiXiXiXiXiXiXiXiXiXiXrXeX0 pXpXpXpXpXpXpXpXpXpXpXpXiXiXiXiXiXiXiXiXiXiXiX$ q pXpXkXkXkXkXkXkXiXiXiXiXiXiXiXiXiXiXrXeX0 ",
"L.q q L.L.L.L.L.L.L.L.L.L.L.L.q 0 0 L.L.L.L.L.L.L.e e e q q L.e e e e L.L.L.L.L.L.0 0 L.L.L.L.q q L.L.L.L.L.L.L.L.L.L.L.L.q 0 0 ",
"wXwX9X9X9X9X9X$ q 0 wXwXwXwXwXwXwXwXwXwXwXwXwXwXwX9X9X9X9X9X9X7X9X$ 0 wXwXwXwXwXwXwXwXwXwXwXwXwX9X9X9X9X9X$ q 0 wXwXwXwXwXwXwXwX",
"yXeXeXeXuXiX9Xq 0 q eX9XwX9XrXeXuXeXuXeXeXyXeXeXyXyXeXiXeXuXyXeX9X0 q eXyXeXeXeXiXeXiXeXuXeXyXeXeXeXuXiX9Xq 0 q eX9XwX9XrXeXwXeX",
"uXrXyXeXyXeX9X$ 0 L.uXyXyXeXrXyXyXeXyXrXrXuXrXyXyXyXeXiXeXuXpXeX9X$ q eXiXeXuXeXiXeXyXuXyXyXuXrXyXeXyXeX9X$ 0 L.uXyXyXeXrXyXyXeX",
"yXrXyXeXyXiX9X$ 0 q uXyXrXeXrXuXyXeXuXyXrXyXyXyXeXuXeXeXeXuXeXyX9X$ q yXeXyXrXyXiXeXiXyXuXyXyXrXyXeXyXiX9X$ 0 q uXyXrXeXrXyXyXeX",
"yXyXeXrXpXeX9X0 0 q uXeXyXeXyXuXyXeXeXyXeXuXrXeXyXuXyXyXuXeXyXeX9X0 q eXyXeXrXeXiXiXkXuXeXyXyXyXeXrXpXeX9X0 0 q uXeXyXeXyXyXyXeX",
"iXiXiXiXiXiXiX0 0 L.pXkXkXkXkXkXpXpXpXpXpXiXiXiXiXiXiXiXiXiXiXiXeX0 L.pXpXpXpXpXpXpXpXpXpXpXiXiXiXiXiXiXiX0 0 L.pXkXkXkXkXkXpXpX",
"q q L.e e e L.$ 0 L.L.L.L.L.L.L.L.L.L.L.L.L.L.e e L.q 0 q L.L.L.0 0 q L.L.L.L.L.L.e e e e L.q q L.e e e L.$ 0 L.L.L.L.L.L.L.L.L.",
"wXwXwXwXwXwXwXwXwXwXwX9X9X9X9X9X7Xq eXwXwXwXwXwXwXwXwXwXwXwXwX9X9X9X9X9X9X7Xq $ q wXwXwXwXwXwXwXwXwXwXwXwXwXwXwXwX9X9X9X9X9X7Xq ",
"iXeXeXyXeXeXyXeXyXeXyXeXiXeXyXeX9X$ kXeXuXrXyXyXyXuXyXrXyXeXeXuXeXeXiXiXeX9X$ 0 q eXuXeXeXiXiXeXeXyXeXeXyXeXyXeXyXeXiXeXyXeX9X$ ",
"kXeXpXyXyXiXeXyXyXeXeXiXyXiXeXyX9X0 kXeXyXuXeXeXuXuXuXeXeXrXyXeXpXeXyXiXeX9X0 q L.uXyXiXyXpXkXeXpXyXyXiXeXyXyXeXeXiXyXiXeXyX9X0 ",
"rXpXyXpXeXeXyXeXyXeXyXyXiXyXeXeX9Xq kXeXeXuXyXyXrXyXeXiXpXyXrXuXeXeXiXeXiX9X0 q L.yXuXeXeXyXrXpXyXpXeXeXyXeXyXeXyXyXiXyXeXeX9Xq ",
"kXeXpXyXyXrXeXyXyXeXrXyXyXiXeXeX9Xq kXeXeXuXrXeXuXuXeXiXuXrXyXeXyXeXiXiXeX9X$ q e eXuXyXrXuXkXeXpXyXyXrXeXyXyXeXrXyXyXiXeXeX9Xq ",
"kXkXkXkXkXkXkXkXkXkXiXiXiXiXiXiXeX$ pXpXkXkXkXkXkXkXkXkXpXpXpXiXiXiXiXiXiXiX$ 0 L.kXkXkXkXkXkXkXkXkXkXkXkXkXkXkXiXiXiXiXiXiXeX$ ",
"e L.L.e e e L.q q L.L.L.L.L.L.L.0 q L.L.L.L.e e L.L.L.e mXq L.e e L.L.L.L.L.q 0 L.e e L.e e e L.L.e e e L.q q L.L.L.L.L.L.L.0 q ",
"9X7X0 $ 0 wXwXwXwXwXwXwXwXwX9X9X9X9XwXwXwXwXwX9X9X9X9X7Xq 0 wXwXwXwXwXwXwXwXwXwXwX9X9X9X9X9X9X7X0 $ 0 wXwXwXwXwXwXwXwXwX9X9X9X9X",
"eX9X0 0 L.eXyXiXeXyXyXeXrXiXeXpXeXyXeXiXuXeXuXpXeXiXeX9X0 q iXuXeXeXiXiXeXrXiXeXiXyXeXeXiXeXeX9X0 0 L.eXyXiXeXyXyXeXrXiXeXpXeXyX",
"yX9XnX0 L.yXrXyXeXpXeXyXrXiXeXyXyXeXuXiXyXuXyXeXuXeXiX9X0 L.uXiXyXpXyXeXiXeXeXeXkXpXeXyXiXeXyX9XnX0 L.yXrXyXeXpXeXyXrXyXeXpXyXeX",
"kX9XnX0 L.iXeXuXyXpXyXeXeXyXiXpXrXyXuXiXuXeXuXyXeXiXeX9X0 L.iXrXuXyXeXeXiXyXiXeXiXyXeXeXyXeXkX9XnX0 L.iXeXuXyXpXyXeXyXyXiXyXrXyX",
"kXeX$ 0 L.yXyXiXeXpXyXyXyXiXiXpXrXyXeXiXuXeXuXpXeXiXiX9Xq L.yXiXyXyXiXyXiXeXuXeXiXiXyXeXiXeXkXeX$ 0 L.yXyXiXeXpXyXyXyXiXiXpXrXyX",
"mXq $ 0 L.L.L.L.L.L.L.L.L.L.L.L.L.L.L.e e e e L.L.L.L.0 q e e L.e e e L.L.L.L.L.L.L.L.L.L.L.mXq $ 0 L.L.L.L.L.L.L.L.L.L.L.L.L.L.",
"$ $ $ $ 0 0 0 $ $ 0 0 0 q q q q $ q 0 0 q nX0 0 0 q 0 0 nXq 0 nXq nXq nX0 0 q 0 0 0 0 $ 0 0 $ $ $ $ 0 0 0 $ $ 0 0 0 q q q q $ q ",
"9X9X9X9X7X$ q wXwXwXwXwXwXwXwXwXwX9X9X9X9X9X9X7Xq 0 9XwXwXwXwXwXwXwXwXwXwXwXwXwXwXwXwXwX9X9X9X9X9X9X7X$ q eXwXwXwXwXwXwXwXwXwXwX",
"eXyXeXwX9X0 L.uXeXeXyXyXeXyXyXyXyXeXyXeXyXeXyX9X$ 0 eXuXeXeXyXeXyXeXyXeXiXeXyXyXwXyXuXeXeXyXeXyXeXwX9X0 L.uXeXeXyXyXeXyXyXyXyXeX",
"iXyXeXuX9X0 L.eXiXeXiXeXyXyXyXyXyXyXeXrXeXeXyX9X0 q eXuXeXeXuXuXeXiXpXwXiXeXyXyXwXyXeXuXeXyXwXyXeXuX9X0 L.eXiXeXiXeXyXyXyXyXyXyX",
"yXyXeXwX9X$ L.eXeXeXyXeXiXyXyXuXiXeXuXyXeXeXeX9X0 q eXuXeXeXyXeXyXiXyXwXiXeXyXyXyXeXuXyXyXiXyXyXeXwX9X$ L.eXeXeXyXeXiXyXyXuXiXeX",
"rXpXyXeXwX$ L.tXuXrXpXrXuXuXyXkXiXwXuXrXuXuXyXeX$ nXyXuXyXrXuXyXuXuXpXyXuXyXiXuXrXuXyXuXyXuXrXpXyXeXwX$ L.tXuXrXpXrXuXuXyXkXiXwX",
"L.L.L.q 0 q q L.e L.L.e e L.L.L.L.L.L.L.L.L.L.L.$ 0 L.L.L.L.e e e L.L.e e e e L.L.mXq mXL.L.L.L.L.q 0 q q L.e L.L.e e L.L.L.L.L.",
"q q nX0 0 $ 0 q q q 0 q $ $ 0 q 0 $ $ 0 0 nXq nXq $ $ 0 0 nXq nX$ 0 nXnXq q nX$ q $ 0 0 q nXq q nX0 0 $ 0 q q q 0 q $ $ 0 q 0 $ ",
"wXwXwXwXwXwXwXwXwXwXwX9X9X9X9X9X7Xq eXwXwXwXwXwXwXwXwXwXwXwXwX9X9X9X9X9X9X7Xq $ q wXwXwXwXwXwXwXwXwXwXwXwXwXwXwXwX9X9X9X9X9X7Xq ",
"iXeXeXyXeXeXyXeXyXeXyXeXiXeXyXeX9X$ tXeXuXrXyXyXyXuXyXrXyXeXeXuXeXeXiXiXeX9X$ 0 q eXuXeXeXiXiXeXeXyXeXeXyXeXyXeXyXeXiXeXyXeX9X$ ",
"kXeXpXyXyXiXeXyXyXeXeXiXyXiXeXyX9X0 tXeXyXuXeXeXuXuXuXeXeXrXyXeXpXeXyXiXeX9X0 q L.uXyXiXyXpXkXeXpXyXyXiXeXyXyXeXeXiXyXiXeXyX9X0 ",
"rXpXyXpXeXeXyXeXyXeXyXyXiXyXeXeX9Xq tXeXeXuXyXyXrXyXeXiXpXyXrXuXeXeXiXeXiX9X0 q L.yXuXeXeXyXrXpXyXpXeXeXyXeXyXeXyXyXiXyXeXeX9Xq ",
"kXeXpXyXyXrXeXyXyXeXrXyXyXiXeXeX9Xq tXeXeXuXrXeXuXuXeXiXuXrXyXeXyXeXiXiXeX9X$ q e eXuXyXrXuXkXeXpXyXyXrXeXyXyXeXrXyXyXiXeXeX9Xq ",
"kXkXkXkXkXkXkXkXkXkXiXiXiXiXiXiXeX$ pXpXkXkXkXkXkXkXkXkXpXpXpXiXiXiXiXiXiXiX$ 0 L.kXkXkXkXkXkXkXkXkXkXkXkXkXkXkXiXiXiXiXiXiXeX$ ",
"e L.L.e e e L.q q L.L.L.L.L.L.L.0 q L.L.L.L.e e L.L.L.e mXq L.e e L.L.L.L.L.q 0 L.e e L.e e e L.L.e e e L.q q L.L.L.L.L.L.L.0 q ",
"9X7X0 $ 0 wXwXwXwXwXwXwXwXwX9X9X9X9XwXwXwXwXwX9X9X9X9X7Xq 0 wXwXwXwXwXwXwXwXwXwXwX9X9X9X9X9X9X7X0 $ 0 wXwXwXwXwXwXwXwXwX9X9X9X9X",
"eX9X0 0 L.eXyXiXeXyXyXeXrXiXeXpXeXyXeXiXuXeXuXpXeXiXeX9X0 q iXuXeXeXiXiXeXrXiXeXiXyXeXeXiXeXeX9X0 0 L.eXyXiXeXyXyXeXrXiXeXpXeXyX",
"yX9XnX0 L.yXrXyXeXpXeXyXrXiXeXyXyXeXuXiXyXuXyXeXuXeXiX9X0 L.uXiXyXpXyXeXiXeXeXeXkXpXeXyXiXeXyX9XnX0 L.yXrXyXeXpXeXyXrXyXeXpXyXeX",
"kX9XnX0 L.iXeXuXyXpXyXeXeXyXiXpXrXyXuXiXuXeXuXyXeXiXeX9X0 L.iXrXuXyXeXeXiXyXiXeXiXyXeXeXyXeXkX9XnX0 L.iXeXuXyXpXyXeXyXyXiXyXrXyX",
"eX9X0 0 L.rXiXiXeXyXiXrXrXrXiXyXeXiXeXiXuXeXuXpXuXeXiX9Xq L.yXpXeXeXiXeXiXyXkXyXiXkXyXyXyXeXeX9X0 0 L.rXiXiXeXyXiXrXrXrXyXyXeXiX",
"iXiX0 0 L.iXkXkXiXiXkXiXiXiXkXiXiXkXiXkXiXiXkXkXiXiXkXiXq L.iXkXiXiXkXiXkXiXkXiXkXkXkXiXiXiXiXiX0 0 L.iXkXkXiXkXkXkXiXiXkXiXiXkX"
};
