/* XPM */
static char *Door41668167183[] = {
/* columns rows colors chars-per-pixel */
"64 64 256 2 ",
"   c black",
".  c #0000A8",
"X  c #00A800",
"o  c #00A8A8",
"O  c #A80000",
"+  c #A800A8",
"@  c #A85400",
"#  c gray66",
"$  c gray33",
"%  c #5454FC",
"&  c #54FC54",
"*  c #54FCFC",
"=  c #FC5454",
"-  c #FC54FC",
";  c #FCFC54",
":  c gray99",
">  c #ECECEC",
",  c gainsboro",
"<  c #D0D0D0",
"1  c #C0C0C0",
"2  c #B4B4B4",
"3  c gray66",
"4  c #989898",
"5  c gray55",
"6  c #7C7C7C",
"7  c gray44",
"8  c #646464",
"9  c gray33",
"0  c #484848",
"q  c gray22",
"w  c #2C2C2C",
"e  c #202020",
"r  c #FC0000",
"t  c #EC0000",
"y  c #E00000",
"u  c #D40000",
"i  c #C80000",
"p  c #BC0000",
"a  c #B00000",
"s  c #A40000",
"d  c #980000",
"f  c #880000",
"g  c #7C0000",
"h  c #700000",
"j  c #640000",
"k  c #580000",
"l  c #4C0000",
"z  c #400000",
"x  c #FCD8D8",
"c  c #FCB8B8",
"v  c #FC9C9C",
"b  c #FC7C7C",
"n  c #FC5C5C",
"m  c #FC4040",
"M  c #FC2020",
"N  c #FC0000",
"B  c #FCA85C",
"V  c #FC9840",
"C  c #FC8820",
"Z  c #FC7800",
"A  c #E46C00",
"S  c #CC6000",
"D  c #B45400",
"F  c #9C4C00",
"G  c #FCFCD8",
"H  c #FCFCB8",
"J  c #FCFC9C",
"K  c #FCFC7C",
"L  c #FCF85C",
"P  c #FCF440",
"I  c #FCF420",
"U  c #FCF400",
"Y  c #E4D800",
"T  c #CCC400",
"R  c #B4AC00",
"E  c #9C9C00",
"W  c #848400",
"Q  c #706C00",
"!  c #585400",
"~  c #404000",
"^  c #D0FC5C",
"/  c #C4FC40",
"(  c #B4FC20",
")  c #A0FC00",
"_  c #90E400",
"`  c #80CC00",
"'  c #74B400",
"]  c #609C00",
"[  c #D8FCD8",
"{  c #BCFCB8",
"}  c #9CFC9C",
"|  c #80FC7C",
" . c #60FC5C",
".. c #40FC40",
"X. c #20FC20",
"o. c #00FC00",
"O. c #00FC00",
"+. c #00EC00",
"@. c #00E000",
"#. c #00D400",
"$. c #04C800",
"%. c #04BC00",
"&. c #04B000",
"*. c #04A400",
"=. c #049800",
"-. c #048800",
";. c #047C00",
":. c #047000",
">. c #046400",
",. c #045800",
"<. c #044C00",
"1. c #044000",
"2. c #D8FCFC",
"3. c #B8FCFC",
"4. c #9CFCFC",
"5. c #7CFCF8",
"6. c #5CFCFC",
"7. c #40FCFC",
"8. c #20FCFC",
"9. c #00FCFC",
"0. c #00E4E4",
"q. c #00CCCC",
"w. c #00B4B4",
"e. c #009C9C",
"r. c #008484",
"t. c #007070",
"y. c #005858",
"u. c #004040",
"i. c #5CBCFC",
"p. c #40B0FC",
"a. c #20A8FC",
"s. c #009CFC",
"d. c #008CE4",
"f. c #007CCC",
"g. c #006CB4",
"h. c #005C9C",
"j. c #D8D8FC",
"k. c #B8BCFC",
"l. c #9C9CFC",
"z. c #7C80FC",
"x. c #5C60FC",
"c. c #4040FC",
"v. c #2024FC",
"b. c #0004FC",
"n. c #0000FC",
"m. c #0000EC",
"M. c #0000E0",
"N. c #0000D4",
"B. c #0000C8",
"V. c #0000BC",
"C. c #0000B0",
"Z. c #0000A4",
"A. c #000098",
"S. c #000088",
"D. c #00007C",
"F. c #000070",
"G. c #000064",
"H. c #000058",
"J. c #00004C",
"K. c #000040",
"L. c #282828",
"P. c #FCE034",
"I. c #FCD424",
"U. c #FCCC18",
"Y. c #FCC008",
"T. c #FCB400",
"R. c #B420FC",
"E. c #A800FC",
"W. c #9800E4",
"Q. c #8000CC",
"!. c #7400B4",
"~. c #60009C",
"^. c #500084",
"/. c #440070",
"(. c #340058",
"). c #280040",
"_. c #FCD8FC",
"`. c #FCB8FC",
"'. c #FC9CFC",
"]. c #FC7CFC",
"[. c #FC5CFC",
"{. c #FC40FC",
"}. c #FC20FC",
"|. c #FC00FC",
" X c #E000E4",
".X c #C800CC",
"XX c #B400B4",
"oX c #9C009C",
"OX c #840084",
"+X c #6C0070",
"@X c #580058",
"#X c #400040",
"$X c #FCE8DC",
"%X c #FCE0D0",
"&X c #FCD8C4",
"*X c #FCD4BC",
"=X c #FCCCB0",
"-X c #FCC4A4",
";X c #FCBC9C",
":X c #FCB890",
">X c #FCB080",
",X c #FCA470",
"<X c #FC9C60",
"1X c #F0945C",
"2X c #E88C58",
"3X c #DC8854",
"4X c #D08050",
"5X c #C87C4C",
"6X c #BC7848",
"7X c #B47044",
"8X c #A86840",
"9X c #A0643C",
"0X c #9C6038",
"qX c #905C34",
"wX c #885830",
"eX c #80502C",
"rX c #744C28",
"tX c #6C4824",
"yX c #5C4020",
"uX c #543C1C",
"iX c #483818",
"pX c #403018",
"aX c #382C14",
"sX c #28200C",
"dX c #600064",
"fX c #006464",
"gX c #006060",
"hX c #00001C",
"jX c #00002C",
"kX c #302410",
"lX c #480048",
"zX c #500050",
"xX c #000034",
"cX c gray11",
"vX c #4C4C4C",
"bX c gray36",
"nX c gray25",
"mX c gray19",
"MX c #343434",
"NX c #D8F4F4",
"BX c #B8E8E8",
"VX c #9CDCDC",
"CX c #74C8C8",
"ZX c #48C0C0",
"AX c #20B4B4",
"SX c #20B0B0",
"DX c #00A4A4",
"FX c #009898",
"GX c #008C8C",
"HX c #008484",
"JX c #007C7C",
"KX c #007878",
"LX c #007474",
"PX c #007070",
"IX c #006C6C",
"UX c #980088",
/* pixels */
"cXcXcXcXcXcXcXcXcXcXcXcXcXcXcXcXcXcXcXcXcXcXcXcXcXcXcXcXcXcXcXcXcXcXcXcXcXcXcXcXcXcXcXcXcXcXcXcXcXcXcXcXcXcXcXcXcXcXcXcXcXcXcXcX",
"cXq q q q q q q q q q q q q q q q q q q q q q q q q q q q q q q q q q q q q q q q q q q q mXw MXq q q q q q q q q q q q q q q cX",
"cXvXvXvXvXvXvXbX0 vXvXvXvXvXvX8 vXvXvXvXvXvXvX8 vXvXvXvXvXvXvX8 vXvXvXvXvXvXvX8 vXvXvXvXnXnXnXvX0 vXvXvXvXvXnX$ vXvXnXnXvXvX0 cX",
"cXbXbXvXvXvXiXq 0 $ bXbXbXbXvX$ bXbXbXbXbXbX0 $ $ $ bXbXbXbXvXbXbXbXbXbXbXbXvX$ bXbXbXbX$ 0 pXyXbXbXbXbXbXbX0 0 vXbXbXbXbXbXvXcX",
"cX7 7 rXrXyXpXyX8 7 7 7 7 8 vXbX8 8 8 8 8 bX0 $ 8 8 8 8 8 bX$ bX7 7 7 7 7 8 vXbX7 7 7 7 7 8 iXyX7 7 7 7 7 8 nXvX7 7 7 8 7 bXvXcX",
"e 6 8 eXwX$ nXL.L.L.L.L.w w w w L.L.e L.L.L.L.e kXsXsXkXkXkXkXe L.L.L.L.L.L.L.L.kXsXe e e e sXsXe e e e e L.L.sXL.q 6 7 6 wXvXcX",
"e 6 6 eXwX8 8 vXyXuXnXnXq iXnXiXiXpXpXpXaXpXpXpXpXaXpXpXiXiXiXiXq nXnXq iXnXyXuXuXiXyXyXuXyXuXyXtX$ 8 wXwXeXqX7 7 q 6 6 6 8 vXcX",
"e 6 bX9XwXrX8 yXyXuXyXiXpXiXiXpXiXpXpXpXaXpXpXpXpXpXpXpXiXiXiXq q nX0 yXuXtXvXyXtXtXyXtXtXtXtXrXqX7 6 qX9XwX5 5 6 q 6 7 5 8 vXcX",
"e 7 bXyXwXeX8 yXyXuXuXpXiXuXq iXnXiXpXpXpXpXpXpXpXpXpXiXiXq nXnXvXvX$ 0 yXyXvXtXtXtXwXeXeXwXrX7 7 7 5 5 9XwX5 5 4 q 7 bXvX8 vXcX",
"e 6 7 rX8 eXbXtXyXiXiXpXiXnXnXnX0 q pXpXpXpXpXiXiXpXiXiXq nXnX0 vX$ $ $ yXrXbXtXrXtX8 wXeXqXqX6 6 5 4 8X8XeX5 5 5 q 6 8 bX7 vXcX",
"e 6 6 8 8 eX8 0 0 iXnXpXnX0 0 nXvXnXq q q pXiXq iXpXiXq nX0 vXvXbXbX$ $ tX$ 8 rXrXeX8 wXqX7 qX6 6 5 5 9X6 qX5 5 5 q 6 7 8 7 0 cX",
"e 6 7 wX7 eX8 0 nXnX0 iX0 vXnXq 0 0 q iXiXiXq nXq iXq nXnX0 bXbXbX8 bXbXrXbX8 wXeXwX6 wX7 qX7 5 5 5 5 9X6 qX5 5 5 q 6 7 8 6 nXcX",
"e 6 6 wX7 wX8 nXnXnX0 iX0 vX0 q 0 0 q q nXnXnX0 nXiXnXnXvX0 bXbXbX8 7 bXrX7 8 8 eXwX8 6 7 qX7 5 8X5 4 6 6 qX5 5 6 q 6 7 8 6 $ cX",
"e 6 6 6 6 8 8 nXnXnXnXiX0 0 nXq 0 nXq iXnXnXnX0 nXiXnXvXvXbXbXbX8 8 7 bXwX7 7 8 eX7 6 6 7 5 5 5 9X5 5 5 6 qX5 6 7 q 6 6 6 6 $ cX",
"e 6 6 6 6 8 8 nXnXnXnXiXnX0 nXq 0 0 nXiX0 0 nX0 nXiXnXvX$ bX8 8 8 7 7 bXwX7 7 8 qX7 6 6 6 5 5 5 9X5 5 5 6 qX5 6 7 q 6 6 6 6 $ cX",
"e 6 8 qX7 8 8 nX0 nXnXiXnX0 nXq 0 0 0 iX0 0 nX0 nXyX0 $ $ bX8 8 7 7 7 8 wX7 7 8 qX7 6 6 6 5 6 4 6 4 5 5 6 wX6 6 7 MX6 8 4 6 $ cX",
"e 7 $ yX6 8 bXnX0 nXnXiXnX0 nXq vXvX0 nX0 0 nX0 nXyX$ $ bX8 7 8 7 6 6 7 7 5 7 7 qX7 5 5 6 5 6 4 5 4 5 5 6 wX6 6 7 MX7 vXyX6 $ cX",
"e 6 8 bX6 8 bXvX0 nXnXiXnX0 0 0 vXvX0 nX0 0 nX0 0 0 $ bXbX8 7 7 7 6 6 6 6 5 5 7 qX7 5 5 6 5 6 4 5 4 5 6 7 wX5 6 7 MX6 bXrX6 $ cX",
"e 6 7 8 6 8 bX0 nXnXnXiXnX0 0 vXvXvX0 nX0 0 vXvXvXyX$ bXbX7 7 7 6 6 6 5 5 5 5 7 8X6 5 5 6 5 6 4 5 4 5 6 7 wX5 6 8 MX6 8 wX6 $ cX",
"e 6 6 6 6 8 bXvXnXnXnXiXnXvXvXvXvXvXvXnX0 $ vX$ vXvXbXbX7 7 7 6 6 6 6 6 5 5 5 7 6 6 5 5 5 4 6 4 5 4 5 5 6 eX6 6 8 MX6 8 wX6 $ cX",
"e 6 6 6 6 8 bX0 nXnXnXiXnXvXvXvXvXvXvXnX0 vX$ $ vXvXbX8 7 7 7 6 6 6 6 5 5 5 5 6 6 6 5 4 4 4 5 4 6 5 5 5 6 eX6 6 8 MX6 7 eX6 $ cX",
"e 6 6 6 6 6 bX0 nXnXnXiX0 vXvXvXvXvXvXnXbXbXbX8 $ bXbX7 6 6 6 6 6 5 5 5 5 4 4 6 6 6 5 4 4 4 4 4 7 5 5 6 7 eX6 6 8 MX6 7 8 6 $ cX",
"e 6 6 6 6 6 bX0 nXnX0 nX0 vXvXvXvXvX$ 0 bXbXbX8 bXbX7 7 6 6 6 6 6 5 5 5 5 4 4 6 6 6 5 4 4 4 5 5 6 5 6 6 7 wX7 7 bXMX6 7 8 6 $ cX",
"e 6 bX6 6 6 8 0 nXnXvXnX0 vXvXvXvX$ $ $ bXbX8 8 8 8 7 6 6 6 6 5 5 5 5 4 4 4 4 6 6 6 5 4 4 4 5 5 6 5 6 6 7 bX7 7 bXw 6 $ 8X6 $ cX",
"e 7 vXtX7 6 8 0 0 nXvXnX0 vXvXvXvX$ bX$ bX8 8 7 7 7 6 6 6 6 5 5 5 5 4 4 4 4 4 5 6 6 5 4 5 5 5 5 7 6 6 6 7 bX7 8 bXw 7 nXyX7 $ cX",
"e 6 bXrX6 6 8 0 0 nXvXvXvXvXvXvX$ bXbX$ 8 8 7 7 7 7 6 6 6 6 5 5 5 5 4 4 4 4 4 5 6 5 5 5 5 5 5 5 6 6 6 7 8 bX7 8 $ w 6 bXrX7 $ cX",
"e 6 6 6 6 6 8 vX0 0 vXvXvXvX$ bXbXbX8 8 7 7 7 7 7 7 6 5 6 5 5 5 4 4 4 4 4 4 4 5 6 5 4 5 5 5 6 6 6 6 6 7 8 bX8 8 $ w 6 bXrX8 vXcX",
"e 6 6 6 6 6 8 vXvXvXvXvXvX$ vXe vXvXvXvXvXvXvXvXbX7 6 5 5 5 5 5 4 4 4 4 4 4 4 5 6 6 5 5 5 6 6 6 6 7 7 7 bX$ 8 bXvXw 7 bXtXbXvXcX",
"e 6 6 6 6 6 8 vXvXvXvXvXvXbXvXcXL.aXMXMXMXMXmXMX0 6 5 5 5 5 4 4 4 4 4 4 4 4 4 5 6 6 5 5 5 6 6 6 6 7 7 8 8 $ bXbXvXw 7 bXvXbXvXcX",
"e 6 6 6 6 6 8 vXvX! E E W bXvXcXmXkXMXMXMXMXkXmX0 7 5 5 5 5 4 4 4 4 4 4 4 4 4 5 7 6 5 6 6 6 6 6 7 7 8 8 bXvXbXvXvXw 8 bX$ bXvXcX",
"e 6 6 6 6 6 8 vXw ~ E E q bXvXcXmXaXw MXMXMXaXmX0 6 5 5 5 4 4 4 4 4 4 4 4 4 5 6 7 6 5 6 6 6 7 7 7 7 8 8 $ nX$ 0 0 L.$ $ bXbXvXcX",
"e 6 8 6 6 6 8 0 e cXE W bX8 $ cXmXaXmXMXMXMXkXmX0 6 5 4 4 4 4 4 4 4 4 4 4 4 5 6 7 6 6 6 6 6 7 7 8 8 8 bXbXvX0 nXnXL.vXq bXbXvXcX",
"e 7 $ tX6 6 8 0 vXw W W $ 8 $ cXMXmXMXMXMXMXaXmX$ 6 5 4 4 4 4 4 4 4 4 4 5 5 5 6 wX8 6 6 7 7 7 8 8 8 bXbX$ 0 nXnXq e vXnXiX$ $ cX",
"e 6 8 yX6 8 bXvX$ MXW Q 8 7 bXcXMXMX! W W E w mX$ 5 4 4 4 4 4 4 4 4 4 4 5 5 5 6 wX8 6 7 7 7 8 7 8 8 bX$ 0 0 nXnXq e vXvXyXbX$ cX",
"e 6 6 wX7 $ $ vXbXMXF Q 7 7 bXcXMXe !     W w mX$ 4 4 4 4 4 4 4 4 4 5 5 5 5 6 7 wX8 6 7 7 7 8 8 bX$ $ 0 0 nXnXnXq e vX0 $ 7 $ cX",
"e 6 6 6 8 $ $ vXbXMXF Q 7 7 bXcXMXe !     W w nX8 4 4 4 4 4 4 4 4 5 5 5 5 5 6 7 wXbX7 7 7 8 8 bXbX$ 0 0 nXnXnXnXq e vXyXrX6 $ cX",
"e 6 6 6 8 $ $ vX8 q F ! 7 7 bXcXMXcX~ cXcXW mX$ 6 4 4 4 4 4 4 4 4 5 5 5 6 6 6 7 wXbX7 7 8 8 bXbXvX0 0 nXnXnXnXq w e $ 8 6 7 $ cX",
"e 6 6 6 8 $ $ vX8 q ~ ~ 7 6 bXcXMXcX~ ~ ! ! q bX6 4 4 4 4 4 4 5 5 5 5 6 6 6 6 8 $ bX8 8 bXbXbXvXvX0 0 nXnXnXnXq w e bX8 7 7 $ cX",
"e 6 6 6 8 $ $ $ 7 q ~ ~ 6 6 bXcXMXcXcXcXe q nX8 6 4 4 4 4 4 4 5 5 5 5 6 6 6 6 7 8 bX7 8 8 bX$ vX0 0 nXnXnXnXq q w e 8 bX8 8 0 cX",
"e 6 8 6 8 $ $ $ 8 sX~ ~ vX6 bXcXMXMXMXmXw nX0 8 6 4 4 4 4 5 5 5 5 6 6 6 6 6 7 7 8 8 8 bX$ vXvXvX0 0 nXnXnXq q q w e bXyX6 8 vXcX",
"e bXyX$ 8 $ $ vXMXsXsXsX$ 5 8 cXMXMXMXw aXuXtX6 5 4 4 4 4 5 5 5 5 6 6 6 7 7 7 7 8 8 bXbX$ vXvX0 0 0 nXnXq q q q w e $ tX$ 7 vXcX",
"e 8 bXbX8 $ $ 0 MXcXkXyX8 6 8 cXMXMXMXw iXtXwX8 6 4 4 4 5 5 5 6 6 6 6 6 7 7 8 8 8 bXbXvXvXvXvX0 0 nXnXq q q q q w e bXbXbX7 vXcX",
"e 6 8 7 8 $ $ vX0 nXtXtX7 5 8 cXw MXq nXtXwXvX$ 7 4 5 5 5 5 5 6 6 6 7 7 7 8 8 8 bX$ $ vXvXvX0 0 0 nXnXq q q q q q e 8 8 8 8 vXcX",
"e 6 7 8 8 $ $ vXvXbXeXwX6 5 8 cXcXe e L.aXaXe e 8 4 5 5 5 6 6 6 6 6 7 7 7 7 8 bXbX$ vXvXvX0 0 0 nXnXq pXpXq q q q e 8 7 6 8 vXcX",
"e 6 6 6 8 bX$ bX7 8 qXwX6 5 6 7 8 rXbXtXrXtXrX8 5 5 5 5 6 6 6 6 7 7 7 7 8 8 bXbXvXvXvXvXvX0 0 nXnXnXiXpXpXq q iXq e 8 7 6 8 vXcX",
"e 6 6 6 7 bX8 7 5 8 qXwX6 4 4 4 6 qX9XqX9XqX9X5 5 5 5 5 6 6 6 7 7 7 7 8 8 8 bX$ vXvXvXvX0 0 nXnXnXq pXpXpXq iXpXpXkX8 8 wX8 vXcX",
"e 6 7 7 6 6 5 6 6 6 qXwX6 4 4 4 9XqX9X9X9XqXqX6 5 5 6 6 6 6 6 7 7 8 8 8 bXbXvXvXvXvXvX0 0 nXnXq q q pXpXpXiXiXpXiXkX8 8 wX8 vXcX",
"e 6 rX6 6 6 5 5 5 6 qX6 4 4 4 4 9XqX9X8X6 wXqX6 5 5 6 6 6 7 7 7 7 8 8 bXbX$ vXvXvXvX0 0 0 nXq q q q pXpXpXiXiXpXpXkX8 rX6 8 vXcX",
"e 7 $ tX6 6 5 5 5 6 9X5 4 4 4 4 8XqX9X6 6 wXqX6 6 6 6 6 6 7 7 7 8 8 8 bXvXvXvXvXvX0 0 0 nXnXq q q q pXpXpXiXpXpXpXsX$ vXtX8 vXcX",
"e 6 bXrX6 6 5 5 5 6 9X5 4 4 4 4 6 9X6 7 7 wXqX7 6 6 6 7 7 7 8 8 8 bX$ $ vXvXvXvX0 0 0 nXnXq q q q pXpXpXpXiXpXpXpXsX8 8 rX8 vXcX",
"e 6 8 wX6 6 5 5 4 6 9X5 4 4 4 4 5 6 5 7 7 wXqX7 6 6 6 7 7 8 7 8 bXbX$ vXvXvXvXvX0 0 nXnXq q q iXpXiXpXpXpXiXpXiXpXkX8 7 8 8 vXcX",
"e 6 6 wX6 6 4 5 4 6 9X5 4 4 4 4 4 6 5 7 7 rXeX7 6 6 7 7 8 8 8 bXbXvXvXvXvXvX0 0 nXnXnXq q iXpXpXiXiXpXpXpXiXuXiXiXe 8 7 8 wX$ cX",
"e 6 6 wX6 5 4 4 4 6 9X5 4 4 4 4 4 5 5 7 7 rXeX7 7 7 7 7 8 8 bX$ $ vX0 0 0 0 nXnXq q q q iXpXpXiXiXiXpXpXpXpXyXyXuXe 8 7 8 wX$ cX",
"e 6 6 wX7 5 4 4 4 6 9X5 4 4 4 4 5 5 5 8 7 wXwX7 7 7 8 8 8 bX$ vX0 0 nXnXnXnXq q q q q q iXpXiXiXiXiXpXpXpXyXuXyXyXe 8 7 7 wX$ cX",
"e 6 6 eX6 5 4 4 4 6 qX6 4 4 5 5 5 5 6 8 7 8 rX8 7 8 8 8 $ $ vXnXnXnXnXnXnXnXq q q q q iXpXiXiXiXiXiXiXiXiXyXyXyXyXe 8 8 8 wX$ cX",
"e 6 7 9X6 5 4 4 4 6 qX5 4 4 5 5 5 5 6 8 6 8 $ 8 8 8 bXbXvX0 q q iXiXiXiXiXiXiXiXiXiXiXpXiXiXiXiXiXiXpXuXyXyXtXtXyXe 8 tX9XwX$ cX",
"e 7 tX$ 5 4 4 4 4 5 9X5 5 5 5 5 6 6 6 6 7 8 bX8 bXvXyXyXuXiXiXpXpXpXpXpXpXpXpXpXkXpXpXpXpXpXpXpXpXuXuXiXuXyXuXyXuXe bXyXyXwXuXcX",
"e 6 rX7 5 4 4 4 5 5 qX8X5 5 7 7 7 7 7 7 7 7 7 7 eXrXrXrXrXrXtXyXyXtXtXtXyXyXyXyXyXyXtXtXtXtXrXrXrXrXrXrXrXrXrXwXtXL.7 tXyXwXuXcX",
"e 6 6 7 5 4 4 4 5 5 eX6 5 5 5 5 5 5 5 5 5 5 5 5 5 6 6 7 7 8 bX$ rXrX$ 8 7 7 7 8 bX8 6 6 6 6 6 6 6 6 6 6 6 6 7 7 8 $ 6 rXtX8 yXcX",
"e 5 5 6 5 5 5 5 6 6 tX7 6 6 6 6 6 6 6 6 6 6 6 6 6 6 7 8 bXbX$ $ $ $ bX8 6 6 7 bX7 6 6 6 6 6 6 6 6 6 6 6 6 6 7 7 7 6 6 wXrX8 nXcX",
"e 5 5 6 5 5 8 5 6 6 tX7 6 6 7 6 7 6 6 6 6 6 bX5 6 7 8 bX$ 0 q rXbX8 7 6 6 7 bX5 6 6 6 6 6 7 $ 6 7 6 6 6 6 6 bX4 6 6 6 wXrX8 nXcX",
"e 5 5 6 5 6 $ tX6 6 wX7 6 7 $ tXwX6 6 6 6 7 bXvXbX$ bXbXbX$ nXuX8 7 6 6 7 8 $ tX6 6 6 6 6 7 bXyXtXeX6 6 6 7 $ $ 6 6 6 wXtX8 yXcX",
"w 5 5 7 5 6 7 rX6 6 6 6 6 6 $ rX7 6 6 6 6 6 7 7 8 bXbXbXbXbX$ $ 7 6 6 7 8 7 7 bX6 6 6 6 6 6 7 8 8 eXwX8 7 6 8 bX6 6 7 rXtXwXyXcX",
"w w w L.w w w w w w w w w w w w w w w w w w w w w w w w w w w w w w w w w w w e w w w w w w w w w w w L.e sXsXsXkXkXkXsXkXkXe w "
};
