/* XPM */
static char *Door51668167183[] = {
/* columns rows colors chars-per-pixel */
"64 64 256 2 ",
"   c black",
".  c #0000A8",
"X  c #00A800",
"o  c #00A8A8",
"O  c #A80000",
"+  c #A800A8",
"@  c #A85400",
"#  c gray66",
"$  c gray33",
"%  c #5454FC",
"&  c #54FC54",
"*  c #54FCFC",
"=  c #FC5454",
"-  c #FC54FC",
";  c #FCFC54",
":  c gray99",
">  c #ECECEC",
",  c gainsboro",
"<  c #D0D0D0",
"1  c #C0C0C0",
"2  c #B4B4B4",
"3  c gray66",
"4  c #989898",
"5  c gray55",
"6  c #7C7C7C",
"7  c gray44",
"8  c #646464",
"9  c gray33",
"0  c #484848",
"q  c gray22",
"w  c #2C2C2C",
"e  c #202020",
"r  c #FC0000",
"t  c #EC0000",
"y  c #E00000",
"u  c #D40000",
"i  c #C80000",
"p  c #BC0000",
"a  c #B00000",
"s  c #A40000",
"d  c #980000",
"f  c #880000",
"g  c #7C0000",
"h  c #700000",
"j  c #640000",
"k  c #580000",
"l  c #4C0000",
"z  c #400000",
"x  c #FCD8D8",
"c  c #FCB8B8",
"v  c #FC9C9C",
"b  c #FC7C7C",
"n  c #FC5C5C",
"m  c #FC4040",
"M  c #FC2020",
"N  c #FC0000",
"B  c #FCA85C",
"V  c #FC9840",
"C  c #FC8820",
"Z  c #FC7800",
"A  c #E46C00",
"S  c #CC6000",
"D  c #B45400",
"F  c #9C4C00",
"G  c #FCFCD8",
"H  c #FCFCB8",
"J  c #FCFC9C",
"K  c #FCFC7C",
"L  c #FCF85C",
"P  c #FCF440",
"I  c #FCF420",
"U  c #FCF400",
"Y  c #E4D800",
"T  c #CCC400",
"R  c #B4AC00",
"E  c #9C9C00",
"W  c #848400",
"Q  c #706C00",
"!  c #585400",
"~  c #404000",
"^  c #D0FC5C",
"/  c #C4FC40",
"(  c #B4FC20",
")  c #A0FC00",
"_  c #90E400",
"`  c #80CC00",
"'  c #74B400",
"]  c #609C00",
"[  c #D8FCD8",
"{  c #BCFCB8",
"}  c #9CFC9C",
"|  c #80FC7C",
" . c #60FC5C",
".. c #40FC40",
"X. c #20FC20",
"o. c #00FC00",
"O. c #00FC00",
"+. c #00EC00",
"@. c #00E000",
"#. c #00D400",
"$. c #04C800",
"%. c #04BC00",
"&. c #04B000",
"*. c #04A400",
"=. c #049800",
"-. c #048800",
";. c #047C00",
":. c #047000",
">. c #046400",
",. c #045800",
"<. c #044C00",
"1. c #044000",
"2. c #D8FCFC",
"3. c #B8FCFC",
"4. c #9CFCFC",
"5. c #7CFCF8",
"6. c #5CFCFC",
"7. c #40FCFC",
"8. c #20FCFC",
"9. c #00FCFC",
"0. c #00E4E4",
"q. c #00CCCC",
"w. c #00B4B4",
"e. c #009C9C",
"r. c #008484",
"t. c #007070",
"y. c #005858",
"u. c #004040",
"i. c #5CBCFC",
"p. c #40B0FC",
"a. c #20A8FC",
"s. c #009CFC",
"d. c #008CE4",
"f. c #007CCC",
"g. c #006CB4",
"h. c #005C9C",
"j. c #D8D8FC",
"k. c #B8BCFC",
"l. c #9C9CFC",
"z. c #7C80FC",
"x. c #5C60FC",
"c. c #4040FC",
"v. c #2024FC",
"b. c #0004FC",
"n. c #0000FC",
"m. c #0000EC",
"M. c #0000E0",
"N. c #0000D4",
"B. c #0000C8",
"V. c #0000BC",
"C. c #0000B0",
"Z. c #0000A4",
"A. c #000098",
"S. c #000088",
"D. c #00007C",
"F. c #000070",
"G. c #000064",
"H. c #000058",
"J. c #00004C",
"K. c #000040",
"L. c #282828",
"P. c #FCE034",
"I. c #FCD424",
"U. c #FCCC18",
"Y. c #FCC008",
"T. c #FCB400",
"R. c #B420FC",
"E. c #A800FC",
"W. c #9800E4",
"Q. c #8000CC",
"!. c #7400B4",
"~. c #60009C",
"^. c #500084",
"/. c #440070",
"(. c #340058",
"). c #280040",
"_. c #FCD8FC",
"`. c #FCB8FC",
"'. c #FC9CFC",
"]. c #FC7CFC",
"[. c #FC5CFC",
"{. c #FC40FC",
"}. c #FC20FC",
"|. c #FC00FC",
" X c #E000E4",
".X c #C800CC",
"XX c #B400B4",
"oX c #9C009C",
"OX c #840084",
"+X c #6C0070",
"@X c #580058",
"#X c #400040",
"$X c #FCE8DC",
"%X c #FCE0D0",
"&X c #FCD8C4",
"*X c #FCD4BC",
"=X c #FCCCB0",
"-X c #FCC4A4",
";X c #FCBC9C",
":X c #FCB890",
">X c #FCB080",
",X c #FCA470",
"<X c #FC9C60",
"1X c #F0945C",
"2X c #E88C58",
"3X c #DC8854",
"4X c #D08050",
"5X c #C87C4C",
"6X c #BC7848",
"7X c #B47044",
"8X c #A86840",
"9X c #A0643C",
"0X c #9C6038",
"qX c #905C34",
"wX c #885830",
"eX c #80502C",
"rX c #744C28",
"tX c #6C4824",
"yX c #5C4020",
"uX c #543C1C",
"iX c #483818",
"pX c #403018",
"aX c #382C14",
"sX c #28200C",
"dX c #600064",
"fX c #006464",
"gX c #006060",
"hX c #00001C",
"jX c #00002C",
"kX c #302410",
"lX c #480048",
"zX c #500050",
"xX c #000034",
"cX c gray11",
"vX c #4C4C4C",
"bX c gray36",
"nX c gray25",
"mX c gray19",
"MX c #343434",
"NX c #D8F4F4",
"BX c #B8E8E8",
"VX c #9CDCDC",
"CX c #74C8C8",
"ZX c #48C0C0",
"AX c #20B4B4",
"SX c #20B0B0",
"DX c #00A4A4",
"FX c #009898",
"GX c #008C8C",
"HX c #008484",
"JX c #007C7C",
"KX c #007878",
"LX c #007474",
"PX c #007070",
"IX c #006C6C",
"UX c #980088",
/* pixels */
"sXsXsXsXsXL.L.w w w w w w w w w w w w w w w w w w w w L.L.L.L.L.L.L.L.kXkXkXkXkXe L.L.L.w w w w w w w L.L.e kXkXkXkXkXkXL.w w cX",
"sXuXuXuXuXyX$ bXbXbXbXbXbXbXbXbXbXbXbXbXbXbXbXbXbXbXbXbXbXbXbXbXbXbX$ vX0 yXyXyXyXyX0 vXvX$ $ $ $ $ $ vXyXyXyXyXyXyXyXyXvX$ bXe ",
"sXyXyXyX<.1.8 4 7 7 7 7 7 7 7 4 7 7 7 7 7 7 7 4 7 7 7 7 7 7 7 4 7 7 7 8 bXbX$ 6 1.1.1.1.1.$ bX6 $ $ 1.1.1.1.1.6 $ 1.1.1.bX7 8 e ",
"sX:.:.,.>.6 7 7 6 5 5 5 5 5 8 6 5 5 5 5 5 5 7 7 5 5 5 5 5 5 7 5 5 5 5 5 5 6 :.>.7 W >.>.>.7 1.,.7 >.>.,.,.>.1.:.>.>.W 7 6 5 7 e ",
"sX>.>.! 5 5 7 W ! 4 # # # 5 :.6 4 # # # # 4 7 W >.# # # 4 W 7 5 # # # # # 5 1.>.5 ! >.! ! W <.,.>.W ! ! ! ,.<.,.! ! 5 4 4 # 7 cX",
"kX# # 2 2 # 8 nXnXnXnXnXnXnXnXnXnXnXnXnXnXnXnXnXnXnXnXnXnXnXnXnXpXnXq q q q MXpXpXpXpXpXpXpXpXpXpXkXkXsXsXsXkXsXaXuX# 2 1 1 6 cX",
"kX2 # 2 1 1 # 5 5 8 yX<.<.<.<.<.<.<.<.yXyXyXyXyXyXuXuXyXyXyXuXuXuXuXuXuXuXuXuXuX<.<.:.:.Q <.<.Q Q Q Q ,.! :.~ ~ Q aX2 1 1 1 6 cX",
"kX2 >.< 1 1 1 4 4 ,.:.W :.:.1.:.:.1.bX<.<.! <.1.1.bX:.1.1.<.<.1.<.<.<.:.:.:.:.1.Q 1.>.~ ~ ! ~ :.:.! ! >.W >.>.W ~ pX2 # , 1 6 cX",
"kX! ! W 2 1 1 4 4 ,.>.1.,.,.,.,.,.:.bX1.! ! ! $ $ :.1.<.<.<.<.1.:.1.:.1.1.:.1.Q Q Q ! ~ 1.W >.:.! ! ! ! ~ W ! >.>.iX4 5 >.1 6 cX",
"kX# >.! 2 1 # 4 5 >.:.:.1.,.,.:.:.<.bX! ! ! 1.,.,.1.1.<.1.1.<.:.1.:.:.,.,.>.Q Q W Q ! 1.1.W ~ ~ 1.>.>.>.W >.! >.! iX2 W >.1 6 cX",
"kX# 4 4 1 1 # 5 1.,.:.:.1.,.:.:.1.<.$ 1.! 1.1.,.,.1.1.1.1.<.<.<.Q :.1.,.,.>.Q 1.W 1.! ~ ~ ~ ! ! ! ! >.>.! >.W >.! iX2 2 2 1 6 cX",
"kX2 4 # 1 1 # 6 1.:.1.:.:.:.1.1.1.<.1.1.<.1.:.,.,.1.1.<.<.W Q :.Q ,.,.W ! >.Q ~ >.! >.>.>.W ! W ~ ! ! ! W >.>.>.:.iX1 1 1 1 6 cX",
"kX2 4 # 1 1 # 1.1.1.1.1.:.,.,.1.1.<.$ 1.:.,.,.8 bX1.1.<.1.W Q :.Q >.>.>.>.>.W >.! ! W ! >.! W W >.>.! >.W ! >.>.,.iX1 1 1 1 6 cX",
"kX2 4 # 1 1 # 7 1.:.:.1.:.1.1.1.1.<.bXbX:.8 ,.8 8 1.1.1.1.:.1.:.W ! >.>.! ! W ! W W ! # ! >.4 ! ! 5 ! >.W ! W W :.uX1 1 1 1 6 cX",
"kX2 4 # 1 1 # 7 7 :.,.:.1.$ $ 1.$ bX7 7 ,.8 ,.7 8 bX1.:.,.:.Q ,.W W >.>.! >.! W ! 4 >.! >.2 # 1.! # 4 4 ! ! W >.:.yX1 1 1 1 6 cX",
"kX2 W < 1 1 # 7 7 :.8 $ bXbX1.1.1.8 7 7 ,.8 ,.7 8 8 ,.>.,.:.W ,.~ 1.W ! ! >.W W # 4 # # 1 1 2 1.# # # 4 >.>.! ! ,.q 1 4 , 1 6 cX",
"kX5 ,.! 1 1 4 7 7 :.bXbXbXbXbX1.1.7 7 7 ,.8 ,.7 8 7 7 >.>.,.! ,.~ 1.1.! 1.>.1.W W # 1 1 1 1 1 2 2 2 # # >.! 1.>.>.nX# 6 5 1 6 cX",
"kX2 ! W 1 1 4 7 7 bXbXbXbXbXbX1.8 7 7 7 ,.8 ,.7 7 7 W W >.W ~ ! W >.W ! ! >.! ! 1 # 1 2 1 < < 2 2 1 2 4 ! ! ! 4 W nX1 >.4 1 6 cX",
"kX2 >.W 1 1 4 8 8 bXbXbXbXbXbX8 8 7 7 7 ,.8 >.7 6 7 1.W >.W ! W W >.W ! W >.! W < 2 1 1 1 < < < 1 1 1 # 5 ! # # >.nX1 2 # 1 6 cX",
"kX2 4 # 1 1 4 7 8 bXbXbXbX8 8 8 7 7 7 7 8 7 >.6 7 6 6 W >.1.! >.W >.! >.>.! >.W 1.< 1 1 1 < < < 1 1 1 2 5 ! # # W nX1 2 1 1 6 cX",
"L.2 # # 1 1 4 8 8 bXbXbXbX8 8 8 7 7 7 7 7 8 W 6 7 6 >.>.>.1.! ! ! W W W 2 ! >.W < < 1 1 1 < < < 1 2 < 2 5 ! # 4 W nX1 2 1 1 6 cX",
"w 1 # # 2 1 4 8 8 bXbX8 8 8 8 7 7 7 7 7 5 6 ! 6 6 4 ! >.! W W W >.! ! Q 1 1 W 1.< < < 1 1 1 1 1 1 , 1 1 ! ! # 4 W nX1 1 1 1 6 cX",
"mX1 1 2 2 1 4 8 8 bXbX8 8 7 7 7 7 7 6 7 5 6 >.6 5 4 # 4 1.! # # W 1.4 4 1 2 ! ! < , < < 1 1 2 2 # 2 1 1 2 2 W >.,.nX1 1 1 1 6 cX",
"mX1 # < 2 < # 8 8 bX8 8 7 7 7 7 7 6 6 5 5 6 W 6 # 4 # 2 2 ! 2 2 2 ! 2 2 < 2 1.! ! , , < 1 1 1 1 # 1 1 1 2 >.! >.,.MX1 ! , 1 6 cX",
"mX# 5 >.1 < # 8 7 7 7 7 7 7 7 7 7 6 5 5 4 5 6 4 # 1 1 1 2 ! 2 2 1 2 1 < 1 ! 1.! ! < , < 1 2 1 # 1 1 1 1 # ! >.>.>.MX# :.5 # 6 cX",
"mX1 4 4 1 < # 8 7 7 7 7 7 7 7 7 6 5 5 5 4 5 4 4 # 1 1 1 1 1 1 2 2 2 1 2 1 ! 1.! 1 < < 1 2 1 # 1 2 1 1 4 ! ! >.>.:.q 1 4 # # 6 cX",
"mX1 2 2 1 < # 7 7 7 7 7 7 7 6 5 5 5 4 4 # 4 4 4 1 1 1 1 1 1 1 2 1 1 1 < 1 2 1.! 1 < < 1 1 1 # 2 1 1 2 5 ! ! >.>.:.q 1 # # 6 7 cX",
"mX1 2 2 1 < # 7 7 7 7 7 7 6 7 mX7 7 7 7 7 8 $ :.6 1 1 1 1 2 2 2 1 1 1 < < 2 ! # 1 1 1 2 4 4 4 # 2 4 4 5 W W >.,.1.q # # 4 7 7 cX",
"mX1 2 2 1 < # 7 7 7 7 7 7 5 7 e nXbXvXvXvX0 nXyX,.1 1 1 1 2 1 1 1 1 1 < < < # # < 1 1 # 4 # 4 # 2 4 4 6 ! W ,.,.1.q # 4 5 7 7 cX",
"mX1 1 2 1 < # 7 7 Q Y Y R 5 7 e vXnXvXvXvX0 q 0 ,.1 1 , 2 2 1 1 1 1 , < , < < 1 1 2 2 # 4 # # # 4 4 6 W W >.,.<.1.q 4 5 5 7 7 cX",
"mX1 1 1 1 < # 7 nXQ Y Y bX5 7 e vXvXvXvXvXvX0 vX7 1 , < 1 1 1 1 1 1 < < , < 1 1 1 2 2 # 4 # ! 5 4 4 6 W >.:.:.<.1.q 5 5 5 W 7 cX",
"mX1 ! W 1 < # 8 mXe Y Y 5 4 6 e vXvXvXvXvXvXvX$ 6 < , < , 1 1 1 1 1 , < , < 1 1 2 2 2 # # # ! 5 5 5 6 >.>.:.<.<.1.q 7 8 4 >.7 cX",
"mX# ! ! 1 < # 8 7 nXY Y 5 4 6 e vXvXvXvXvXvXvXvX6 < , , < 1 1 1 1 , , < < 1 # # 2 2 2 # 1.! ! 6 5 5 7 >.1.1.! <.<.q 6 bX1.,.7 cX",
"mX1 ! W 1 1 4 7 6 vXY R 4 # 5 e vXvXW R R Y vX$ 5 , , , < , 1 1 , , < < < 1 # # 2 2 2 5 1.! W 5 5 5 6 ,.1.1.! <.<.MX6 6 ! W 8 cX",
"mX1 W W # 4 5 7 5 vXY R # # 5 e vXmXW     R vXbX4 , , , < < < < < < 1 < < # # # 2 2 2 5 ! ! W 6 6 7 7 bX1.! ! <.<.MX6 6 W ! 8 cX",
"mX1 # ! 4 4 5 7 5 vXY R # # 5 e vXmXW     R vX7 1 , , , , , , , , < < < 2 # # # 2 4 4 5 ! W 1.W 1.7 8 bX1.! <.<.<.MX7 6 ! 4 8 cX",
"mX1 # ! 4 4 5 7 4 $ Y R # # 5 e vXcXQ w w R bX5 < , , , , < < < < 1 1 2 # # # # 1 4 4 4 W W >.7 1.8 8 8 1.1.<.yXyXMX6 ! W ! bXcX",
"mX1 # ! 4 4 5 7 4 bXW W # 1 5 e vXcXQ Q W W 8 4 < , , , , , < 1 1 1 # # # # 2 5 # # 5 5 W >.>.$ 8 8 7 8 1.1.<.<.yXMX4 # W ! bXcX",
"mX1 # W W 4 5 6 # bXW W 1 1 5 e vXe sXL.mX$ 7 # < , , , , , , 1 1 2 2 # # 2 2 4 # 5 # 5 6 >.:.$ 8 8 7 8 8 1.! ! vXMX2 ! >.! :.cX",
"mX1 >.W W 4 5 6 4 aX! ! 7 1 5 e vXvXpXuXpXbX6 # < , , , , < < 2 2 2 2 2 2 2 4 4 4 5 5 6 8 1.1.bX8 8 7 7 8 bX! $ $ q 4 W W # :.cX",
"mX# ! ! W 4 5 7 0 kXsXsX6 1 4 e 0 vXpXiXl <.4 1 , , , , , < < 2 2 2 2 2 4 # 4 4 4 5 6 6 7 bXbXbX8 8 7 7 bXbXbXbX$ q 5 ! ! # 1.cX",
"mX1 4 4 W 4 5 8 0 w aX,.1 1 4 e 0 0 iXuXiXW 1 # < , , , < < 2 2 2 2 2 2 # # 5 6 4 5 5 8 8 8 8 8 8 7 8 8 8 bXbXbX$ q 4 >.~ # 1.cX",
"mX1 2 2 4 4 5 7 8 7 W >.1 1 4 e nX0 uXyXQ # 5 6 # , < < < 1 1 1 1 1 4 # # 5 6 6 5 7 7 8 8 8 8 8 8 7 8 8 8 8 bXbXbXq 2 # >.2 ,.cX",
"mX1 # ! 4 4 5 7 7 # ! ! 1 < 4 cXkXL.kXkXpXiXnXmX4 , < < 1 1 1 1 1 1 # # # # 6 6 5 7 8 8 8 8 8 8 8 bX8 8 8 8 8 bXbXq 2 # ! 1 ,.cX",
"mX1 # ! 4 # 5 5 # 1 ! ! 1 < 1 W W >.Q Q W Q ! W < < 1 1 1 1 1 1 # # # # 5 5 7 7 8 7 8 8 8 7 8 8 bXbX8 8 8 8 8 7 bXnX1 2 # 1 8 cX",
"mX1 2 ! # # # # 1 2 W >.1 , , 1 ! 1 1.1.1.! ! 2 < < 1 1 1 1 1 # # # # 4 5 5 7 8 7 Q 8 8 8 7 7 bXbX8 8 8 8 8 7 7 bXnX1 2 # 1 7 cX",
"mX1 2 2 1 < < 1 1 2 ! W 1 , , 1 ! 2 ! ! 1.! W # < 1 1 1 1 1 1 # # 4 4 4 5 5 bXbX7 Q 1.8 8 8 8 8 8 8 8 8 8 7 7 8 8 nX1 2 # 1 7 cX",
"mX1 4 < 1 < < 1 1 1 ! 2 < , , 1 ! Q ! 1.Q ! ! 2 1 1 1 1 1 # # # # 4 4 5 5 6 1.:.7 Q 1.8 8 8 8 8 8 8 8 8 7 7 8 8 8 q 1 5 W 1 7 cX",
"mX# ! ! 1 < < 1 < 2 # 2 , , , , >.! ! ! Q >.Q # 1 1 1 1 1 # # # 4 4 4 5 7 7 bX8 7 7 ! 8 bX8 8 8 8 8 8 7 7 8 bX1.1.pX4 W W 1 7 cX",
"mX1 W W 1 < < 1 < 1 ! 1 , , , , ! ! Q ! ! ! W # 1 2 1 # # # 5 4 4 5 6 6 7 7 7 7 7 7 ! ! bX8 8 8 8 8 7 7 8 8 1.1.1.pX2 >.W 1 7 cX",
"mX1 1 1 1 < , < , 1 ! 1 , , , , 1.! 1 1.! >.>.4 2 2 1 # # 4 # 4 5 5 6 7 7 7 7 7 7 7 bXQ bX8 8 8 8 7 7 7 8 bX1.,.1.pX# >.W 1 7 cX",
"mX1 1 1 1 < , < , 1 ! 1 , , , < 1.! 2 ! ! ! ! # 2 2 # # 4 4 4 5 5 7 7 7 7 7 7 7 8 8 8 Q 8 8 8 8 7 7 7 7 7 8 ,.,.1.pX# >.>.1 7 cX",
"mX1 1 1 1 < , , , 1 1 1 , , , 1.1.! 2 1.! 2 ! # 4 4 # # 4 4 5 6 6 7 7 7 7 7 7 7 8 8 8 8 8 8 8 7 7 7 7 7 7 8 7 >.:.pX# ! W 1 7 cX",
"mX1 1 1 1 < , , , , , , , , , Q ! ! 4 1.! 2 ! # # # 4 4 4 5 5 6 7 7 7 7 7 7 bX8 8 8 8 8 8 8 7 7 7 7 8 8 7 6 7 W >.aX# 4 4 1 7 cX",
"mX1 1 1 2 1 , , , , , , , , < 2 >.>.4 1.1.1.4 # # 4 4 4 5 5 6 7 7 7 7 7 7 7 bX8 8 8 8 bXbX8 8 8 8 8 bX8 ,.>.>.,.1.kXW W # 1 7 cX",
"w 2 4 < 2 1 , , , , , , , , < 1 ! W # ! ! 1.4 # 4 # 4 4 5 6 7 7 7 7 7 7 7 bXbXbXbXbX$ $ bXbXbX1.1.1.1.>.W ,.! >.<.sX! W < 1 7 cX",
"w 5 W Q 1 < , , , , , , < < 1 1.! W 4 ! W 5 4 # 4 4 5 6 6 7 7 7 7 7 7 7 8 bXbXbX$ vX<.1.1.1.1.1.1.,.>.>.>.,.:.>.<.sX>.>.>.1 7 cX",
"L.# W ! W < , , , , , , , , Q 1.>.>.# ! ! # 2 1 1 1 1 # # # # 4 4 # # # 4 5 5 6 6 W ! ! ! 5 5 5 5 5 5 # 4 >.! ! Q kX! W W 1 7 cX",
"L.# ! ! W < , , < < < < < < Q 1 >.! ! ! # 2 < < < < < 1 1 # # # # # # 1 1 1 1 1 4 2 # # # # # # # # # # # W W >.! :.! W 2 1 7 cX",
"w 2 W ! 1 1 < 1 1 2 # 2 1 1 1 2 W ! >.>.4 2 2 1 1 1 # 4 5 5 5 5 5 5 5 # 1 2 4 5 4 2 # # # # # # # # # # # 4 4 W W 4 2 ! 2 1 7 cX",
"w 1 # ! 1 1 1 , 1 1 2 2 1 1 W W >.! 4 4 4 2 4 , 1 # 4 5 5 7 8 # 6 5 4 2 2 4 5 , 2 2 2 2 2 2 4 < 2 2 # 4 4 4 >.< # # # ! # 2 7 cX",
"mX1 2 Q 1 2 4 5 2 1 2 2 1 # 4 >.>.! # # 2 4 5 5 W 4 5 5 ! ! Q 1.! # 1 1 # 5 5 W # 2 2 2 2 4 5 W # 2 2 2 2 5 ! ! ! # 2 # # 1 7 cX",
"nX1 1 2 2 1 # W 2 1 1 1 1 1 # W >.4 # 2 2 2 # 4 5 5 5 5 5 5 6 >.4 1 1 # 5 # # 4 2 1 1 1 1 1 # 4 2 1 1 1 1 2 ! ! 2 2 1 # 2 2 7 e ",
"nXpXq nXnXnXnXnXnXnXnXnXnXnXnXq pXpXq q q q nXnXnXnXnXnXnXnXnXnXnXnXnXnXnXnXnXnXnXnXnXnXnXnXnXnXnXnXnXnXnXq pXpXpXq q pXpXq q MX"
};
