/* XPM */
static char *Grey71668167183[] = {
/* columns rows colors chars-per-pixel */
"64 64 256 2 ",
"   c black",
".  c #0000A8",
"X  c #00A800",
"o  c #00A8A8",
"O  c #A80000",
"+  c #A800A8",
"@  c #A85400",
"#  c gray66",
"$  c gray33",
"%  c #5454FC",
"&  c #54FC54",
"*  c #54FCFC",
"=  c #FC5454",
"-  c #FC54FC",
";  c #FCFC54",
":  c gray99",
">  c #ECECEC",
",  c gainsboro",
"<  c #D0D0D0",
"1  c #C0C0C0",
"2  c #B4B4B4",
"3  c gray66",
"4  c #989898",
"5  c gray55",
"6  c #7C7C7C",
"7  c gray44",
"8  c #646464",
"9  c gray33",
"0  c #484848",
"q  c gray22",
"w  c #2C2C2C",
"e  c #202020",
"r  c #FC0000",
"t  c #EC0000",
"y  c #E00000",
"u  c #D40000",
"i  c #C80000",
"p  c #BC0000",
"a  c #B00000",
"s  c #A40000",
"d  c #980000",
"f  c #880000",
"g  c #7C0000",
"h  c #700000",
"j  c #640000",
"k  c #580000",
"l  c #4C0000",
"z  c #400000",
"x  c #FCD8D8",
"c  c #FCB8B8",
"v  c #FC9C9C",
"b  c #FC7C7C",
"n  c #FC5C5C",
"m  c #FC4040",
"M  c #FC2020",
"N  c #FC0000",
"B  c #FCA85C",
"V  c #FC9840",
"C  c #FC8820",
"Z  c #FC7800",
"A  c #E46C00",
"S  c #CC6000",
"D  c #B45400",
"F  c #9C4C00",
"G  c #FCFCD8",
"H  c #FCFCB8",
"J  c #FCFC9C",
"K  c #FCFC7C",
"L  c #FCF85C",
"P  c #FCF440",
"I  c #FCF420",
"U  c #FCF400",
"Y  c #E4D800",
"T  c #CCC400",
"R  c #B4AC00",
"E  c #9C9C00",
"W  c #848400",
"Q  c #706C00",
"!  c #585400",
"~  c #404000",
"^  c #D0FC5C",
"/  c #C4FC40",
"(  c #B4FC20",
")  c #A0FC00",
"_  c #90E400",
"`  c #80CC00",
"'  c #74B400",
"]  c #609C00",
"[  c #D8FCD8",
"{  c #BCFCB8",
"}  c #9CFC9C",
"|  c #80FC7C",
" . c #60FC5C",
".. c #40FC40",
"X. c #20FC20",
"o. c #00FC00",
"O. c #00FC00",
"+. c #00EC00",
"@. c #00E000",
"#. c #00D400",
"$. c #04C800",
"%. c #04BC00",
"&. c #04B000",
"*. c #04A400",
"=. c #049800",
"-. c #048800",
";. c #047C00",
":. c #047000",
">. c #046400",
",. c #045800",
"<. c #044C00",
"1. c #044000",
"2. c #D8FCFC",
"3. c #B8FCFC",
"4. c #9CFCFC",
"5. c #7CFCF8",
"6. c #5CFCFC",
"7. c #40FCFC",
"8. c #20FCFC",
"9. c #00FCFC",
"0. c #00E4E4",
"q. c #00CCCC",
"w. c #00B4B4",
"e. c #009C9C",
"r. c #008484",
"t. c #007070",
"y. c #005858",
"u. c #004040",
"i. c #5CBCFC",
"p. c #40B0FC",
"a. c #20A8FC",
"s. c #009CFC",
"d. c #008CE4",
"f. c #007CCC",
"g. c #006CB4",
"h. c #005C9C",
"j. c #D8D8FC",
"k. c #B8BCFC",
"l. c #9C9CFC",
"z. c #7C80FC",
"x. c #5C60FC",
"c. c #4040FC",
"v. c #2024FC",
"b. c #0004FC",
"n. c #0000FC",
"m. c #0000EC",
"M. c #0000E0",
"N. c #0000D4",
"B. c #0000C8",
"V. c #0000BC",
"C. c #0000B0",
"Z. c #0000A4",
"A. c #000098",
"S. c #000088",
"D. c #00007C",
"F. c #000070",
"G. c #000064",
"H. c #000058",
"J. c #00004C",
"K. c #000040",
"L. c #282828",
"P. c #FCE034",
"I. c #FCD424",
"U. c #FCCC18",
"Y. c #FCC008",
"T. c #FCB400",
"R. c #B420FC",
"E. c #A800FC",
"W. c #9800E4",
"Q. c #8000CC",
"!. c #7400B4",
"~. c #60009C",
"^. c #500084",
"/. c #440070",
"(. c #340058",
"). c #280040",
"_. c #FCD8FC",
"`. c #FCB8FC",
"'. c #FC9CFC",
"]. c #FC7CFC",
"[. c #FC5CFC",
"{. c #FC40FC",
"}. c #FC20FC",
"|. c #FC00FC",
" X c #E000E4",
".X c #C800CC",
"XX c #B400B4",
"oX c #9C009C",
"OX c #840084",
"+X c #6C0070",
"@X c #580058",
"#X c #400040",
"$X c #FCE8DC",
"%X c #FCE0D0",
"&X c #FCD8C4",
"*X c #FCD4BC",
"=X c #FCCCB0",
"-X c #FCC4A4",
";X c #FCBC9C",
":X c #FCB890",
">X c #FCB080",
",X c #FCA470",
"<X c #FC9C60",
"1X c #F0945C",
"2X c #E88C58",
"3X c #DC8854",
"4X c #D08050",
"5X c #C87C4C",
"6X c #BC7848",
"7X c #B47044",
"8X c #A86840",
"9X c #A0643C",
"0X c #9C6038",
"qX c #905C34",
"wX c #885830",
"eX c #80502C",
"rX c #744C28",
"tX c #6C4824",
"yX c #5C4020",
"uX c #543C1C",
"iX c #483818",
"pX c #403018",
"aX c #382C14",
"sX c #28200C",
"dX c #600064",
"fX c #006464",
"gX c #006060",
"hX c #00001C",
"jX c #00002C",
"kX c #302410",
"lX c #480048",
"zX c #500050",
"xX c #000034",
"cX c gray11",
"vX c #4C4C4C",
"bX c gray36",
"nX c gray25",
"mX c gray19",
"MX c #343434",
"NX c #D8F4F4",
"BX c #B8E8E8",
"VX c #9CDCDC",
"CX c #74C8C8",
"ZX c #48C0C0",
"AX c #20B4B4",
"SX c #20B0B0",
"DX c #00A4A4",
"FX c #009898",
"GX c #008C8C",
"HX c #008484",
"JX c #007C7C",
"KX c #007878",
"LX c #007474",
"PX c #007070",
"IX c #006C6C",
"UX c #980088",
/* pixels */
"bXbXbXbXbX8 7 7 7 8 8 w   0 $ 7 7 7 8 7 8 7 7 7 7 7 8 7 7 7 $ w   8 $ 7 8 7 7 7 7 7 7 7 7 8 8 w   8 8 8 7 8 nX  w 0 $ 8 bX7 8 $ ",
"$ $ bXbXbX8 7 8 7 8 0 w   w $ 7 bX0 $ 8 bX7 7 7 8 8 7 7 7 $ nXcX  0 bX7 7 7 7 7 8 $ $ $ $ 8 $ w   0 $ 8 7 8 nX  e 0 nX$ 8 7 bX0 ",
"bX$ $ bX8 $ $ $ $ 8 $ 0   nX8 7 7 bX8 bX0 bX8 7 7 7 7 7 8 0 nXcX  $ 8 7 7 7 8 8 0 $ 8 7 7 7 $ nX  0 8 7 7 $ nX  0 7 $ $ 8 bXnXnX",
"8 $ $ $ 8 8 $ 0 nX0 0 nX  nX$ 7 7 0 8 8 bX8 8 7 8 7 8 0 nXnX0 nX  $ 8 7 8 8 bX8 $ 8 8 8 $ 8 0 0   0 bX7 8 8 nX  nXbX8 8 7 0 0 nX",
"$ $ $ bX0 0 MX0 0 $ 0 w   0 0 8 8 8 8 7 8 8 bX$ 0 0 MXnX0 $ 8 $   8 8 7 7 bX$ 0 bX8 7 7 8 8 MXnX  nX$ 8 bXbX0   w $ $ 8 bX0 0 MX",
"$ w nXw nXMXnXbX$ 0 w w   0 $ 7 7 8 8 7 8 7 8 $ 8 $ bX8 7 7 8 nX  $ 8 8 $ 0 8 7 8 7 8 8 0 $ nXnX  0 bX8 8 0 nX  MXnX$ 0 0 w e w ",
"nXnXMXnXnX0 $ bX$ 0 e e   MX$ 0 bX8 8 8 $ 8 bX8 8 8 8 8 8 bX8 MX  $ 0 0 $ bXbX0 nX$ 0 $ 0 nXMXMX  e bXnX0 nXMX  cXcXnXnXMXw nXnX",
"$ 0 w 0 $ 8 8 8 $ 0 e w   nX7 7 7 bX$ 8 7 7 7 7 7 bX8 7 8 $ $ w   MXw nXnXnXw w MXnX0 w MXnX0 MX  e MXnXnXMXcX  e w MXMX0 nX0 nX",
"bX$ 0 $ 8 8 0 8 nX0 e e   0 bX$ $ 0 8 8 8 7 $ 8 7 8 8 7 0 8 $ w                                                 MXnXw nX0 $ $ nX",
"$ 0 0 0 $ 0 $ bXnX0 w cX  w 0 8 8 $ 7 bX8 8 bX7 7 8 8 7 bXbX0 w   0 nX$ $ 0 $ nXnXw   0 0 0 e e 0 $ 0 0 0 MXcX  e nXnX0 0 0 0 nX",
"8 $ 0 $ 8 $ 0 0 0 0 w w   e nX$ $ 0 8 0 8 7 8 8 8 bXbXbX$ 0 nXw   MX$ 7 8 $ $ $ 8 nX  nX$ bX0 nX0 8 8 bXbXnXcX  w 0 0 $ $ $ 0 0 ",
"$ 0 0 0 $ nX0 0 nXnXMXnX  MXnXnX0 bX$ $ $ $ bXbXbXbXbXbX$ 0 nXe   $ 7 7 $ 0 0 $ 0 w   0 $ 8 bX0 8 bX$ $ 7 0 nX  MX0 0 8 $ $ 0 nX",
"nX0 0 0 nXnXnX0 nXMXMXcX  w nXMX0 0 0 0 0 0 0 0 0 nX0 nXnXnXnXw   0 bXnXnX0 $ $ 0 MX  nXnX0 0 0 $ $ bXbX8 0 MX  MX0 $ bXnX0 nXw ",
"w w w w MXMXw nXw e e     w nXnXnXnXnX0 0 nXnXw w MXw w w MXw cX  0 0 0 0 0 0 nXw w   e w 0 nXnX$ bX0 bX$ 0 w   MXnX0 MXe e cXw ",
"w w e w w cXw MXw e cX    cXMX0 nXw w e e w MXnX0 nXw w MXw e cX  nXnXnXw MXw w w MX  nXcXMXnXMXnXMXnX$ 0 0 nX  w w w e cXw w 0 ",
"                                                                                      MXMXnXw w MXnXnX0 MXnX0                   ",
"0 0 0 0 0 0 0 nX0 0 0 0 nXw MX  nX0 $ bX0 0 $ nX0 nX  w MXnXnXnXe MXnXMXMXnXMXMXcXcX  MX0 0 nXnXnXnXw 0 nXnX0   nX0 nX0 w MXMXnX",
"0 0 0 0 0 $ $ 0 0 nXnX$ $ 0 w   0 nX0 $ 0 bX0 $ 8 w   w nX0 0 $ 0 0 0 nXnX0 0 0 MXcX  MX0 $ MXnXw MXw 0 0 0 nX  nX0 0 0 MX$ 0 nX",
"bX0 0 0 bX$ 0 0 0 0 bX$ 0 MXcX  nXMX0 bX0 0 0 8 bXw   w 0 $ 8 0 0 $ bX0 $ 8 $ 0 MXe   w 0 0 0 0 nX0 e w 0 MXw   MX$ 0 0 nX$ nX0 ",
"0 nX0 nX0 0 0 $ $ 0 0 w w w cX  MX0 $ 0 nXbX$ 0 MXcX  w $ nX0 0 bX0 $ bX$ $ MXnXnXMX  w nXnX$ 0 nXnXMXnXnXnX0   nX0 0 0 $ 0 0 0 ",
"0 0 $ $ $ $ 0 0 0 nXnXw MXMXw   0 bX0 $ 8 $ 0 nXnXe   w 0 0 $ $ $ $ 0 0 0 nXnX0 MXMX  nXw nXnXw nXnX0 nXw w MX  MX0 0 0 0 nX$ 0 ",
"nXnXw nXnXnXnXnXe w e cXMXw w   MXMXnX0 nXw w w e w   MX0 0 nX0 0 bX8 0 nXMX0 0 w w   MXcXw w w w w w w MXw nX  MXnXMXnXnXw 0 nX",
"MXnXnX0 MXnXw MXw nXw w nXMXe   e w e e e e e w w w   MX0 0 0 nX$ bX0 w nX0 $ 0 MXMX  nXnXnXnXw MX0 $ 0 nXe w   MXw w w w w w w ",
"                                                      MX0 nX0 nX0 nXw nX0 0 0 0 MXw   nXnX0 $ nXnX0 0 nXnXcXw                   ",
"  cXMXcXw w w w MXcX  w w MX0 nXMXnXMXMXw w w w w e   e w nXnXMXnXnXnX0 0 0 0 nXw e   MXMXw nXw MXnX0 0 nXe w   w w nX0 0 0 nXw ",
"  MX0 nX0 0 nXnXnXcX  MXnX0 0 0 0 nXnX0 nX0 0 nXw cX  e w w nXnX$ 0 nX0 0 0 nXnXw e   nX0 w 0 0 0 nX0 0 0 e cX  e w 0 $ 0 nXnXcX",
"  nXMXnXnX0 0 nXnXw   e nX0 0 0 0 0 0 0 0 0 nXnXw cX  w nXw nXnX0 0 0 0 nXMXMXe w w   MXMXw 0 0 nXw MXnXnXe     cXnX0 0 MXnXnXe ",
"  nX0 0 nX0 0 nXMXe   MX0 0 0 nXnXMXMXMXMXMXe nXnXcX  w MXcXe w w nXMXMXMXw w w MXw   e w nX0 $ 0 0 nX0 w e cX  cXnX0 nX0 0 nXcX",
"  nX0 0 nXnXMXw MXe   e MXw MXw MXw w w w nXw 0 0 w   e e cXe w MXMXw w w e e w w cX  e w 0 0 0 nX0 0 MXw MXcX  cXMX0 0 0 MXMXe ",
"  w 0 w nX0 0 MXnXcX  w w e w e w w nXMX0 0 w nXnXMX                                  MXnX0 nX0 0 0 nXw MXw e   cXnX0 nX0 nXMXe ",
"  w 0 MX0 nXw MXMXcX  w w MXnXnX0 0 0 nX0 0 nXnXnXMX  w w MXcXw w e cXcXcXcXw w w cX  MXMXw MXnXw MXw w w w w   cXw w MXw w e w ",
"  nX0 0 nXnXnXnXcXcX  w w w MXnX0 nXnXnX0 0 nXnXMXe   w nXnXw w w w cXw cXw nXnXw cX  cXcXe e e e e cXw w w cX  cXcXw e cXe cXcX",
"  MXnXnXnXMXMXw cXw   MXMXMXMXe w w MXMXMXMXMXw e e   e w MXnXnXw w MX0 nX0 nX0 w cX                                            ",
"  cXw w cXcXe cXe e   cXcXw e e cXcXcXcXe e w e e cX  cXcXw w w w w w MXw MXw w w cX  e w w w w MXe e e cXw w MXMXMX  cXe w w w ",
"  cXcXcXcXcXe e e     cX  cXcXe cXcXcXcXcXcXcXcXcX    w cXcXw nXw w w nXMXMXw MXw cX  w w nXw nXMXnXw w nXnXnXnXMXw   w w nXnXw ",
"                                                      e cXe e w MXnXw MXw MXMXMXw cX  MXnX0 MX0 nXnXnX0 0 nXnXnXnXe   w w nXnXMX",
"  w e w cXw w MXw MXw e w w MXMXw MXMXe w   w e MXcX  e e w e w MXMXnXw nXnXMXMXw cX  w w MXnX0 nXnX0 0 0 0 nX0 w cX  MXMXnXnXw ",
"  w w MXw w nXMXnX0 nXMX0 nXnXMXMXw w w cX  0 MXnXcX  w MXMXw w w nX0 MX0 nXMXMXw cX  w w nXw MXnXnXnX0 nXMXMXnXw cX  w w MXnXMX",
"  e cXw w e e w MXMXw w nXw w w w MXMXcXcX  nXw w cX  w w MXMXw e e w w w w w w e e   cXw nXnXMXnXnXnXnXnXMXw MXw cX  cXw 0 nXMX",
"  e e w MXw cXcXe w w MXw w w nXw nXw cXcX  nXnXw e   e cXe cXw e e w cXcXcXcXcXcXe   cXe MXw w w MXw w w w w nXMXcX  MXw MXw MX",
"  w MXnXnXMXw cXe nXMXnXnXnXnXw cXw w cXcX  w cXcXcX  cXcXe w w e cXcXcX        cXe   cXe w MXw w w cXw w nXnXnXe cX  e cXnXnXMX",
"  w w MXMXw MXcXcXe e MXw w e cXe e w cXcX                                            e e w nXw nXw w MXw MXw e cXcX  MXnX0 w w ",
"  cXe w e e w w w w w w w cXcXcXcXcXcXcXe   w w w MXMXnXMXw   MXMXMXw w MXw cXw w w   e w MXMXw w w w w e w cXcXcXcX  e w MXnXw ",
"  cXcXe e e cXcXw w w e w e e cXw cXcXcXe   MXnXnX0 nX0 nXw   nXnXnXnXMXnXMXnXw w w   w w w MXnXnXMXMXw w cXcXcXcXw   w w w w w ",
"  w w w MXw e cXw e w e e cXw w cXcXcXe e   w nXMXnXMXnXw w   MXw MXw w w e w cXw e   w MXw w w w w w e w MXw cXcXcX  cXw nXnXw ",
"  cXw e cXcXcXcXcXcXe cXcXcXcXcX  cXe cX    cXw e e w nXw cX  MXw w w w w w w w e cX  cXe cXcXcXcXcXcXe w w e cXcX    e w w w e ",
"  cXcXcXcXcXcXcXcXcXcXcXcX      cXe cX      cXcXcXcXw MXw e   cXcXcXcXcXcXcXcXe cXcX              cXcXcXcXcXcXcX        cX  cXcX",
"                                            w e w w MXw w e                                                                     ",
"e cXcXcXe e cX  w nXw MXMXMXMXw MXMXw e cX  e w MXMXw w MXcX  cXMXw w w e     e w e w w e cXe       cXcXcXcXw e cXcXe cXe w w w ",
"MXnXw nXMXw cX  MXnXw nXw w w MXnXw w w cX  w w MXMXMXcXcXcX  w nXnXnXMXcX  e nXnXnXMXw w cXe   cXcXw w e e w w w MXnXMXw MXw w ",
"MXnXw nXMXw     w w w cXe w cXe e cXe cXcX  w w w e w w w cX  w nXMXMXMXcX  w MXMXw w w w cXcX  cXw w MXw w e e w w w e w MXnXMX",
"MXMXnXMXMXw cX  w w e e w cXcXe w e e cXe   cXcXw w w w e cX  w MXnXnXnXcX  w w nXw w w cX  cX  cXcXe w w MXe e e e w w w w MXMX",
"nXMXMXMXnXMXcX  w e e cXcXcXe e e e cXcXcX  cXw w MXw cXcXcX  w MXMXnXw cX  e w nXw w w e   cX  cXw MXMXw MXw w MXw MXMXw MXnXMX",
"w e w e w w cX  cXcXcXcXcXcXe cXe e w cX    cXw w w w cXcXcX  e MXw MXw e   w MXw w cXe cX      cXw w w w MXw w MXMXMXnXw MXnXMX",
"nXnXw nXnXw cX                              e w e MXw cXcXcX  w MXw nXw cX  cXMXMXw e e cX  cX  cXe w e e w w w w MXMXw MXw w MX",
"w w nXw w e cX    cXcXe e w cXe cXe cXcXcX  w w e w e cXe cX  w MXMXnXw cX  e w e cXcXcXcXcXcX  cXcXw w e cXe e e cXcXw cXcXe w ",
"cXe w e cXcXcX  cXw w MXw MXw w w w e cXcX  w e w e cXcXe cX  w w w MXw cX  cXcXcXcXcXw w cXcX  cXcXcXe e cXw w MXw MXw w e e cX",
"e cXcXcXe e e   cXw w w w w w w MXe cXcXcX  cXcXcXcXe w w e   e e MXnXw cX  cXcXw w w w w cXcX  cXcXe e cXw nXnXw w w MXw w w w ",
"w w MXw w cXcX  e e e e e w e e w e cXcXcX  cXcXw w MXw e e   e w MXMXw cX  cXw w w MXw w cXcX  e w w w MXMXMXw MXMXnXMXw w MXMX",
"w w e w w cXcX  cXcXcXcXcXcXw e w e e cXcX  cXe nXMXnXw w cX  e w w MXw cX  w nXnXMXw MXw cXcX  cXw nXMXw w MXMXw w MXw e w w w ",
"w nXw nXw e e       cXcXcXe e cXe cXcX  cX  e w w w w w w cX  cXw w w cXcX  e w w w nXw cXcXcX  w w w w w w w w e w w w e w w w ",
"w MXw MXw e cX  cXcXcXe e cXcXcXe cXcXcXcX  w cXe w e e e cX  e w nXw e cX  w w e cXcXcXcXcXcX  cXe MXw e cXe e cXe w e cXcXe e ",
"cXe w e cXcXcX  cXcXe e e cXcXcXcXcXcXcXcX  cXcXcXcXcXcXcX    cXw w cXcXcX  cXcXcXcXcXcXcXcXcX  cXcXe e cXcXcXcXcXcXcXcXcXcXcXcX",
"cXcXcXcXcXe e   e cXcXcX      cXcXcXcXcX                        cXcXcXcXcX                      cX    cXcXcXcXcXcXcX  cXcXcXcXcX"
};
