/* XPM */
static char *Outdoor31668167184[] = {
/* columns rows colors chars-per-pixel */
"64 64 256 2 ",
"   c black",
".  c #0000A8",
"X  c #00A800",
"o  c #00A8A8",
"O  c #A80000",
"+  c #A800A8",
"@  c #A85400",
"#  c gray66",
"$  c gray33",
"%  c #5454FC",
"&  c #54FC54",
"*  c #54FCFC",
"=  c #FC5454",
"-  c #FC54FC",
";  c #FCFC54",
":  c gray99",
">  c #ECECEC",
",  c gainsboro",
"<  c #D0D0D0",
"1  c #C0C0C0",
"2  c #B4B4B4",
"3  c gray66",
"4  c #989898",
"5  c gray55",
"6  c #7C7C7C",
"7  c gray44",
"8  c #646464",
"9  c gray33",
"0  c #484848",
"q  c gray22",
"w  c #2C2C2C",
"e  c #202020",
"r  c #FC0000",
"t  c #EC0000",
"y  c #E00000",
"u  c #D40000",
"i  c #C80000",
"p  c #BC0000",
"a  c #B00000",
"s  c #A40000",
"d  c #980000",
"f  c #880000",
"g  c #7C0000",
"h  c #700000",
"j  c #640000",
"k  c #580000",
"l  c #4C0000",
"z  c #400000",
"x  c #FCD8D8",
"c  c #FCB8B8",
"v  c #FC9C9C",
"b  c #FC7C7C",
"n  c #FC5C5C",
"m  c #FC4040",
"M  c #FC2020",
"N  c #FC0000",
"B  c #FCA85C",
"V  c #FC9840",
"C  c #FC8820",
"Z  c #FC7800",
"A  c #E46C00",
"S  c #CC6000",
"D  c #B45400",
"F  c #9C4C00",
"G  c #FCFCD8",
"H  c #FCFCB8",
"J  c #FCFC9C",
"K  c #FCFC7C",
"L  c #FCF85C",
"P  c #FCF440",
"I  c #FCF420",
"U  c #FCF400",
"Y  c #E4D800",
"T  c #CCC400",
"R  c #B4AC00",
"E  c #9C9C00",
"W  c #848400",
"Q  c #706C00",
"!  c #585400",
"~  c #404000",
"^  c #D0FC5C",
"/  c #C4FC40",
"(  c #B4FC20",
")  c #A0FC00",
"_  c #90E400",
"`  c #80CC00",
"'  c #74B400",
"]  c #609C00",
"[  c #D8FCD8",
"{  c #BCFCB8",
"}  c #9CFC9C",
"|  c #80FC7C",
" . c #60FC5C",
".. c #40FC40",
"X. c #20FC20",
"o. c #00FC00",
"O. c #00FC00",
"+. c #00EC00",
"@. c #00E000",
"#. c #00D400",
"$. c #04C800",
"%. c #04BC00",
"&. c #04B000",
"*. c #04A400",
"=. c #049800",
"-. c #048800",
";. c #047C00",
":. c #047000",
">. c #046400",
",. c #045800",
"<. c #044C00",
"1. c #044000",
"2. c #D8FCFC",
"3. c #B8FCFC",
"4. c #9CFCFC",
"5. c #7CFCF8",
"6. c #5CFCFC",
"7. c #40FCFC",
"8. c #20FCFC",
"9. c #00FCFC",
"0. c #00E4E4",
"q. c #00CCCC",
"w. c #00B4B4",
"e. c #009C9C",
"r. c #008484",
"t. c #007070",
"y. c #005858",
"u. c #004040",
"i. c #5CBCFC",
"p. c #40B0FC",
"a. c #20A8FC",
"s. c #009CFC",
"d. c #008CE4",
"f. c #007CCC",
"g. c #006CB4",
"h. c #005C9C",
"j. c #D8D8FC",
"k. c #B8BCFC",
"l. c #9C9CFC",
"z. c #7C80FC",
"x. c #5C60FC",
"c. c #4040FC",
"v. c #2024FC",
"b. c #0004FC",
"n. c #0000FC",
"m. c #0000EC",
"M. c #0000E0",
"N. c #0000D4",
"B. c #0000C8",
"V. c #0000BC",
"C. c #0000B0",
"Z. c #0000A4",
"A. c #000098",
"S. c #000088",
"D. c #00007C",
"F. c #000070",
"G. c #000064",
"H. c #000058",
"J. c #00004C",
"K. c #000040",
"L. c #282828",
"P. c #FCE034",
"I. c #FCD424",
"U. c #FCCC18",
"Y. c #FCC008",
"T. c #FCB400",
"R. c #B420FC",
"E. c #A800FC",
"W. c #9800E4",
"Q. c #8000CC",
"!. c #7400B4",
"~. c #60009C",
"^. c #500084",
"/. c #440070",
"(. c #340058",
"). c #280040",
"_. c #FCD8FC",
"`. c #FCB8FC",
"'. c #FC9CFC",
"]. c #FC7CFC",
"[. c #FC5CFC",
"{. c #FC40FC",
"}. c #FC20FC",
"|. c #FC00FC",
" X c #E000E4",
".X c #C800CC",
"XX c #B400B4",
"oX c #9C009C",
"OX c #840084",
"+X c #6C0070",
"@X c #580058",
"#X c #400040",
"$X c #FCE8DC",
"%X c #FCE0D0",
"&X c #FCD8C4",
"*X c #FCD4BC",
"=X c #FCCCB0",
"-X c #FCC4A4",
";X c #FCBC9C",
":X c #FCB890",
">X c #FCB080",
",X c #FCA470",
"<X c #FC9C60",
"1X c #F0945C",
"2X c #E88C58",
"3X c #DC8854",
"4X c #D08050",
"5X c #C87C4C",
"6X c #BC7848",
"7X c #B47044",
"8X c #A86840",
"9X c #A0643C",
"0X c #9C6038",
"qX c #905C34",
"wX c #885830",
"eX c #80502C",
"rX c #744C28",
"tX c #6C4824",
"yX c #5C4020",
"uX c #543C1C",
"iX c #483818",
"pX c #403018",
"aX c #382C14",
"sX c #28200C",
"dX c #600064",
"fX c #006464",
"gX c #006060",
"hX c #00001C",
"jX c #00002C",
"kX c #302410",
"lX c #480048",
"zX c #500050",
"xX c #000034",
"cX c gray11",
"vX c #4C4C4C",
"bX c gray36",
"nX c gray25",
"mX c gray19",
"MX c #343434",
"NX c #D8F4F4",
"BX c #B8E8E8",
"VX c #9CDCDC",
"CX c #74C8C8",
"ZX c #48C0C0",
"AX c #20B4B4",
"SX c #20B0B0",
"DX c #00A4A4",
"FX c #009898",
"GX c #008C8C",
"HX c #008484",
"JX c #007C7C",
"KX c #007878",
"LX c #007474",
"PX c #007070",
"IX c #006C6C",
"UX c #980088",
/* pixels */
"                                                                                                                                ",
"                                                                                                                                ",
"                                                                                                                                ",
"                                                                                                                                ",
"                                                                                                                                ",
"                                                                                                                                ",
"                                                                                                                                ",
"                                                                                                                                ",
"                                                                                                                                ",
"                                                                                                                                ",
"                                                                                                                                ",
"                                                                                                                                ",
"                                                                                                                                ",
"                                                                                                                                ",
"                                                                                                                                ",
"                                                                                                                                ",
"                                                                                                                                ",
"                                                                    1.        1.            >.                                  ",
"          <.      1.,.                                      <.        <.      ,.<.>.1.  ,.,.,.,.<.                              ",
"      1.  <.  1.1.<.  1.  <.                        <.  1.  <.<.      ,.1.>.,.1.1.>.,.,.  ,.,.  >.<.                            ",
"      1.<.,.<.>.>.    ,.<.                        <.<.1.,.<.w <.<.<.  ,.1.>.,.>.>.>.  >.>.,.1.<.<.<.<.<.  1.                    ",
"  <.<.<.<.  >.>.<.,.<.1.  ,.                <.<.<.1.  ,.    ,.,.  <.>.>.,.>.>.,.e >.w 1.  <.  >.,.1.<.1.  <.                    ",
"    <.,.,.,.>.<.<.,.1.1.>.1.  1.1.1.    <.,.  <.e <.e ,.<.1.w <.1.e <.>.>.1.,.>.w ,.<.,.,.>.<.<.,.,.  <.1.                  1.  ",
"<.  >.<.>.<.,.<.<.<.<.>.1.,.>.1.1.<.>.>.1.1.1.,.<.e 1.<.<.,.<.<.<.1.e e >.<.>.w >.>.w >.<.<.w ,.,.1.<.e 1.<.1.  1.  ,.1.        ",
">.,.1.,.>.>.<.>.>.,.e e <.<.1.<.1.>.e 1.1.<.1.<.<.,.,.e ,.<.w w w w 1.1.,.1.<.<.,.e 1.>.w ,.L.,.<.<.<.<.<.cXcX1.  1.  1.  ,.  ,.",
"<.>.>.<.<.>.>.,.<.>.<.>.1.,.1.1.  1.1.e e 1.<.,.1.<.e 1.w ,.e e <.e e <.>.,.>.>.w <.<.1.>.1.1.,.w ,.e <.1.cX1.>.>.1.1.1.>.,.  1.",
">.1.>.>.1.1.,.1.>.,.,.1.e 1.1.1.1.1.w <.1.,.<.<.e <.<.,.e w 1.w <.,.,.<.<.1.w e >.e 1.1.e <.<.<.<.<.1.e e <.1.1.  e 1.,.  1.,.1.",
">.>.1.<.<.,.,.<.e ,.>.1.1.1.1.1.<.wXuXrXpXwXyXrXyXyXuXpXuXyXpXyXwXuXyXpXuXrXrXuXuXuXyXpXpXpXe e <.<.<.1.w 1.<.cXe 1.>.1.>.,.>.,.",
"w >.>.,.<.1.1.1.1.,.1.e e e <.1.1.wXrXyXpXrXcXcXyXuXuXpXuXyXuXyXrXpXrXyXpXyXrXcXcXpXyXpXpXpXe 1.e 1.1.w 1.<.1.1.e e L.cX,.1.,.,.",
"<.1.,.,.>.,.e ,.1.1.,.e 1.1.e <.1.wXrXrXuXcX5 cXuXuXuXpXcXcXcXcXcXcXcXuXpXyXrXcX6 cXuXuXpXpX  e w 1.1.1.e 1.e e cXe 1.,.w >.1.cX",
"<.,.,.<.1.1.,.,.1.1.e 1.1.1.e e e wXuXrXuXcXcX5 cXuXcXcX5 5 5 5 5 6 5 cXcXuXcX5 cXcXuXpXuXpXcXe <.w <.e e <.w e e >.w w >.>.<.1.",
",.<.1.>.1.,.1.1.1.1.1.,.<.,.w e w wXuXyXuXyXuXcX5 cX6 5 5 5 5 5 5 5 6 5 5 cX5 cXrXyXuXpXuXpXcXe e 1.1.e <.e w 1.e 1.,.<.,.,.,.,.",
"<.,.<.,.<.,.,.1.1.,.,.1.<.e <.1.e wXuXrXuXuXuXyXcX5 5 5 5 5 5 5 5 5 5 5 5 6 cXyXrXrXuXuXuXpXcXcX1.e w w e e e e e e >.1.1.,.<.1.",
"e ,.<.<.1.1.<.e e w 1.e <.1.<.w w 9XrXrXyXuXuXyXcX5 5 5 5 5 5 5 5 5 5 5 5 5 cXyXrXpXyXpXuXpXe w w w 1.1.w 1.e 1.e ,.,.,.>.1.,.>.",
",.,.<.1.1.e w 1.e w <.w w <.e 1.1.wXrXrXyXpXyXyXcX5 5 cX5 5 5 5 5 5 5 cX5 5 cXyXyXcXrXpXuXpXcXw w e 1.w w 1.e e 1.>.,.w <.<.<.,.",
",.<.<.,.<.,.e e w e <.<.1.w <.w 1.9XrXrXyXcXuXrXcX6 cX5 5 5 5 5 5 5 5 5 cX5 cXuXyXcXrXuXpXpX  w w <.e <.w w w e e <.1.,.,.<.<.<.",
"<.,.<.<.1.1.<.e e w e w w <.w e <.wXyXyXyXcXyXuXuXcX5 5 cXcXcX5 cXcXcX5 5 cXuXuXyXpXrXrXpXpX  cXw e 1.1.e e 1.e 1.,.w ,.w <.,.<.",
"<.,.w 1.,.w 1.e e e <.<.e e w <.1.wXuXrXyXpXrXyXuXcX5 cXcXcXcX5 cXcXcXcX5 cXuXuXyXuXrXrXpXpXcX1.1.<.1.e e e 1.e 1.<.<.1.1.1.1.,.",
"e <.<.<.1.,.1.e 1.e e <.e 1.<.1.w wXuXrXyXuXrXuXyXcX6 cXcXcXcX6 cXcXcXcX6 cXyXuXyXuXyXrXyXpX  e 1.1.1.e 1.1.1.1.e <.<.w <.e 1.<.",
"<.w <.1.w w w w 1.1.1.e e <.1.e e wXyXrXyXuXyXpXyXuXcX5 5 5 5 cX5 5 5 5 cXuXpXuXuXuXuXrXyXpX  e e w 1.  1.e   w cXw <.e 1.w w <.",
"w <.1.<.w 1.e <.e   e 1.e <.w e e 0XyXrXuXrXuXuXuXpXcX5 5 5 5 cX5 5 5 6 cXyXyXyXpXyXuXyXuXpX  e w e   1.1.1.w e w 1.1.<.<.e <.w ",
"1.<.<.w w cX1.w 1.w e e 1.e 1.e w 9XyXyXuXuXrXuXuXrXcXcX5 6 5 5 5 5 5 cXcXrXyXuXcXyXuXuXyXpXcXL.1.cXL.<.<.1.1.1.cXcXe w e w w w ",
"1.<.cX1.w e 1.1.1.1.e 1.w e w w w 9XrXrXuXyXrXuXpXyXcX5 cXcXcXcXcXcXcX6 cXyXyXuXcXyXuXuXyXpXcXw w 1.<.1.w e e w e w w <.1.w w 1.",
"<.cX1.e 1.w 1.1.w w e e e 1.e e w 0XuXyXuXuXyXpXuXcX6 cX6 cXcXcXcXcX6 cX5 cXyXrXpXyXpXuXyXpXcXe e e e <.w w <.e e e e 1.w e 1.w ",
"w e <.1.1.1.w e 1.1.e e e w 1.w e 9XyXuXuXuXyXuXcX6 cXpXcX5 5 5 5 6 cXpXcX6 cXrXrXuXuXuXrXpXcXL.w w <.e 1.1.w e e e w w 1.w w e ",
"w 1.w w 1.w 1.w e 1.w w e 1.w e e wXyXuXyXuXrXcX5 cXpXuXyXcXcXcXcXcXpXuXuXcX5 cXyXuXpXuXyXpX  cXw <.1.1.,.1.e 1.e 1.w e w w w w ",
"e w <.w 1.w e w w w w 1.e 1.e w e 9XuXuXyXcXcX5 cXuXpXyXyXpXyXrXyXuXuXuXuXrXcX5 cXcXpXuXyXpXe w <.1.1.<.,.1.,.w 1.w e e e 1.e 1.",
"w 1.e <.w 1.w e 1.1.e e e e e e e wXuXuXyXcX5 cXuXuXpXpXrXpXyXrXyXuXuXpXyXrXuXcX6 cXuXpXyXpX  1.w 1.>.1.,.,.w <.w 1.e 1.e 1.1.e ",
"w 1.1.1.1.e 1.e 1.w w 1.e e e w e wXuXpXrXuXcXcXuXuXpXuXyXuXpXrXpXrXyXpXyXrXyXcXcXyXpXpXyXpXe w w >.1.,.<.e w e <.1.e w 1.e 1.w ",
"1.1.w 1.1.e w e w e w e w e w w w wXuXpXwXyXrXyXyXuXpXuXyXpXcXwXuXyXpXuXrXrXuXuXuXyXpXpXuXpXe w >.,.<.,.,.,.,.e 1.e e 1.1.w 1.w ",
"1.1.1.1.1.w e e w e w e e e w <.1.wXuXrX5 5 pX5 5 5 yX5 5 5 cXuX5 6 pX6 uX5 yX5 6 uXyX5 yXpX  w e <.w ,.>.1.<.<.<.e 1.1.1.w 1.1.",
"1.1.e w 1.e 1.e w e w e e e w <.,.wXuX5 pXrXpX5 pXuXyX5 uXyXpX5 rX5 pX5 yX5 yX5 yX5 uX5 pXpXe w e <.,.<.,.1.,.e ,.1.1.1.e e 1.1.",
"1.e 1.w e 1.e 1.w e 1.w w 1.e e >.wXpX5 uXwXpX5 5 uXyX5 5 yXyX5 5 5 uX5 5 6 yX5 5 yXyX6 pXpX  e <.w <.<.>.,.<.<.<.1.1.1.e e 1.w ",
"1.1.1.e 1.1.1.w 1.e w w w 1.,.1.>.wXyX6 uX5 pX5 uXuXuX5 yXrXuX5 rX5 uX5 uX6 uX5 uX5 yXpXpXpX  e w >.,.>.<.,.w e 1.1.e 1.1.e e 1.",
"e e e e 1.1.e e 1.w w w e 1.1.>.w wXyXrX6 6 uX5 5 5 uX5 uXrXuX5 rX5 uX5 uX6 rX6 yX6 yX6 pXpX  e w >.<.<.<.1.w w w <.1.e 1.1.e w ",
"1.e 1.e 1.1.w w e 1.w e 1.e w e 1.wXyXrXuXuXrXrXrXuXpXuXrXyXyXuXyXuXyXrXrXpXyXuXpXuXyXrXpXpXe e 1.w <.e w <.w <.e e 1.1.1.e e e ",
"e w 1.e 1.1.e e e e w cXe w <.1.,.<.1.    e e q mXmXmXcX                q mXmXmXcXe e e e e cX<.<.w 1.e cXcX1.e w 1.e 1.e cX1.cX",
"e e e 1.e e w cXw w e w ,.1.1.w ,.L.1.1.<.cXe vXnXq 0 cXe e e e e e cXcXvX0 q q cXe w e w w 1.w e 1.w 1.<.<.cX1.cXe 1.1.1.1.e 1.",
"w e e e 1.w e cXe e e cXe <.e ,.,.1.,.>.,.<.<.vX0 bXnXcXcXe e 1.e <.w e vXnXbXq cXcXcXcXw ,.>.w cXe <.<.1.e e 1.e 1.  e 1.1.  cX",
"1.e e e w e e e e w w e cX1.,.1.w 1.<.<.1.e <.vXnXnXnXcXe w <.e e e e <.vXnXnXnXcXcXw cXw ,.cXw w <.<.<.1.1.e w e 1.1.1.1.e e e ",
"e e e w e e w e e e e 1.e 1.e <.w e w <.w <.<.vXnXq q cXe e e w <.e <.w vXq q q cXcXcX<.>.<.<.<.<.e w <.w e 1.  1.1.e 1.e 1.1.e ",
"e e w w   e e e e e w 1.1.<.<.,.1.,.<.1.1.<.  vXq q q cXe e e   e   e   vXq q q cXe w <.w 1.1.<.cX<.<.<.cXcXcXcXcXe e e L.w e 1.",
"w e e     e     e     w <.  <.w <.  1.        vXq q q cX                vXq q q cX            <.e e e <.w <.1.w 1.e     w   w L.",
"cXcX  cX  cX        cXcX  1.  1.              vXq nXnXcX                bXnXnXnXcX          cX        <.cXcXcXcXcX            cX"
};
