/* XPM */
static char *Red81668167184[] = {
/* columns rows colors chars-per-pixel */
"64 64 256 2 ",
"   c black",
".  c #0000A8",
"X  c #00A800",
"o  c #00A8A8",
"O  c #A80000",
"+  c #A800A8",
"@  c #A85400",
"#  c gray66",
"$  c gray33",
"%  c #5454FC",
"&  c #54FC54",
"*  c #54FCFC",
"=  c #FC5454",
"-  c #FC54FC",
";  c #FCFC54",
":  c gray99",
">  c #ECECEC",
",  c gainsboro",
"<  c #D0D0D0",
"1  c #C0C0C0",
"2  c #B4B4B4",
"3  c gray66",
"4  c #989898",
"5  c gray55",
"6  c #7C7C7C",
"7  c gray44",
"8  c #646464",
"9  c gray33",
"0  c #484848",
"q  c gray22",
"w  c #2C2C2C",
"e  c #202020",
"r  c #FC0000",
"t  c #EC0000",
"y  c #E00000",
"u  c #D40000",
"i  c #C80000",
"p  c #BC0000",
"a  c #B00000",
"s  c #A40000",
"d  c #980000",
"f  c #880000",
"g  c #7C0000",
"h  c #700000",
"j  c #640000",
"k  c #580000",
"l  c #4C0000",
"z  c #400000",
"x  c #FCD8D8",
"c  c #FCB8B8",
"v  c #FC9C9C",
"b  c #FC7C7C",
"n  c #FC5C5C",
"m  c #FC4040",
"M  c #FC2020",
"N  c #FC0000",
"B  c #FCA85C",
"V  c #FC9840",
"C  c #FC8820",
"Z  c #FC7800",
"A  c #E46C00",
"S  c #CC6000",
"D  c #B45400",
"F  c #9C4C00",
"G  c #FCFCD8",
"H  c #FCFCB8",
"J  c #FCFC9C",
"K  c #FCFC7C",
"L  c #FCF85C",
"P  c #FCF440",
"I  c #FCF420",
"U  c #FCF400",
"Y  c #E4D800",
"T  c #CCC400",
"R  c #B4AC00",
"E  c #9C9C00",
"W  c #848400",
"Q  c #706C00",
"!  c #585400",
"~  c #404000",
"^  c #D0FC5C",
"/  c #C4FC40",
"(  c #B4FC20",
")  c #A0FC00",
"_  c #90E400",
"`  c #80CC00",
"'  c #74B400",
"]  c #609C00",
"[  c #D8FCD8",
"{  c #BCFCB8",
"}  c #9CFC9C",
"|  c #80FC7C",
" . c #60FC5C",
".. c #40FC40",
"X. c #20FC20",
"o. c #00FC00",
"O. c #00FC00",
"+. c #00EC00",
"@. c #00E000",
"#. c #00D400",
"$. c #04C800",
"%. c #04BC00",
"&. c #04B000",
"*. c #04A400",
"=. c #049800",
"-. c #048800",
";. c #047C00",
":. c #047000",
">. c #046400",
",. c #045800",
"<. c #044C00",
"1. c #044000",
"2. c #D8FCFC",
"3. c #B8FCFC",
"4. c #9CFCFC",
"5. c #7CFCF8",
"6. c #5CFCFC",
"7. c #40FCFC",
"8. c #20FCFC",
"9. c #00FCFC",
"0. c #00E4E4",
"q. c #00CCCC",
"w. c #00B4B4",
"e. c #009C9C",
"r. c #008484",
"t. c #007070",
"y. c #005858",
"u. c #004040",
"i. c #5CBCFC",
"p. c #40B0FC",
"a. c #20A8FC",
"s. c #009CFC",
"d. c #008CE4",
"f. c #007CCC",
"g. c #006CB4",
"h. c #005C9C",
"j. c #D8D8FC",
"k. c #B8BCFC",
"l. c #9C9CFC",
"z. c #7C80FC",
"x. c #5C60FC",
"c. c #4040FC",
"v. c #2024FC",
"b. c #0004FC",
"n. c #0000FC",
"m. c #0000EC",
"M. c #0000E0",
"N. c #0000D4",
"B. c #0000C8",
"V. c #0000BC",
"C. c #0000B0",
"Z. c #0000A4",
"A. c #000098",
"S. c #000088",
"D. c #00007C",
"F. c #000070",
"G. c #000064",
"H. c #000058",
"J. c #00004C",
"K. c #000040",
"L. c #282828",
"P. c #FCE034",
"I. c #FCD424",
"U. c #FCCC18",
"Y. c #FCC008",
"T. c #FCB400",
"R. c #B420FC",
"E. c #A800FC",
"W. c #9800E4",
"Q. c #8000CC",
"!. c #7400B4",
"~. c #60009C",
"^. c #500084",
"/. c #440070",
"(. c #340058",
"). c #280040",
"_. c #FCD8FC",
"`. c #FCB8FC",
"'. c #FC9CFC",
"]. c #FC7CFC",
"[. c #FC5CFC",
"{. c #FC40FC",
"}. c #FC20FC",
"|. c #FC00FC",
" X c #E000E4",
".X c #C800CC",
"XX c #B400B4",
"oX c #9C009C",
"OX c #840084",
"+X c #6C0070",
"@X c #580058",
"#X c #400040",
"$X c #FCE8DC",
"%X c #FCE0D0",
"&X c #FCD8C4",
"*X c #FCD4BC",
"=X c #FCCCB0",
"-X c #FCC4A4",
";X c #FCBC9C",
":X c #FCB890",
">X c #FCB080",
",X c #FCA470",
"<X c #FC9C60",
"1X c #F0945C",
"2X c #E88C58",
"3X c #DC8854",
"4X c #D08050",
"5X c #C87C4C",
"6X c #BC7848",
"7X c #B47044",
"8X c #A86840",
"9X c #A0643C",
"0X c #9C6038",
"qX c #905C34",
"wX c #885830",
"eX c #80502C",
"rX c #744C28",
"tX c #6C4824",
"yX c #5C4020",
"uX c #543C1C",
"iX c #483818",
"pX c #403018",
"aX c #382C14",
"sX c #28200C",
"dX c #600064",
"fX c #006464",
"gX c #006060",
"hX c #00001C",
"jX c #00002C",
"kX c #302410",
"lX c #480048",
"zX c #500050",
"xX c #000034",
"cX c gray11",
"vX c #4C4C4C",
"bX c gray36",
"nX c gray25",
"mX c gray19",
"MX c #343434",
"NX c #D8F4F4",
"BX c #B8E8E8",
"VX c #9CDCDC",
"CX c #74C8C8",
"ZX c #48C0C0",
"AX c #20B4B4",
"SX c #20B0B0",
"DX c #00A4A4",
"FX c #009898",
"GX c #008C8C",
"HX c #008484",
"JX c #007C7C",
"KX c #007878",
"LX c #007474",
"PX c #007070",
"IX c #006C6C",
"UX c #980088",
/* pixels */
"k k k k k k k k k k k k l l k j j j j h j j j j k j k j k l h h h h h h h h h h j h h l l l l l k l l l l z l l l l z z l j j h ",
"k k k k k k k k k k k l l z j g h j j h j j j j k j k j k k k h h h h h h h h h j h h j k l l l k l l l l z l z l l z z l j j h ",
"k k k k k k k k k k k l z z j h g h j h j j j j k j k j k k k j h h h g g h j h j h h j j l l l k l l l l z l z l l z z l j j h ",
"k k k k j k k l k k k l z z j h g h j h j j j j k j k j k k k j j h h g g j j j j h h j j k l l k l l l l z z z l l z z l j j h ",
"k k k k j k k l k k k l z z k j g h j h j j j j k j k j k k j j h h g g h k k j j h h j j j l l k l l l l z z l l l z z l j j h ",
"k k k k j k k l k k k l z z l j g g h h j j j j k j k j k j j h h h g g j k l k j h h j j j k l k l l l l z z l l l z z l j h h ",
"k k k k j k k k k k k l z l z j g g h h j j j j k k k j k j h h h g g h j k k l j j h j j h j l k l l l l z z l l l z z l j h h ",
"h k k k j k k l k k l l z l z j g g h h j j j j k k k k k j h h h j j j k k k l l j j j j h j k k l l l l z z l l z z z k j h h ",
"h j k k j j k k k k l l z l z j g h g h j j j j k k k j k h h h g g j j k k k l l k j j j h j j k l l l l z z l l z z l j h h h ",
"h j k k j j j k k l l l z l z j g h g h j j j j k k j j k h h h g g j k k k k l l k k j j h j j k l l l l z z l l z l k j h h h ",
"h j k k j j j k k l l l z k z k g h g h h j j k k j j j j h h j j h j k l k k l l k k k j h j j j l l l l z l l l z l k j j h h ",
"h j j k j k j k k l l l z k l k g h g g h j j k k j h j j h h g j j k k k k k l l k k l k j j j j k l l l z l l z z k k g g h h ",
"h h j k j k j k k l k l z k l l g h g g h j j k j j h j j h g d h j k k k k k l z k k l k j j j h j l l l z l z l l k j g j h h ",
"h h j j j k j k k l k l z k l l g h g g h j k j j j j j j h d g j j k k l k k l z k k l l l j j h j k l l z l z l j k g j k k h ",
"h h j j j k j k k l k l z k l l j h g g h j j j j j k k j g d j k j k k l k k l z k k l l l l j h h j l l z l l j j k g j k k h ",
"k h h j j k j k k l k l z k l l j h g g j j j h j j l l j g d j k j k k l k k l z k k l z z l l j h j k l z l l j j g h k k k k ",
"k j h j j k j k k l k l z k k l j j g g j j h h j k l l j g d j k j k k k k k l z k l l z z l l j h j j l l l l j h g h k k k l ",
"k j h j j k j k k l k l z k k l k j h g h h h j k l l l j g d j k j k k k k k l z k l l z z l j j h j j k l k l j g j h k k k k ",
"k j j h j k j k k l k l z k k l l j h g h h j k l l l l j g d j k j k k l k k l z k l l z z l j h h j h k l k l h g j h k k k k ",
"k k j h j j j k k l k l z k k l l j h g h j k l l l l l j g d j k j k k l k k l z k l z z l l j h h j h j k k l g j k h k k k k ",
"k k j j j j j j k l k l z k l z k j h g j k l l l l l l j g d j k j k k l k l l z l l z z l j h g h j j j j k k g j k j k k k k ",
"k k k j j j j j k l k l z l z l j h h j k l l l l l l z j g f j k j k k l k l l z l l z z l j g f h j j j j j k j k k j k k k k ",
"k k k j j j j j k l k l z z l j h h j k l l l z l l l z j g f j k j k k l k l k z l l z l l h f f h j k h h j k k k k j j k k k ",
"k k k k j j j k k l k z z l j h h j k l l l l z l z l z j g f j k j k k l k l k z l z z l k g f g j j j k h h k k k k j j k k k ",
"k k l k j j j j k l l z k j h h j k l l l l l z l l l z j g f j k j k k l k l k z l z z l k g f g j j j k j h k j k k j j j k k ",
"k k l k j j j j k l z k j h h j l l l l l l z z l z l z j g f j k j k k l k l k z l z l l j g f g j j j j k j j j k k j j j k k ",
"k k k k k j j j k l k j h h h k l l l l l l z z z z l z j g f j k j k k l k l k z l z l j j f f h j j j j j k j j k k j j j k k ",
"k k k k k l j j k k j j h g g j k l l l l z z z l z l z j g f j k j k k l l l k z z z l j j f g j j j j j k k k j k k j k j j k ",
"k k l k k l j j j j j h h g d f j j k l l z l l l z z z j g f j k j k k l l l l z z l l j j f g j j j j j k j k k j k j k j j k ",
"k k l k k l j j j j h h h g d h f h j k l l l l l z z z j g f j k j k k l l l l z z l j h g f g j j j j j k j k l j k j k k j k ",
"k k l k k l k j h h h h g d f j h f h j k l l z l z l z j g g j k j k k l l l l z z l j h f f h j j j j k k j k l j k j k k j k ",
"k k l k k l k l j h h g g d g k k h f h j j l l z z l z j g g j k j k k l l l l z l l j g f g j j j j k j k j k l j k j k k j k ",
"k k l k k l k l j h h h f d h k k h h f j j l k l z l z j g g j k j k k l k l l z l j j g f g j j j j k j k l l j j k j k k j k ",
"k k l k k l k l j h h h d f h k k h k f g j l j l z z z j g g j k j k k l k l l z l j h g f g j j j k j l l j j h j j j k k j k ",
"k k l k k l k l j j h g d g k k k h k f k g l j l j l z j g g j k j k k l k l l l l j h f f h j j j l l j j h h h j j j k k j k ",
"k k l k k l l l k j h g f h k k k h k f k h g j l j j k j g g j k j k k l k l z l k j g f g j j j l j j h j g h h h j j k k j k ",
"k k l k k l z l k j h h g j k k k h k g k k h j k j j j j g g j k j k k l l l z l k j g f h j k k h h g g g h j k j j j k k j k ",
"k k l k k l z l k k k h k k k k k h k g k k k h k j h h h g g j k j k k l l l l l j j g g h k h g g g g h j k l l j j j k k j k ",
"k k l k l l z l k k k j l k k k k h k g k k k k l g h h h g g j k k k k l l l l k j j h g h h h g h h j k k l l l j h j k k j k ",
"k k l k l l z l k k k j l k k k k h k g k k k k l h g h h g g j k k k k l l z l j h j h g h h h j j k k l l l l l j h j j k j k ",
"k k l l l k z l k k k j k l k k k h k h k k k k l k j h h g g j k k k l l l l l j h j h g h j j k k l l l l l l l j j j j k j k ",
"k k l l l k z l k k l k j l k k k h k h k k k k l k k l j g g j k k k l l l l l j h j h g k k j l k l l l l l l l l j j j k j k ",
"k k l z l k z l k l l k j k l k k h k h k k k k l k k l j g g j k k k l l z l l j g j j k l k j l k l z l l l l l l j h j k j k ",
"k k l z l k z l l z l j h h l k k h k h k k k k l k k l k g g j k k k l l z l l j g j k l l k j l k l z l l l l l l j h g j j k ",
"k k l z l k z l z l j g g h j l k h k j k k k k l k k l k h g j k k k l l l j l j g j k l l k j l k l z l l l z l z j h g j j k ",
"k k l z l k z z l j g g j k k l k h k j k k k k z k k l k h g j k k k l z l j l j g j l l l k k l l l z l l l l l z j h g j j k ",
"k k l z l z l l j g g h k l k l k h k j k l k k z k k l k h g j k k k l z l j l j g j l l l k k l l l z l l l z l z j h g j j k ",
"k k l z z l k j g g h k k l k k l h k j k l k k z k k l k h g j k k k z l j j l j h k l l l k k l k l z l l l z l z j h g j j k ",
"k k z z l j h d g h k k k l l k l j k j k l k l z k k l k h h j k k l z l j h l j j k l l l k k l l l z l l l z l z j h g j j k ",
"k z l l j g f f d k k k k l l j k l k j k l k l z k k l k j g k k k l l l j h l j j l l l l k l l l l z l l z z z z j h g j j k ",
"z z l j g g h h f k k k k z l k k l k j k l l z z l k l k l g k k k l z j j h k j j l l l l k l l l l z l l z z z z j h g h j k ",
"z l j g g h j j h k k k l z l k j l k j k l z l z l k l k l g k l k l l j j h k j k l l l l k l l l l z l l z z z z j j g h j l ",
"l j h g h k j j h k k k l z l l j k l k k l l l z l l l k l g k l l l l j j h k j k l l l l k l z l l z l z z z l z l j g h h k ",
"l h g g j k j j j k k l l z l l j k l k k l l k z l k l l l g j l l l j j j h k j l l l l l k l z l l z z z l z l z l j g h h j ",
"k g g h k k j j j k k l l z k l j j k l k l l k z l k l l l g j l l l j j j h k j l l l l l k l z l l z z z z z l z l j g h h j ",
"k g g j k k j k j k k l l z k l k j k l k l k k z l k l l l j j l l l j j j h j k l l l l l l l z l l z z l z z z z l j g h h j ",
"k g g j j k j k j k l l k z k l l j k l k l k k z l k k l z k j j l j j j j h j k l l l l l l l z l z z z z z z z z l j g h h h ",
"j g h j j j j k j k l l k z k k l j k l k l k k z l k k l z l j j j j h j j h j l l l l l l z z z z z z z z l l l l k j g h h h ",
"j g j k j j j k j k l k k z k k l k j l k l k k z l k k l z l j j j j h j j j k l z z z z z l l l l l l l l k l k j j j g h h h ",
"j g j k k j j k k k l k k l k k l l j l j l k k z l k k l z l j h h j h j j j k l l l l k j j j j j k l k j k l k j j j j h h h ",
"j g j k k k j k j k l k k l k k l l j l j l k k z l k k l z l j h h j h j j j j j j j j j j j j h h j l j h j l j k k k j j j h ",
"j h k k k k j k j k l k k l k k k l j k j l k k z l k k l z l j j h j h j j h h h j j j k k k j j h j k j j j k k k k k k j j h ",
"j j k k k k j k k k l k k l k k k l k k j l k k z l k k l z l l j h j h j j h j j j k k k k k k j j j k j k k k k k k k k k j h ",
"k k k k k k j k k k l k k l k k k k k l j l k l z l l l l z l l k j j j j j j l k k k k k k k k k k k k k k k k k k k k k k k #X"
};
