/* XPM */
static char *Sp21668167184[] = {
/* columns rows colors chars-per-pixel */
"64 64 256 2 ",
"   c black",
".  c #0000A8",
"X  c #00A800",
"o  c #00A8A8",
"O  c #A80000",
"+  c #A800A8",
"@  c #A85400",
"#  c gray66",
"$  c gray33",
"%  c #5454FC",
"&  c #54FC54",
"*  c #54FCFC",
"=  c #FC5454",
"-  c #FC54FC",
";  c #FCFC54",
":  c gray99",
">  c #ECECEC",
",  c gainsboro",
"<  c #D0D0D0",
"1  c #C0C0C0",
"2  c #B4B4B4",
"3  c gray66",
"4  c #989898",
"5  c gray55",
"6  c #7C7C7C",
"7  c gray44",
"8  c #646464",
"9  c gray33",
"0  c #484848",
"q  c gray22",
"w  c #2C2C2C",
"e  c #202020",
"r  c #FC0000",
"t  c #EC0000",
"y  c #E00000",
"u  c #D40000",
"i  c #C80000",
"p  c #BC0000",
"a  c #B00000",
"s  c #A40000",
"d  c #980000",
"f  c #880000",
"g  c #7C0000",
"h  c #700000",
"j  c #640000",
"k  c #580000",
"l  c #4C0000",
"z  c #400000",
"x  c #FCD8D8",
"c  c #FCB8B8",
"v  c #FC9C9C",
"b  c #FC7C7C",
"n  c #FC5C5C",
"m  c #FC4040",
"M  c #FC2020",
"N  c #FC0000",
"B  c #FCA85C",
"V  c #FC9840",
"C  c #FC8820",
"Z  c #FC7800",
"A  c #E46C00",
"S  c #CC6000",
"D  c #B45400",
"F  c #9C4C00",
"G  c #FCFCD8",
"H  c #FCFCB8",
"J  c #FCFC9C",
"K  c #FCFC7C",
"L  c #FCF85C",
"P  c #FCF440",
"I  c #FCF420",
"U  c #FCF400",
"Y  c #E4D800",
"T  c #CCC400",
"R  c #B4AC00",
"E  c #9C9C00",
"W  c #848400",
"Q  c #706C00",
"!  c #585400",
"~  c #404000",
"^  c #D0FC5C",
"/  c #C4FC40",
"(  c #B4FC20",
")  c #A0FC00",
"_  c #90E400",
"`  c #80CC00",
"'  c #74B400",
"]  c #609C00",
"[  c #D8FCD8",
"{  c #BCFCB8",
"}  c #9CFC9C",
"|  c #80FC7C",
" . c #60FC5C",
".. c #40FC40",
"X. c #20FC20",
"o. c #00FC00",
"O. c #00FC00",
"+. c #00EC00",
"@. c #00E000",
"#. c #00D400",
"$. c #04C800",
"%. c #04BC00",
"&. c #04B000",
"*. c #04A400",
"=. c #049800",
"-. c #048800",
";. c #047C00",
":. c #047000",
">. c #046400",
",. c #045800",
"<. c #044C00",
"1. c #044000",
"2. c #D8FCFC",
"3. c #B8FCFC",
"4. c #9CFCFC",
"5. c #7CFCF8",
"6. c #5CFCFC",
"7. c #40FCFC",
"8. c #20FCFC",
"9. c #00FCFC",
"0. c #00E4E4",
"q. c #00CCCC",
"w. c #00B4B4",
"e. c #009C9C",
"r. c #008484",
"t. c #007070",
"y. c #005858",
"u. c #004040",
"i. c #5CBCFC",
"p. c #40B0FC",
"a. c #20A8FC",
"s. c #009CFC",
"d. c #008CE4",
"f. c #007CCC",
"g. c #006CB4",
"h. c #005C9C",
"j. c #D8D8FC",
"k. c #B8BCFC",
"l. c #9C9CFC",
"z. c #7C80FC",
"x. c #5C60FC",
"c. c #4040FC",
"v. c #2024FC",
"b. c #0004FC",
"n. c #0000FC",
"m. c #0000EC",
"M. c #0000E0",
"N. c #0000D4",
"B. c #0000C8",
"V. c #0000BC",
"C. c #0000B0",
"Z. c #0000A4",
"A. c #000098",
"S. c #000088",
"D. c #00007C",
"F. c #000070",
"G. c #000064",
"H. c #000058",
"J. c #00004C",
"K. c #000040",
"L. c #282828",
"P. c #FCE034",
"I. c #FCD424",
"U. c #FCCC18",
"Y. c #FCC008",
"T. c #FCB400",
"R. c #B420FC",
"E. c #A800FC",
"W. c #9800E4",
"Q. c #8000CC",
"!. c #7400B4",
"~. c #60009C",
"^. c #500084",
"/. c #440070",
"(. c #340058",
"). c #280040",
"_. c #FCD8FC",
"`. c #FCB8FC",
"'. c #FC9CFC",
"]. c #FC7CFC",
"[. c #FC5CFC",
"{. c #FC40FC",
"}. c #FC20FC",
"|. c #FC00FC",
" X c #E000E4",
".X c #C800CC",
"XX c #B400B4",
"oX c #9C009C",
"OX c #840084",
"+X c #6C0070",
"@X c #580058",
"#X c #400040",
"$X c #FCE8DC",
"%X c #FCE0D0",
"&X c #FCD8C4",
"*X c #FCD4BC",
"=X c #FCCCB0",
"-X c #FCC4A4",
";X c #FCBC9C",
":X c #FCB890",
">X c #FCB080",
",X c #FCA470",
"<X c #FC9C60",
"1X c #F0945C",
"2X c #E88C58",
"3X c #DC8854",
"4X c #D08050",
"5X c #C87C4C",
"6X c #BC7848",
"7X c #B47044",
"8X c #A86840",
"9X c #A0643C",
"0X c #9C6038",
"qX c #905C34",
"wX c #885830",
"eX c #80502C",
"rX c #744C28",
"tX c #6C4824",
"yX c #5C4020",
"uX c #543C1C",
"iX c #483818",
"pX c #403018",
"aX c #382C14",
"sX c #28200C",
"dX c #600064",
"fX c #006464",
"gX c #006060",
"hX c #00001C",
"jX c #00002C",
"kX c #302410",
"lX c #480048",
"zX c #500050",
"xX c #000034",
"cX c gray11",
"vX c #4C4C4C",
"bX c gray36",
"nX c gray25",
"mX c gray19",
"MX c #343434",
"NX c #D8F4F4",
"BX c #B8E8E8",
"VX c #9CDCDC",
"CX c #74C8C8",
"ZX c #48C0C0",
"AX c #20B4B4",
"SX c #20B0B0",
"DX c #00A4A4",
"FX c #009898",
"GX c #008C8C",
"HX c #008484",
"JX c #007C7C",
"KX c #007878",
"LX c #007474",
"PX c #007070",
"IX c #006C6C",
"UX c #980088",
/* pixels */
"L.L.L.L.L.L.L.L.L.L.L.L.L.L.L.L.L.L.L.L.L.L.L.L.L.L.L.L.L.L.L.L.L.L.L.L.L.L.L.L.L.L.L.L.L.L.L.L.L.L.L.L.L.L.L.L.L.L.L.L.L.L.L.L.",
"L.L.L.L.L.L.L.L.L.L.e H.G.G.G.G.G.G.G.G.G.G.G.G.G.G.J.    xXH.G.H.H.H.H.H.H.H.H.J.xXL.  e e e e e e e e e e L.L.L.L.L.L.L.L.L.L.",
"e e e e e e e e   L.e G.D.F.D.D.F.F.F.F.F.D.D.D.F.G.K.    K.G.G.G.H.H.J.J.H.H.H.J.jX      jXJ.J.J.J.J.J.J.K.xXe e e e e e e e e ",
"J.J.J.J.J.K.xXjX  L.e G.F.F.F.F.F.G.F.F.F.F.F.F.G.J.jX    J.G.G.H.J.J.H.H.J.J.J.J.jX      K.G.F.F.F.F.F.G.G.H.J.J.J.J.J.J.J.J.J.",
"G.G.G.G.G.J.K.jX  L.e G.F.G.G.G.G.G.G.G.G.G.G.G.G.K.jX    K.G.G.H.J.H.G.H.H.J.J.K.jX      K.F.D.D.F.F.F.F.F.F.G.G.G.G.G.G.G.G.G.",
"H.G.G.G.G.J.K.jX  e e G.F.G.G.G.G.G.G.H.H.H.J.H.H.K.jX    jXJ.J.H.H.J.H.H.J.H.J.jXhX      K.F.F.G.G.G.H.G.G.G.H.H.G.H.H.H.G.G.G.",
"G.G.F.G.G.J.K.jX  e e G.F.G.H.H.H.G.H.J.J.J.J.H.H.K.jX    e xXJ.J.H.J.J.J.J.H.J.jX        K.G.F.H.H.J.J.J.J.J.J.J.H.H.J.H.G.G.G.",
"G.G.G.G.H.J.xXhX    e G.F.H.J.J.H.G.H.J.J.J.J.H.J.K.jX    e jXxXJ.J.J.K.K.J.J.xXhX        K.G.F.G.J.J.J.J.J.J.J.H.G.H.H.J.G.G.G.",
"H.G.G.H.H.J.xXhX    e G.F.G.H.H.J.H.J.J.J.J.J.J.J.K.jX    e hXjXjXjXhXhXhX                xXG.F.H.J.J.J.J.J.J.H.H.H.J.J.J.H.G.H.",
"H.G.H.J.J.J.xXhX    e H.F.G.G.H.J.J.J.J.J.J.J.J.J.K.jX      e                         e hXjXG.G.H.J.J.J.J.J.J.H.J.J.J.J.J.J.J.J.",
"J.J.J.J.J.K.jXhX    e J.G.G.H.J.J.K.J.J.J.J.J.J.J.J.jX      e                         e hXjXG.G.J.J.J.J.J.K.J.J.K.K.J.J.J.J.J.K.",
"J.J.J.J.K.jXhXhX    e J.G.G.J.J.J.K.J.J.H.J.J.J.J.J.jX      e e e e xXK.J.J.J.J.J.xXjX  hXjXJ.J.J.K.K.xXxXjXjXjXjXjXxXxXxXxXxXxX",
"jXjXxXxXjXhX        L.e G.G.H.J.J.J.J.J.J.J.J.J.J.J.jX      e K.J.G.G.G.G.G.G.G.H.K.jX  hXhXjXxXjXjXjXjXhXhXjXjXjXjXjXjXjXjXjXjX",
"hXhXhXhXhX          L.e H.G.G.H.J.J.J.J.J.J.J.J.J.K.jX        J.F.F.F.G.G.G.H.H.J.xXhX            hXhXhXhXhXhXhXhXhXhXhXhXhXhXhX",
"                    L.e J.G.G.H.H.J.J.J.J.J.J.H.J.xXjX      e H.D.F.G.H.J.J.J.J.J.jX                                            ",
"                    L.e J.G.G.H.H.J.J.J.J.J.J.H.J.xXjXhX    e H.D.G.G.H.H.J.H.J.J.jX      hXhXjXhXhX  e e e e e e e e e e e e e ",
"J.J.J.J.J.J.J.K.jX    L.e G.G.G.J.J.J.J.J.J.J.J.J.K.xXhX    e H.F.G.H.G.H.H.H.H.J.jX      xXH.G.J.hXe jXK.J.J.J.J.J.J.J.J.J.J.J.",
"G.G.G.G.G.G.G.H.K.    L.e J.G.G.H.J.J.J.J.J.J.J.J.K.xXhX    e H.G.G.H.H.J.J.J.J.K.jX      J.F.F.J.  e K.G.F.F.F.F.F.F.F.F.F.F.F.",
"G.G.G.G.G.G.G.H.K.    L.e K.J.H.H.H.J.J.J.J.J.K.xXxXjXhX    e J.G.H.J.J.K.K.xXxXjXhX      G.F.G.K.  e J.F.F.F.F.F.F.F.G.G.G.G.G.",
"G.H.H.H.H.H.J.J.xX    e L.e K.J.J.J.J.K.xXjXjXjXjXjXhX        K.J.J.K.xXjXhXhXhXhX      jXG.G.H.xX  e J.F.F.G.G.G.G.H.H.H.J.H.H.",
"G.H.H.H.H.H.J.K.jX    e L.e jXjXjXjXjXhXhXhX                  jXxXjXhXhX                xXG.G.H.xX  e J.G.G.H.H.H.H.H.J.J.J.J.J.",
"H.J.J.J.H.H.J.K.jX    e L.e                                     L.                      J.G.G.J.xX  e J.G.G.H.H.H.H.H.J.J.J.J.J.",
"J.J.J.K.J.H.J.K.hX      L.L.e                   e e e e e e e K.J.J.J.J.J.K.xXjXhX    jXG.F.G.J.jX  e J.G.G.H.J.J.J.J.J.J.K.J.J.",
"J.J.J.K.J.H.J.xXhX      K.G.G.H.J.J.J.J.xXhX  e jXK.H.G.G.G.G.G.F.F.F.F.F.F.G.J.jX    xXG.F.G.J.xX  e K.G.G.H.J.J.J.J.J.J.J.J.J.",
"J.J.J.J.J.J.J.jXhX      H.F.G.G.G.G.G.H.K.  L.e K.G.D.D.F.F.F.F.F.F.F.F.F.F.G.J.jX    K.F.F.H.J.jX  e K.H.H.J.J.J.J.J.J.J.J.J.J.",
"J.J.J.J.J.J.xXhX        H.G.H.H.H.H.H.H.K.  L.e J.F.D.G.G.H.H.G.G.G.G.G.G.H.J.xXhX    J.F.G.H.J.jX  e e xXK.xXjXjXjXjXxXK.K.K.K.",
"xXxXxXjXjXjXhX          H.G.G.H.G.G.H.J.xX  e e J.D.G.G.H.J.J.H.H.H.J.H.H.H.J.jXhX    J.F.G.H.J.jX  L.  hXhXhXhXhXhXhXhXhXhXjXjX",
"hXhXhX                  H.G.H.H.G.G.H.J.jX  e e J.F.G.H.H.J.J.J.J.H.H.J.J.J.J.jXhX    J.F.G.H.J.jX  L.                        hX",
"            e e e e e e H.G.H.J.H.H.H.J.jX    e J.F.G.H.H.J.J.J.J.H.H.J.J.J.J.jXhX    J.F.G.G.J.jX  L.                          ",
"e jXxXK.K.J.J.J.J.K.e   H.G.H.J.J.H.J.J.jX    e J.F.G.J.J.J.J.J.J.J.J.J.J.J.J.jXhX    J.G.G.H.J.jX  L.e e e L.L.L.L.L.L.L.      ",
"jXJ.G.G.F.G.G.G.G.J.jX  H.G.H.J.J.J.H.J.jX    e J.F.F.H.J.J.J.J.J.J.J.K.J.J.K.jXhX    K.G.G.H.J.jX  e J.H.H.H.J.K.L.e e e e e L.",
"xXG.F.F.F.G.G.G.H.J.jX  H.G.H.H.J.H.H.J.xXhX  e K.G.D.G.H.J.J.J.J.J.J.J.J.J.K.jX      K.G.G.H.J.jX  e H.G.H.G.G.G.G.G.H.J.xX  L.",
"xXG.F.G.G.H.H.H.J.J.K.  G.G.H.H.H.H.H.J.K.hX    L.G.D.G.G.H.J.J.J.J.J.J.J.J.K.hX      K.G.G.H.J.jX  e H.G.H.G.G.G.G.G.G.J.jX  L.",
"xXG.G.H.H.H.H.J.J.J.xX  H.G.H.H.H.H.H.J.xXhX    L.G.D.F.G.H.H.J.J.J.K.J.J.J.K.hX    e J.G.G.H.J.jX  e G.G.H.H.H.H.H.H.H.J.jX  e ",
"xXG.G.H.H.H.H.H.J.J.jX  H.G.H.H.J.J.H.J.xXhX    L.J.F.D.G.H.J.J.J.J.J.J.J.J.xXhX    e J.G.G.H.J.jX  e H.G.H.H.H.J.J.J.J.J.jX  e ",
"xXG.G.G.H.H.H.H.J.J.jX  G.F.H.J.J.J.H.J.xXhX    e J.G.F.G.J.J.J.J.J.J.J.J.K.jX      e K.H.H.J.jXhX  e H.G.J.J.J.J.J.J.J.J.jX  e ",
"xXG.G.G.H.H.H.H.J.J.jX  H.F.H.J.J.J.J.J.xXhX    e L.G.F.G.J.J.J.J.J.K.K.xXjXhX      e xXK.xXjX      e J.J.J.J.J.J.J.J.K.K.jX    ",
"xXG.F.G.G.H.H.H.J.J.jX  H.G.H.H.J.J.J.J.K.jX      L.J.G.H.J.K.xXjXjXhXhX            e L.        e e   jXjXjXjXjXjXjXjXjXjXhX    ",
"xXG.G.G.H.H.H.J.J.J.jX  J.G.G.H.H.H.J.J.K.jX      L.e xXxXjXhXhX                    e L.e e L.L.L.L.L.                          ",
"xXG.G.H.H.H.H.H.J.J.jX  K.G.G.H.H.H.J.J.K.hX      e e                             e e L.L.e e e e e e e e e                     ",
"xXG.F.G.H.H.H.H.H.J.jX  xXG.G.H.H.J.J.J.K.hX      e e e           e e e e e e e e e e L.L.xXxXxXxXxXxXxXxXxXjXjXjXjXjXjXjXhX  L.",
"xXG.G.G.H.H.H.H.H.K.hX  e G.G.H.J.J.J.J.K.jX        hXjXjXjXjXjXjXxXxXxXxXxXxXxXxXJ.J.J.G.G.G.F.F.F.F.F.F.G.F.F.G.G.G.G.H.jX  L.",
"xXG.G.G.H.H.H.H.J.jX    e G.G.H.J.J.J.J.xXhX        jXG.G.F.F.F.F.F.F.F.F.F.F.F.F.F.F.D.D.S.S.S.S.S.S.S.S.S.S.S.D.D.D.G.J.jX  e ",
"xXG.G.G.H.H.H.H.J.jX    e G.G.H.J.J.J.J.xXhX        jXG.D.S.S.S.S.S.S.S.S.S.S.S.S.S.S.S.S.D.F.F.F.D.D.D.F.F.F.D.F.F.F.G.J.hX  e ",
"xXG.G.H.H.J.J.J.K.jX    e G.G.H.J.J.J.J.xXhX        jXG.D.D.D.F.D.D.F.F.F.F.F.D.D.F.F.F.G.G.H.H.G.G.G.G.G.H.G.G.G.G.G.H.J.hX    ",
"e G.G.H.H.J.K.K.xXhX    e H.H.J.J.H.J.J.K.jX        jXG.D.F.G.H.H.H.H.H.G.G.G.G.H.H.G.G.G.H.J.J.J.H.H.H.J.J.H.H.G.G.G.H.J.hX    ",
"e J.H.J.J.K.xXjXjX      e J.H.J.J.J.J.J.K.jX        e G.D.F.H.J.J.J.J.H.J.J.H.J.J.J.H.H.H.J.J.J.H.J.J.J.J.J.H.H.H.H.H.H.J.hX    ",
"e jXjXjXjXjXjXjXhX      e J.J.J.J.J.K.K.xXhX          H.D.F.G.H.H.J.J.J.J.J.J.J.J.J.J.H.J.J.J.H.H.J.J.J.J.J.J.J.J.J.J.J.K.hX    ",
"e         hXhXhXhX    e e jXjXjXjXjXjXjXhXhX          J.F.F.G.H.H.H.H.H.J.J.J.J.J.J.J.J.J.J.J.J.H.H.J.J.J.J.J.J.J.J.K.K.K.hX    ",
"L.L.L.e               e                               K.G.G.G.H.J.H.H.H.J.J.J.J.J.J.J.J.J.J.J.J.J.J.J.J.J.J.J.J.J.J.K.K.K.hX    ",
"e e e e e e e         e                               jXJ.J.K.xXxXK.K.J.J.J.J.J.J.K.K.K.K.K.K.K.J.J.J.J.J.J.J.J.J.K.K.K.K.hX    ",
"e xXJ.H.H.H.J.K.xXe e L.                              L.e         hXhXhXjXxXK.K.xXxXxXxXxXxXxXxXxXxXxXK.xXxXxXxXxXxXxXxXjXhX    ",
"e J.F.F.F.F.F.F.G.G.H.J.K.xXjXhX                    e L.e e               hXjXjXjXjXjXjXjXjXjXjXjXjXjXjXjXjXjXjXjXjXjXjXjXhX    ",
"e H.F.F.G.G.F.F.F.F.F.F.G.G.H.H.J.J.J.J.J.K.K.xXxXK.K.K.L.L.e e e e e         hXhXhXhXhXhXhXhXhXhXhXhXhXhXhXhXhXhXhXhXhXhX    e ",
"e H.F.G.G.G.G.G.G.G.G.F.F.G.F.G.G.G.F.G.G.G.G.G.G.G.G.G.H.H.H.J.xXe L.e                                                     e e ",
"e H.F.G.G.J.J.H.H.H.J.H.G.H.G.G.G.H.G.G.H.G.G.G.G.G.F.F.F.F.G.H.xX  e L.e e e                                           e e e L.",
"e H.G.G.H.J.J.J.J.J.J.J.H.J.J.J.J.J.J.J.J.J.J.H.H.H.G.G.G.G.G.J.jX    L.e J.H.H.J.xXe e e L.L.L.e e e e e e e e e e e e L.L.L.L.",
"e J.G.H.J.J.K.K.J.J.J.J.J.J.J.K.J.K.K.K.J.J.J.J.J.J.J.J.J.H.J.xXhX    e e G.F.F.F.G.G.G.J.L.L.e J.H.G.G.H.H.H.H.H.H.J.J.K.e e L.",
"e J.J.K.xXxXjXjXxXxXxXxXxXxXjXjXjXjXjXjXxXxXxXxXxXxXxXxXxXxXxXjXhX      e G.F.F.F.F.F.G.H.K.L.K.G.G.G.G.H.G.H.H.G.G.H.H.H.xX  L.",
"e jXjXhXhXhXhXhXhXhXhXhXhXhXhXhXhXhXhXhXhXhXhXhXhXhXhXhXhXhXhXhXhX      e J.H.H.H.H.H.J.J.xXe H.G.H.H.H.H.H.H.H.H.H.H.H.J.jX  L.",
"e                                                                       e   e   hXjXjXjXjXhXe J.H.J.J.J.J.J.J.J.J.J.J.J.K.jX  L.",
"L.e                                                                       L.L.e               jXxXjXjXjXjXjXjXjXjXjXjXjXjXhX  L.",
"L.L.L.L.e e e e e e e e                                                   L.L.L.e e           L.L.                            L.",
"q q q q q q q q q q q q q q q q q q q q q q q q q q q q q q q q q q q q q q q q q q q q q q q q q q q q q q q q q q q q q q q q "
};
