/* XPM */
static char *Stone61668167184[] = {
/* columns rows colors chars-per-pixel */
"64 64 256 2 ",
"   c black",
".  c #0000A8",
"X  c #00A800",
"o  c #00A8A8",
"O  c #A80000",
"+  c #A800A8",
"@  c #A85400",
"#  c gray66",
"$  c gray33",
"%  c #5454FC",
"&  c #54FC54",
"*  c #54FCFC",
"=  c #FC5454",
"-  c #FC54FC",
";  c #FCFC54",
":  c gray99",
">  c #ECECEC",
",  c gainsboro",
"<  c #D0D0D0",
"1  c #C0C0C0",
"2  c #B4B4B4",
"3  c gray66",
"4  c #989898",
"5  c gray55",
"6  c #7C7C7C",
"7  c gray44",
"8  c #646464",
"9  c gray33",
"0  c #484848",
"q  c gray22",
"w  c #2C2C2C",
"e  c #202020",
"r  c #FC0000",
"t  c #EC0000",
"y  c #E00000",
"u  c #D40000",
"i  c #C80000",
"p  c #BC0000",
"a  c #B00000",
"s  c #A40000",
"d  c #980000",
"f  c #880000",
"g  c #7C0000",
"h  c #700000",
"j  c #640000",
"k  c #580000",
"l  c #4C0000",
"z  c #400000",
"x  c #FCD8D8",
"c  c #FCB8B8",
"v  c #FC9C9C",
"b  c #FC7C7C",
"n  c #FC5C5C",
"m  c #FC4040",
"M  c #FC2020",
"N  c #FC0000",
"B  c #FCA85C",
"V  c #FC9840",
"C  c #FC8820",
"Z  c #FC7800",
"A  c #E46C00",
"S  c #CC6000",
"D  c #B45400",
"F  c #9C4C00",
"G  c #FCFCD8",
"H  c #FCFCB8",
"J  c #FCFC9C",
"K  c #FCFC7C",
"L  c #FCF85C",
"P  c #FCF440",
"I  c #FCF420",
"U  c #FCF400",
"Y  c #E4D800",
"T  c #CCC400",
"R  c #B4AC00",
"E  c #9C9C00",
"W  c #848400",
"Q  c #706C00",
"!  c #585400",
"~  c #404000",
"^  c #D0FC5C",
"/  c #C4FC40",
"(  c #B4FC20",
")  c #A0FC00",
"_  c #90E400",
"`  c #80CC00",
"'  c #74B400",
"]  c #609C00",
"[  c #D8FCD8",
"{  c #BCFCB8",
"}  c #9CFC9C",
"|  c #80FC7C",
" . c #60FC5C",
".. c #40FC40",
"X. c #20FC20",
"o. c #00FC00",
"O. c #00FC00",
"+. c #00EC00",
"@. c #00E000",
"#. c #00D400",
"$. c #04C800",
"%. c #04BC00",
"&. c #04B000",
"*. c #04A400",
"=. c #049800",
"-. c #048800",
";. c #047C00",
":. c #047000",
">. c #046400",
",. c #045800",
"<. c #044C00",
"1. c #044000",
"2. c #D8FCFC",
"3. c #B8FCFC",
"4. c #9CFCFC",
"5. c #7CFCF8",
"6. c #5CFCFC",
"7. c #40FCFC",
"8. c #20FCFC",
"9. c #00FCFC",
"0. c #00E4E4",
"q. c #00CCCC",
"w. c #00B4B4",
"e. c #009C9C",
"r. c #008484",
"t. c #007070",
"y. c #005858",
"u. c #004040",
"i. c #5CBCFC",
"p. c #40B0FC",
"a. c #20A8FC",
"s. c #009CFC",
"d. c #008CE4",
"f. c #007CCC",
"g. c #006CB4",
"h. c #005C9C",
"j. c #D8D8FC",
"k. c #B8BCFC",
"l. c #9C9CFC",
"z. c #7C80FC",
"x. c #5C60FC",
"c. c #4040FC",
"v. c #2024FC",
"b. c #0004FC",
"n. c #0000FC",
"m. c #0000EC",
"M. c #0000E0",
"N. c #0000D4",
"B. c #0000C8",
"V. c #0000BC",
"C. c #0000B0",
"Z. c #0000A4",
"A. c #000098",
"S. c #000088",
"D. c #00007C",
"F. c #000070",
"G. c #000064",
"H. c #000058",
"J. c #00004C",
"K. c #000040",
"L. c #282828",
"P. c #FCE034",
"I. c #FCD424",
"U. c #FCCC18",
"Y. c #FCC008",
"T. c #FCB400",
"R. c #B420FC",
"E. c #A800FC",
"W. c #9800E4",
"Q. c #8000CC",
"!. c #7400B4",
"~. c #60009C",
"^. c #500084",
"/. c #440070",
"(. c #340058",
"). c #280040",
"_. c #FCD8FC",
"`. c #FCB8FC",
"'. c #FC9CFC",
"]. c #FC7CFC",
"[. c #FC5CFC",
"{. c #FC40FC",
"}. c #FC20FC",
"|. c #FC00FC",
" X c #E000E4",
".X c #C800CC",
"XX c #B400B4",
"oX c #9C009C",
"OX c #840084",
"+X c #6C0070",
"@X c #580058",
"#X c #400040",
"$X c #FCE8DC",
"%X c #FCE0D0",
"&X c #FCD8C4",
"*X c #FCD4BC",
"=X c #FCCCB0",
"-X c #FCC4A4",
";X c #FCBC9C",
":X c #FCB890",
">X c #FCB080",
",X c #FCA470",
"<X c #FC9C60",
"1X c #F0945C",
"2X c #E88C58",
"3X c #DC8854",
"4X c #D08050",
"5X c #C87C4C",
"6X c #BC7848",
"7X c #B47044",
"8X c #A86840",
"9X c #A0643C",
"0X c #9C6038",
"qX c #905C34",
"wX c #885830",
"eX c #80502C",
"rX c #744C28",
"tX c #6C4824",
"yX c #5C4020",
"uX c #543C1C",
"iX c #483818",
"pX c #403018",
"aX c #382C14",
"sX c #28200C",
"dX c #600064",
"fX c #006464",
"gX c #006060",
"hX c #00001C",
"jX c #00002C",
"kX c #302410",
"lX c #480048",
"zX c #500050",
"xX c #000034",
"cX c gray11",
"vX c #4C4C4C",
"bX c gray36",
"nX c gray25",
"mX c gray19",
"MX c #343434",
"NX c #D8F4F4",
"BX c #B8E8E8",
"VX c #9CDCDC",
"CX c #74C8C8",
"ZX c #48C0C0",
"AX c #20B4B4",
"SX c #20B0B0",
"DX c #00A4A4",
"FX c #009898",
"GX c #008C8C",
"HX c #008484",
"JX c #007C7C",
"KX c #007878",
"LX c #007474",
"PX c #007070",
"IX c #006C6C",
"UX c #980088",
/* pixels */
"9 9 aXiXiXiXiXiXiXiXiXiXiXiXiXaXiXiXiXiXiXiXaXsXe e iXpXaXaXaXaXaXaXaXaXaXaXsXe e e e e e e w 9 L.e L.L.L.L.L.L.L.L.L.L.L.q 9 9 ",
"9 0 aXiXiXiXiXiXiXiXiXiXiXiXiXkXiXiXiXiXaXkXsXe q iXpXaXaXaXkXkXaXaXaXaXaXaXaXsXe e e e e e w L.e L.L.L.L.e e e L.L.L.e L.L.q 9 ",
"0 0 q aXiXiXiXiXiXiXiXiXiXiXiXkXiXiXaXkXsXe q 9 pXiXaXaXaXaXkXkXaXaXaXaXaXaXaXsXsXe e e e e w e L.L.L.L.e e e e L.L.L.L.L.L.L.q ",
"w 0 9 aXiXiXiXiXiXiXiXiXiXiXaXkXaXkXsXe q q 9 pXpXiXaXaXaXaXaXaXaXkXaXaXaXaXaXsXsXw e e e e w e L.L.L.L.e e e L.e L.L.L.L.L.L.L.",
"L.w 0 q aXiXiXiXiXiXiXiXiXaXkXkXsXsXe q 0 0 pXaXaXiXaXaXpXpXaXaXaXaXaXaXaXaXaXsXkXsXq e e e w cXL.L.L.e e e e L.L.L.L.L.L.L.L.L.",
"L.L.w q aXiXiXiXiXiXiXiXaXkXsXsXw q q 0 q pXpXaXaXpXaXaXpXpXaXaXaXaXaXaXaXaXkXsXkXsXsXw w w w cXL.L.L.e e e L.L.e L.L.L.e L.L.L.",
"L.L.L.9 q aXiXiXiXiXaXaXkXsXe q e w 0 q w pXaXaXaXpXaXaXaXaXaXaXaXaXaXaXaXaXkXsXaXsXsXsXq q q q e L.L.L.L.L.L.L.e L.L.L.e L.L.L.",
"L.L.L.e q aXaXaXaXaXkXsXsXL.q w L.L.L.w w sXkXaXaXpXaXaXaXaXaXpXaXaXaXaXaXaXsXkXaXsXsXsXq 9 9 9 w L.L.L.L.L.L.L.L.L.L.L.cXL.L.L.",
"L.L.L.e q e kXkXkXsXsXL.q 9 w L.L.L.L.e e w sXsXkXpXaXaXaXpXaXaXaXaXaXaXaXkXsXaXaXsXsXe q q 9 9 q e L.L.L.L.L.L.L.L.L.L.e L.L.L.",
"L.L.L.e q q e sXsXe q 9 9 q L.L.L.e e e e e w e sXsXkXkXaXaXaXaXaXaXaXaXaXsXkXaXaXsXsXe q q 9 9 9 w L.L.L.L.L.e L.L.L.e cXL.L.L.",
"L.L.L.e q 9 q q q q 9 9 0 L.L.e L.e e e e e e w w e sXsXkXaXaXaXaXaXaXaXkXsXkXaXaXsXsXw q iXiXiX9 q e L.L.L.L.L.L.L.L.e L.L.L.L.",
"L.L.L.e q 9 9 8 8 9 9 0 L.L.L.e L.e e e e e e e e w e sXsXkXkXaXaXaXaXkXsXkXaXaXkXsXe q iXiXiXiXaXq w L.L.L.L.L.L.L.L.cXL.L.L.e ",
"L.L.L.e q 9 8 8 8 9 0 w L.L.e e L.e e e e e e cXe e w e e sXsXkXkXkXkXsXsXkXaXaXkXsXe q iXiXiXaXiXw q e L.L.L.L.L.L.e cXL.L.L.L.",
"L.L.L.e q 9 8 8 9 0 q L.L.L.e e L.e e e e e e cXe e e w q e sXsXsXsXsXsXkXaXaXaXsXsXw iXiXiXiXaXiXiXw w e L.L.L.L.L.cXcXL.L.L.L.",
"L.L.e e q 9 9 9 0 0 w L.L.e e e L.e e e e e e cXe e e e e q e e sXsXsXkXaXaXaXkXsXe w iXiXiXaXiXiXiXe w e e L.L.L.e cXe L.L.L.L.",
"L.e e q q 9 9 0 q q cXL.L.e e e L.e e e e e e cXe e e e e cX9 q e e sXsXkXkXkXsXsXe aXiXiXiXaXiXiXaXsXw w e L.L.L.cXcXe L.L.L.e ",
"e e q q 9 pXpXaXq q L.cXL.e e e e e e e e e e cXe e e e e cXq 9 9 q e sXsXsXsXsXsXw sXsXsXsXaXaXaXkXsXw q cXe L.e e cXe L.L.e L.",
"e q q 9 pXiXiXaXsXw q L.cXL.e e L.e e e e e e cXe e e e cXe q 9 yXyXq e e sXsXsXe q q w e e sXsXsXsXe w 0 w e e e cXe L.L.L.L.e ",
"q q e pXiXaXaXaXaXsXw q cXcXe e e e e e e e e cXe e e cXcXw q yXyXyXyXyXq e e e q 9 8 8 0 q w L.L.w q 0 8 q e e cXe e L.L.L.e cX",
"q e pXiXaXaXaXaXaXaXsXw q cXe e e e e e e e e cXcXe cXcXe q yXuXiXiXiXuXyXyXq 9 9 8 7 8 9 L.L.L.L.cXcX9 8 9 cXcXe e L.L.L.e cXq ",
"e pXiXaXaXaXaXaXaXaXaXsXw e cXe e e e e e e e cXcXe cXcXw q yXiXiXiXiXuXuXuXyXyXq 8 8 9 0 L.e e e e cXcX9 0 w cXe L.L.L.e L.q q ",
"pXiXaXaXaXaXaXaXaXaXaXsXsXq e cXe e e e e e e cXcXe cXe q yXuXiXiXuXuXuXiXiXiXuXuXuXq 0 q L.e e e e e cXcXq q e e e e e L.q 9 e ",
"iXaXaXaXaXaXaXaXaXkXaXsXsXw q cXcXe e e e e e cXcXcXcXw q yXiXuXuXuXuXiXiXiXiXiXiXuXuXw q L.e e e e e e cXcXw w L.L.L.L.q q e pX",
"aXaXaXaXaXaXaXaXaXkXaXsXsXsXw e cXcXe e e e e cXcXcXcXq yXuXuXuXiXuXiXiXiXiXiXiXiXiXpXsXq L.e e e e e e e cXcX0 q q q q 9 q pXiX",
"aXaXaXaXaXaXaXaXaXaXaXsXkXsXsX9 e cXcXe e e e cXcXcXe q yXuXiXiXuXuXiXiXiXiXiXpXpXiXiXsXw L.e e e e e e e e cXcX9 9 9 0 0 pXiXaX",
"aXaXaXaXaXaXaXaXaXkXaXsXkXkXsXw 9 e cXe e e e cXcXe q yXuXiXiXiXuXiXiXiXiXiXpXpXpXiXiXsXe L.e e e e e e e e e cX9 9 0 q pXiXaXaX",
"aXpXpXaXaXaXaXaXaXkXaXsXkXkXsXsXw q cXcXe e e cXcXe q yXiXiXiXuXiXiXpXpXiXiXpXpXiXiXiXsXe L.e e e e e e e e cXcX0 0 q pXiXaXaXaX",
"aXpXpXaXaXaXaXaXaXsXaXsXkXkXsXsXw 9 e cXcXcXcXcXcXq yXuXiXiXiXuXiXiXpXpXiXiXiXiXiXiXiXsXe L.e e e e e e e cXcXe q w pXiXaXaXaXaX",
"aXaXaXaXaXaXaXaXaXsXaXsXkXsXsXsXw 9 9 e cXcXcXcXe q yXiXiXiXuXuXiXiXiXiXiXpXiXiXiXiXiXsXe L.e e e e e e e cXcXq w pXiXaXaXaXaXaX",
"aXaXaXaXaXaXaXaXaXsXkXsXsXsXsXe 9 7 7 9 e e e e q yXuXiXiXiXuXiXiXiXiXiXiXiXiXiXiXiXiXsXe L.e e e e e cXcXcXq w pXiXaXaXaXaXpXpX",
"aXaXaXaXaXaXaXaXkXsXkXsXsXsXe 9 9 7 8 9 9 q w w q yXiXiXiXuXuXiXiXiXiXiXiXiXiXiXiXiXiXsXe e e e e cXcXcXq 9 w pXiXaXaXaXaXaXpXpX",
"aXaXaXaXaXaXaXaXkXsXsXsXaXe e e e e e e 9 9 q q uXiXiXiXiXuXuXiXiXiXiXiXiXiXiXiXiXiXiXsXe e e cXcXcXq 9 8 9 pXiXaXaXaXaXaXaXpXpX",
"aXaXaXaXaXaXaXkXsXsXsXe q e e w w w w w e 9 9 9 uXiXiXiXiXuXuXiXiXiXiXiXiXiXpXiXiXiXpXsXe e cXcXq 9 9 8 8 9 pXaXaXaXaXaXaXaXaXaX",
"aXaXaXaXaXaXkXsXsXsXe q e e L.L.L.L.L.L.L.e 9 9 kXaXiXiXiXuXiXiXiXiXiXiXiXiXiXiXiXpXaXsXe w q 9 9 9 8 8 9 9 pXaXaXaXaXaXaXaXaXaX",
"aXaXaXaXaXkXsXsXe q 9 e e L.L.L.L.L.L.L.L.L.e 9 w kXaXiXuXuXiXiXiXiXiXiXpXpXpXaXkXkXsXe w q q yXtXtX8 9 9 9 sXkXaXaXaXaXaXaXaXaX",
"aXaXaXaXkXsXsXe q 9 e e L.L.L.L.L.e L.L.L.L.L.e e w kXaXuXuXiXiXpXpXaXkXkXsXsXsXe w q q yXtXtXtXyXyXtX0 9 0 e sXkXaXaXaXaXaXaXaX",
"aXaXaXkXsXsXe q 9 e e L.L.e e e L.L.L.L.L.L.L.L.L.e w kXpXpXaXkXsXsXsXsXe w q q q yXtXtXtXyXyXyXuXuXiXq 0 9 w e sXkXaXaXaXaXaXaX",
"aXkXkXsXe e q 9 e w L.L.L.e e e e L.L.L.L.L.L.L.L.L.e w sXsXsXsXe w q q 0 q yXtXtXyXyXuXuXuXuXuXuXuXpXq 0 0 q mXe sXsXkXaXaXaXaX",
"aXsXe e q 9 9 e w L.L.L.L.L.e e e L.e e L.L.L.L.L.L.L.e w w w w q 0 9 9 yXtXyXyXuXuXuXuXuXyXuXuXuXiXpXw q q mXw w e e sXsXkXaXaX",
"sXe q 9 9 9 e w L.L.L.L.L.L.L.e e L.e e L.L.L.L.L.L.L.L.L.9 9 9 9 8 9 uXyXuXuXuXuXuXuXuXuXuXuXuXuXpXL.w q q mXL.L.L.mXe e sXsXsX",
"e q q 9 9 e L.L.L.L.L.L.L.L.L.L.L.L.L.L.L.L.L.L.L.L.L.e L.L.9 9 8 8 9 uXyXuXuXuXuXuXuXyXyXyXuXuXiXpXw mXq L.L.L.L.L.e mXmXe e e ",
"q q 7 9 9 L.w L.L.L.L.L.L.L.L.L.L.L.L.L.L.L.L.L.L.L.e e L.L.L.9 8 0 0 pXuXuXuXuXuXuXuXyXyXyXuXuXpXL.mXq L.e e e e e e e e mXq q ",
"q 9 7 9 9 e cXcXe L.L.L.L.L.e L.L.L.L.L.L.L.L.L.L.e cXe L.L.L.cX9 0 q w pXuXuXuXuXuXuXyXyXuXuXiXpXmXq L.e e e e e e e e e e e w ",
"e e 8 9 9 q e e cXcXe L.L.L.L.L.L.L.L.L.L.L.L.L.e cXe L.L.e cXcXL.q q q pXiXuXuXuXuXuXuXuXuXiXpXw q L.e e e e e e e e e e e e e ",
"e e e 9 7 8 q w e e cXcXe L.L.L.L.L.L.L.L.e e cXcXe L.L.e cXcXe cXq q q w pXiXuXuXuXuXuXuXiXpXpXq L.e e e e e e e e e e e e e e ",
"e e e 9 8 9 0 q w w e e cXcXe e e e e e e cXcXcXe e e e cXcXe cXcXw e e w w pXiXuXuXuXuXpXpXaXw mXL.e e e e e e e e e e e e e e ",
"e e q 9 9 0 q w w w w w e e cXcXcXcXcXcXcXe e e e cXcXcXcXe e e e w e e e w pXiXiXiXiXpXaXaXw 0 w e e e e e e e e e e e e e e e ",
"e q q 9 9 q w q uXuXuXnXq w e e cXcXcXcXcXcXcXcXcXcXcXcXe L.cXe e w e e e e w pXpXpXaXaXw q 0 9 mXcXe e e e e e e e e e e e e e ",
"q 0 0 9 q w q uXuXuXuXuXuXnXq w e e e e e e e e cXe e L.L.e e e w e e e e e w w aXaXw q 0 9 9 9 0 cXcXe e e e e e e e e e e e e ",
"9 9 0 q q uXuXuXuXuXuXuXuXuXuXnXq w e e cXcXe L.L.L.L.L.e cXe e w e e e e e cXw w w 0 9 w w w w w q cXcXcXe e e e e e e e e e e ",
"9 0 q uXuXuXiXiXiXiXiXuXuXuXuXuXuXnXq w e e cXcXe e e e cXe e w L.e e e e e cXcX0 9 q w q q q q q w w cXcXcXcXcXcXcXcXcXcXcXcXcX",
"9 q uXuXiXiXiXiXiXiXiXiXiXuXuXuXuXuXuXnXq w e e cXcXcXcXcXe e w e e e e e cXcXw 9 w w q w w q q q q q q q q q w w q 0 9 9 0 q 9 ",
"uXuXiXiXiXiXiXiXiXiXiXiXiXiXiXuXuXuXuXuXuXnXq w e e e e e e w L.e e e e cXcXw 9 w q q w L.q w L.L.L.L.L.w w w q q q w w 9 0 q 9 ",
"iXiXiXiXiXiXiXiXiXiXiXiXiXiXiXiXuXuXuXuXuXuXuXnXq w e e e w e e e e e cXcXw 0 w q w L.L.q w L.L.L.L.L.L.L.L.L.L.L.L.w e 0 0 q 9 ",
"iXpXiXiXiXiXiXiXiXiXiXiXiXiXiXuXyXtXtXtXtXtXuXuXuXnXq q q q cXcXcXcXcXcXw 0 w q w L.L.w w L.L.L.L.L.L.L.L.L.L.L.L.L.L.e 0 q q uX",
"iXiXiXiXiXiXiXiXiXiXiXiXiXiXyXyXuXiXiXiXiXiXiXuXuXuXpXvXvX9 e cXcXcXcXw w q q w L.L.L.w L.L.L.L.L.L.L.L.L.L.L.L.L.L.e e q q q uX",
"iXiXpXiXiXiXiXiXiXiXiXiXiXyXuXiXiXiXiXiXiXiXiXiXiXiXpXaXnXvX9 w w w w w q w L.L.L.L.w w L.L.L.L.L.L.L.w L.L.L.L.L.L.e w q q uXiX",
"iXiXpXiXiXiXiXiXiXiXiXiXuXuXiXiXiXiXiXiXiXiXiXiXiXiXpXaXuXuXaXq 9 0 L.q w L.L.L.L.L.w L.L.L.L.L.L.L.L.w L.L.L.L.L.L.e q q q uXiX",
"iXiXiXiXiXiXiXiXiXiXiXiXuXiXiXiXiXiXiXiXiXiXiXiXiXiXpXaXiXiXaXaXq 9 L.w w w L.L.L.L.w L.L.L.L.L.L.L.L.L.L.w L.L.L.e e q q uXiXiX",
"iXiXiXiXiXiXiXiXiXiXiXuXiXiXiXiXiXiXiXiXiXiXiXiXiXiXpXaXiXiXaXaXe q q w w w L.L.L.w w L.L.L.L.L.L.L.L.L.L.L.L.L.L.e e 0 q uXiXiX",
"iXiXiXiXiXiXiXiXiXiXiXuXiXiXiXiXiXiXiXiXiXiXiXiXiXiXpXaXiXiXaXsXe q 0 w w w L.L.L.w L.L.L.L.L.L.w w L.L.L.L.L.L.L.e e 9 uXuXiXiX",
"iXiXiXiXiXiXiXiXiXiXuXiXiXiXiXiXiXiXiXiXiXiXiXiXiXiXpXaXiXiXaXsXe q 0 w w w L.L.L.w L.L.L.L.L.L.w w w L.L.L.L.L.L.e e 9 uXiXiXiX",
"iXiXiXiXiXiXiXiXiXiXuXiXiXiXiXiXiXiXiXiXiXiXiXiXiXiXpXaXiXiXaXsXe q 9 q w w L.L.L.w L.L.L.L.L.L.L.w w L.L.L.L.L.e e w iXuXiXiXiX",
"iXiXiXiXiXiXiXiXiXiXuXiXiXiXiXiXiXiXiXiXiXiXiXiXiXiXpXaXiXiXaXaXe q 9 q w w L.L.L.w L.L.L.L.L.L.L.L.L.L.L.L.L.L.e e q uXiXiXiXiX"
};
