/* XPM */
static char *White21668167185[] = {
/* columns rows colors chars-per-pixel */
"64 64 256 2 ",
"   c black",
".  c #0000A8",
"X  c #00A800",
"o  c #00A8A8",
"O  c #A80000",
"+  c #A800A8",
"@  c #A85400",
"#  c gray66",
"$  c gray33",
"%  c #5454FC",
"&  c #54FC54",
"*  c #54FCFC",
"=  c #FC5454",
"-  c #FC54FC",
";  c #FCFC54",
":  c gray99",
">  c #ECECEC",
",  c gainsboro",
"<  c #D0D0D0",
"1  c #C0C0C0",
"2  c #B4B4B4",
"3  c gray66",
"4  c #989898",
"5  c gray55",
"6  c #7C7C7C",
"7  c gray44",
"8  c #646464",
"9  c gray33",
"0  c #484848",
"q  c gray22",
"w  c #2C2C2C",
"e  c #202020",
"r  c #FC0000",
"t  c #EC0000",
"y  c #E00000",
"u  c #D40000",
"i  c #C80000",
"p  c #BC0000",
"a  c #B00000",
"s  c #A40000",
"d  c #980000",
"f  c #880000",
"g  c #7C0000",
"h  c #700000",
"j  c #640000",
"k  c #580000",
"l  c #4C0000",
"z  c #400000",
"x  c #FCD8D8",
"c  c #FCB8B8",
"v  c #FC9C9C",
"b  c #FC7C7C",
"n  c #FC5C5C",
"m  c #FC4040",
"M  c #FC2020",
"N  c #FC0000",
"B  c #FCA85C",
"V  c #FC9840",
"C  c #FC8820",
"Z  c #FC7800",
"A  c #E46C00",
"S  c #CC6000",
"D  c #B45400",
"F  c #9C4C00",
"G  c #FCFCD8",
"H  c #FCFCB8",
"J  c #FCFC9C",
"K  c #FCFC7C",
"L  c #FCF85C",
"P  c #FCF440",
"I  c #FCF420",
"U  c #FCF400",
"Y  c #E4D800",
"T  c #CCC400",
"R  c #B4AC00",
"E  c #9C9C00",
"W  c #848400",
"Q  c #706C00",
"!  c #585400",
"~  c #404000",
"^  c #D0FC5C",
"/  c #C4FC40",
"(  c #B4FC20",
")  c #A0FC00",
"_  c #90E400",
"`  c #80CC00",
"'  c #74B400",
"]  c #609C00",
"[  c #D8FCD8",
"{  c #BCFCB8",
"}  c #9CFC9C",
"|  c #80FC7C",
" . c #60FC5C",
".. c #40FC40",
"X. c #20FC20",
"o. c #00FC00",
"O. c #00FC00",
"+. c #00EC00",
"@. c #00E000",
"#. c #00D400",
"$. c #04C800",
"%. c #04BC00",
"&. c #04B000",
"*. c #04A400",
"=. c #049800",
"-. c #048800",
";. c #047C00",
":. c #047000",
">. c #046400",
",. c #045800",
"<. c #044C00",
"1. c #044000",
"2. c #D8FCFC",
"3. c #B8FCFC",
"4. c #9CFCFC",
"5. c #7CFCF8",
"6. c #5CFCFC",
"7. c #40FCFC",
"8. c #20FCFC",
"9. c #00FCFC",
"0. c #00E4E4",
"q. c #00CCCC",
"w. c #00B4B4",
"e. c #009C9C",
"r. c #008484",
"t. c #007070",
"y. c #005858",
"u. c #004040",
"i. c #5CBCFC",
"p. c #40B0FC",
"a. c #20A8FC",
"s. c #009CFC",
"d. c #008CE4",
"f. c #007CCC",
"g. c #006CB4",
"h. c #005C9C",
"j. c #D8D8FC",
"k. c #B8BCFC",
"l. c #9C9CFC",
"z. c #7C80FC",
"x. c #5C60FC",
"c. c #4040FC",
"v. c #2024FC",
"b. c #0004FC",
"n. c #0000FC",
"m. c #0000EC",
"M. c #0000E0",
"N. c #0000D4",
"B. c #0000C8",
"V. c #0000BC",
"C. c #0000B0",
"Z. c #0000A4",
"A. c #000098",
"S. c #000088",
"D. c #00007C",
"F. c #000070",
"G. c #000064",
"H. c #000058",
"J. c #00004C",
"K. c #000040",
"L. c #282828",
"P. c #FCE034",
"I. c #FCD424",
"U. c #FCCC18",
"Y. c #FCC008",
"T. c #FCB400",
"R. c #B420FC",
"E. c #A800FC",
"W. c #9800E4",
"Q. c #8000CC",
"!. c #7400B4",
"~. c #60009C",
"^. c #500084",
"/. c #440070",
"(. c #340058",
"). c #280040",
"_. c #FCD8FC",
"`. c #FCB8FC",
"'. c #FC9CFC",
"]. c #FC7CFC",
"[. c #FC5CFC",
"{. c #FC40FC",
"}. c #FC20FC",
"|. c #FC00FC",
" X c #E000E4",
".X c #C800CC",
"XX c #B400B4",
"oX c #9C009C",
"OX c #840084",
"+X c #6C0070",
"@X c #580058",
"#X c #400040",
"$X c #FCE8DC",
"%X c #FCE0D0",
"&X c #FCD8C4",
"*X c #FCD4BC",
"=X c #FCCCB0",
"-X c #FCC4A4",
";X c #FCBC9C",
":X c #FCB890",
">X c #FCB080",
",X c #FCA470",
"<X c #FC9C60",
"1X c #F0945C",
"2X c #E88C58",
"3X c #DC8854",
"4X c #D08050",
"5X c #C87C4C",
"6X c #BC7848",
"7X c #B47044",
"8X c #A86840",
"9X c #A0643C",
"0X c #9C6038",
"qX c #905C34",
"wX c #885830",
"eX c #80502C",
"rX c #744C28",
"tX c #6C4824",
"yX c #5C4020",
"uX c #543C1C",
"iX c #483818",
"pX c #403018",
"aX c #382C14",
"sX c #28200C",
"dX c #600064",
"fX c #006464",
"gX c #006060",
"hX c #00001C",
"jX c #00002C",
"kX c #302410",
"lX c #480048",
"zX c #500050",
"xX c #000034",
"cX c gray11",
"vX c #4C4C4C",
"bX c gray36",
"nX c gray25",
"mX c gray19",
"MX c #343434",
"NX c #D8F4F4",
"BX c #B8E8E8",
"VX c #9CDCDC",
"CX c #74C8C8",
"ZX c #48C0C0",
"AX c #20B4B4",
"SX c #20B0B0",
"DX c #00A4A4",
"FX c #009898",
"GX c #008C8C",
"HX c #008484",
"JX c #007C7C",
"KX c #007878",
"LX c #007474",
"PX c #007070",
"IX c #006C6C",
"UX c #980088",
/* pixels */
"vX$ $ $ $ $ $ $ vXvX$ $ $ $ vX$ $ $ $ $ $ vX$ $ $ $ $ $ $ $ $ $ $ $ $ vX$ $ $ $ $ $ $ $ $ $ $ $ $ vX$ $ $ $ vX$ vXvX$ $ $ $ $ $ ",
"$ 6 6 6 6 6 6 8 6 6 6 6 6 6 8 6 5 5 6 6 5 8 6 6 5 5 5 5 6 6 4 4 4 4 4 7 6 4 5 6 5 5 7 6 5 5 5 5 6 8 6 5 6 6 7 6 7 8 6 6 6 6 6 6 ",
"$ 6 6 6 6 6 6 8 6 5 5 5 5 5 8 6 5 5 5 5 5 $ 6 5 5 4 5 5 7 6 5 4 4 4 4 7 5 4 4 5 4 4 7 6 4 5 5 5 5 8 6 5 5 5 6 6 7 $ 6 6 5 6 6 6 ",
"$ 6 6 6 5 6 6 8 6 6 5 5 5 5 vX6 6 5 5 5 5 $ 6 5 5 4 5 5 7 6 5 4 4 4 4 7 6 5 5 5 4 4 7 6 5 5 5 5 5 7 6 5 5 5 5 5 7 8 6 6 6 6 6 6 ",
"$ 6 6 6 5 6 6 $ 6 6 5 5 6 7 nX$ 6 5 5 5 5 $ 5 4 5 6 h 5 7 6 4 4 4 4 4 7 6 5 5 5 5 5 7 6 5 5 5 5 5 7 6 5 5 6 5 5 7 8 6 6 6 6 6 6 ",
"$ 6 6 6 6 6 6 8 6 6 5 5 6 6 $ 7 6 5 7 6 5 $ 5 5 6 6 5 6 bX6 4 4 4 4 4 7 6 5 5 5 5 5 7 6 5 5 5 5 5 7 6 5 5 6 5 5 7 8 6 6 6 6 6 7 ",
"$ 6 6 6 6 6 6 8 6 6 6 6 6 6 8 6 5 6 k h 7 $ 6 6 6 6 5 7 k 6 4 5 4 4 4 8 6 6 5 5 5 5 7 6 5 5 5 5 6 7 6 6 5 6 6 6 7 $ 6 6 6 6 6 7 ",
"$ 6 6 6 6 6 6 8 6 6 6 8 7 6 vX6 6 6 7 $ 7 $ 6 6 6 6 5 5 7 6 6 h 6 5 5 $ 8 6 5 5 5 5 8 6 5 6 5 5 6 7 6 6 6 6 6 6 7 $ 6 6 6 6 6 8 ",
"vX8 8 8 7 7 6 8 7 7 7 $ vX$ vX7 8 7 7 vX8 $ 6 bX6 6 6 6 8 7 7 k 6 6 6 vX8 7 6 6 6 6 8 7 6 7 6 6 6 8 7 7 6 7 7 7 8 $ 6 6 6 7 7 $ ",
"q q q q q q vXvXq vXvXq sXmXq q mXq q w mXvXvXaXvXvXvXpXpXsXmXnXvXvXvXvXvXvXvXq vXvXvXvXvXvXvXvXq vXvXvXvXvXvXvXvXvXvXvXvXq w w ",
"vX6 6 6 6 6 bX8 6 6 6 6 7 7 $ k yX6 7 $ yXnX8 yX7 6 6 8 vXbX6 7 5 5 5 8 6 5 6 6 6 6 8 7 6 6 6 6 6 7 6 5 6 6 6 6 8 $ 6 7 6 8 $ vX",
"vX7 7 6 6 6 bX$ 6 6 6 6 6 6 $ h z k k k uXaXyXpXtX$ rXyX$ 7 7 $ 5 6 5 8 6 5 6 5 5 6 8 7 6 6 6 6 6 8 8 6 6 6 6 6 $ $ 6 7 7 8 8 $ ",
"vX7 7 6 6 6 6 $ 6 7 h 6 6 6 $ $ yXyXk l uXsXpXl l yXj yX$ 7 6 6 6 6 6 $ 7 6 6 6 5 5 8 7 6 6 6 6 6 $ 8 6 6 6 6 6 $ $ 6 7 7 7 7 7 ",
"q 8 7 6 6 6 8 $ 8 7 k yXbXk vXaXk yXk k l z z z z z k 8 q yX6 6 6 6 6 $ 7 6 6 6 6 6 8 7 6 6 6 6 6 $ 8 6 6 7 7 7 vX$ 6 6 7 6 6 7 ",
"q $ 8 8 8 8 vXvXtX6 k 8 k j z vXk l k k l z z z z uXyXyXvX7 6 $ $ 6 6 vX7 6 6 6 6 6 $ 7 6 6 6 6 6 $ 8 6 7 $ bX8 vX$ 6 6 6 6 6 8 ",
"vX$ $ $ 8 7 8 $ 6 7 8 7 6 yXkXbXk l k l z z z z l uXyX$ $ bXyXrX7 6 6 $ 7 7 7 8 8 6 $ 8 7 7 6 5 6 $ 8 7 $ pXyX8 vX$ 6 6 6 6 7 8 ",
"vX7 8 $ 8 7 7 vX7 8 bX8 7 h pXyXj k k z z z z z l k yXk pXvX7 6 6 6 6 $ 7 8 8 $ 8 6 $ 8 6 7 6 6 6 $ 8 7 $ 7 7 8 $ $ 7 6 7 6 7 7 ",
"vX8 8 8 8 8 $ vX$ vXnXnXq l z k k z z z z z z z l l pXvXvX$ 7 7 $ 8 7 vX8 8 $ $ 8 7 vX$ 7 8 8 7 7 vX8 7 8 7 8 $ $ vX$ 8 7 7 7 $ ",
"q vXvXvXvXq q vXkXmXq kXsXz z z z k k z z z z z z aXsXkXaXmXnXvXq q vXvXvXvXvXvXvXvXq vXvXvXvXvXvXvXvXvXvXvXvXvXvXvXvXvXvXvXvXvX",
"vX7 6 6 7 8 7 vX7 6 6 bXk k l k l k k z z z z l j pXq uXz 8 tX7 $ 7 6 $ 7 6 6 6 6 7 $ 8 6 7 7 7 6 8 6 6 6 7 6 6 7 vX6 6 7 7 yXbX",
"vX6 6 7 $ vX8 vX7 6 6 yXk h pXpXl k l z z z z l j uXuX7 kX8 h tXbX6 6 $ 7 6 6 6 7 7 $ $ 6 7 tX7 6 $ 7 6 6 7 6 6 7 pX7 6 7 7 7 7 ",
"vX7 7 7 $ $ 7 $ 7 tXj tXk yXaXyXk k z z l z z l j j z k aX8 6 k k 6 7 $ 7 6 6 7 $ vX$ vX7 6 7 6 6 $ 8 h 7 6 6 6 7 $ 7 6 7 7 6 7 ",
"vX8 7 7 8 8 7 vX8 j 8 7 7 bXpXl uXk k z k z z l k k yXbXpX8 6 6 6 7 6 $ 7 7 6 7 $ $ $ k h 6 7 6 6 $ 8 k 8 6 6 6 $ vXtX8 6 6 6 7 ",
"vX$ $ 7 7 6 7 vXj 6 6 6 8 yXkXvX7 k k k j z l k k l k tXpX8 6 6 8 k 6 $ 8 bXyXk bX7 $ nXbX7 7 6 7 $ $ k 7 7 7 6 $ vXyXyX6 6 7 $ ",
"vX$ $ 8 8 7 7 vX7 tXyX$ pXuXvX$ 7 $ uXuXyXk z k k k j yXq bX7 6 7 k 7 vX8 8 j yXh 6 $ $ 7 7 7 8 8 vX8 k 6 k k 6 $ nXh yX7 7 7 $ ",
"vX8 $ vX8 8 8 vX7 6 7 pXpX8 vX$ 8 yXaXpXtXz z k l k yXtXz pX$ 8 7 7 7 vX$ 8 uXj j k $ $ 6 7 7 8 $ nX$ h 8 7 7 tXk pXh j 8 7 6 7 ",
"vX8 8 $ 8 $ $ vX8 8 8 vX$ $ vXvX$ mXkXkXuXz z k l k $ vXaXuX7 $ $ 8 7 vX$ $ pXnX$ 8 vXvX7 7 $ 8 nXpXvXyX$ 8 8 j pXpXyXuX8 8 7 $ ",
"w q q q q q q q q q q q q q w w w w cXsXk z z z sXsXmXq w w q q q w q w q q e z q w mXsXmXq q q w e w mXq q q kXsXpXmXkXz w q q ",
"vX7 8 8 $ $ 8 vX$ $ 8 7 8 $ vXvXvXvXpXaXk z z k z pX$ $ $ 8 7 8 8 $ vXq vX8 8 vXvXvXvXq yX8 8 $ nXq vXvXpXvX8 k l nXj yXtX8 7 7 ",
"q 7 8 8 vXl 8 $ 8 8 8 7 7 8 kXvXvXq z pXk z z k z pX$ $ vX$ 7 7 yX$ $ q vX8 7 8 $ vXmXvXpXuXbX8 vXq vX8 uXuXvXj nXvXj j h bX7 8 ",
"vX7 8 8 $ $ 8 $ 8 7 $ 8 8 8 kXvXvXpXpXuXk z z k l uX$ vXvX$ 7 bXj k 8 vX8 7 8 7 8 $ pXpXuXj uXj yXq $ vXpXl j $ vXvX8 6 6 7 7 8 ",
"vX7 8 8 8 8 7 $ 8 7 bX8 7 yXnX$ $ uXpXuXk z yXl l vX$ $ vX8 7 8 7 8 7 vX8 bXj 7 7 $ pX$ k nXk j j q $ pXyXz yX8 vXuXj 8 7 yX7 8 ",
"vX8 7 7 8 $ 8 $ 8 7 7 7 $ $ vX8 7 k uXpX$ z nXl pX$ 8 8 $ l vXyX7 7 7 vX$ bXj $ 8 7 uX$ pXj yXk uXpXpXpXk l yXvXnXnXyXj k rX7 8 ",
"vX7 7 k $ vX$ vX8 8 $ 8 vX$ vX8 7 vXuXpXvXkXq l kXuX8 7 vXpXyX$ 8 7 7 nXvXvXyXj k k l pXaXl q vXvXkXz z l k k pXpXl h h j j 7 8 ",
"vX8 8 $ $ vXvXvX$ $ vX$ 8 7 vX$ 8 $ pXmXvXkXnXl pX$ 8 8 $ $ 7 tXuXbX8 mXpXuXyXj uXk z kXz z z aXpXz z z uXyXl k l l k k k k 8 8 ",
"vX8 $ 8 8 vXvXvXvX$ $ $ 8 7 vX$ 8 vXpXvX$ z nXk pX$ 8 8 vX$ 7 8 8 $ $ vX$ 8 bXj nXpXz z z z z z l z z l k k k k l z l uXk yX8 8 ",
"q q q vXvXq q q q q q q q q q q q mXz mXkXsXsXz sXq q q q q q w w w q mXmXnXz kXw sXz z z z z sXz z z z z z z z z z z pXk z nXq ",
"q vX$ 8 8 8 $ vXvXvX$ $ vXvXvXvX$ vXpXvXkXz k pXpX$ vXvX$ $ vXvXnXvXnXq pXpXuXpXkXz z z z z z z z z z z z z z z z pXl pXnXpXvXvX",
"q vX$ 8 8 8 $ $ $ $ 8 7 $ vX$ $ $ vXyX$ kXyXk k pXvXvXq vX$ vXnXpXvXq kXz l l z z z z z z z z z z z z z z z aXaXz nXz pXl $ 8 vX",
"q vX$ $ $ 8 $ $ $ 8 8 8 vXvX$ vXvXnXpX$ q pXuXpXpXvXvXq $ $ vXvXnXpXpXpXz l l z z z z z z z z z z z z z z z w q z q pXpXpX$ $ $ ",
"q vX$ $ $ $ $ $ 8 8 k uXvXvXvXvXnXnXpXmXz pXnXpXmXvXvXvX$ $ vXnXpXnXnXpXkXz l z z z z z z z z z z z z z kXkXmXvXz q $ pXpXvXvXvX",
"q vXvX$ vX$ $ $ $ 8 $ $ vXvXvXvXaXnXpXvXsXkXpXpXnX$ vXvX$ vXvXz nXmXw aXkXz z z z z z z z z z z z z z kXkXpXq q pXq $ yXvXvXvXvX",
"q vX$ vXk $ vX$ $ 8 8 $ nXvX$ vXaXvXl vXkXz uXpXvX$ vXq vXnXq pXvXq sXkXz z l z z z z kXaXz kXkXsXsXaXmXmXq kXpXw pX$ pXvX$ vXvX",
"q vX$ $ $ $ vX$ $ 8 8 $ pXvX$ $ pXvXpX$ z z pXvXvX$ vXq vXmXpXnXnXaXsXz z z z z z z kXpXpXpXpXvXz kXmXnXvXvXpXpXmXpXvXq vX8 vXvX",
"q vX$ $ $ $ vXvX$ $ $ $ vXvX$ $ pXnXkX$ z z z pXpXpXpXmXvXvXvXvXpXz z z z z z z z z kXpXuXpXuX$ l q q q nX8 uXpXnXpXnXq $ $ vXq ",
"w q q q q q q q q q q q q q q q kXw sXnXsXw z z z z z sXq q q w sXsXz z z z z z z z kXq kXsXkXq sXmXq w w w kXw mXw w kXw w w q ",
"q vXvXvXvXvXvX$ $ $ vX$ vXq vX$ $ nXz nXpXvXnXpXpXpXkXkXvX$ $ nXpXz z z z z pXpXpXl l nXvXpXpXvXl q vXkXpXpXpXvXvX$ uXpXvXvXvXvX",
"q vXvXvXvXvXq $ $ vXvX$ vXq vXvX$ nXkX$ kXq vX$ nXpXkXsXnX$ $ vXpXkXz sXpXmXkXuXpXvXz vXvXpXl nXz q vXpXq pXuXvXq vXnXq vX$ $ vX",
"q vXvXvXvXvXq $ $ vXvX$ vXq vX$ $ q kXvXsXq vXvXvXnXsXsXmXnX$ $ vXpXsXw mXnXpXpXpXpXsXnXq pXl vXz q vXkXvXq $ $ mX$ $ vXvX$ vXvX",
"q q q vXvXvXq vX$ $ $ $ vXq vXvXvXmXaXvXkXnXvX$ vXvXnXsXaXpX$ $ vXpXw w vXvXpXnXpXvXq nXq z z pXpXq vXl nXnX$ vXpX$ $ vXvXvXvXvX",
"q q vXvXvXvXq vXvXvXvX$ vXq vXvXvXvXvXvXkXnXvX$ $ $ q sXpXnXvXvXpXnXmXw vXvXnXnXpXvXmXnXpXz z pXpXq vXkXpXpXvXvXpX$ vXvXvXvXq q ",
"q vXvXvXvXvXq vXvXvXvXvXvXq vXvXvXvXvXmXkXnXvXvXvXvXz sXpXpXvXvXz vXmXq vXnXnXuXpXvXmXnXpXvXvXpXpXq vXpXpXpXnXvXkXnXvXvXvX$ vXq ",
"q vXvXvXvXvXq vXvXvXvXvXvXq vXvXvXvX$ q sXw nXq vXvXpXsXkXpXvXvXq vXmXpXvXnXnXuXpXq mXnXuXvXvXvXvXq vXq aXpXnXvXkXnXvXvXvX$ vXq ",
"q vXvXvXvXq q vXvXvXvXvXvXq vXvXvX$ $ vXsXq vXvXvXvXpXkXaXmXvXvXvXvXmXkXvXq vXvXvXvXw nXpX$ vXvXvXmXnXvXq pXq vXkXnXvXvX$ $ vXq ",
"w w w w w w w q w w w q q q w q q q q mXsXw mXq q w kXcXe w q q q w cXsXq e q q w w e mXkXq q q w w kXq w sXe q kXmXq q q q q q ",
"q q q q q q w w vXvXvXvXvXvXvXvXvXvXvXmXz mXq vXvXvXkXkXmXvXvXpXvXq mXkXq kXq vXq q w vXnXq vXvXz vXvXvXvXnXq vXvXq q q q q q q ",
"q q q vXvXq w w vX$ $ vXvXvXvXvXvXvXvXvXsXq vX$ vXvXpXkXmXvXq pXq q nXkXq sXq q q w sXq vXvXvXvXvXvXvXvXvXvXk $ vXq q q vXvXq q ",
"w w q vXq q w w q vX$ vXvXvXq vXvX$ vXvXsXq pXpXvXvXkXmXq q q w vXq mXw w sXq q q w sXq q vXvX$ vXvXq vXvXvXk vXq q q q q vXq w ",
"w w q vXq q w w q vXvXvXvXvXq vXvXvXvXvXkXw sXmXvXmXkXw w q kXw q q q w w sXq q q q sXw q vXvXvXvXvXq vXvXvXpXvXq q q q q vXq w ",
"w q vXvXq q w w q vXvXvXvXvXq q vXq vXvXkXw w kXmXkXkXq w mXz mXq q q w w z q vXq w sXw q vXvXq vXw w vXvXvXpXvXq q q q q vXvXq ",
"w vXvXvXvXq q w q q q vXvXvXq q w w w q kXw q sXw kXz sXw q q q q q q w w z q q w w sXw q q w w w kXkXvXvXvXkXq q w q q vXvXvXvX",
"w vXvXvXvXvXq q q q q vXvXq w w w q q q kXq q vXkXw w kXsXq q vXq q q w q z q q w q sXq q q w q w sXsXq vXvXkXq q w q vXvXvXvXvX",
"w vXvXvXvXvXvXq q vXq q q q w w q q mXmXmXw kXz z z z kXz q q vXvXq q w q q q q vXq q w q q q q w w w q q q q vXq q vXvXvXvXvXvX",
"w q q vXq q q q q q q w w w w w w mXmXmXmXw w e e w kXz w w q q q q w w q q q q vXq w w q q q q w w w w w w q w q q w q q vXq q "
};
